<?xml version="1.0" encoding="utf-8"?>
<!-- Generator: Adobe Illustrator 22.1.0, SVG Export Plug-In . SVG Version: 6.00 Build 0)  -->
<svg version="1.1" id="Layer_1" xmlns="http://www.w3.org/2000/svg" xmlns:xlink="http://www.w3.org/1999/xlink" x="0px" y="0px"
	 viewBox="0 0 124.9 122.4" style="enable-background:new 0 0 124.9 122.4;" xml:space="preserve">
<style type="text/css">
	.st0{fill:#6A239B;}
	.st1{fill:#FFBE32;}
	.st2{fill:#DEDEDE;}
	.st3{fill:#622B86;}
	.st4{fill:#EDA328;}
	.st5{fill:#842DBC;}
	.st6{fill:#F7D245;}
	.st7{fill:#A940E5;}
	.st8{fill:#FAD843;}
</style>
<title>Asset 9</title>
<g>
	<rect x="28.1" y="57.7" class="st0" width="89.8" height="63.7"/>
	<rect x="71.9" y="57.7" class="st1" width="9.3" height="63.7"/>
	<rect x="28.1" y="57.7" class="st2" width="89.8" height="6.7"/>
	<polygon class="st3" points="5,109.7 28.1,121.4 28.1,57.7 5,46 	"/>
	<polygon class="st2" points="28.1,58.2 28.1,64.5 5,52.7 5,46.4 	"/>
	<polygon class="st4" points="16.8,52 16.8,115.7 14.4,114.5 14.4,50.8 	"/>
	<rect x="26.8" y="32.4" class="st5" width="93.9" height="27.2"/>
	<rect x="70.2" y="32.4" class="st6" width="9.3" height="27.2"/>
	<polygon class="st0" points="2.6,47.4 26.8,59.6 26.8,32.4 2.6,20.2 	"/>
	<polygon class="st1" points="15.6,26.8 15.6,54 13.2,52.7 13.2,25.6 	"/>
	<polygon class="st7" points="120.7,32.4 26.8,32.4 15.6,26.8 13.2,25.6 2.6,20.2 93.8,20.2 105.6,25.6 108.2,26.8 	"/>
	<polygon class="st8" points="108.2,26.8 15.6,26.8 13.2,25.6 105.6,25.6 	"/>
	<g>
		<polygon class="st8" points="52.7,20.2 43.4,20.2 70.2,32.4 79.5,32.4 		"/>
	</g>
	<g>
		<g>
			<g>
				<g>
					<path class="st6" d="M101.6,22.8c-1.6,1.9-4.7,4.1-4.7,4.1H63.4c0,0,13.2-30.9,29-25.6c0.8,0.3,1.6,0.6,2.4,1.1
						c3.2,2.9-0.4,8.4,2.8,12C100.8,18.1,103.3,20.9,101.6,22.8z"/>
					<path class="st4" d="M80,16.3c-5.7,6.1-11.3,10.2-12.4,9.2c-1.1-1,2.7-6.8,8.4-12.9S87.4,2.4,88.5,3.4
						C89.5,4.4,85.8,10.2,80,16.3z"/>
				</g>
				<g>
					<path class="st6" d="M64.1,26.9H30.6c0,0-3.1-2.2-4.7-4.1c-1.6-1.9,0.9-4.7,4.1-8.4c2.8-3.1,0.5-7.6,1.8-10.6
						c0.2-0.5,0.5-1,1-1.4C49.5-7.2,64.1,26.9,64.1,26.9z"/>
					<path class="st4" d="M47.5,16.3c5.7,6.1,11.3,10.2,12.4,9.2c1.1-1-2.7-6.8-8.4-12.9S40.2,2.4,39.1,3.4
						C38,4.4,41.8,10.2,47.5,16.3z"/>
				</g>
			</g>
			<path class="st4" d="M72.8,22.8v1.6c0,1.3-1.1,2.4-2.4,2.4H57.2c-1.3,0-2.4-1.1-2.4-2.4v-1.6c0-0.2,0-0.3,0-0.5c0,0,0,0,0,0
				c0.2-1.1,1.2-1.9,2.4-1.9h13.2c1.2,0,2.1,0.8,2.4,1.9c0,0,0,0,0,0C72.8,22.5,72.8,22.7,72.8,22.8z"/>
			<path class="st6" d="M72.8,22.4C72.8,22.4,72.8,22.4,72.8,22.4c-0.2,1.1-1.2,2-2.4,2H57.2c-1.2,0-2.2-0.8-2.4-1.9c0,0,0,0,0,0
				c0.2-1.1,1.2-1.9,2.4-1.9h13.2C71.5,20.4,72.5,21.3,72.8,22.4z"/>
		</g>
		<path class="st1" d="M101.6,22.8c-1.6,1.9-4.7,4.1-4.7,4.1H74.9c0.6-0.6,1.3-1.2,2-1.6c2.6-1.5,5.7-1.9,8.7-2.6
			c3.3-0.8,6.9-2.6,7.8-5.9c0.3-1.2,0.2-2.5,0.1-3.7c-0.3-3.9-0.7-7.8-1-11.8c0.8,0.3,1.6,0.6,2.4,1.1c3.2,2.9-0.4,8.4,2.8,12
			C100.8,18.1,103.3,20.9,101.6,22.8z"/>
		<path class="st1" d="M56.4,26.9H30.6c0,0-3.1-2.2-4.7-4.1c-1.6-1.9,0.9-4.7,4.1-8.4c2.8-3.1,0.5-7.6,1.8-10.6
			c0.5,1.8,1,3.7,1.4,5.5c0.6,2.3,1.2,4.6,2.2,6.7c2.8,5.7,9,9.5,15.3,9.5c1.3,0,2.5-0.1,3.7,0.2C55.3,25.8,56,26.3,56.4,26.9z"/>
	</g>
</g>
</svg>
