<?xml version="1.0" encoding="utf-8"?>
<!-- Generator: Adobe Illustrator 22.1.0, SVG Export Plug-In . SVG Version: 6.00 Build 0)  -->
<svg version="1.1" id="Layer_1" xmlns="http://www.w3.org/2000/svg" xmlns:xlink="http://www.w3.org/1999/xlink" x="0px" y="0px"
	 viewBox="0 0 124.9 122.4" style="enable-background:new 0 0 124.9 122.4;" xml:space="preserve">
<style type="text/css">
	.st0{fill:#FABB22;}
	.st1{fill:#FFEB93;}
	.st2{fill:#705EE4;}
	.st3{fill:#DF9220;}
	.st4{fill:#F8D73A;}
	.st5{fill:#B499FF;}
</style>
<title>Asset 9</title>
<g>
	<g>
		<polygon class="st0" points="124.2,42.1 124.2,93.5 73.6,110.7 73.6,59.3 		"/>
		<g>
			<polygon class="st1" points="78.5,67.8 74.6,70.9 73.6,75.8 73.6,61 73.6,60.8 74.7,66.9 			"/>
			<polygon class="st1" points="91.6,61.1 95.5,62 91.6,65.1 90.2,71.8 89.1,65.7 85.3,64.8 89.2,61.8 90.6,55 			"/>
			<polygon class="st1" points="108.6,55.3 112.5,56.3 108.5,59.3 107.2,66.1 106.1,60 102.3,59.1 106.2,56 107.6,49.2 			"/>
			<polygon class="st1" points="124.2,45.3 124.2,60.1 124.1,60.3 123.1,54.2 119.2,53.3 123.2,50.2 			"/>
		</g>
		<g>
			<polygon class="st1" points="83.4,91.6 87.2,92.5 83.3,95.5 81.9,102.1 80.9,96.1 77.1,95.2 81,92.2 82.3,85.5 			"/>
			<polygon class="st1" points="100.1,85.9 103.9,86.8 100,89.8 98.7,96.4 97.6,90.4 93.8,89.5 97.7,86.5 99.1,79.8 			"/>
			<polygon class="st1" points="116.9,80.2 120.7,81.1 116.8,84.1 115.4,90.7 114.4,84.7 110.6,83.8 114.5,80.8 115.8,74.1 			"/>
		</g>
		<polygon class="st2" points="101.2,101.3 96.6,102.9 96.6,51.5 101.2,49.9 		"/>
	</g>
	<g>
		<polygon class="st3" points="0.9,38.6 0.9,90 73.6,110.7 73.6,59.3 		"/>
		<g>
			<polygon class="st1" points="66.5,67.5 72.2,70.8 73.6,75.8 73.6,61 73.5,60.8 72,66.8 			"/>
			<polygon class="st1" points="47.7,59.9 42.1,60.5 47.8,63.9 49.7,70.7 51.3,64.7 56.8,64 51.1,60.7 49.2,53.9 			"/>
			<polygon class="st1" points="23.3,53 17.7,53.6 23.4,56.9 25.4,63.8 26.9,57.7 32.4,57.1 26.7,53.8 24.8,46.9 			"/>
			<polygon class="st1" points="0.9,41.9 0.9,56.6 1,56.8 2.5,50.8 8,50.2 2.3,46.8 			"/>
		</g>
		<g>
			<polygon class="st1" points="59.6,90.9 54.1,91.5 59.7,94.8 61.6,101.6 63.1,95.6 68.6,95 63,91.7 61,84.9 			"/>
			<polygon class="st1" points="35.5,84 30,84.7 35.6,88 37.6,94.7 39,88.8 44.5,88.1 38.9,84.9 37,78.1 			"/>
			<polygon class="st1" points="11.4,77.2 6,77.8 11.6,81.1 13.5,87.9 15,81.9 20.4,81.3 14.8,78 12.9,71.2 			"/>
		</g>
		<polygon class="st2" points="34,99.4 40.5,101.3 40.5,49.9 34,48 		"/>
	</g>
	<polygon class="st4" points="124.2,42.1 101.2,49.9 96.6,51.5 73.6,59.3 40.5,49.9 34,48 0.9,38.6 32.9,31.3 38.2,30.1 54.1,26.5 
		78.9,32 85.5,33.5 	"/>
	<polygon class="st5" points="101.2,49.9 96.6,51.5 32.9,31.3 38.2,30.1 	"/>
	<polygon class="st5" points="85.5,33.5 40.5,49.9 34,48 78.9,32 	"/>
	<g>
		<g>
			<g>
				<path class="st2" d="M63.7,40.3c0,0,2.5-23.3,13.8-20.3c11.3,2.9,0,14.5,0,14.5s2-9-2-9.4S65.7,32.9,63.7,40.3z"/>
				<g>
					<path class="st2" d="M86.1,42.3l-6.8,4.8c0,0-10.1-2-15.7-6.8l6.3-2.9C69.9,37.5,78.3,42,86.1,42.3z"/>
					<path class="st5" d="M63.7,40.3c0,0,24.7-16,29.3-7.7c4.5,8.2,0.8,11.2-1.9,12.1c-2.7,0.9-11.7,2.4-11.7,2.4s4.2-9.1-0.5-11.4
						c-1.1-0.5-2.3-0.4-3.4,0L63.7,40.3z"/>
				</g>
			</g>
			<g>
				<g>
					<path class="st5" d="M41.2,42.3l6.8,4.8c0,0,10.1-2,15.7-6.8l-6.3-2.9C57.4,37.5,49,42,41.2,42.3z"/>
				</g>
				<path class="st5" d="M63.7,40.3c0,0-2.5-23.3-13.8-20.3s0,14.5,0,14.5s-2-9,2-9.4S61.7,32.9,63.7,40.3z"/>
			</g>
		</g>
		<path class="st2" d="M63.7,40.3c0,0-24.7-16-29.3-7.7c-4.5,8.2-0.8,11.2,1.9,12.1c2.7,0.9,11.7,2.4,11.7,2.4s-4.2-9.1,0.5-11.4
			c1.1-0.5,2.3-0.4,3.4,0L63.7,40.3z"/>
	</g>
</g>
</svg>
