<?xml version="1.0" encoding="utf-8"?>
<!-- Generator: Adobe Illustrator 22.1.0, SVG Export Plug-In . SVG Version: 6.00 Build 0)  -->
<svg version="1.1" id="Layer_1" xmlns="http://www.w3.org/2000/svg" xmlns:xlink="http://www.w3.org/1999/xlink" x="0px" y="0px"
	 viewBox="0 0 124.9 122.4" style="enable-background:new 0 0 124.9 122.4;" xml:space="preserve">
<style type="text/css">
	.st0{fill:#DF2854;}
	.st1{fill:#F7D245;}
	.st2{fill:#C4234A;}
	.st3{fill:#EDA328;}
	.st4{fill:#FFBE32;}
	.st5{fill:#ED426B;}
	.st6{fill:#FF6389;}
	.st7{fill:#FAD843;}
	.st8{fill:#DEDEDE;}
</style>
<title>Asset 9</title>
<g>
	<polygon class="st0" points="118.7,38.6 118.7,94.9 70.4,121.4 70.4,59.7 	"/>
	<g>
		<g>
			<g>
				<polygon class="st1" points="79,56.1 77.6,59.1 74.5,60.7 76.9,61.8 76.4,64.8 79.2,62.3 81.9,62.5 81.3,60 83.5,57.3 
					80.4,58.1 				"/>
				<polygon class="st1" points="98.6,48.7 97.5,51.5 94.8,52.9 96.8,54 96.4,56.7 98.8,54.5 101.2,54.8 100.7,52.5 102.5,49.9 
					99.9,50.6 				"/>
				<polygon class="st1" points="118.7,44.3 117.6,45.8 118.1,48 115.9,47.7 113.9,49.7 114.2,47.2 112.4,46.1 114.8,44.9 
					115.8,42.3 116.9,44.1 118.7,43.6 				"/>
			</g>
			<g>
				<polygon class="st1" points="72.5,79.5 73.3,82.6 70.4,82 70.4,76.2 71.5,77.5 74.3,77.1 				"/>
				<polygon class="st1" points="90.8,66.6 89.6,69.5 86.7,71.2 88.9,72.1 88.5,75 91,72.6 93.6,72.7 93,70.3 95,67.6 92.2,68.4 
									"/>
				<polygon class="st1" points="109,58.8 107.9,61.5 105.4,63 107.3,63.9 106.9,66.6 109.1,64.4 111.4,64.6 110.9,62.3 112.6,59.8 
					110.1,60.6 				"/>
			</g>
		</g>
		<g>
			<g>
				<polygon class="st1" points="79.9,87.2 78.6,90.3 75.5,92.3 77.8,93.1 77.4,96.1 80.1,93.4 82.9,93.3 82.3,90.9 84.4,87.9 
					81.4,89 				"/>
				<polygon class="st1" points="99.5,77.7 98.4,80.6 95.7,82.3 97.7,83.1 97.3,85.9 99.7,83.5 102,83.5 101.5,81.2 103.4,78.5 
					100.7,79.4 				"/>
				<polygon class="st1" points="118.7,72.2 118.3,72.8 118.7,74.4 118.7,74.9 116.7,74.9 114.6,77.1 114.9,74.5 113.2,73.6 
					115.6,72.1 116.5,69.4 117.6,71.1 118.7,70.7 				"/>
			</g>
			<g>
				<polygon class="st1" points="73.5,111.2 74.1,113.7 71.2,113.2 70.4,113.9 70.4,108.9 71,107.6 72.5,109.3 75.7,108 				"/>
				<polygon class="st1" points="91.7,96.4 90.5,99.4 87.7,101.4 89.8,102.1 89.4,105 91.9,102.3 94.4,102.1 93.9,99.8 95.8,96.9 
					93.1,98.1 				"/>
				<polygon class="st1" points="109.8,86.7 108.7,89.5 106.2,91.2 108.1,91.9 107.7,94.6 109.9,92.2 112.1,92.1 111.6,90 
					113.3,87.3 110.9,88.3 				"/>
			</g>
		</g>
	</g>
	<polygon class="st2" points="70.4,59.7 70.4,121.4 5.4,108 5.4,46.4 	"/>
	<polygon class="st0" points="1,45.5 70.4,59.7 70.4,40.7 1,26.4 	"/>
	<polygon class="st3" points="29.1,51.3 29.1,112.9 43.4,115.8 43.4,54.2 	"/>
	<polygon class="st4" points="29.1,32.2 29.1,51.3 43.4,54.2 43.4,35.1 	"/>
	<polygon class="st5" points="121.7,37.3 70.4,59.7 70.4,40.7 121.7,19.9 	"/>
	<polygon class="st4" points="102.1,45.8 102.1,104 91.6,109.8 91.6,50.5 	"/>
	<polygon class="st1" points="102.1,27.9 102.1,45.8 91.6,50.5 91.6,32.1 	"/>
	<polygon class="st6" points="121.7,19.9 102.1,27.9 102.1,27.9 91.6,32.1 91.6,32.1 70.4,40.7 43.4,35.1 43.4,35.1 29.1,32.2 
		1,26.4 28,17.7 38.8,14.2 59.5,7.5 73.9,10.3 89.1,13.4 	"/>
	<polygon class="st7" points="102.1,27.9 91.6,32.1 91.6,32.1 63.3,25.7 63.3,25.7 49,22.4 28,17.7 38.8,14.2 57.6,18.3 72.3,21.4 	
		"/>
	<polygon class="st7" points="89.1,13.4 72.3,21.4 63.3,25.7 43.4,35.1 43.4,35.1 29.1,32.2 49,22.4 57.6,18.3 73.9,10.3 	"/>
	<g>
		<g>
			<g>
				<polygon class="st1" points="61.1,61.1 62.3,63.8 65.1,64.7 63.1,66.3 63.6,69 61.1,67.3 58.6,68.1 59.1,65.5 57,63.2 
					59.8,63.4 				"/>
				<polygon class="st1" points="42.1,57.6 43.4,60.3 46.1,61.2 44.1,62.7 44.6,65.5 42.1,63.7 39.7,64.5 40.1,62 38.2,59.7 
					40.9,59.8 				"/>
				<polygon class="st1" points="23.6,54.2 24.8,56.8 27.5,57.7 25.5,59.2 26,62 23.6,60.3 21.1,61.1 21.6,58.5 19.7,56.3 
					22.4,56.4 				"/>
				<polygon class="st1" points="7.3,55.8 7.7,58.5 5.4,56.9 5.4,51 6.5,53.5 9.2,54.3 				"/>
			</g>
			<g>
				<polygon class="st1" points="50.3,74.3 51.6,77 54.4,77.9 52.4,79.4 52.8,82.2 50.3,80.4 47.9,81.2 48.3,78.6 46.3,76.3 
					49.1,76.5 				"/>
				<polygon class="st1" points="31.6,70.7 32.8,73.3 35.5,74.2 33.6,75.7 34,78.5 31.6,76.7 29.2,77.5 29.6,75 27.7,72.7 
					30.4,72.8 				"/>
				<polygon class="st1" points="13.2,67.1 14.4,69.8 17.1,70.7 15.2,72.1 15.6,74.8 13.2,73.1 10.9,73.9 11.3,71.4 9.4,69.2 
					12.1,69.3 				"/>
			</g>
		</g>
		<g>
			<g>
				<polygon class="st1" points="61.1,91.9 62.3,94.6 65.1,95.5 63.1,97 63.6,99.8 61.1,98 58.6,98.8 59.1,96.2 57,93.9 59.8,94.1 
									"/>
				<polygon class="st1" points="42.1,88.1 43.4,90.7 46.1,91.7 44.1,93.2 44.6,95.9 42.1,94.2 39.7,94.9 40.1,92.4 38.2,90.1 
					40.9,90.2 				"/>
				<polygon class="st1" points="23.6,84.3 24.8,87 27.5,87.9 25.5,89.4 26,92.1 23.6,90.4 21.1,91.1 21.6,88.6 19.7,86.3 
					22.4,86.5 				"/>
				<polygon class="st1" points="7.3,85.7 7.7,88.4 5.4,86.7 5.4,80.8 6.5,83.3 9.2,84.2 				"/>
			</g>
			<g>
				<polygon class="st1" points="50.3,104.8 51.6,107.5 54.4,108.5 52.4,110 52.8,112.8 50.3,111 47.9,111.7 48.3,109.1 46.3,106.8 
					49.1,107 				"/>
				<polygon class="st1" points="31.6,100.9 32.8,103.6 35.5,104.5 33.6,106 34,108.8 31.6,107 29.2,107.7 29.6,105.2 27.7,102.9 
					30.4,103.1 				"/>
				<polygon class="st1" points="13.2,97.1 14.4,99.7 17.1,100.7 15.2,102.1 15.6,104.8 13.2,103.1 10.9,103.8 11.3,101.3 9.4,99 
					12.1,99.2 				"/>
			</g>
		</g>
	</g>
	<polygon class="st1" points="70.4,76.2 69.6,77.7 66.6,77.8 68.5,79.6 68,83 70.4,82 	"/>
	<polygon class="st1" points="71,107.6 70.2,109.8 67.7,109.2 69.3,111.5 68.9,115.8 70.4,113.9 71.3,112.8 	"/>
	<polygon class="st8" points="118.7,38.6 118.7,46.7 70.4,67.8 70.4,59.7 	"/>
	<polygon class="st8" points="70.4,59.7 70.4,67.7 5.4,54.4 5.4,46.4 	"/>
	<g>
		<g>
			<g>
				<path class="st3" d="M63.1,20.9c0,0,2.5-22.8,13.5-19.9c11.1,2.9,0,14.2,0,14.2s2-8.8-2-9.2C70.8,5.6,65,13.7,63.1,20.9z"/>
				<g>
					<path class="st3" d="M85.1,22.9l-6.6,4.7c0,0-9.9-2-15.3-6.6l6.1-2.8C69.2,18.1,77.4,22.6,85.1,22.9z"/>
					<path class="st4" d="M63.1,20.9c0,0,24.2-15.6,28.6-7.5c4.4,8.1,0.8,10.9-1.8,11.8c-2.6,0.9-11.4,2.3-11.4,2.3
						s4.1-8.9-0.5-11.1c-1-0.5-2.3-0.4-3.3,0L63.1,20.9z"/>
				</g>
			</g>
			<g>
				<g>
					<path class="st4" d="M41.1,22.9l6.6,4.7c0,0,9.9-2,15.3-6.6L57,18.1C57,18.1,48.8,22.6,41.1,22.9z"/>
				</g>
				<path class="st4" d="M63.1,20.9c0,0-2.5-22.8-13.5-19.9s0,14.2,0,14.2s-2-8.8,2-9.2C55.4,5.6,61.1,13.7,63.1,20.9z"/>
			</g>
		</g>
		<path class="st3" d="M63.1,20.9c0,0-24.2-15.6-28.6-7.5c-4.4,8.1-0.8,10.9,1.8,11.8c2.6,0.9,11.4,2.3,11.4,2.3s-4.1-8.9,0.5-11.1
			c1-0.5,2.3-0.4,3.3,0L63.1,20.9z"/>
	</g>
</g>
</svg>
