<?xml version="1.0" encoding="utf-8"?>
<!-- Generator: Adobe Illustrator 22.1.0, SVG Export Plug-In . SVG Version: 6.00 Build 0)  -->
<svg version="1.1" id="Layer_1" xmlns="http://www.w3.org/2000/svg" xmlns:xlink="http://www.w3.org/1999/xlink" x="0px" y="0px"
	 viewBox="0 0 124.9 122.4" style="enable-background:new 0 0 124.9 122.4;" xml:space="preserve">
<style type="text/css">
	.st0{fill:#408BB5;}
	.st1{fill:#DEDEDE;}
	.st2{fill:#C9F0FF;}
	.st3{fill:#5EC4EA;}
	.st4{fill:#AF4142;}
	.st5{fill:#822925;}
	.st6{fill:#8AEBFF;}
	.st7{fill:#BF5A5F;}
	.st8{fill:#963839;}
	.st9{fill:#70D8FF;}
</style>
<title>Asset 9</title>
<g>
	<polygon class="st0" points="3.3,110 25.9,121.4 25.9,59.1 3.3,47.7 	"/>
	<polygon class="st1" points="25.9,60.9 25.9,67.9 3.3,56.5 3.3,49.4 	"/>
	<g>
		<g>
			<path class="st2" d="M23,68.8c0-0.4-2.7-1.9-6.2-3.6c1.8-1.1,3-2.1,2.8-2.4c-0.2-0.3-1.7,0.2-3.6,1.1c-0.1-3.6-0.4-6.4-0.8-6.6
				c-0.4-0.2-0.7,2.3-0.8,5.8c-1.9-2.7-3.4-4.5-3.6-4.4c-0.2,0.1,1,2.2,2.8,4.9c-3.5-1.6-6.2-2.5-6.2-2.1c0,0.4,2.7,1.9,6.2,3.6
				c-1.8,1.1-3,2.1-2.8,2.4c0.2,0.3,1.7-0.2,3.6-1.1c0.1,3.6,0.4,6.4,0.8,6.6c0.4,0.2,0.7-2.3,0.8-5.8c1.9,2.7,3.4,4.5,3.6,4.4
				c0.2-0.1-1-2.2-2.8-4.9C20.4,68.3,23,69.2,23,68.8z"/>
		</g>
		<g>
			<path class="st2" d="M23,112.3c0-0.4-2.7-1.9-6.2-3.6c1.8-1.1,3-2.1,2.8-2.4s-1.7,0.2-3.6,1.1c-0.1-3.6-0.4-6.4-0.8-6.6
				c-0.4-0.2-0.7,2.3-0.8,5.8c-1.9-2.7-3.4-4.5-3.6-4.4c-0.2,0.1,1,2.2,2.8,4.9c-3.5-1.6-6.2-2.5-6.2-2.1s2.7,1.9,6.2,3.6
				c-1.8,1.1-3,2.1-2.8,2.4c0.2,0.3,1.7-0.2,3.6-1.1c0.1,3.6,0.4,6.4,0.8,6.6c0.4,0.2,0.7-2.3,0.8-5.8c1.9,2.7,3.4,4.5,3.6,4.4
				c0.2-0.1-1-2.2-2.8-4.9C20.4,111.7,23,112.6,23,112.3z"/>
		</g>
		<g>
			<path class="st2" d="M12,85.6c0-0.4-2.7-1.9-6.2-3.6c1.8-1.1,3-2.1,2.8-2.4c-0.2-0.3-1.7,0.2-3.6,1.1c-0.1-3.6-0.4-6.4-0.8-6.6
				c-0.4-0.2-0.7,2.3-0.8,5.8c0,0,0,0,0,0v3.3c0,0,0,0,0,0c0.1,3.6,0.4,6.4,0.8,6.6C4.5,90,4.9,87.5,4.9,84c1.9,2.7,3.4,4.5,3.6,4.4
				c0.2-0.1-1-2.2-2.8-4.9C9.4,85,12,85.9,12,85.6z"/>
			<path class="st2" d="M25.9,84.1C25.9,84.1,25.9,84.1,25.9,84.1c-0.4-0.2-0.7,2.3-0.8,5.8c-1.9-2.7-3.4-4.5-3.6-4.4
				c-0.2,0.1,1,2.2,2.8,4.9c-3.5-1.6-6.2-2.5-6.2-2.1s2.7,1.9,6.2,3.6c-1.8,1.1-3,2.1-2.8,2.4c0.2,0.3,1.7-0.2,3.6-1.1
				c0.1,3.6,0.4,6.4,0.8,6.6c0,0,0,0,0,0V84.1z"/>
		</g>
	</g>
	<rect x="25.9" y="59.1" class="st3" width="87.8" height="62.3"/>
	<g>
		<g>
			<path class="st2" d="M44.8,70.1c0-0.4-2.7-0.7-6.2-0.8c1.8-1.9,3-3.4,2.8-3.6c-0.2-0.2-1.7,1-3.6,2.8c-0.1-3.5-0.4-6.2-0.8-6.2
				c-0.4,0-0.7,2.7-0.8,6.2c-1.9-1.8-3.4-3-3.6-2.8c-0.2,0.2,1,1.7,2.8,3.6c-3.5,0.1-6.2,0.4-6.2,0.8c0,0.4,2.7,0.7,6.2,0.8
				c-1.8,1.9-3,3.4-2.8,3.6c0.2,0.2,1.7-1,3.6-2.8c0.1,3.5,0.4,6.2,0.8,6.2c0.4,0,0.7-2.7,0.8-6.2c1.9,1.8,3.4,3,3.6,2.8
				c0.2-0.2-1-1.7-2.8-3.6C42.1,70.8,44.8,70.5,44.8,70.1z"/>
			<path class="st2" d="M66.8,70.1c0-0.4-2.7-0.7-6.2-0.8c1.8-1.9,3-3.4,2.8-3.6c-0.2-0.2-1.7,1-3.6,2.8c-0.1-3.5-0.4-6.2-0.8-6.2
				c-0.4,0-0.7,2.7-0.8,6.2c-1.9-1.8-3.4-3-3.6-2.8c-0.2,0.2,1,1.7,2.8,3.6c-3.5,0.1-6.2,0.4-6.2,0.8c0,0.4,2.7,0.7,6.2,0.8
				c-1.8,1.9-3,3.4-2.8,3.6c0.2,0.2,1.7-1,3.6-2.8c0.1,3.5,0.4,6.2,0.8,6.2c0.4,0,0.7-2.7,0.8-6.2c1.9,1.8,3.4,3,3.6,2.8
				c0.2-0.2-1-1.7-2.8-3.6C64.1,70.8,66.8,70.5,66.8,70.1z"/>
			<path class="st2" d="M88.8,70.1c0-0.4-2.7-0.7-6.2-0.8c1.8-1.9,3-3.4,2.8-3.6c-0.2-0.2-1.7,1-3.6,2.8c-0.1-3.5-0.4-6.2-0.8-6.2
				s-0.7,2.7-0.8,6.2c-1.9-1.8-3.4-3-3.6-2.8c-0.2,0.2,1,1.7,2.8,3.6c-3.5,0.1-6.2,0.4-6.2,0.8c0,0.4,2.7,0.7,6.2,0.8
				c-1.8,1.9-3,3.4-2.8,3.6c0.2,0.2,1.7-1,3.6-2.8c0.1,3.5,0.4,6.2,0.8,6.2s0.7-2.7,0.8-6.2c1.9,1.8,3.4,3,3.6,2.8
				c0.2-0.2-1-1.7-2.8-3.6C86.1,70.8,88.8,70.5,88.8,70.1z"/>
			<path class="st2" d="M110.8,70.1c0-0.4-2.7-0.7-6.2-0.8c1.8-1.9,3-3.4,2.8-3.6c-0.2-0.2-1.7,1-3.6,2.8c-0.1-3.5-0.4-6.2-0.8-6.2
				c-0.4,0-0.7,2.7-0.8,6.2c-1.9-1.8-3.4-3-3.6-2.8s1,1.7,2.8,3.6c-3.5,0.1-6.2,0.4-6.2,0.8c0,0.4,2.7,0.7,6.2,0.8
				c-1.8,1.9-3,3.4-2.8,3.6c0.2,0.2,1.7-1,3.6-2.8c0.1,3.5,0.4,6.2,0.8,6.2c0.4,0,0.7-2.7,0.8-6.2c1.9,1.8,3.4,3,3.6,2.8
				c0.2-0.2-1-1.7-2.8-3.6C108.2,70.8,110.8,70.5,110.8,70.1z"/>
		</g>
		<g>
			<path class="st2" d="M44.8,113.6c0-0.4-2.7-0.7-6.2-0.8c1.8-1.9,3-3.4,2.8-3.6c-0.2-0.2-1.7,1-3.6,2.8c-0.1-3.5-0.4-6.2-0.8-6.2
				c-0.4,0-0.7,2.7-0.8,6.2c-1.9-1.8-3.4-3-3.6-2.8c-0.2,0.2,1,1.7,2.8,3.6c-3.5,0.1-6.2,0.4-6.2,0.8c0,0.4,2.7,0.7,6.2,0.8
				c-1.8,1.9-3,3.4-2.8,3.6c0.2,0.2,1.7-1,3.6-2.8c0.1,3.5,0.4,6.2,0.8,6.2c0.4,0,0.7-2.7,0.8-6.2c1.9,1.8,3.4,3,3.6,2.8
				c0.2-0.2-1-1.7-2.8-3.6C42.1,114.3,44.8,114,44.8,113.6z"/>
			<path class="st2" d="M66.8,113.6c0-0.4-2.7-0.7-6.2-0.8c1.8-1.9,3-3.4,2.8-3.6c-0.2-0.2-1.7,1-3.6,2.8c-0.1-3.5-0.4-6.2-0.8-6.2
				c-0.4,0-0.7,2.7-0.8,6.2c-1.9-1.8-3.4-3-3.6-2.8c-0.2,0.2,1,1.7,2.8,3.6c-3.5,0.1-6.2,0.4-6.2,0.8c0,0.4,2.7,0.7,6.2,0.8
				c-1.8,1.9-3,3.4-2.8,3.6c0.2,0.2,1.7-1,3.6-2.8c0.1,3.5,0.4,6.2,0.8,6.2c0.4,0,0.7-2.7,0.8-6.2c1.9,1.8,3.4,3,3.6,2.8
				c0.2-0.2-1-1.7-2.8-3.6C64.1,114.3,66.8,114,66.8,113.6z"/>
			<path class="st2" d="M88.8,113.6c0-0.4-2.7-0.7-6.2-0.8c1.8-1.9,3-3.4,2.8-3.6c-0.2-0.2-1.7,1-3.6,2.8c-0.1-3.5-0.4-6.2-0.8-6.2
				s-0.7,2.7-0.8,6.2c-1.9-1.8-3.4-3-3.6-2.8c-0.2,0.2,1,1.7,2.8,3.6c-3.5,0.1-6.2,0.4-6.2,0.8c0,0.4,2.7,0.7,6.2,0.8
				c-1.8,1.9-3,3.4-2.8,3.6c0.2,0.2,1.7-1,3.6-2.8c0.1,3.5,0.4,6.2,0.8,6.2s0.7-2.7,0.8-6.2c1.9,1.8,3.4,3,3.6,2.8
				c0.2-0.2-1-1.7-2.8-3.6C86.1,114.3,88.8,114,88.8,113.6z"/>
			<path class="st2" d="M110.8,113.6c0-0.4-2.7-0.7-6.2-0.8c1.8-1.9,3-3.4,2.8-3.6c-0.2-0.2-1.7,1-3.6,2.8c-0.1-3.5-0.4-6.2-0.8-6.2
				c-0.4,0-0.7,2.7-0.8,6.2c-1.9-1.8-3.4-3-3.6-2.8c-0.2,0.2,1,1.7,2.8,3.6c-3.5,0.1-6.2,0.4-6.2,0.8c0,0.4,2.7,0.7,6.2,0.8
				c-1.8,1.9-3,3.4-2.8,3.6s1.7-1,3.6-2.8c0.1,3.5,0.4,6.2,0.8,6.2c0.4,0,0.7-2.7,0.8-6.2c1.9,1.8,3.4,3,3.6,2.8
				c0.2-0.2-1-1.7-2.8-3.6C108.2,114.3,110.8,114,110.8,113.6z"/>
		</g>
		<g>
			<path class="st2" d="M55.8,92c0-0.4-2.7-0.7-6.2-0.8c1.8-1.9,3-3.4,2.8-3.6c-0.2-0.2-1.7,1-3.6,2.8c-0.1-3.5-0.4-6.2-0.8-6.2
				c-0.4,0-0.7,2.7-0.8,6.2c-1.9-1.8-3.4-3-3.6-2.8c-0.2,0.2,1,1.7,2.8,3.6c-3.5,0.1-6.2,0.4-6.2,0.8c0,0.4,2.7,0.7,6.2,0.8
				c-1.8,1.9-3,3.4-2.8,3.6c0.2,0.2,1.7-1,3.6-2.8c0.1,3.5,0.4,6.2,0.8,6.2c0.4,0,0.7-2.7,0.8-6.2c1.9,1.8,3.4,3,3.6,2.8
				c0.2-0.2-1-1.7-2.8-3.6C53.1,92.7,55.8,92.3,55.8,92z"/>
			<path class="st2" d="M77.8,92c0-0.4-2.7-0.7-6.2-0.8c1.8-1.9,3-3.4,2.8-3.6c-0.2-0.2-1.7,1-3.6,2.8c-0.1-3.5-0.4-6.2-0.8-6.2
				c-0.4,0-0.7,2.7-0.8,6.2c-1.9-1.8-3.4-3-3.6-2.8c-0.2,0.2,1,1.7,2.8,3.6c-3.5,0.1-6.2,0.4-6.2,0.8c0,0.4,2.7,0.7,6.2,0.8
				c-1.8,1.9-3,3.4-2.8,3.6c0.2,0.2,1.7-1,3.6-2.8c0.1,3.5,0.4,6.2,0.8,6.2c0.4,0,0.7-2.7,0.8-6.2c1.9,1.8,3.4,3,3.6,2.8
				c0.2-0.2-1-1.7-2.8-3.6C75.1,92.7,77.8,92.3,77.8,92z"/>
			<path class="st2" d="M99.8,92c0-0.4-2.7-0.7-6.2-0.8c1.8-1.9,3-3.4,2.8-3.6c-0.2-0.2-1.7,1-3.6,2.8c-0.1-3.5-0.4-6.2-0.8-6.2
				c-0.4,0-0.7,2.7-0.8,6.2c-1.9-1.8-3.4-3-3.6-2.8c-0.2,0.2,1,1.7,2.8,3.6c-3.5,0.1-6.2,0.4-6.2,0.8c0,0.4,2.7,0.7,6.2,0.8
				c-1.8,1.9-3,3.4-2.8,3.6c0.2,0.2,1.7-1,3.6-2.8c0.1,3.5,0.4,6.2,0.8,6.2c0.4,0,0.7-2.7,0.8-6.2c1.9,1.8,3.4,3,3.6,2.8
				c0.2-0.2-1-1.7-2.8-3.6C97.2,92.7,99.8,92.3,99.8,92z"/>
			<path class="st2" d="M113.7,84.1C113.7,84.1,113.7,84.1,113.7,84.1c-0.4,0-0.7,2.6-0.8,6.2c-1.9-1.8-3.4-3-3.6-2.8
				c-0.2,0.2,1,1.7,2.8,3.6c-3.5,0.1-6.2,0.4-6.2,0.8c0,0.4,2.7,0.7,6.2,0.8c-1.8,1.9-3,3.4-2.8,3.6c0.2,0.2,1.7-1,3.6-2.8
				c0.1,3.5,0.4,6.2,0.8,6.2c0,0,0,0,0,0V84.1z"/>
			<path class="st2" d="M33.8,92c0-0.4-2.7-0.7-6.2-0.8c1.8-1.9,3-3.4,2.8-3.6s-1.7,1-3.6,2.8c-0.1-3.5-0.4-6.2-0.8-6.2
				c0,0-0.1,0-0.1,0.1v15.5c0,0,0.1,0.1,0.1,0.1c0.4,0,0.7-2.7,0.8-6.2c1.9,1.8,3.4,3,3.6,2.8c0.2-0.2-1-1.7-2.8-3.6
				C31.1,92.7,33.8,92.3,33.8,92z"/>
		</g>
	</g>
	<rect x="68.7" y="59.1" class="st4" width="9.1" height="62.3"/>
	<polygon class="st5" points="14.9,53.6 14.9,115.9 12.6,114.7 12.6,52.4 	"/>
	<polygon class="st6" points="116.4,34.4 24.6,34.4 13.7,28.9 11.4,27.7 1,22.4 90.2,22.4 101.7,27.7 104.3,28.9 	"/>
	<polygon class="st7" points="104.3,28.9 13.7,28.9 11.4,27.7 101.7,27.7 	"/>
	<g>
		<polygon class="st7" points="49.9,22.4 40.9,22.4 67.1,34.4 76.2,34.4 		"/>
	</g>
	<polygon class="st0" points="1,49 24.6,61 24.6,34.4 1,22.4 	"/>
	<polygon class="st4" points="13.7,28.9 13.7,55.5 11.4,54.3 11.4,27.7 	"/>
	<g>
		<g>
			<g>
				<g>
					<path class="st7" d="M99,24.2c-1.7,2-5,4.4-5,4.4H58.3c0,0,14.1-32.9,30.8-27.2C90,1.6,90.8,2,91.7,2.5c3.4,3.1-0.5,8.9,3,12.8
						C98.1,19.2,100.8,22.2,99,24.2z"/>
					<path class="st8" d="M76,17.3c-6.1,6.5-12,10.9-13.2,9.8c-1.1-1.1,2.9-7.2,9-13.7C78,6.9,83.8,2.5,85,3.5
						C86.1,4.6,82.1,10.8,76,17.3z"/>
				</g>
				<g>
					<path class="st7" d="M59.1,28.6H23.4c0,0-3.3-2.3-5-4.4c-1.7-2,0.9-5,4.4-8.9c3-3.4,0.5-8.1,1.9-11.3c0.2-0.5,0.6-1,1.1-1.5
						C43.5-7.7,59.1,28.6,59.1,28.6z"/>
					<path class="st8" d="M41.4,17.3c6.1,6.5,12,10.9,13.2,9.8c1.1-1.1-2.9-7.2-9-13.7c-6.1-6.5-12-10.9-13.2-9.8
						C31.3,4.6,35.3,10.8,41.4,17.3z"/>
				</g>
			</g>
			<path class="st4" d="M68.3,24.3V26c0,1.4-1.2,2.6-2.6,2.6H51.7c-1.4,0-2.6-1.2-2.6-2.6v-1.7c0-0.2,0-0.3,0-0.5c0,0,0,0,0,0
				c0.2-1.2,1.3-2.1,2.5-2.1h14.1c1.2,0,2.3,0.9,2.5,2.1c0,0,0,0,0,0C68.3,24,68.3,24.1,68.3,24.3z"/>
			<path class="st7" d="M68.3,23.8C68.3,23.8,68.3,23.8,68.3,23.8C68,25,67,25.8,65.7,25.8H51.7c-1.3,0-2.3-0.9-2.5-2.1c0,0,0,0,0,0
				c0.2-1.2,1.3-2.1,2.5-2.1h14.1C67,21.7,68,22.6,68.3,23.8z"/>
		</g>
		<path class="st4" d="M99,24.2c-1.7,2-5,4.4-5,4.4H70.5c0.6-0.7,1.3-1.3,2.1-1.7c2.8-1.6,6.1-2,9.2-2.8c3.5-0.9,7.4-2.7,8.3-6.3
			c0.3-1.3,0.2-2.6,0.1-3.9c-0.4-4.2-0.7-8.3-1.1-12.5C90,1.6,90.8,2,91.7,2.5c3.4,3.1-0.5,8.9,3,12.8C98.1,19.2,100.8,22.2,99,24.2
			z"/>
		<path class="st4" d="M50.9,28.6H23.4c0,0-3.3-2.3-5-4.4c-1.7-2,0.9-5,4.4-8.9c3-3.4,0.5-8.1,1.9-11.3c0.5,2,1,3.9,1.5,5.9
			c0.6,2.4,1.3,4.9,2.4,7.1c3,6,9.6,10.1,16.3,10.1c1.3,0,2.7-0.1,4,0.2C49.7,27.5,50.4,27.9,50.9,28.6z"/>
	</g>
	<rect x="25.9" y="59.1" class="st1" width="87.8" height="8.8"/>
	<g>
		<rect x="24.6" y="34.4" class="st9" width="91.8" height="26.6"/>
		<rect x="67.1" y="34.4" class="st7" width="9" height="26.6"/>
	</g>
</g>
</svg>
