<?xml version="1.0" encoding="utf-8"?>
<!-- Generator: Adobe Illustrator 22.1.0, SVG Export Plug-In . SVG Version: 6.00 Build 0)  -->
<svg version="1.1" id="Layer_1" xmlns="http://www.w3.org/2000/svg" xmlns:xlink="http://www.w3.org/1999/xlink" x="0px" y="0px"
	 viewBox="0 0 124.9 122.4" style="enable-background:new 0 0 124.9 122.4;" xml:space="preserve">
<style type="text/css">
	.st0{fill:#26BAAC;}
	.st1{fill:#8E6CFE;}
	.st2{fill:#FFFFFF;}
	.st3{fill:#DEDEDE;}
	.st4{fill:#29C7B8;}
	.st5{fill:#FF7F70;}
	.st6{fill:#FB5441;}
	.st7{fill:#269795;}
	.st8{fill:#705EE4;}
	.st9{fill:#B82827;}
	.st10{fill:#2FE6D4;}
</style>
<title>Asset 9</title>
<g>
	<g>
		<g>
			<polygon class="st0" points="121,58.2 121,79.4 62.5,102.9 62.5,81.7 			"/>
			<g>
				<g>
					<polygon class="st1" points="121,58.2 121,61.1 110.9,83.4 106.7,85.1 118.4,59.2 					"/>
				</g>
				<g>
					<polygon class="st1" points="111.1,62.1 99.4,88.1 95.3,89.7 106.9,63.8 					"/>
				</g>
				<g>
					<polygon class="st1" points="99.7,66.8 88,92.7 83.8,94.4 95.5,68.4 					"/>
				</g>
				<g>
					<polygon class="st1" points="88.2,71.4 76.5,97.3 72.3,99 84,73 					"/>
				</g>
				<g>
					<polygon class="st1" points="76.7,76 65,101.9 62.5,102.9 62.5,100 72.6,77.7 					"/>
				</g>
			</g>
			<g>
				<path class="st2" d="M113.8,64.5c0,0.7-0.6,1.5-1.3,1.8c-0.7,0.3-1.3-0.1-1.3-0.8c0-0.7,0.6-1.5,1.3-1.8
					C113.2,63.5,113.8,63.8,113.8,64.5z"/>
				<path class="st2" d="M110.2,73.6c0,0.7-0.6,1.5-1.3,1.8c-0.7,0.3-1.3-0.1-1.3-0.8c0-0.7,0.6-1.5,1.3-1.8
					C109.6,72.5,110.2,72.9,110.2,73.6z"/>
				<path class="st2" d="M106.5,82.7c0,0.7-0.6,1.5-1.3,1.8c-0.7,0.3-1.3-0.1-1.3-0.8s0.6-1.5,1.3-1.8
					C105.9,81.6,106.5,82,106.5,82.7z"/>
			</g>
			<g>
				<path class="st2" d="M121,67.9v2.6c-0.7,0.3-1.3-0.1-1.3-0.8C119.6,69.1,120.2,68.2,121,67.9z"/>
				<path class="st2" d="M118.6,77.8c0,0.7-0.6,1.5-1.3,1.8c-0.7,0.3-1.3-0.1-1.3-0.8c0-0.7,0.6-1.5,1.3-1.8
					C118,76.7,118.6,77.1,118.6,77.8z"/>
			</g>
			<g>
				<path class="st2" d="M102.3,69.2c0,0.7-0.6,1.5-1.3,1.8c-0.7,0.3-1.3-0.1-1.3-0.8c0-0.7,0.6-1.5,1.3-1.8
					C101.7,68.1,102.3,68.4,102.3,69.2z"/>
				<path class="st2" d="M98.6,78.2c0,0.7-0.6,1.5-1.3,1.8C96.6,80.4,96,80,96,79.3s0.6-1.5,1.3-1.8C98.1,77.2,98.6,77.5,98.6,78.2z
					"/>
				<path class="st2" d="M95,87.3c0,0.7-0.6,1.5-1.3,1.8c-0.7,0.3-1.3-0.1-1.3-0.8c0-0.7,0.6-1.5,1.3-1.8C94.4,86.3,95,86.6,95,87.3
					z"/>
			</g>
			<g>
				<path class="st2" d="M90.8,73.8c0,0.7-0.6,1.5-1.3,1.8c-0.7,0.3-1.3-0.1-1.3-0.8c0-0.7,0.6-1.5,1.3-1.8
					C90.2,72.7,90.8,73.1,90.8,73.8z"/>
				<path class="st2" d="M87.1,82.9c0,0.7-0.6,1.5-1.3,1.8c-0.7,0.3-1.3-0.1-1.3-0.8c0-0.7,0.6-1.5,1.3-1.8
					C86.5,81.8,87.1,82.2,87.1,82.9z"/>
				<path class="st2" d="M83.4,92c0,0.7-0.6,1.5-1.3,1.8c-0.7,0.3-1.3-0.1-1.3-0.8c0-0.7,0.6-1.5,1.3-1.8
					C82.9,90.9,83.4,91.2,83.4,92z"/>
			</g>
			<g>
				<path class="st2" d="M79.3,78.4c0,0.7-0.6,1.5-1.3,1.8c-0.7,0.3-1.3-0.1-1.3-0.8c0-0.7,0.6-1.5,1.3-1.8
					C78.7,77.4,79.3,77.7,79.3,78.4z"/>
				<path class="st2" d="M75.6,87.5c0,0.7-0.6,1.5-1.3,1.8c-0.7,0.3-1.3-0.1-1.3-0.8c0-0.7,0.6-1.5,1.3-1.8
					C75,86.4,75.6,86.8,75.6,87.5z"/>
				<path class="st2" d="M71.9,96.6c0,0.7-0.6,1.5-1.3,1.8c-0.7,0.3-1.3-0.1-1.3-0.8s0.6-1.5,1.3-1.8C71.3,95.5,71.9,95.9,71.9,96.6
					z"/>
			</g>
			<g>
				<path class="st2" d="M67.8,83.1c0,0.7-0.6,1.5-1.3,1.8c-0.7,0.3-1.3-0.1-1.3-0.8c0-0.7,0.6-1.5,1.3-1.8
					C67.2,82,67.8,82.4,67.8,83.1z"/>
				<path class="st2" d="M64.1,92.2c0,0.7-0.6,1.5-1.3,1.8c-0.1,0-0.2,0.1-0.3,0.1v-2.6c0.1-0.1,0.2-0.1,0.3-0.1
					C63.5,91.1,64.1,91.4,64.1,92.2z"/>
			</g>
			<polygon class="st3" points="121,58.2 121,62.5 62.5,86 62.5,81.7 			"/>
		</g>
		<polygon class="st4" points="123.8,45.1 123.8,57.1 97.3,67.7 97.3,67.7 90.9,70.3 62.5,81.7 62.5,68.1 90.9,57.5 97.3,55.1 		"/>
		<polygon class="st5" points="97.3,55.1 97.3,67.7 90.9,70.3 90.9,57.5 		"/>
		<polygon class="st6" points="90.9,70.3 90.9,91.5 97.3,88.9 97.3,67.7 		"/>
	</g>
	<g>
		<g>
			<polygon class="st7" points="4.1,58.2 4.1,79.4 62.5,102.9 62.5,81.7 			"/>
			<g>
				<g>
					<polygon class="st8" points="4.1,58.2 4.1,61.1 14.1,83.4 18.3,85.1 6.6,59.2 					"/>
				</g>
				<g>
					<polygon class="st8" points="13.9,62.1 25.6,88.1 29.7,89.7 18.1,63.8 					"/>
				</g>
				<g>
					<polygon class="st8" points="25.4,66.8 37,92.7 41.2,94.4 29.5,68.4 					"/>
				</g>
				<g>
					<polygon class="st8" points="36.8,71.4 48.5,97.3 52.7,99 41,73 					"/>
				</g>
				<g>
					<polygon class="st8" points="48.3,76 60,101.9 62.5,102.9 62.5,100 52.4,77.7 					"/>
				</g>
			</g>
			<g>
				<path class="st2" d="M11.2,64.5c0,0.7,0.6,1.5,1.3,1.8c0.7,0.3,1.3-0.1,1.3-0.8c0-0.7-0.6-1.5-1.3-1.8
					C11.8,63.5,11.2,63.8,11.2,64.5z"/>
				<path class="st2" d="M14.9,73.6c0,0.7,0.6,1.5,1.3,1.8c0.7,0.3,1.3-0.1,1.3-0.8c0-0.7-0.6-1.5-1.3-1.8
					C15.4,72.5,14.9,72.9,14.9,73.6z"/>
				<path class="st2" d="M18.5,82.7c0,0.7,0.6,1.5,1.3,1.8c0.7,0.3,1.3-0.1,1.3-0.8s-0.6-1.5-1.3-1.8C19.1,81.6,18.5,82,18.5,82.7z"
					/>
			</g>
			<g>
				<path class="st2" d="M4.1,67.9v2.6c0.7,0.3,1.3-0.1,1.3-0.8C5.4,69.1,4.8,68.2,4.1,67.9z"/>
				<path class="st2" d="M6.4,77.8c0,0.7,0.6,1.5,1.3,1.8C8.5,79.9,9,79.6,9,78.9c0-0.7-0.6-1.5-1.3-1.8C7,76.7,6.4,77.1,6.4,77.8z"
					/>
			</g>
			<g>
				<path class="st2" d="M22.7,69.2c0,0.7,0.6,1.5,1.3,1.8c0.7,0.3,1.3-0.1,1.3-0.8c0-0.7-0.6-1.5-1.3-1.8
					C23.3,68.1,22.7,68.4,22.7,69.2z"/>
				<path class="st2" d="M26.4,78.2c0,0.7,0.6,1.5,1.3,1.8c0.7,0.3,1.3-0.1,1.3-0.8s-0.6-1.5-1.3-1.8C27,77.2,26.4,77.5,26.4,78.2z"
					/>
				<path class="st2" d="M30,87.3c0,0.7,0.6,1.5,1.3,1.8c0.7,0.3,1.3-0.1,1.3-0.8c0-0.7-0.6-1.5-1.3-1.8C30.6,86.3,30,86.6,30,87.3z
					"/>
			</g>
			<g>
				<path class="st2" d="M34.2,73.8c0,0.7,0.6,1.5,1.3,1.8c0.7,0.3,1.3-0.1,1.3-0.8c0-0.7-0.6-1.5-1.3-1.8
					C34.8,72.7,34.2,73.1,34.2,73.8z"/>
				<path class="st2" d="M37.9,82.9c0,0.7,0.6,1.5,1.3,1.8c0.7,0.3,1.3-0.1,1.3-0.8c0-0.7-0.6-1.5-1.3-1.8
					C38.5,81.8,37.9,82.2,37.9,82.9z"/>
				<path class="st2" d="M41.6,92c0,0.7,0.6,1.5,1.3,1.8c0.7,0.3,1.3-0.1,1.3-0.8c0-0.7-0.6-1.5-1.3-1.8
					C42.2,90.9,41.6,91.2,41.6,92z"/>
			</g>
			<g>
				<path class="st2" d="M45.7,78.4c0,0.7,0.6,1.5,1.3,1.8c0.7,0.3,1.3-0.1,1.3-0.8c0-0.7-0.6-1.5-1.3-1.8
					C46.3,77.4,45.7,77.7,45.7,78.4z"/>
				<path class="st2" d="M49.4,87.5c0,0.7,0.6,1.5,1.3,1.8c0.7,0.3,1.3-0.1,1.3-0.8c0-0.7-0.6-1.5-1.3-1.8
					C50,86.4,49.4,86.8,49.4,87.5z"/>
				<path class="st2" d="M53.1,96.6c0,0.7,0.6,1.5,1.3,1.8c0.7,0.3,1.3-0.1,1.3-0.8s-0.6-1.5-1.3-1.8C53.7,95.5,53.1,95.9,53.1,96.6
					z"/>
			</g>
			<g>
				<path class="st2" d="M57.2,83.1c0,0.7,0.6,1.5,1.3,1.8c0.7,0.3,1.3-0.1,1.3-0.8c0-0.7-0.6-1.5-1.3-1.8
					C57.8,82,57.2,82.4,57.2,83.1z"/>
				<path class="st2" d="M60.9,92.2c0,0.7,0.6,1.5,1.3,1.8c0.1,0,0.2,0.1,0.3,0.1v-2.6c-0.1-0.1-0.2-0.1-0.3-0.1
					C61.5,91.1,60.9,91.4,60.9,92.2z"/>
			</g>
			<polygon class="st3" points="62.5,81.7 62.5,85.8 4.1,62.3 4.1,58.2 			"/>
		</g>
		<polygon class="st0" points="62.5,68.1 62.5,81.7 34.1,70.3 27.7,67.7 27.7,67.7 1.3,57.1 1.3,45.1 27.7,55.1 34.1,57.5 		"/>
		<polygon class="st6" points="34.1,57.5 34.1,70.3 27.7,67.7 27.7,55.1 		"/>
		<polygon class="st9" points="34.1,70.3 34.1,91.5 27.7,88.9 27.7,67.7 		"/>
	</g>
	<polygon class="st10" points="123.8,45.1 97.3,55.1 90.9,57.5 62.5,68.1 34.1,57.5 27.7,55.1 1.3,45.1 35.2,38.2 43.5,36.5 
		62.5,32.6 79.8,36.2 89.6,38.2 	"/>
	<polygon class="st5" points="97.3,55.1 90.9,57.5 62.4,47.6 55.2,45.1 35.2,38.2 43.5,36.5 61.6,42.8 61.6,42.8 69,45.3 	"/>
	<polygon class="st5" points="89.6,38.2 69,45.3 62.4,47.6 34.1,57.5 27.7,55.1 55.2,45.1 61.6,42.8 79.8,36.2 	"/>
	<g>
		<g>
			<g>
				<path class="st9" d="M62.2,46.1c0,0,1.9-17.9,10.7-15.7c8.7,2.3,0,11.2,0,11.2s1.5-7-1.5-7.3C68.2,34,63.7,40.4,62.2,46.1z"/>
				<g>
					<path class="st9" d="M79.5,47.6l-5.2,3.7c0,0-7.8-1.5-12.1-5.2l4.8-2.2C67,43.9,73.4,47.4,79.5,47.6z"/>
					<path class="st6" d="M62.2,46.1c0,0,19-12.3,22.5-5.9s0.6,8.6-1.4,9.3c-2,0.7-9,1.8-9,1.8s3.3-7-0.4-8.7
						c-0.8-0.4-1.8-0.3-2.6,0L62.2,46.1z"/>
				</g>
			</g>
			<g>
				<g>
					<path class="st6" d="M44.9,47.6l5.2,3.7c0,0,7.8-1.5,12.1-5.2l-4.8-2.2C57.4,43.9,50.9,47.4,44.9,47.6z"/>
				</g>
				<path class="st6" d="M62.2,46.1c0,0-1.9-17.9-10.7-15.7s0,11.2,0,11.2s-1.5-7,1.5-7.3C56.1,34,60.6,40.4,62.2,46.1z"/>
			</g>
		</g>
		<path class="st9" d="M62.2,46.1c0,0-19-12.3-22.5-5.9s-0.6,8.6,1.4,9.3c2,0.7,9,1.8,9,1.8s-3.3-7,0.4-8.7c0.8-0.4,1.8-0.3,2.6,0
			L62.2,46.1z"/>
	</g>
</g>
</svg>
