<?xml version="1.0" encoding="utf-8"?>
<!-- Generator: Adobe Illustrator 22.1.0, SVG Export Plug-In . SVG Version: 6.00 Build 0)  -->
<svg version="1.1" id="Layer_1" xmlns="http://www.w3.org/2000/svg" xmlns:xlink="http://www.w3.org/1999/xlink" x="0px" y="0px"
	 viewBox="0 0 124.9 122.4" style="enable-background:new 0 0 124.9 122.4;" xml:space="preserve">
<style type="text/css">
	.st0{fill:#ED2A79;}
	.st1{fill:#FDD14C;}
	.st2{fill:#DEDEDE;}
	.st3{fill:#FF6EA9;}
	.st4{fill:#842DBC;}
	.st5{fill:#C9276A;}
	.st6{fill:#EDA328;}
	.st7{fill:#622B86;}
	.st8{fill:#FF96C1;}
	.st9{fill:#FDDD7C;}
	.st10{fill:#FFBE32;}
</style>
<title>Asset 9</title>
<g>
	<g>
		<g>
			<polygon class="st0" points="95.2,106.4 53.8,121 53.8,51.7 95.2,37.1 			"/>
			<polygon class="st1" points="78.3,112.4 70.7,115.1 70.7,45.8 78.3,43 			"/>
			<polygon class="st2" points="95.2,37.1 95.2,42.4 53.8,57.1 53.8,51.7 			"/>
		</g>
		<g>
			<polygon class="st3" points="102.1,34.6 53.8,51.7 53.8,33.8 102.1,16.6 			"/>
			<polygon class="st1" points="82.4,41.6 73.5,44.8 73.5,26.8 82.4,23.6 			"/>
		</g>
		<g>
			<ellipse transform="matrix(0.6424 -0.7664 0.7664 0.6424 -42.8851 103.5428)" class="st4" cx="89.5" cy="97.7" rx="4" ry="2.8"/>
			<path class="st4" d="M90.9,65.6c0,2.2-1.8,4.7-4,5.5c-2.2,0.8-4-0.4-4-2.6c0-2.2,1.8-4.7,4-5.5C89.1,62.2,90.9,63.4,90.9,65.6z"
				/>
			<path class="st4" d="M64.8,66.8c0,1.6-1.3,3.4-3,4c-1.6,0.6-3-0.3-3-1.9c0-1.6,1.3-3.4,3-4C63.5,64.3,64.8,65.2,64.8,66.8z"/>
			<path class="st4" d="M89.5,45.8c0,1.2-1,2.6-2.2,3C86,49.3,85,48.7,85,47.4c0-1.2,1-2.6,2.2-3C88.5,43.9,89.5,44.6,89.5,45.8z"/>
			
				<ellipse transform="matrix(0.6424 -0.7664 0.7664 0.6424 -20.1542 68.2846)" class="st4" cx="63.1" cy="55.7" rx="3.3" ry="2.4"/>
			<path class="st4" d="M67,106.4c0,2.2-1.8,4.7-4.1,5.5c-2.2,0.8-4.1-0.4-4.1-2.6c0-2.2,1.8-4.7,4.1-5.5
				C65.2,103,67,104.2,67,106.4z"/>
			<path class="st4" d="M67,84.3c0,1.4-1.2,3-2.6,3.5c-1.4,0.5-2.6-0.2-2.6-1.7c0-1.4,1.2-3,2.6-3.5C65.9,82.1,67,82.9,67,84.3z"/>
			<path class="st4" d="M85,84.1c0,0.6-0.5,1.3-1.1,1.5c-0.6,0.2-1.1-0.1-1.1-0.7c0-0.6,0.5-1.3,1.1-1.5C84.5,83.2,85,83.5,85,84.1z
				"/>
			<path class="st4" d="M65,93.9c0,0.9-0.7,1.8-1.6,2.1c-0.9,0.3-1.6-0.1-1.6-1c0-0.9,0.7-1.8,1.6-2.1C64.3,92.6,65,93,65,93.9z"/>
			<path class="st4" d="M67.1,73.4c0,0.3-0.3,0.7-0.6,0.8c-0.3,0.1-0.6-0.1-0.6-0.4s0.3-0.7,0.6-0.8S67.1,73.1,67.1,73.4z"/>
			<path class="st4" d="M70.5,59c0,0.9-0.8,1.9-1.7,2.3c-0.9,0.3-1.7-0.2-1.7-1.1c0-0.9,0.8-1.9,1.7-2.3
				C69.7,57.6,70.5,58.1,70.5,59z"/>
			<path class="st4" d="M87.8,56.5c0,0.5-0.4,1-0.8,1.1c-0.5,0.2-0.8-0.1-0.8-0.5c0-0.5,0.4-1,0.8-1.1C87.5,55.8,87.8,56,87.8,56.5z
				"/>
			<path class="st4" d="M83.3,101.6c0,0.9-0.8,2-1.7,2.3c-0.9,0.3-1.7-0.2-1.7-1.1c0-0.9,0.8-2,1.7-2.3
				C82.6,100.2,83.3,100.7,83.3,101.6z"/>
			<path class="st4" d="M68.8,113.2c0,0.6-0.5,1.3-1.1,1.6c-0.6,0.2-1.1-0.1-1.1-0.7c0-0.6,0.5-1.3,1.1-1.6
				C68.3,112.3,68.8,112.6,68.8,113.2z"/>
		</g>
	</g>
	<g>
		<g>
			<polygon class="st5" points="26.9,106.4 53.8,121 53.8,51.7 26.9,37.1 			"/>
			<polygon class="st6" points="37.9,112.4 42.9,115.1 42.9,45.8 37.9,43 			"/>
			<polygon class="st2" points="53.8,51.7 53.8,57.2 26.9,42.5 26.9,37.1 			"/>
		</g>
		<g>
			<polygon class="st0" points="22.4,34.6 53.8,51.7 53.8,33.8 22.4,16.6 			"/>
			<polygon class="st6" points="35.2,41.6 41,44.8 41,26.8 35.2,23.6 			"/>
		</g>
		<g>
			<path class="st7" d="M28.4,96.5c0,1.9,1,3.9,2.2,4.6c1.2,0.7,2.2-0.3,2.2-2.2c0-1.9-1-3.9-2.2-4.6C29.4,93.7,28.4,94.7,28.4,96.5
				z"/>
			<path class="st7" d="M29.7,65.6c0,2.2,1.2,4.7,2.6,5.5c1.4,0.8,2.6-0.4,2.6-2.6c0-2.2-1.2-4.7-2.6-5.5
				C30.9,62.2,29.7,63.4,29.7,65.6z"/>
			<path class="st7" d="M46.7,66.8c0,1.6,0.9,3.4,1.9,4c1.1,0.6,1.9-0.3,1.9-1.9c0-1.6-0.9-3.4-1.9-4C47.6,64.3,46.7,65.2,46.7,66.8
				z"/>
			<path class="st7" d="M30.6,45.8c0,1.2,0.7,2.6,1.5,3c0.8,0.4,1.5-0.2,1.5-1.4c0-1.2-0.7-2.6-1.5-3C31.3,43.9,30.6,44.6,30.6,45.8
				z"/>
			
				<ellipse transform="matrix(0.9579 -0.2869 0.2869 0.9579 -13.9839 16.0613)" class="st7" cx="47.8" cy="55.7" rx="1.7" ry="3.1"/>
			<path class="st7" d="M45.2,106.4c0,2.2,1.2,4.7,2.6,5.5c1.5,0.8,2.6-0.4,2.6-2.6c0-2.2-1.2-4.7-2.6-5.5
				C46.4,103,45.2,104.2,45.2,106.4z"/>
			<path class="st7" d="M45.2,84.3c0,1.4,0.8,3,1.7,3.5c0.9,0.5,1.7-0.2,1.7-1.7c0-1.4-0.8-3-1.7-3.5C46,82.1,45.2,82.9,45.2,84.3z"
				/>
			<path class="st7" d="M33.5,84.1c0,0.6,0.3,1.3,0.7,1.5c0.4,0.2,0.7-0.1,0.7-0.7c0-0.6-0.3-1.3-0.7-1.5
				C33.9,83.2,33.5,83.5,33.5,84.1z"/>
			<path class="st7" d="M46.6,93.9c0,0.9,0.5,1.8,1,2.1c0.6,0.3,1-0.1,1-1c0-0.9-0.5-1.8-1-2.1C47,92.6,46.6,93,46.6,93.9z"/>
			<path class="st7" d="M45.2,73.4c0,0.3,0.2,0.7,0.4,0.8c0.2,0.1,0.4-0.1,0.4-0.4s-0.2-0.7-0.4-0.8C45.4,72.9,45.2,73.1,45.2,73.4z
				"/>
			<path class="st7" d="M43,59c0,0.9,0.5,1.9,1.1,2.3c0.6,0.3,1.1-0.2,1.1-1.1c0-0.9-0.5-1.9-1.1-2.3C43.5,57.6,43,58.1,43,59z"/>
			<path class="st7" d="M31.7,56.5c0,0.5,0.2,1,0.5,1.1c0.3,0.2,0.5-0.1,0.5-0.5c0-0.5-0.2-1-0.5-1.1C31.9,55.8,31.7,56,31.7,56.5z"
				/>
			<path class="st7" d="M34.6,101.6c0,0.9,0.5,2,1.1,2.3c0.6,0.3,1.1-0.2,1.1-1.1c0-0.9-0.5-2-1.1-2.3
				C35.1,100.2,34.6,100.7,34.6,101.6z"/>
			<path class="st7" d="M44.1,113.2c0,0.6,0.3,1.3,0.7,1.6s0.7-0.1,0.7-0.7c0-0.6-0.3-1.3-0.7-1.6C44.4,112.3,44.1,112.6,44.1,113.2
				z"/>
		</g>
	</g>
	<polygon class="st8" points="102.1,16.6 82.4,23.6 73.5,26.8 53.8,33.8 41,26.8 35.2,23.6 22.4,16.6 43,10.3 43,10.3 51,7.9 
		62.7,4.3 75,8.2 83.3,10.8 	"/>
	<polygon class="st9" points="82.4,23.6 73.5,26.8 60.1,19.6 54.1,16.3 43,10.3 51,7.9 61.8,13.3 61.8,13.3 68.2,16.5 	"/>
	<polygon class="st9" points="83.3,10.8 68.2,16.5 60.1,19.6 41,26.8 35.2,23.6 54.1,16.3 61.8,13.3 75,8.2 	"/>
	<g>
		<g>
			<g>
				<path class="st6" d="M59.3,17.6c0,0,2-18.4,10.9-16.1c8.9,2.3,0,11.5,0,11.5s1.6-7.2-1.6-7.5C65.5,5.2,60.8,11.7,59.3,17.6z"/>
				<g>
					<path class="st6" d="M77,19.2L71.7,23c0,0-8-1.6-12.4-5.4l4.9-2.3C64.2,15.3,70.8,18.9,77,19.2z"/>
					<path class="st10" d="M59.3,17.6c0,0,19.6-12.6,23.2-6.1c3.6,6.5,0.6,8.8-1.5,9.6c-2.1,0.7-9.3,1.9-9.3,1.9s3.3-7.2-0.4-9
						c-0.8-0.4-1.8-0.3-2.7,0L59.3,17.6z"/>
				</g>
			</g>
			<g>
				<g>
					<path class="st10" d="M41.5,19.2l5.4,3.8c0,0,8-1.6,12.4-5.4l-4.9-2.3C54.3,15.3,47.7,18.9,41.5,19.2z"/>
				</g>
				<path class="st10" d="M59.3,17.6c0,0-2-18.4-10.9-16.1c-8.9,2.3,0,11.5,0,11.5s-1.6-7.2,1.6-7.5C53,5.2,57.7,11.7,59.3,17.6z"/>
			</g>
		</g>
		<path class="st6" d="M59.3,17.6c0,0-19.6-12.6-23.2-6.1c-3.6,6.5-0.6,8.8,1.5,9.6c2.1,0.7,9.3,1.9,9.3,1.9s-3.3-7.2,0.4-9
			c0.8-0.4,1.8-0.3,2.7,0L59.3,17.6z"/>
	</g>
</g>
</svg>
