<?xml version="1.0" encoding="utf-8"?>
<!-- Generator: Adobe Illustrator 22.1.0, SVG Export Plug-In . SVG Version: 6.00 Build 0)  -->
<svg version="1.1" id="Layer_1" xmlns="http://www.w3.org/2000/svg" xmlns:xlink="http://www.w3.org/1999/xlink" x="0px" y="0px"
	 viewBox="0 0 124.9 122.4" style="enable-background:new 0 0 124.9 122.4;" xml:space="preserve">
<style type="text/css">
	.st0{fill:#29C7B8;}
	.st1{fill:#705EE4;}
	.st2{fill:#269795;}
	.st3{fill:#2FE6D4;}
	.st4{fill:#B499FF;}
	.st5{fill:#CFCFCF;}
	.st6{fill:#CBB8FF;}
</style>
<title>Asset 9</title>
<g>
	<g>
		<polygon class="st0" points="123.5,101.3 29.9,119.3 29.9,79.9 123.5,62 		"/>
		<polygon class="st1" points="87.2,108.3 66.2,112.3 66.2,73 87.2,69 		"/>
	</g>
	<g>
		<polygon class="st2" points="1.1,77.6 29.9,119.3 29.9,79.9 1.1,38.3 		"/>
		<polygon class="st1" points="12.3,93.7 18.7,103.1 18.7,63.8 12.3,54.4 		"/>
	</g>
	<polygon class="st3" points="123.5,62 87.2,69 66.2,73 29.9,79.9 18.7,63.8 12.3,54.4 1.1,38.3 38.5,31.7 58.5,28.2 86.8,23.3 
		99.7,36.9 107.5,45.1 	"/>
	<polygon class="st4" points="87.2,69 66.2,73 54.9,56.2 48.8,47.1 38.5,31.7 58.5,28.2 68.9,43.1 75.2,51.9 	"/>
	<polygon class="st4" points="107.5,45.1 75.2,51.9 54.9,56.2 18.7,63.8 12.3,54.4 48.8,47.1 68.9,43.1 99.7,36.9 	"/>
	<path class="st5" d="M73.9,51.3c-4.3-0.8-8.4-2.6-11.9-5.2c-3.3-2.5-6-5.8-9.2-8.4c-3.2-2.7-7.2-4.8-11.3-4.4
		c-4.1,0.4-8.1,4.2-7.5,8.3c0.5,3.4,3.6,5.7,6.8,6.9c3.2,1.2,6.6,1.7,9.6,3.4c4.9,2.8,7.5,8.2,11.3,12.3c3,3.1,6.9,5.5,11.2,5.8
		c4.3,0.4,8.9-1.6,11-5.3c2.1-3.7,1.2-9.1-2.4-11.4C79.2,51.9,76.5,51.8,73.9,51.3z"/>
	<g>
		<g>
			<path class="st1" d="M82.1,65.6c-1.6-0.2-3.3-0.7-5.1-1.4c-9.3-3.8-16-15.4-16-15.4s32.8-10.8,34.9,0
				C97.8,58.1,92.1,66.9,82.1,65.6z"/>
			<path class="st6" d="M82.1,65.6c2-0.5,4.1-1.8,4.9-4.5c2-6.5-25.9-12.2-25.9-12.2s32.8-10.8,34.9,0
				C97.8,58.1,92.1,66.9,82.1,65.6z"/>
		</g>
		<g>
			<path class="st1" d="M34.2,35.2c0.8,1.3,1.8,2.5,3.2,3.8c7,6.4,20.1,7.4,20.1,7.4S55,14,44.3,16.6C35.1,18.8,29.3,27.2,34.2,35.2
				z"/>
			<path class="st6" d="M34.2,35.2c-0.3-2,0.1-4.2,2.3-6c5.2-4.3,21,17.1,21,17.1S55,14,44.3,16.6C35.1,18.8,29.3,27.2,34.2,35.2z"
				/>
		</g>
		<path class="st1" d="M63.3,48.9c-0.8,1.7-3.1,2.3-5.2,1.4c-2-1-3-3.1-2.2-4.9c0.8-1.7,3.1-2.3,5.2-1.4
			C63.1,45,64.1,47.2,63.3,48.9z"/>
	</g>
</g>
</svg>
