<svg id="Layer_1" data-name="Layer 1" xmlns="http://www.w3.org/2000/svg" viewBox="0 0 87.23 56.25"><defs><style>.cls-1{fill:#f62400;}</style></defs><title>tttArtboard 1</title><path class="cls-1" d="M47.89,1C54.6,1,61.31,1.05,68,1c.93,0,1.27.19,1.26,1.21q-.07,9.19,0,18.4c0,1.06-.28,1.22-1.26,1Q48.44,16.7,28.86,11.88c-.32-.08-.64-.17-1-.23-1.89-.33-3,.89-2.33,2.72C26.79,17.91,28,21.43,29.29,25q5.15,14.58,10.33,29.17c.36,1,.2,1.26-.86,1.24-3.54,0-7.08,0-10.62,0a13.49,13.49,0,0,1-13.2-13.07q-.12-14.07,0-28.16A13.5,13.5,0,0,1,28.13,1H47.89Z"/><path class="cls-1" d="M68.94,25.85l-15,16.36c-.37.41-.59.57-1,0Q42.76,29.82,32.6,17.41c-.1-.13-.16-.28-.34-.59Z"/><path class="cls-1" d="M30.3,18.86q7.86,9.51,15.73,19c1.73,2.09,3.45,4.2,5.2,6.27a2,2,0,0,1,.52,1.68c-.33,2.82-.63,5.64-.87,8.47-.08.84-.38,1.11-1.22,1.08a47.88,47.88,0,0,0-4.94,0c-1.2.09-1.71-.36-2.1-1.47Q37.36,39,32,24.17L30.14,19Z"/><path class="cls-1" d="M60.37,54.64a12.4,12.4,0,0,1-5.6.73c-1,0-1.15-.32-1-1.23.31-2.53.53-5.07.77-7.61a1.07,1.07,0,0,1,.58-1q6.86-3.54,13.68-7.1a3.51,3.51,0,0,1,.54-.1V43c0,.34,0,.68-.11,1-.1.58-.27,1.14-.4,1.71L68.32,47a19,19,0,0,1-3.14,4.64l-.35.33-.26.24a14.13,14.13,0,0,1-2.49,1.68"/><path class="cls-1" d="M59.41,40.13c-.18-.29,0-.41.2-.59l9.18-9.8a2,2,0,0,1,.45-.25v5.1c0,.52-.42.65-.77.83l-9.06,4.71Z"/></svg>