<svg id="Calque_1" data-name="Calque 1" xmlns="http://www.w3.org/2000/svg" viewBox="0 0 96.53 79.72"><defs><style>.cls-1{fill:#d3d3d3;}.cls-2{fill:#d6d6d6;}.cls-3,.cls-4,.cls-8{fill:#fff;}.cls-3{opacity:0.1;}.cls-3,.cls-4{isolation:isolate;}.cls-4{opacity:0.05;}.cls-5{fill:#9d9fa1;}.cls-6{fill:#74767a;}.cls-7{fill:#cbccd1;}.cls-9{fill:#ced6da;}.cls-10{fill:#4e5054;}.cls-11{fill:#4b4e50;}.cls-12{fill:#a5a8aa;}.cls-13{fill:#35383a;}</style></defs><title>Plan de travail 1</title><polygon points="48.27 30.4 3.78 30.4 8.7 77.04 48.27 77.04 87.84 77.04 92.75 30.4 48.27 30.4"/><path d="M82.64,13.14H13.89c-8.21,0-10.11,11.5-10.11,17.26h89C92.75,24.65,90.85,13.14,82.64,13.14Z"/><polygon class="cls-1" points="91.85 38.91 92.75 30.4 48.27 30.4 3.78 30.4 4.68 38.91 91.85 38.91"/><polygon class="cls-2" points="5.68 48.44 90.85 48.44 91.75 39.93 4.79 39.93 5.68 48.44"/><path class="cls-1" d="M3.8,29.49H92.73a32.67,32.67,0,0,0-.83-6.3H4.62A32.65,32.65,0,0,0,3.8,29.49Z"/><path class="cls-1" d="M7,17.17a18.55,18.55,0,0,0-2.29,5.54h87a18.55,18.55,0,0,0-2.29-5.54Z"/><path class="cls-3" d="M58.18,23.94c-11.68.38-25.44,4.79-39.93,4a62.87,62.87,0,0,1-14.1-2.08,36,36,0,0,0-.33,3.59H92.29C87.55,27.92,72.64,23.49,58.18,23.94Z"/><path class="cls-3" d="M20.29,19.49A92.15,92.15,0,0,0,4.9,22.18c-.05.19-.12.38-.17.58h87a20.6,20.6,0,0,0-1.49-4.11,183.31,183.31,0,0,1-22.92,2.1C56.65,20.92,37.18,18.27,20.29,19.49Z"/><path class="cls-1" d="M13.89,13.14a7.8,7.8,0,0,0-6.58,3.62H89.18a7.8,7.8,0,0,0-6.58-3.62Z"/><polygon class="cls-1" points="6.69 57.97 89.85 57.97 90.74 49.47 5.79 49.47 6.69 57.97"/><polygon class="cls-1" points="7.69 67.51 88.84 67.51 89.74 59 6.8 59 7.69 67.51"/><polygon class="cls-1" points="7.8 68.53 8.7 77.04 48.27 77.04 87.84 77.04 88.73 68.53 7.8 68.53"/><path class="cls-4" d="M21.06,72.79a28.56,28.56,0,0,0-12.4,4v.27H87.8l.9-8.51H75.8S55.58,73.69,48.67,74,30.89,72.06,21.06,72.79Z"/><path class="cls-4" d="M88.84,67.49l.29-2.78A33.83,33.83,0,0,0,78.42,62.1C71.05,61.63,55.36,66,49.49,66c-18.78,0-42.7-7-42.7-7l.9,8.51Z"/><path class="cls-3" d="M16.61,55.58a35.83,35.83,0,0,1-10.49-3L6.69,58H82.37C78,56.57,69.61,54.09,63.55,53.76,55,53.25,23.7,56.49,16.61,55.58Z"/><path class="cls-3" d="M91.45,42.77c-2,1.09-6.79,2.93-16,3.49-13.37.82-26.06-3.91-36.84-4.31-16.16-.61-32.9,6.5-32.9,6.5H90.88Z"/><path class="cls-4" d="M4.68,38.91H88.55c-2.91-1.26-5.64-2.22-7-2.09-3.68.35-19.65,1.28-28.38.93S24.24,31.8,16.46,32.39A51.45,51.45,0,0,0,4.24,34.84Z"/><path class="cls-4" d="M67.5,35.32c0,.57-4.15,1-9.28,1s-9.28-.46-9.28-1,4.15-1,9.28-1S67.5,34.75,67.5,35.32Zm-9.28-.72c-2.79,0-5,.32-5,.72s2.26.72,5,.72,5-.32,5-.72-2.21-.73-5-.73Z"/><path class="cls-3" d="M54.12,62.83c0,1-4.15,1.81-9.28,1.81s-9.28-.81-9.28-1.81S39.71,61,44.84,61,54.12,61.84,54.12,62.83Zm-9.28-1.4c-3.67,0-6.64.63-6.64,1.4s3,1.4,6.64,1.4,6.64-.63,6.64-1.4S48.51,61.43,44.84,61.43Z"/><path class="cls-4" d="M49.93,62.83c0,.55-2.28,1-5.09,1s-5.09-.44-5.09-1,2.28-1,5.09-1S49.93,62.29,49.93,62.83Zm-5.09-.77c-2,0-3.64.35-3.64.77s1.63.77,3.64.77,3.64-.35,3.64-.77S46.85,62.06,44.84,62.06Z"/><path class="cls-4" d="M71.18,19c0,.56-4.15,1-9.28,1s-9.28-.46-9.28-1,4.15-1,9.28-1S71.18,18.49,71.18,19Zm-9.28-.79c-3.67,0-6.64.36-6.64.79s3,.79,6.64.79,6.64-.36,6.64-.79-3-.8-6.65-.8Z"/><path class="cls-3" d="M67,19c0,.31-2.28.56-5.09.56S56.8,19.35,56.8,19s2.28-.56,5.09-.56S67,18.73,67,19Zm-5.09-.44c-2,0-3.64.19-3.64.44s1.63.44,3.64.44,3.64-.19,3.64-.44-1.62-.44-3.64-.44Z"/><path class="cls-4" d="M79.3,44.7c0,.31-1.82.56-4.06.56s-4.06-.25-4.06-.56,1.82-.56,4.06-.56S79.3,44.39,79.3,44.7Zm-4.06-.39c-1.22,0-2.21.18-2.21.39s1,.39,2.21.39,2.21-.18,2.21-.39S76.46,44.31,75.24,44.31Z"/><polygon class="cls-5" points="7.11 30.4 12.02 77.04 16.04 77.04 11.13 30.4 7.11 30.4"/><ellipse class="cls-6" cx="13.89" cy="74.13" rx="1.43" ry="1.22"/><ellipse class="cls-7" cx="13.89" cy="74.02" rx="1.18" ry="1.01"/><ellipse class="cls-8" cx="13.89" cy="73.59" rx="0.61" ry="0.31"/><ellipse class="cls-6" cx="13.01" cy="66.17" rx="1.43" ry="1.22"/><ellipse class="cls-7" cx="13.01" cy="66.07" rx="1.18" ry="1.01"/><ellipse class="cls-8" cx="13.01" cy="65.64" rx="0.61" ry="0.31"/><ellipse class="cls-6" cx="13.57" cy="69.76" rx="1.43" ry="1.22"/><ellipse class="cls-7" cx="13.57" cy="69.65" rx="1.18" ry="1.01"/><ellipse class="cls-8" cx="13.57" cy="69.22" rx="0.61" ry="0.31"/><ellipse class="cls-6" cx="12.39" cy="60.62" rx="1.43" ry="1.22"/><ellipse class="cls-7" cx="12.39" cy="60.51" rx="1.18" ry="1.01"/><ellipse class="cls-8" cx="12.39" cy="60.08" rx="0.61" ry="0.31"/><ellipse class="cls-6" cx="11.78" cy="56.25" rx="1.43" ry="1.22"/><ellipse class="cls-7" cx="11.78" cy="56.14" rx="1.18" ry="1.01"/><ellipse class="cls-8" cx="11.78" cy="55.71" rx="0.61" ry="0.31"/><ellipse class="cls-6" cx="11.57" cy="51.15" rx="1.43" ry="1.22"/><ellipse class="cls-7" cx="11.57" cy="51.04" rx="1.18" ry="1.01"/><ellipse class="cls-8" cx="11.57" cy="50.61" rx="0.61" ry="0.31"/><ellipse class="cls-6" cx="10.6" cy="46.97" rx="1.43" ry="1.22"/><ellipse class="cls-7" cx="10.6" cy="46.86" rx="1.18" ry="1.01"/><ellipse class="cls-8" cx="10.6" cy="46.43" rx="0.61" ry="0.31"/><ellipse class="cls-6" cx="10.35" cy="41.35" rx="1.43" ry="1.22"/><ellipse class="cls-7" cx="10.35" cy="41.25" rx="1.18" ry="1.01"/><ellipse class="cls-8" cx="10.35" cy="40.82" rx="0.61" ry="0.31"/><ellipse class="cls-6" cx="9.98" cy="37.57" rx="1.43" ry="1.22"/><ellipse class="cls-7" cx="9.98" cy="37.46" rx="1.18" ry="1.01"/><ellipse class="cls-8" cx="9.98" cy="37.03" rx="0.61" ry="0.31"/><ellipse class="cls-6" cx="9.37" cy="32.49" rx="1.43" ry="1.22"/><ellipse class="cls-7" cx="9.37" cy="32.38" rx="1.18" ry="1.01"/><ellipse class="cls-8" cx="9.37" cy="31.95" rx="0.61" ry="0.31"/><polygon class="cls-5" points="89.42 30.4 84.51 77.04 80.49 77.04 85.41 30.4 89.42 30.4"/><ellipse class="cls-6" cx="82.64" cy="74.13" rx="1.43" ry="1.22"/><ellipse class="cls-7" cx="82.64" cy="74.02" rx="1.18" ry="1.01"/><ellipse class="cls-8" cx="82.64" cy="73.59" rx="0.61" ry="0.31"/><ellipse class="cls-6" cx="83.53" cy="66.17" rx="1.43" ry="1.22"/><ellipse class="cls-7" cx="83.53" cy="66.07" rx="1.18" ry="1.01"/><ellipse class="cls-8" cx="83.53" cy="65.64" rx="0.61" ry="0.31"/><ellipse class="cls-6" cx="82.96" cy="69.76" rx="1.43" ry="1.22"/><ellipse class="cls-7" cx="82.96" cy="69.65" rx="1.18" ry="1.01"/><ellipse class="cls-8" cx="82.96" cy="69.22" rx="0.61" ry="0.31"/><ellipse class="cls-6" cx="84.14" cy="60.62" rx="1.43" ry="1.22"/><ellipse class="cls-7" cx="84.14" cy="60.51" rx="1.18" ry="1.01"/><ellipse class="cls-8" cx="84.14" cy="60.08" rx="0.61" ry="0.31"/><ellipse class="cls-6" cx="84.75" cy="56.25" rx="1.43" ry="1.22"/><ellipse class="cls-7" cx="84.75" cy="56.14" rx="1.18" ry="1.01"/><ellipse class="cls-8" cx="84.75" cy="55.71" rx="0.61" ry="0.31"/><ellipse class="cls-6" cx="84.96" cy="51.15" rx="1.43" ry="1.22"/><ellipse class="cls-7" cx="84.96" cy="51.04" rx="1.18" ry="1.01"/><ellipse class="cls-8" cx="84.96" cy="50.61" rx="0.61" ry="0.31"/><ellipse class="cls-6" cx="85.94" cy="46.97" rx="1.43" ry="1.22"/><ellipse class="cls-7" cx="85.94" cy="46.86" rx="1.18" ry="1.01"/><ellipse class="cls-8" cx="85.94" cy="46.43" rx="0.61" ry="0.31"/><ellipse class="cls-6" cx="86.19" cy="41.35" rx="1.43" ry="1.22"/><ellipse class="cls-7" cx="86.19" cy="41.25" rx="1.18" ry="1.01"/><ellipse class="cls-8" cx="86.19" cy="40.82" rx="0.61" ry="0.31"/><ellipse class="cls-6" cx="86.55" cy="37.57" rx="1.43" ry="1.22"/><ellipse class="cls-7" cx="86.55" cy="37.46" rx="1.18" ry="1.01"/><ellipse class="cls-8" cx="86.55" cy="37.03" rx="0.61" ry="0.31"/><ellipse class="cls-6" cx="87.16" cy="32.49" rx="1.43" ry="1.22"/><ellipse class="cls-7" cx="87.16" cy="32.38" rx="1.18" ry="1.01"/><ellipse class="cls-8" cx="87.16" cy="31.95" rx="0.61" ry="0.31"/><path class="cls-9" d="M79.31,13.14H75.25c8.21,0,10.11,10.77,10.11,16.52h4.06C89.42,23.91,87.52,13.14,79.31,13.14Z"/><ellipse class="cls-6" cx="87.37" cy="27.74" rx="1.43" ry="1.03"/><ellipse class="cls-7" cx="87.37" cy="27.64" rx="1.18" ry="0.85"/><ellipse class="cls-8" cx="87.37" cy="27.28" rx="0.61" ry="0.26"/><ellipse class="cls-6" cx="86.91" cy="24.47" rx="1.43" ry="1.03"/><ellipse class="cls-7" cx="86.91" cy="24.38" rx="1.18" ry="0.85"/><ellipse class="cls-8" cx="86.91" cy="24.02" rx="0.61" ry="0.26"/><path class="cls-6" d="M84.77,21.59a1.35,1.35,0,0,0,1.6.83c.78-.1,1.33-.64,1.23-1.21a1.35,1.35,0,0,0-1.6-.83C85.18,20.49,84.67,21,84.77,21.59Z"/><path class="cls-7" d="M85,21.49a1.12,1.12,0,0,0,1.32.69c.64-.09,1.1-.53,1-1A1.12,1.12,0,0,0,86,20.49C85.37,20.55,84.91,21,85,21.49Z"/><path class="cls-8" d="M85.5,21c0,.14.32.22.65.18s.59-.2.56-.34-.32-.22-.65-.18S85.47,20.89,85.5,21Z"/><path class="cls-6" d="M83.69,18.49c.06.5.7.85,1.43.78s1.26-.53,1.19-1-.7-.85-1.43-.78S83.63,18,83.69,18.49Z"/><path class="cls-7" d="M83.91,18.43c0,.41.58.7,1.18.64s1-.44,1-.85-.58-.7-1.18-.64S83.86,18,83.91,18.43Z"/><path class="cls-8" d="M84.39,18.07c0,.13.28.2.59.18s.55-.16.53-.28-.28-.2-.59-.18S84.37,17.94,84.39,18.07Z"/><path class="cls-6" d="M81.91,15.83c.1.47.73.77,1.41.66s1.15-.57,1.05-1A1.22,1.22,0,0,0,83,14.83C82.28,14.94,81.81,15.36,81.91,15.83Z"/><path class="cls-7" d="M82.11,15.72c.08.39.6.63,1.17.55s1-.47.87-.86A1,1,0,0,0,83,14.86C82.41,14.94,82,15.34,82.11,15.72Z"/><path class="cls-8" d="M82.53,15.35c0,.12.28.18.57.13s.51-.18.48-.3S83.3,15,83,15.05,82.51,15.23,82.53,15.35Z"/><path class="cls-6" d="M79.38,13.86a.73.73,0,0,0,.86.42c.42-.06.71-.34.66-.63s-.44-.48-.86-.42S79.32,13.57,79.38,13.86Z"/><path class="cls-7" d="M79.5,13.8c0,.24.37.39.71.34s.59-.28.54-.52-.37-.39-.71-.34S79.45,13.56,79.5,13.8Z"/><path class="cls-8" d="M79.77,13.57c0,.07.17.11.35.09s.31-.11.3-.18-.17-.11-.35-.09S79.75,13.49,79.77,13.57Z"/><path class="cls-9" d="M17,13.14h4.06C12.87,13.14,11,23.91,11,29.66H6.91C6.91,23.91,8.81,13.14,17,13.14Z"/><ellipse class="cls-6" cx="8.97" cy="27.74" rx="1.43" ry="1.03"/><ellipse class="cls-7" cx="8.97" cy="27.64" rx="1.18" ry="0.85"/><ellipse class="cls-8" cx="8.97" cy="27.28" rx="0.61" ry="0.26"/><ellipse class="cls-6" cx="9.43" cy="24.47" rx="1.43" ry="1.03"/><ellipse class="cls-7" cx="9.43" cy="24.38" rx="1.18" ry="0.85"/><ellipse class="cls-8" cx="9.43" cy="24.02" rx="0.61" ry="0.26"/><path class="cls-6" d="M11.57,21.59a1.35,1.35,0,0,1-1.6.83c-.78-.1-1.33-.64-1.23-1.21a1.35,1.35,0,0,1,1.6-.83C11.12,20.49,11.67,21,11.57,21.59Z"/><path class="cls-7" d="M11.34,21.49a1.12,1.12,0,0,1-1.32.69c-.64-.09-1.1-.53-1-1a1.12,1.12,0,0,1,1.32-.69C11,20.55,11.42,21,11.34,21.49Z"/><path class="cls-8" d="M10.84,21c0,.14-.32.22-.65.18s-.59-.2-.56-.34.32-.22.65-.18S10.86,20.89,10.84,21Z"/><path class="cls-6" d="M12.64,18.49c-.06.5-.7.85-1.43.78s-1.26-.53-1.19-1,.7-.85,1.43-.78S12.71,18,12.64,18.49Z"/><path class="cls-7" d="M12.42,18.43c-.05.41-.58.7-1.18.64s-1-.44-1-.85.58-.7,1.18-.64S12.48,18,12.42,18.43Z"/><path class="cls-8" d="M11.94,18.07c0,.13-.28.2-.59.18s-.55-.16-.53-.28.28-.2.59-.18S12,17.94,11.94,18.07Z"/><path class="cls-6" d="M14.42,15.83c-.1.47-.73.77-1.41.66s-1.15-.57-1-1a1.22,1.22,0,0,1,1.41-.66C14.05,14.94,14.52,15.36,14.42,15.83Z"/><path class="cls-7" d="M14.18,15.72c-.08.39-.6.63-1.17.55s-1-.47-.87-.86a1,1,0,0,1,1.17-.55C13.88,14.94,14.31,15.34,14.18,15.72Z"/><path class="cls-8" d="M13.8,15.35c0,.12-.28.18-.57.13s-.51-.18-.48-.3.28-.18.57-.13S13.82,15.23,13.8,15.35Z"/><path class="cls-6" d="M17,13.86a.73.73,0,0,1-.86.42c-.42-.06-.71-.34-.66-.63s.44-.48.86-.42S17,13.57,17,13.86Z"/><path class="cls-7" d="M16.83,13.8c0,.24-.37.39-.71.34s-.59-.28-.54-.52.37-.39.71-.34S16.88,13.56,16.83,13.8Z"/><path class="cls-8" d="M16.57,13.57c0,.07-.17.11-.35.09s-.31-.11-.3-.18.17-.11.35-.09S16.58,13.49,16.57,13.57Z"/><path class="cls-10" d="M94.77,38.91a1.77,1.77,0,0,1,1.77,1.75,2,2,0,0,1,0,.25l-.27,2.28a1.76,1.76,0,0,1-1.75,1.55H91.24l.61-5.8ZM94,40.44a1.37,1.37,0,1,0,1.37,1.37h0A1.38,1.38,0,0,0,94,40.44Z"/><path class="cls-6" d="M93.89,41.58a.83.83,0,0,0-.83.83V54a.83.83,0,0,0,1.66,0V42.41A.83.83,0,0,0,93.89,41.58Z"/><path class="cls-10" d="M4.68,38.91l.61,5.8H2A1.76,1.76,0,0,1,.28,43.16L0,40.88a1.76,1.76,0,0,1,1.5-2l.25,0Zm-3.51,2.9a1.37,1.37,0,1,0,1.37-1.37h0A1.37,1.37,0,0,0,1.18,41.8Z"/><path class="cls-6" d="M2.64,41.58a.83.83,0,0,1,.83.83V54a.83.83,0,0,1-1.66,0V42.41A.83.83,0,0,1,2.64,41.58Z"/><path class="cls-7" d="M48.56,0C42.24,0,36.94,1.33,36.94,3.8v7.69h1.79V6.11c0-2.2,4.48-3.38,9.82-3.38s9.82,1.18,9.82,3.38v5.38h1.81V3.84C60.18,1.33,54.88,0,48.56,0Z"/><path class="cls-6" d="M61.6,13.14H57a1.7,1.7,0,0,1,1.7-1.7H59.9A1.7,1.7,0,0,1,61.6,13.14Z"/><path class="cls-6" d="M35.53,13.14h4.65a1.7,1.7,0,0,0-1.7-1.7h-1.3A1.7,1.7,0,0,0,35.53,13.14Z"/><path class="cls-6" d="M59,11.49V5.22c0-1.46-3.43-3.64-10.44-3.64S38.07,3.81,37.84,4.9a60.36,60.36,0,0,0,0,6.59h.92V6.11c0-2.2,4.48-3.38,9.82-3.38S58.4,3.91,58.4,6.11v5.38Z"/><path class="cls-11" d="M42.6,24.35c1.32.94,4.25,0,5-1,0,0-.41,5-4.25,6.14H53.81c-3.84-1.17-4.25-6.14-4.25-6.14.73,1.06,3.66,2,5,1,1.8-1.28.18-2.88-.84-3.39.27,2.09-2.59,2.78-4,1.8a2,2,0,0,0,1-2.07c-.27-1.39-2-2.09-2-2.09s-1.77.7-2,2.09a2,2,0,0,0,1,2.07c-1.46,1-4.32.3-4-1.8C42.42,21.49,40.8,23.07,42.6,24.35Z"/><path class="cls-9" d="M42.6,23.93c1.32.94,4.25,0,5-1,0,0-.41,5-4.25,6.14H53.81c-3.84-1.17-4.25-6.14-4.25-6.14.73,1.06,3.66,2,5,1,1.8-1.28.18-2.88-.84-3.39.27,2.09-2.59,2.78-4,1.8a2,2,0,0,0,1-2.07c-.27-1.39-2-2.09-2-2.09s-1.77.7-2,2.09a2,2,0,0,0,1,2.07c-1.46,1-4.32.3-4-1.8C42.42,21.05,40.8,22.65,42.6,23.93Z"/><path class="cls-11" d="M43.49,30.76V39c0,3.11,2.91,1.89,5.07,5.3h0c2.16-3.41,5.07-2.18,5.07-5.3V30.76Z"/><path class="cls-12" d="M43.49,30.4v8.23c0,3.11,2.91,1.89,5.07,5.3h0c2.16-3.41,5.07-2.18,5.07-5.3V30.4Z"/><circle class="cls-11" cx="48.57" cy="33.34" r="1.85"/><path class="cls-13" d="M48.56,32.17a1.84,1.84,0,0,1,1.82,1.51A1.85,1.85,0,0,0,46.75,33a1.75,1.75,0,0,0,0,.72A1.84,1.84,0,0,1,48.56,32.17Z"/><rect class="cls-11" x="48.06" y="34.53" width="1.02" height="3.54"/><polygon points="22.75 79.72 15.06 79.72 13.89 77.04 23.89 77.04 22.75 79.72"/><polygon points="73.78 79.72 81.47 79.72 82.64 77.04 72.65 77.04 73.78 79.72"/></svg>