<svg id="Calque_1" data-name="Calque 1" xmlns="http://www.w3.org/2000/svg" viewBox="0 0 96.53 79.72"><defs><style>.cls-1{fill:#22252c;}.cls-2,.cls-3,.cls-7{fill:#fff;}.cls-2{opacity:0.1;}.cls-3{opacity:0.05;}.cls-4{fill:#9d9fa1;}.cls-5{fill:#74767a;}.cls-6{fill:#cbccd1;}.cls-8{fill:#ced6da;}.cls-9{fill:#4e5054;}.cls-10{fill:#4b4e50;}.cls-11{fill:#a5a8aa;}.cls-12{fill:#35383a;}</style></defs><title>Sans titre - 1</title><polygon points="48.27 30.4 3.78 30.4 8.7 77.04 48.27 77.04 87.84 77.04 92.75 30.4 48.27 30.4"/><path d="M655.46,1077.65H586.71c-8.21,0-10.11,11.5-10.11,17.26h89C665.57,1089.16,663.67,1077.65,655.46,1077.65Z" transform="translate(-572.82 -1064.51)"/><polygon class="cls-1" points="91.85 38.91 92.75 30.4 48.27 30.4 3.78 30.4 4.68 38.91 91.85 38.91"/><polygon class="cls-1" points="5.68 48.44 90.85 48.44 91.75 39.93 4.79 39.93 5.68 48.44"/><path class="cls-1" d="M576.62,1094h88.93a32.65,32.65,0,0,0-.83-6.3H577.44A32.66,32.66,0,0,0,576.62,1094Z" transform="translate(-572.82 -1064.51)"/><path class="cls-1" d="M579.85,1081.68a18.77,18.77,0,0,0-2.29,5.54h87a18.78,18.78,0,0,0-2.29-5.54Z" transform="translate(-572.82 -1064.51)"/><path class="cls-2" d="M631,1088.45c-11.68.38-25.44,4.79-39.93,4a62.87,62.87,0,0,1-14.1-2.08,33.6,33.6,0,0,0-.33,3.59h88.47C660.37,1092.43,645.46,1088,631,1088.45Z" transform="translate(-572.82 -1064.51)"/><path class="cls-2" d="M593.11,1084a91.89,91.89,0,0,0-15.39,2.69c-.05.19-.12.38-.17.58h87a21,21,0,0,0-1.49-4.11,183.81,183.81,0,0,1-22.92,2.1C629.47,1085.43,610,1082.78,593.11,1084Z" transform="translate(-572.82 -1064.51)"/><path class="cls-1" d="M586.71,1077.65a7.81,7.81,0,0,0-6.58,3.62H662a7.81,7.81,0,0,0-6.58-3.62H586.71Z" transform="translate(-572.82 -1064.51)"/><polygon class="cls-1" points="6.69 57.97 89.85 57.97 90.74 49.47 5.79 49.47 6.69 57.97"/><polygon class="cls-1" points="7.69 67.51 88.84 67.51 89.74 59 6.8 59 7.69 67.51"/><polygon class="cls-1" points="7.8 68.53 8.7 77.04 48.27 77.04 87.84 77.04 88.73 68.53 7.8 68.53"/><path class="cls-3" d="M593.88,1137.3a28.67,28.67,0,0,0-12.4,4l0,.27h79.14l.9-8.51h-12.9s-20.22,5.14-27.13,5.45S603.71,1136.57,593.88,1137.3Z" transform="translate(-572.82 -1064.51)"/><path class="cls-3" d="M661.66,1132l.29-2.78a33.93,33.93,0,0,0-10.71-2.61c-7.37-.47-23.06,3.85-28.93,3.85-18.78,0-42.7-7-42.7-7l.9,8.51Z" transform="translate(-572.82 -1064.51)"/><path class="cls-2" d="M589.43,1120.09a35.92,35.92,0,0,1-10.49-3l.57,5.43h75.68c-4.41-1.44-12.76-3.92-18.82-4.25C627.77,1117.76,596.52,1121,589.43,1120.09Z" transform="translate(-572.82 -1064.51)"/><path class="cls-2" d="M664.27,1107.28c-2.05,1.09-6.79,2.93-16,3.49-13.37.82-26.06-3.91-36.84-4.31-16.16-.61-32.9,6.5-32.9,6.5h85.17Z" transform="translate(-572.82 -1064.51)"/><path class="cls-3" d="M577.5,1103.42h83.87c-2.91-1.26-5.64-2.22-7-2.09-3.68.35-19.65,1.28-28.38.93s-28.93-5.95-36.71-5.36a51.35,51.35,0,0,0-12.22,2.45Z" transform="translate(-572.82 -1064.51)"/><path class="cls-3" d="M640.32,1099.83c0,.57-4.15,1-9.28,1s-9.28-.46-9.28-1,4.15-1,9.28-1S640.32,1099.26,640.32,1099.83Zm-9.28-.72c-2.79,0-5,.32-5,.72s2.26.72,5,.72,5-.32,5-.72S633.83,1099.1,631,1099.1Z" transform="translate(-572.82 -1064.51)"/><path class="cls-2" d="M626.94,1127.34c0,1-4.15,1.81-9.28,1.81s-9.28-.81-9.28-1.81,4.15-1.81,9.28-1.81S626.94,1126.35,626.94,1127.34Zm-9.28-1.4c-3.67,0-6.64.63-6.64,1.4s3,1.4,6.64,1.4,6.64-.63,6.64-1.4S621.33,1125.94,617.66,1125.94Z" transform="translate(-572.82 -1064.51)"/><path class="cls-3" d="M622.75,1127.34c0,.55-2.28,1-5.09,1s-5.09-.44-5.09-1,2.28-1,5.09-1S622.75,1126.8,622.75,1127.34Zm-5.09-.77c-2,0-3.64.35-3.64.77s1.63.77,3.64.77,3.64-.35,3.64-.77S619.67,1126.57,617.66,1126.57Z" transform="translate(-572.82 -1064.51)"/><path class="cls-3" d="M644,1083.55c0,.56-4.15,1-9.28,1s-9.28-.46-9.28-1,4.15-1,9.28-1S644,1083,644,1083.55Zm-9.28-.79c-3.67,0-6.64.36-6.64.79s3,.79,6.64.79,6.64-.36,6.64-.79S638.38,1082.75,634.71,1082.75Z" transform="translate(-572.82 -1064.51)"/><path class="cls-2" d="M639.8,1083.55c0,.31-2.28.56-5.09.56s-5.09-.25-5.09-.56,2.28-.56,5.09-.56S639.8,1083.24,639.8,1083.55Zm-5.09-.44c-2,0-3.64.19-3.64.44s1.63.44,3.64.44,3.64-.19,3.64-.44S636.73,1083.11,634.71,1083.11Z" transform="translate(-572.82 -1064.51)"/><path class="cls-3" d="M652.12,1109.21c0,.31-1.82.56-4.06.56s-4.06-.25-4.06-.56,1.82-.56,4.06-.56S652.12,1108.9,652.12,1109.21Zm-4.06-.39c-1.22,0-2.21.18-2.21.39s1,.39,2.21.39,2.21-.18,2.21-.39S649.28,1108.82,648.06,1108.82Z" transform="translate(-572.82 -1064.51)"/><polygon class="cls-4" points="7.11 30.4 12.02 77.04 16.04 77.04 11.13 30.4 7.11 30.4"/><ellipse class="cls-5" cx="13.89" cy="74.13" rx="1.43" ry="1.22"/><ellipse class="cls-6" cx="13.89" cy="74.02" rx="1.18" ry="1.01"/><ellipse class="cls-7" cx="13.89" cy="73.59" rx="0.61" ry="0.31"/><ellipse class="cls-5" cx="13.01" cy="66.17" rx="1.43" ry="1.22"/><ellipse class="cls-6" cx="13.01" cy="66.07" rx="1.18" ry="1.01"/><ellipse class="cls-7" cx="13.01" cy="65.64" rx="0.61" ry="0.31"/><ellipse class="cls-5" cx="13.57" cy="69.76" rx="1.43" ry="1.22"/><ellipse class="cls-6" cx="13.57" cy="69.65" rx="1.18" ry="1.01"/><ellipse class="cls-7" cx="13.57" cy="69.22" rx="0.61" ry="0.31"/><ellipse class="cls-5" cx="12.39" cy="60.62" rx="1.43" ry="1.22"/><ellipse class="cls-6" cx="12.39" cy="60.51" rx="1.18" ry="1.01"/><ellipse class="cls-7" cx="12.39" cy="60.08" rx="0.61" ry="0.31"/><ellipse class="cls-5" cx="11.78" cy="56.25" rx="1.43" ry="1.22"/><ellipse class="cls-6" cx="11.78" cy="56.14" rx="1.18" ry="1.01"/><ellipse class="cls-7" cx="11.78" cy="55.71" rx="0.61" ry="0.31"/><ellipse class="cls-5" cx="11.57" cy="51.15" rx="1.43" ry="1.22"/><ellipse class="cls-6" cx="11.57" cy="51.04" rx="1.18" ry="1.01"/><ellipse class="cls-7" cx="11.57" cy="50.61" rx="0.61" ry="0.31"/><ellipse class="cls-5" cx="10.6" cy="46.97" rx="1.43" ry="1.22"/><ellipse class="cls-6" cx="10.6" cy="46.86" rx="1.18" ry="1.01"/><ellipse class="cls-7" cx="10.6" cy="46.43" rx="0.61" ry="0.31"/><ellipse class="cls-5" cx="10.35" cy="41.35" rx="1.43" ry="1.22"/><ellipse class="cls-6" cx="10.35" cy="41.25" rx="1.18" ry="1.01"/><ellipse class="cls-7" cx="10.35" cy="40.82" rx="0.61" ry="0.31"/><ellipse class="cls-5" cx="9.98" cy="37.57" rx="1.43" ry="1.22"/><ellipse class="cls-6" cx="9.98" cy="37.46" rx="1.18" ry="1.01"/><ellipse class="cls-7" cx="9.98" cy="37.03" rx="0.61" ry="0.31"/><ellipse class="cls-5" cx="9.37" cy="32.49" rx="1.43" ry="1.22"/><ellipse class="cls-6" cx="9.37" cy="32.38" rx="1.18" ry="1.01"/><ellipse class="cls-7" cx="9.37" cy="31.95" rx="0.61" ry="0.31"/><polygon class="cls-4" points="89.42 30.4 84.51 77.04 80.49 77.04 85.41 30.4 89.42 30.4"/><ellipse class="cls-5" cx="82.64" cy="74.13" rx="1.43" ry="1.22"/><ellipse class="cls-6" cx="82.64" cy="74.02" rx="1.18" ry="1.01"/><ellipse class="cls-7" cx="82.64" cy="73.59" rx="0.61" ry="0.31"/><ellipse class="cls-5" cx="83.53" cy="66.17" rx="1.43" ry="1.22"/><ellipse class="cls-6" cx="83.53" cy="66.07" rx="1.18" ry="1.01"/><ellipse class="cls-7" cx="83.53" cy="65.64" rx="0.61" ry="0.31"/><ellipse class="cls-5" cx="82.96" cy="69.76" rx="1.43" ry="1.22"/><ellipse class="cls-6" cx="82.96" cy="69.65" rx="1.18" ry="1.01"/><ellipse class="cls-7" cx="82.96" cy="69.22" rx="0.61" ry="0.31"/><ellipse class="cls-5" cx="84.14" cy="60.62" rx="1.43" ry="1.22"/><ellipse class="cls-6" cx="84.14" cy="60.51" rx="1.18" ry="1.01"/><ellipse class="cls-7" cx="84.14" cy="60.08" rx="0.61" ry="0.31"/><ellipse class="cls-5" cx="84.75" cy="56.25" rx="1.43" ry="1.22"/><ellipse class="cls-6" cx="84.75" cy="56.14" rx="1.18" ry="1.01"/><ellipse class="cls-7" cx="84.75" cy="55.71" rx="0.61" ry="0.31"/><ellipse class="cls-5" cx="84.96" cy="51.15" rx="1.43" ry="1.22"/><ellipse class="cls-6" cx="84.96" cy="51.04" rx="1.18" ry="1.01"/><ellipse class="cls-7" cx="84.96" cy="50.61" rx="0.61" ry="0.31"/><ellipse class="cls-5" cx="85.94" cy="46.97" rx="1.43" ry="1.22"/><ellipse class="cls-6" cx="85.94" cy="46.86" rx="1.18" ry="1.01"/><ellipse class="cls-7" cx="85.94" cy="46.43" rx="0.61" ry="0.31"/><ellipse class="cls-5" cx="86.19" cy="41.35" rx="1.43" ry="1.22"/><ellipse class="cls-6" cx="86.19" cy="41.25" rx="1.18" ry="1.01"/><ellipse class="cls-7" cx="86.19" cy="40.82" rx="0.61" ry="0.31"/><ellipse class="cls-5" cx="86.55" cy="37.57" rx="1.43" ry="1.22"/><ellipse class="cls-6" cx="86.55" cy="37.46" rx="1.18" ry="1.01"/><ellipse class="cls-7" cx="86.55" cy="37.03" rx="0.61" ry="0.31"/><ellipse class="cls-5" cx="87.16" cy="32.49" rx="1.43" ry="1.22"/><ellipse class="cls-6" cx="87.16" cy="32.38" rx="1.18" ry="1.01"/><ellipse class="cls-7" cx="87.16" cy="31.95" rx="0.61" ry="0.31"/><path class="cls-8" d="M652.13,1077.65h-4.06c8.21,0,10.11,10.77,10.11,16.52h4.06C662.24,1088.42,660.34,1077.65,652.13,1077.65Z" transform="translate(-572.82 -1064.51)"/><ellipse class="cls-5" cx="87.37" cy="27.74" rx="1.43" ry="1.03"/><ellipse class="cls-6" cx="87.37" cy="27.64" rx="1.18" ry="0.85"/><ellipse class="cls-7" cx="87.37" cy="27.28" rx="0.61" ry="0.26"/><ellipse class="cls-5" cx="86.91" cy="24.47" rx="1.43" ry="1.03"/><ellipse class="cls-6" cx="86.91" cy="24.38" rx="1.18" ry="0.85"/><ellipse class="cls-7" cx="86.91" cy="24.02" rx="0.61" ry="0.26"/><path class="cls-5" d="M657.59,1086.1a1.35,1.35,0,0,0,1.6.83c.78-.1,1.33-.64,1.23-1.21a1.35,1.35,0,0,0-1.6-.83C658,1085,657.49,1085.54,657.59,1086.1Z" transform="translate(-572.82 -1064.51)"/><path class="cls-6" d="M657.82,1086a1.12,1.12,0,0,0,1.32.69c.64-.09,1.1-.53,1-1a1.12,1.12,0,0,0-1.32-.69C658.19,1085.06,657.73,1085.51,657.82,1086Z" transform="translate(-572.82 -1064.51)"/><path class="cls-7" d="M658.32,1085.55c0,.14.32.22.65.18s.59-.2.56-.34-.32-.22-.65-.18S658.29,1085.4,658.32,1085.55Z" transform="translate(-572.82 -1064.51)"/><path class="cls-5" d="M656.51,1083c.06.5.7.85,1.43.78s1.26-.53,1.19-1-.7-.85-1.43-.78S656.45,1082.55,656.51,1083Z" transform="translate(-572.82 -1064.51)"/><path class="cls-6" d="M656.73,1082.94c.05.41.58.7,1.18.64s1-.44,1-.85-.58-.7-1.18-.64S656.68,1082.53,656.73,1082.94Z" transform="translate(-572.82 -1064.51)"/><path class="cls-7" d="M657.21,1082.58c0,.13.28.2.59.18s.55-.16.53-.28-.28-.2-.59-.18S657.19,1082.45,657.21,1082.58Z" transform="translate(-572.82 -1064.51)"/><path class="cls-5" d="M654.73,1080.34c.1.47.73.77,1.41.66s1.15-.57,1.05-1-.73-.77-1.41-.66S654.63,1079.87,654.73,1080.34Z" transform="translate(-572.82 -1064.51)"/><path class="cls-6" d="M654.93,1080.23c.08.39.6.63,1.17.55s1-.47.87-.86-.6-.63-1.17-.55S654.85,1079.85,654.93,1080.23Z" transform="translate(-572.82 -1064.51)"/><path class="cls-7" d="M655.35,1079.86c0,.12.28.18.57.13s.51-.18.48-.3-.28-.18-.57-.13S655.33,1079.74,655.35,1079.86Z" transform="translate(-572.82 -1064.51)"/><path class="cls-5" d="M652.2,1078.37c.06.29.44.48.86.42s.71-.34.66-.63-.44-.48-.86-.42S652.14,1078.08,652.2,1078.37Z" transform="translate(-572.82 -1064.51)"/><path class="cls-6" d="M652.32,1078.31c0,.24.37.39.71.34s.59-.28.54-.52-.37-.39-.71-.34S652.27,1078.07,652.32,1078.31Z" transform="translate(-572.82 -1064.51)"/><path class="cls-7" d="M652.59,1078.08c0,.07.17.11.35.09s.31-.11.3-.18-.17-.11-.35-.09S652.57,1078,652.59,1078.08Z" transform="translate(-572.82 -1064.51)"/><path class="cls-8" d="M589.84,1077.65h4.06c-8.21,0-10.11,10.77-10.11,16.52h-4.06C579.73,1088.42,581.63,1077.65,589.84,1077.65Z" transform="translate(-572.82 -1064.51)"/><ellipse class="cls-5" cx="8.97" cy="27.74" rx="1.43" ry="1.03"/><ellipse class="cls-6" cx="8.97" cy="27.64" rx="1.18" ry="0.85"/><ellipse class="cls-7" cx="8.97" cy="27.28" rx="0.61" ry="0.26"/><ellipse class="cls-5" cx="9.43" cy="24.47" rx="1.43" ry="1.03"/><ellipse class="cls-6" cx="9.43" cy="24.38" rx="1.18" ry="0.85"/><ellipse class="cls-7" cx="9.43" cy="24.02" rx="0.61" ry="0.26"/><path class="cls-5" d="M584.39,1086.1a1.35,1.35,0,0,1-1.6.83c-.78-.1-1.33-.64-1.23-1.21a1.35,1.35,0,0,1,1.6-.83C583.94,1085,584.49,1085.54,584.39,1086.1Z" transform="translate(-572.82 -1064.51)"/><path class="cls-6" d="M584.16,1086a1.12,1.12,0,0,1-1.32.69c-.64-.09-1.1-.53-1-1a1.12,1.12,0,0,1,1.32-.69C583.79,1085.06,584.24,1085.51,584.16,1086Z" transform="translate(-572.82 -1064.51)"/><path class="cls-7" d="M583.66,1085.55c0,.14-.32.22-.65.18s-.59-.2-.56-.34.32-.22.65-.18S583.68,1085.4,583.66,1085.55Z" transform="translate(-572.82 -1064.51)"/><path class="cls-5" d="M585.46,1083c-.06.5-.7.85-1.43.78s-1.26-.53-1.19-1,.7-.85,1.43-.78S585.53,1082.55,585.46,1083Z" transform="translate(-572.82 -1064.51)"/><path class="cls-6" d="M585.24,1082.94c-.05.41-.58.7-1.18.64s-1-.44-1-.85.58-.7,1.18-.64S585.3,1082.53,585.24,1082.94Z" transform="translate(-572.82 -1064.51)"/><path class="cls-7" d="M584.76,1082.58c0,.13-.28.2-.59.18s-.55-.16-.53-.28.28-.2.59-.18S584.78,1082.45,584.76,1082.58Z" transform="translate(-572.82 -1064.51)"/><path class="cls-5" d="M587.24,1080.34c-.1.47-.73.77-1.41.66s-1.15-.57-1.05-1,.73-.77,1.41-.66S587.34,1079.87,587.24,1080.34Z" transform="translate(-572.82 -1064.51)"/><path class="cls-6" d="M587,1080.23c-.08.39-.6.63-1.17.55s-1-.47-.87-.86.6-.63,1.17-.55S587.13,1079.85,587,1080.23Z" transform="translate(-572.82 -1064.51)"/><path class="cls-7" d="M586.62,1079.86c0,.12-.28.18-.57.13s-.51-.18-.48-.3.28-.18.57-.13S586.64,1079.74,586.62,1079.86Z" transform="translate(-572.82 -1064.51)"/><path class="cls-5" d="M589.78,1078.37c-.06.29-.44.48-.86.42s-.71-.34-.66-.63.44-.48.86-.42S589.83,1078.08,589.78,1078.37Z" transform="translate(-572.82 -1064.51)"/><path class="cls-6" d="M589.65,1078.31c0,.24-.37.39-.71.34s-.59-.28-.54-.52.37-.39.71-.34S589.7,1078.07,589.65,1078.31Z" transform="translate(-572.82 -1064.51)"/><path class="cls-7" d="M589.39,1078.08c0,.07-.17.11-.35.09s-.31-.11-.3-.18.17-.11.35-.09S589.4,1078,589.39,1078.08Z" transform="translate(-572.82 -1064.51)"/><path class="cls-9" d="M667.59,1103.42a1.76,1.76,0,0,1,1.75,2l-.27,2.28a1.76,1.76,0,0,1-1.75,1.55h-3.26l.61-5.8Zm-.78,1.53a1.37,1.37,0,1,0,1.37,1.37A1.37,1.37,0,0,0,666.82,1104.95Z" transform="translate(-572.82 -1064.51)"/><path class="cls-5" d="M666.71,1106.09a.83.83,0,0,0-.83.83v11.55a.83.83,0,0,0,1.66,0v-11.55A.83.83,0,0,0,666.71,1106.09Z" transform="translate(-572.82 -1064.51)"/><path class="cls-9" d="M577.5,1103.42l.61,5.8h-3.26a1.76,1.76,0,0,1-1.75-1.55l-.27-2.28a1.76,1.76,0,0,1,1.75-2Zm-3.51,2.9a1.37,1.37,0,1,0,1.37-1.37A1.37,1.37,0,0,0,574,1106.31Z" transform="translate(-572.82 -1064.51)"/><path class="cls-5" d="M575.46,1106.09a.83.83,0,0,1,.83.83v11.55a.83.83,0,0,1-1.66,0v-11.55A.83.83,0,0,1,575.46,1106.09Z" transform="translate(-572.82 -1064.51)"/><path class="cls-6" d="M621.38,1064.51c-6.32,0-11.62,1.33-11.62,3.8V1076h1.79v-5.38c0-2.2,4.48-3.38,9.82-3.38s9.82,1.18,9.82,3.38V1076H633v-7.65C633,1065.84,627.7,1064.51,621.38,1064.51Z" transform="translate(-572.82 -1064.51)"/><path class="cls-5" d="M634.42,1077.65h-4.62a1.7,1.7,0,0,1,1.7-1.7h1.22A1.7,1.7,0,0,1,634.42,1077.65Z" transform="translate(-572.82 -1064.51)"/><path class="cls-5" d="M608.35,1077.65H613a1.7,1.7,0,0,0-1.7-1.7H610A1.7,1.7,0,0,0,608.35,1077.65Z" transform="translate(-572.82 -1064.51)"/><path class="cls-5" d="M631.82,1076v-6.27c0-1.46-3.43-3.64-10.44-3.64s-10.49,2.23-10.72,3.32a59.2,59.2,0,0,0,0,6.59h.92v-5.38c0-2.2,4.48-3.38,9.82-3.38s9.82,1.18,9.82,3.38V1076Z" transform="translate(-572.82 -1064.51)"/><path class="cls-10" d="M615.42,1088.86c1.32.94,4.25,0,5-1,0,0-.41,5-4.25,6.14h10.46c-3.84-1.17-4.25-6.14-4.25-6.14.73,1.06,3.66,2,5,1,1.8-1.28.18-2.88-.84-3.39.27,2.09-2.59,2.78-4,1.8a2,2,0,0,0,1-2.07c-.27-1.39-2-2.09-2-2.09s-1.77.7-2,2.09a2,2,0,0,0,1,2.07c-1.46,1-4.32.3-4-1.8C615.24,1086,613.62,1087.58,615.42,1088.86Z" transform="translate(-572.82 -1064.51)"/><path class="cls-8" d="M615.42,1088.44c1.32.94,4.25,0,5-1,0,0-.41,5-4.25,6.14h10.46c-3.84-1.17-4.25-6.14-4.25-6.14.73,1.06,3.66,2,5,1,1.8-1.28.18-2.88-.84-3.39.27,2.09-2.59,2.78-4,1.8a2,2,0,0,0,1-2.07c-.27-1.39-2-2.09-2-2.09s-1.77.7-2,2.09a2,2,0,0,0,1,2.07c-1.46,1-4.32.3-4-1.8C615.24,1085.56,613.62,1087.16,615.42,1088.44Z" transform="translate(-572.82 -1064.51)"/><path class="cls-10" d="M616.31,1095.27v8.23c0,3.11,2.91,1.89,5.07,5.3h0c2.16-3.41,5.07-2.18,5.07-5.3v-8.23Z" transform="translate(-572.82 -1064.51)"/><path class="cls-11" d="M616.31,1094.91v8.23c0,3.11,2.91,1.89,5.07,5.3h0c2.16-3.41,5.07-2.18,5.07-5.3v-8.23Z" transform="translate(-572.82 -1064.51)"/><circle class="cls-10" cx="48.57" cy="33.34" r="1.85"/><path class="cls-12" d="M621.38,1096.68a1.85,1.85,0,0,1,1.82,1.51,1.85,1.85,0,1,0-3.63,0A1.85,1.85,0,0,1,621.38,1096.68Z" transform="translate(-572.82 -1064.51)"/><rect class="cls-10" x="48.06" y="34.53" width="1.02" height="3.54"/><polygon points="22.75 79.72 15.06 79.72 13.89 77.04 23.89 77.04 22.75 79.72"/><polygon points="73.78 79.72 81.47 79.72 82.64 77.04 72.65 77.04 73.78 79.72"/></svg>