<svg id="Layer_1" data-name="Layer 1" xmlns="http://www.w3.org/2000/svg" viewBox="0 0 310.9 268.17"><defs><style>.cls-1{fill:#f69826;}.cls-2{fill:#f8a645;}.cls-3{fill:#f79d32;}.cls-4{fill:#b16a13;}.cls-5{fill:#9e6521;}.cls-6{fill:#8e612b;}.cls-7{fill:#925e1e;}.cls-8{fill:#764c17;}.cls-9{fill:#5b3609;}.cls-10{fill:#fefefe;}.cls-11{fill:#f79c2f;}.cls-12{fill:#f79f35;}.cls-13{fill:#393939;}.cls-14{fill:#141414;}.cls-15{fill:#8c8c8c;}.cls-16{fill:#3c3c3b;}.cls-17{fill:#343434;}.cls-18{fill:#1c75bb;}.cls-19{fill:#0e3b5e;}.cls-20{fill:#bebebe;}.cls-21{fill:#fff;}.cls-22{fill:#0097d3;}</style></defs><title>666</title><path class="cls-1" d="M316.44,205.76v6.3a8.62,8.62,0,0,0-.12,2.23c.09,9-2.08,17.45-5.33,25.71a82.93,82.93,0,0,1-13.7,23,85.36,85.36,0,0,1-38.68,26.13,69,69,0,0,1-12.67,3,62,62,0,0,1-8.47.45,12.58,12.58,0,0,0-2.67.12H229a8.42,8.42,0,0,0-2.2-.12c-8.95,0-17.42-2.15-25.68-5.4a82.39,82.39,0,0,1-22.81-13.58,84.36,84.36,0,0,1-14.83-16.14A85.57,85.57,0,0,1,152.82,237a4.13,4.13,0,0,1-.31-1.24A1.7,1.7,0,0,0,152,234a1.25,1.25,0,0,1-.08-1,2.85,2.85,0,0,0,0-1.48c-.22-1,.18-1.33,1.12-1.08a9.5,9.5,0,0,0,2.43.18q15.76,0,31.52,0a3.46,3.46,0,0,1,3.11,1.16.72.72,0,0,1,.2.53c-.35,1.34.48,1.6,1.53,1.85,4.79,1.16,9.57,2.37,14.36,3.57,1.93.48,2.15.86,1.67,2.8-1,3.84-1.91,7.69-2.82,11.54-.34,1.44-.27,1.55,1.17,1.93q2.59.67,5.2,1.31c1.26.31,1.49.17,1.81-1.09,1-3.8,1.9-7.61,2.86-11.41.49-2,.82-2.15,2.77-1.67,1.28.31,2.56.63,3.84,1,1.94.5,2.16.86,1.69,2.78-.89,3.66-1.83,7.31-2.73,11-.08.34-.16.68-.24,1a.8.8,0,0,0,.62,1.07c2.1.58,4.21,1.11,6.33,1.57,1,.22,1.26-.44,1.46-1.24.92-3.73,1.86-7.46,2.79-11.19.08-.34.17-.68.27-1,.34-1.12.82-1.47,2-1.26a57.14,57.14,0,0,0,13.33,1c6.22-.35,11.44-2.63,14.94-8.09A27.13,27.13,0,0,0,267,226.93a13.84,13.84,0,0,0-2-9.71,17.45,17.45,0,0,0-5.74-5.36c-.13-.08-.27-.15-.4-.23-.48-.32-1.09-.6-1-1.29s.73-.75,1.22-.91a13.62,13.62,0,0,0,7.13-5.18,18.66,18.66,0,0,0,2.82-8.07,15.67,15.67,0,0,0-.45-6.22,1.5,1.5,0,0,1,0-1.24c.65-.61.91,0,1.1.42a8.11,8.11,0,0,1,.79,3.15,20.31,20.31,0,0,1-.05,4.85c-.14.6.17,1,.78,1.05a9.11,9.11,0,0,0,1.16,0h39.73a7.38,7.38,0,0,0,1.86-.09,1.82,1.82,0,0,1,2,.6,19.11,19.11,0,0,1,.34,4.61A10.35,10.35,0,0,0,316.44,205.76Z" transform="translate(-82.11 -64.05)"/><path class="cls-2" d="M315.76,198.73l-.08.8c-.07-1-.55-1.2-1.46-.88a5.09,5.09,0,0,1-1.62.11H271.8c-2.32,0-2.08,0-1.79-2.33a14.47,14.47,0,0,0-.91-7.54s-.07-.07-.08-.07l-.15.14c-.58.15-.76-.31-.93-.67-2.42-5-6.85-7.68-11.61-9.94-1.4-.67-2.86-1.2-4.31-1.77-1.19-.47-1.48-1-1.19-2.27.92-4,2-7.92,2.94-11.88.35-1.45.31-1.53-1.16-1.91-1.69-.44-3.39-.85-5.09-1.28-1.42-.36-1.54-.27-1.91,1.19-.93,3.69-1.83,7.39-2.78,11.08-.46,1.78-.85,2-2.65,1.59-1.43-.35-2.88-.63-4.31-1-1.61-.44-1.91-.86-1.5-2.5q1.32-5.32,2.66-10.63c.54-2.13.54-2.13-1.56-2.66-1.62-.41-3.25-.79-4.86-1.23-.88-.24-1.3.08-1.52.92a39.79,39.79,0,0,1-1.45,5.27,2.45,2.45,0,0,0-.66,2.3,1.57,1.57,0,0,1-.18.63,2.51,2.51,0,0,0-.42,2.41,6.63,6.63,0,0,1-.63,2.09c-.29.6-.69.93-1.37.57a5.48,5.48,0,0,0-3.4-.65,1.77,1.77,0,0,1-.81-.26,3.43,3.43,0,0,0-1.47-.66c-3.27-.8-6.53-1.64-9.8-2.44a2.11,2.11,0,0,0-1.58,0,1.44,1.44,0,0,0-.41.25,1.75,1.75,0,0,0-.61.82c-.56,2.31-1.19,4.61-1.7,6.93a1.36,1.36,0,0,0,.05.68,1.61,1.61,0,0,1,.07.31c.87.8,2,.77,3.06,1.07,1.8.53,3.69.72,5.37,1.64a2.56,2.56,0,0,1,.2.35c.16,1.27-.12,1.6-1.3,1.54-1.71-.08-3.42,0-5.13,0H157.84c-1,0-2.11-.14-3,.64a.64.64,0,0,1-.86-.05,1.62,1.62,0,0,1,0-1.76,81.14,81.14,0,0,1,6.49-13,86.17,86.17,0,0,1,8.63-11.7,80.21,80.21,0,0,1,8.92-8.68,84.37,84.37,0,0,1,17.53-11.41,81.23,81.23,0,0,1,23.58-7.41,53.3,53.3,0,0,1,8.12-.44,8.56,8.56,0,0,0,2.22-.12h8.63c2,.23,4.08.22,6.12.4a63,63,0,0,1,12.06,2.49,83.28,83.28,0,0,1,28,14.31,85.77,85.77,0,0,1,24,29.55,69.58,69.58,0,0,1,5.36,14c1,4,2.14,8,2.32,12.21C316,198.16,316.12,198.49,315.76,198.73Z" transform="translate(-82.11 -64.05)"/><path class="cls-3" d="M154.1,178.92c.39.71.54.1.63-.16a.8.8,0,0,1,1.07-.59,9.15,9.15,0,0,0,1.63.06h53.13c.43,0,.86,0,1.28,0,1.35.1,1.35.11,1.12-1.24.51-.3.89,0,1.24.31a4.82,4.82,0,0,1,1.34,4.91c-2,8.39-4.11,16.75-6.21,25.11-1.28,5.09-2.51,10.18-3.84,15.26a4,4,0,0,1-3.33,3.18,5.65,5.65,0,0,1-2.3-.27q-2.16-.47-4.3-1.07a1.37,1.37,0,0,0-1.9,1c-.74,1.92-1.65,3.77-2.45,5.67-.22.53-.4,1.13-1.15,1.13-.45-.14-1.24.41-1.2-.74,0-.43-.73-.27-1.12-.27H154.32a2.36,2.36,0,0,1-1.9-.56c-.38.95.45,1.86-.18,2.65-.68-.08-.85-.64-1-1.15a58.16,58.16,0,0,1-2.42-12.78c-.08-2-.1-4.09-.32-6.13v-7a11.61,11.61,0,0,0,.12-2.55A65.2,65.2,0,0,1,153,180.08C153.21,179.57,153.3,178.9,154.1,178.92Z" transform="translate(-82.11 -64.05)"/><path class="cls-4" d="M237.65,292.55a.51.51,0,0,0,0,.2h-2.8A6.07,6.07,0,0,1,237.65,292.55Z" transform="translate(-82.11 -64.05)"/><path class="cls-5" d="M148.51,203.66a.34.34,0,0,0,.2,0,5.56,5.56,0,0,1-.2,2.6Z" transform="translate(-82.11 -64.05)"/><path class="cls-6" d="M227.08,125a.88.88,0,0,0,0-.2h2.33A4.8,4.8,0,0,1,227.08,125Z" transform="translate(-82.11 -64.05)"/><path class="cls-7" d="M316.24,203.39a.31.31,0,0,0,.2,0v2.33A4.72,4.72,0,0,1,316.24,203.39Z" transform="translate(-82.11 -64.05)"/><path class="cls-8" d="M316.44,214.39a.43.43,0,0,0-.2,0,4.85,4.85,0,0,1,.2-2.36Z" transform="translate(-82.11 -64.05)"/><path class="cls-9" d="M226.64,292.76a.88.88,0,0,0,0-.21,5.13,5.13,0,0,1,2.35.21Z" transform="translate(-82.11 -64.05)"/><path class="cls-10" d="M190.07,232.2c1.15-2.58,2.34-5.14,3.41-7.75.35-.84.71-1,1.54-.74,1.94.55,3.89,1,5.87,1.44a3.25,3.25,0,0,0,4.07-2.67q2.8-11.16,5.58-22.33Q212.8,191.07,215,182a4.39,4.39,0,0,0-2.09-5l0,0a58.79,58.79,0,0,0-7.86-2.21c-.32-.09-.84,0-.86-.55l0-.25a84.52,84.52,0,0,1,2.35-9.32l.47,0a42.5,42.5,0,0,1,5.86,1.35,71.84,71.84,0,0,1,7.4,2,1,1,0,0,0,.74.2,10.47,10.47,0,0,1,3.23.74c.56.28.93.45,1.07-.49.1-.69.47-1.37.56-2.1a4.69,4.69,0,0,1,.53-2.27.57.57,0,0,0,.16-.53,4.77,4.77,0,0,1,.54-2.27c.54-2.06,1.1-4.11,1.59-6.17.18-.78.47-1,1.28-.77q3.54,1,7.12,1.77c.92.21,1,.58.81,1.45-1.11,4.28-2.12,8.58-3.23,12.85-.18.68,0,.9.6,1,2,.45,3.94.88,5.89,1.39.79.21.81-.27.94-.78,1-4.21,2.13-8.42,3.14-12.64.21-.9.48-1.2,1.44-.93,2.35.66,4.72,1.26,7.11,1.78.86.19.92.54.74,1.28-1.11,4.36-2.16,8.73-3.3,13.08-.22.83,0,1.15.76,1.42a43.44,43.44,0,0,1,6.41,2.74c4.5,2.34,8.38,5.34,10.44,10.19a18.34,18.34,0,0,1-1.12,13.7c-1.94,4.15-5.35,6.53-9.72,7.63.07.46.49.47.77.64,3.67,2.16,6.77,4.84,8.18,9a17.24,17.24,0,0,1,0,10.1c-1.2,4.58-3.09,8.79-6.8,11.95a19.47,19.47,0,0,1-11.69,4.33,52.54,52.54,0,0,1-13.67-1c-1-.2-1.22.16-1.43,1-1.06,4.37-2.18,8.73-3.24,13.1-.18.75-.39,1-1.24.77-2.46-.65-5-1.15-7.42-1.76-.47-.12-1-.15-.71-1.12,1.22-4.38,2.22-8.82,3.37-13.22.25-.95-.07-1.15-.87-1.33-1.85-.42-3.69-.87-5.5-1.42-.81-.24-.81.22-.93.72-1.08,4.34-2.2,8.67-3.23,13-.22.92-.55,1.21-1.48,1-2.44-.65-4.89-1.24-7.34-1.84-.59-.14-.72-.28-.54-1,1.16-4.5,2.2-9,3.36-13.52.23-.89,0-1.11-.79-1.3-4.13-1-8.24-2-12.36-3.06-1.36-.34-2.73-.65-4.09-1-.78-.18-1.29-.45-.66-1.34A4.24,4.24,0,0,0,190.07,232.2Z" transform="translate(-82.11 -64.05)"/><path class="cls-3" d="M153,235.61a4.6,4.6,0,0,1-.51-1.61A1.24,1.24,0,0,1,153,235.61Z" transform="translate(-82.11 -64.05)"/><path class="cls-3" d="M220.32,168l-13.25-3.32c.22,0,.46-.18.66-.13q6.3,1.58,12.58,3.19s.09,0,.11,0S220.4,167.94,220.32,168Z" transform="translate(-82.11 -64.05)"/><path class="cls-3" d="M204.21,174.28a40.29,40.29,0,0,0,5.2,1.41,9.63,9.63,0,0,1,3.52,1.35l-6.05-1.54a7.42,7.42,0,0,0-2.48-.45C203.71,175.11,203.78,174.67,204.21,174.28Z" transform="translate(-82.11 -64.05)"/><path class="cls-3" d="M206.59,164.71,204.24,174c-.25-.28-.13-.58-.06-.88q1-3.79,1.89-7.58A1.2,1.2,0,0,1,206.59,164.71Z" transform="translate(-82.11 -64.05)"/><path class="cls-3" d="M224.28,168.92l-3.23-.74c1.2-.39,2.21.39,3.33.52,0,0,.06.07.06.08Z" transform="translate(-82.11 -64.05)"/><path class="cls-3" d="M227.15,161.27l-.54,2.27A2.12,2.12,0,0,1,227.15,161.27Z" transform="translate(-82.11 -64.05)"/><path class="cls-3" d="M226.45,164.07l-.53,2.27A2.1,2.1,0,0,1,226.45,164.07Z" transform="translate(-82.11 -64.05)"/><path class="cls-11" d="M237.56,233.09c-6.21,0-11.56-1.53-16.93-2.87-.66-.17-.45-.55-.35-1q2-7.84,3.91-15.69c.26-1.05.55-2.1.79-3.16.09-.41.19-.61.69-.49,6,1.39,12.07,2.59,17.47,5.8a14.74,14.74,0,0,1,2.77,2.12,8.38,8.38,0,0,1,2.34,9.15c-1.16,3.61-3.95,5.19-7.45,5.85A17,17,0,0,1,237.56,233.09Z" transform="translate(-82.11 -64.05)"/><path class="cls-12" d="M241,203c-4.43-.05-8.67-1.21-12.92-2.3-.56-.14-.55-.43-.45-.85q2.13-8.52,4.25-17c.11-.44.3-.67.81-.55,4.53,1.08,9.12,2,13.25,4.25,2.55,1.41,4.74,3.19,5.44,6.2,1.14,4.9-1.94,9.25-7,10.06A15.42,15.42,0,0,1,241,203Z" transform="translate(-82.11 -64.05)"/><path class="cls-13" d="M82.11,125.88l.14-.08a53.58,53.58,0,0,1,5-2.4c1.77-.83,3.56-1.62,5.34-2.43l7.14-3.24,5.2-2.36,7.14-3.24,6.15-2.8,1-.45c.15-.07.31-.13.42.06a1.1,1.1,0,0,1,0,.13,2.56,2.56,0,0,1,.07.7q0,18.69,0,37.39a1.12,1.12,0,0,1-.2.84.79.79,0,0,1-.34-.15L97.64,135.09l-15.18-9a1.12,1.12,0,0,0-.34-.15Z" transform="translate(-82.11 -64.05)"/><path class="cls-14" d="M119.56,148c0-.24,0-.47,0-.71q0-18.79,0-37.59c0-.24,0-.47,0-.71s.31-.09.46,0c1,.45,2.07.93,3.1,1.4l7.14,3.24,6,2.74,7.14,3.24,6.09,2.77,6.22,2.83a4.72,4.72,0,0,1,1.06.61h.07V126l-3.43,2-3,1.78-7.36,4.35-4.66,2.76-8.29,4.9-5.24,3.1-5,2.94C119.78,147.9,119.67,147.95,119.56,148Z" transform="translate(-82.11 -64.05)"/><path class="cls-15" d="M119.56,185.6c-.15,0-.2-.18-.28-.29l-16.87-23.77-14.34-20.2-5.58-7.86a.82.82,0,0,1-.19-.32c.13,0,.22.07.31.12l19,11.25,17.82,10.53a.34.34,0,0,1,.26.36c0,.2,0,.4,0,.6q0,14.2,0,28.4A2.31,2.31,0,0,1,119.56,185.6Z" transform="translate(-82.11 -64.05)"/><path class="cls-16" d="M119.56,185.6c0-.21,0-.42,0-.63q0-14.64,0-29.29a1.26,1.26,0,0,0-.07-.62,1.07,1.07,0,0,0,.48-.2l21.65-12.79,14.77-8.72a1,1,0,0,1,.36-.17c0,.13-.07.2-.12.28l-5.23,7.38-7.14,10.05L137.05,161l-7.61,10.73-8.31,11.7-1.34,1.89A1,1,0,0,1,119.56,185.6Z" transform="translate(-82.11 -64.05)"/><path class="cls-15" d="M119.56,108.89a1.36,1.36,0,0,1-.45.25l-17,7.71-19.38,8.81c-.16.07-.31.23-.52.14L99.61,97l17-28.19,2.72-4.51c.06-.1.06-.28.25-.25a2.44,2.44,0,0,1,.18,1.08q0,4.67,0,9.34,0,16.67,0,33.33c0,.24,0,.47,0,.71S119.74,108.83,119.56,108.89Z" transform="translate(-82.11 -64.05)"/><path class="cls-17" d="M119.56,108.89c0-.19,0-.37,0-.56q0-21.92,0-43.83a1.6,1.6,0,0,1,0-.45,1.06,1.06,0,0,1,.26.36l5.27,8.74,10.37,17.22,6.75,11.2,10.14,16.83,4.26,7.07c.06.11.12.22.18.33a.7.7,0,0,1-.46-.12l-4.49-2-4.53-2.05L143.77,120l-4.66-2.12-3.67-1.67-4.52-2.05-3.67-1.67-4.56-2.07L120,109.14a1.1,1.1,0,0,0-.38-.14Z" transform="translate(-82.11 -64.05)"/><path class="cls-18" d="M393,306.93c-.44,1.31-.89,2.61-1.32,3.92Q389.34,318,387,325.21c-.46,1.4-.92,2.79-1.36,4.19a.47.47,0,0,1-.53.4q-3.7,0-7.39,0c-.4,0-.44-.11-.32-.47.86-2.62,1.7-5.25,2.57-7.87.13-.39.07-.47-.33-.47q-7.32,0-14.65,0a.5.5,0,0,0-.58.43c-.85,2.65-1.73,5.29-2.57,7.94a.51.51,0,0,1-.59.44q-3.7,0-7.39,0c-.35,0-.44-.07-.32-.42q2-6.12,4-12.24l3.36-10.29c.12-.09.26,0,.39,0h7.42c.18,0,.36,0,.51.11s0,.46,0,.67c-.71,2.27-1.47,4.52-2.22,6.77-.3.91-.23,1,.74,1h13c1,0,1-.05,1.34-1,.78-2.32,1.5-4.66,2.3-7,.1-.28.15-.61.56-.61h7.64a.93.93,0,0,1,.48,0Z" transform="translate(-82.11 -64.05)"/><path class="cls-19" d="M279.82,306.75v.08c0,.19-.2.2-.35.22a4.78,4.78,0,0,1-.59,0h-25c-.33,0-.7.1-1-.21v-.1Z" transform="translate(-82.11 -64.05)"/><path class="cls-19" d="M330.32,306.83v-.08H357v.09a.6.6,0,0,1-.47.21c-.19,0-.39,0-.58,0H331.29a5.21,5.21,0,0,1-.63,0C330.51,307,330.36,307,330.32,306.83Z" transform="translate(-82.11 -64.05)"/><path class="cls-19" d="M294.51,306.82a.13.13,0,0,1,0-.07H315.9a.22.22,0,0,0,0,.08c0,.19-.2.2-.35.22a4.4,4.4,0,0,1-.54,0H295.39a4.05,4.05,0,0,1-.54,0C294.7,307,294.55,307,294.51,306.82Z" transform="translate(-82.11 -64.05)"/><path class="cls-19" d="M369.2,306.75a.3.3,0,0,1-.08.28c-.07-.25-.28-.18-.45-.18h-7.76v-.1Z" transform="translate(-82.11 -64.05)"/><path class="cls-19" d="M384.79,306.82a.11.11,0,0,1,0-.07h7.85c.12,0,.28-.1.36.08h-7.69Z" transform="translate(-82.11 -64.05)"/><path class="cls-18" d="M330.32,306.83l.36,0H357l-1.38,4.36,0,.08c-.15.4-.13,1-.46,1.17s-.85.07-1.28.07q-11,0-22,0c-.42,0-.61.11-.72.52-.2.72-.44,1.44-.7,2.14-.13.37-.07.46.33.46h17.63a4,4,0,0,1,4,5.16,14.07,14.07,0,0,1-2,5.2,9,9,0,0,1-5.51,3.71,5.39,5.39,0,0,1-1.07.09h-26c-.22,0-.31-.07-.23-.29l1.7-5.22a.26.26,0,0,1,.3-.21h23.13c.37,0,.56-.08.66-.46.21-.75.46-1.49.73-2.22.12-.33,0-.38-.28-.38h-5c-4.3,0-8.6,0-12.9,0A3.75,3.75,0,0,1,322,316.8c.39-3.37,1.53-6.46,4.5-8.52A7.37,7.37,0,0,1,330.32,306.83Z" transform="translate(-82.11 -64.05)"/><path class="cls-18" d="M294.51,306.82l.63,0h20.54l.22,0a3.92,3.92,0,0,1,3.55,4.76,32.13,32.13,0,0,1-1.3,4.3c-1.45,4.5-2.94,9-4.39,13.47a.52.52,0,0,1-.59.44q-3.67,0-7.35,0c-.4,0-.44-.1-.32-.46.66-2,1.29-3.94,1.93-5.91.16-.49.16-.49-.34-.49h-10c-.52,0-.52,0-.36-.51.48-1.48,1-3,1.44-4.45a.51.51,0,0,1,.6-.43c3.35,0,6.7,0,10.05,0a.57.57,0,0,0,.65-.49c.44-1.39.9-2.77,1.37-4.15.12-.35,0-.4-.31-.4q-7.39,0-14.79,0c-.34,0-.43.16-.52.42q-2.67,8.18-5.34,16.35a.6.6,0,0,1-.69.5c-2.42,0-4.84,0-7.26,0-.51,0-.52,0-.35-.5l4.66-14.22a18.9,18.9,0,0,1,1.23-3.42,9,9,0,0,1,6.22-4.76A6.45,6.45,0,0,1,294.51,306.82Z" transform="translate(-82.11 -64.05)"/><path class="cls-18" d="M253,306.85h26.88a3.88,3.88,0,0,1,3.62,3.7,9.23,9.23,0,0,1-.72,3.62c-1,3.23-2,6.5-3.19,9.68a8.84,8.84,0,0,1-7.19,5.94,3.48,3.48,0,0,1-.58,0H245.83c-.3,0-.39-.05-.28-.38.56-1.68,1.12-3.36,1.64-5,.11-.36.35-.3.59-.3q11.36,0,22.73,0a.74.74,0,0,0,.86-.63c1.11-3.46,2.26-6.92,3.4-10.37.18-.54.18-.55-.39-.55H251.66c-.56,0-.57,0-.4-.52Z" transform="translate(-82.11 -64.05)"/><path class="cls-18" d="M251.61,321H245c-.35,0-.48,0-.34-.43.56-1.54,1.08-3.08,1.61-4.63a.42.42,0,0,1,.47-.35q6.71,0,13.42,0c.38,0,.37.13.27.42-.55,1.56-1.09,3.11-1.61,4.68-.09.28-.25.31-.5.31Z" transform="translate(-82.11 -64.05)"/><path class="cls-20" d="M316,133v-2.13a4.89,4.89,0,0,0,.1-1,36.67,36.67,0,0,1,.78-5.79,36.27,36.27,0,0,1,4.1-10.62,36.83,36.83,0,0,1,11.15-12,36.44,36.44,0,0,1,12.72-5.55,34.76,34.76,0,0,1,5.67-.81.54.54,0,0,0,.26,0s0,0,0-.06h4.49s0,.07,0,.08l.23,0a34.24,34.24,0,0,1,4.3.54,36.09,36.09,0,0,1,7.94,2.43,37,37,0,0,1,20.5,22.78,35.92,35.92,0,0,1,1.55,7.8.5.5,0,0,0,0,.23s0,0,.07,0v6.21s-.07,0-.08,0a1.25,1.25,0,0,0,0,.2,34.85,34.85,0,0,1-.58,4,36.34,36.34,0,0,1-3.2,9.26A37,37,0,0,1,361,168.05a33.72,33.72,0,0,1-4.4.69l-.76.07s-.14,0-.07.09h-5.44s.05,0,0-.07a.49.49,0,0,0-.23,0,35.11,35.11,0,0,1-4.67-.66,36.41,36.41,0,0,1-10.18-3.77A36.9,36.9,0,0,1,316.14,134,5.79,5.79,0,0,0,316,133Zm24.52,4.49a2.55,2.55,0,0,1-.13.59l-2.83,10.65c-.1.36-.09.36.27.36H367.6c.32,0,.32,0,.4-.3q.87-3.25,1.75-6.51c.14-.51.15-.46-.37-.46h-18.3c-.11,0-.16-.06-.14-.17s0-.11,0-.17l1.57-5.91c.22-.83.44-1.66.65-2.49a.48.48,0,0,1,.35-.39c.43-.14.85-.31,1.28-.46l3.89-1.42a.47.47,0,0,0,.33-.37c.36-1.39.74-2.78,1.11-4.17.07-.26.14-.51.2-.77s0-.2-.17-.17l-.11,0-4.88,1.79c-.12,0-.27.16-.36.09s0-.26,0-.38q.91-3.46,1.83-6.91l2-7.45c.09-.35.09-.35-.26-.35H347.64c-.31,0-.31,0-.39.31l-2.35,8.79q-1.38,5.2-2.76,10.4a.54.54,0,0,1-.39.42L338,133.44a.49.49,0,0,0-.37.37c-.41,1.59-.84,3.18-1.26,4.77,0,.12-.14.26,0,.36s.24,0,.35-.07l3.66-1.34C340.38,137.5,340.45,137.45,340.55,137.5Z" transform="translate(-82.11 -64.05)"/><path class="cls-21" d="M340.55,137.5c-.1,0-.17,0-.24,0l-3.66,1.34c-.12,0-.25.16-.35.07s0-.24,0-.36c.42-1.59.85-3.18,1.26-4.77a.49.49,0,0,1,.37-.37l3.81-1.38a.54.54,0,0,0,.39-.42q1.37-5.2,2.76-10.4l2.35-8.79c.08-.3.08-.31.39-.31H358.4c.35,0,.35,0,.26.35l-2,7.45q-.92,3.46-1.83,6.91c0,.12-.16.28,0,.38s.24,0,.36-.09l4.88-1.79.11,0c.15,0,.21,0,.17.17s-.13.51-.2.77c-.37,1.39-.75,2.78-1.11,4.17a.47.47,0,0,1-.33.37l-3.89,1.42c-.43.16-.85.32-1.28.46a.48.48,0,0,0-.35.39c-.21.83-.43,1.66-.65,2.49L351,141.48c0,.06,0,.11,0,.17s0,.17.14.17h18.3c.52,0,.51,0,.37.46q-.88,3.25-1.75,6.51c-.08.3-.08.3-.4.3H337.86c-.36,0-.36,0-.27-.36l2.83-10.65A2.55,2.55,0,0,0,340.55,137.5Z" transform="translate(-82.11 -64.05)"/><path class="cls-22" d="M117.21,280.63c-.06,1.81-.13,3.61-.16,5.42a.8.8,0,0,1-.54.83,8.59,8.59,0,0,0-1.44.83,2.38,2.38,0,0,1-3.17-.18c-.68-.56-1.37-1.11-2-1.72-8.15-7.67-15.87-15.76-23.38-24.05a8.21,8.21,0,0,1-.49-.66,3.67,3.67,0,0,1-.11-1.52q0-12.77,0-25.55a6.94,6.94,0,0,0-.06-1.53V223.8l.41-.11c2,1.75,4,3.49,6,5.26q12.24,10.86,24.46,21.73a2.4,2.4,0,0,1,.26.32c.33.46.17,1,.17,1.49q0,13.3,0,26.61A9.4,9.4,0,0,0,117.21,280.63Z" transform="translate(-82.11 -64.05)"/><path class="cls-22" d="M85.86,273.58v-4.87a1.66,1.66,0,0,1,1.22.73q10.81,10.7,21.61,21.4c.56.55.71,1,.27,1.67a2.69,2.69,0,0,0-.47,1c-.4,2.45-1.87,2.87-4.18,2.8-6.08-.2-12.18-.09-18.27-.11a3,3,0,0,1-.13-1.5C85.87,287.66,85.95,280.62,85.86,273.58Z" transform="translate(-82.11 -64.05)"/><path class="cls-22" d="M96.74,301c3.21,0,6.42,0,9.62,0a1.24,1.24,0,0,1,1.45,1,11.19,11.19,0,0,0,.59,1.55c.94,2.17.94,2.16-.67,3.78-4.24,4.24-8.5,8.46-12.71,12.72-.68.69-1,.77-1.64-.07a36.57,36.57,0,0,1-7.48-18c-.11-.9.33-.75.82-.79C90,301,93.4,301,96.74,301Z" transform="translate(-82.11 -64.05)"/><path class="cls-22" d="M142.26,296.24c-3.16,0-6.32,0-9.48,0a1.31,1.31,0,0,1-1.53-1.12,7.15,7.15,0,0,0-.95-2.14c-.69-1-.53-1.59.32-2.42q6.7-6.51,13.26-13.16c.83-.84,1.27-.84,2,.12a37.66,37.66,0,0,1,7.13,16.4c0,.09,0,.18,0,.28.2,2,.2,2-1.86,2Z" transform="translate(-82.11 -64.05)"/><path class="cls-22" d="M122,265a33.11,33.11,0,0,1,15,4.8c1.31.79,2.5,1.75,3.75,2.64.57.41.77.76.17,1.41-4.5,4.83-9.26,9.39-13.88,14.1a.89.89,0,0,1-1.2.18c-1.09-.51-2.2-1-3.3-1.43-.44-.12-.71-.31-.71-.85.06-6.91-.09-13.81.09-20.72C122,265.09,122,265.05,122,265Z" transform="translate(-82.11 -64.05)"/><path class="cls-22" d="M117,332.21c-3.07.06-5.91-1-8.77-1.89a32.72,32.72,0,0,1-9.83-5.37c-.8-.62-.89-1-.13-1.81q6.49-6.73,13.12-13.31a1.8,1.8,0,0,1,2.52-.38,21.74,21.74,0,0,0,2.55,1.08.78.78,0,0,1,.68.88c-.06,6.9.09,13.79-.09,20.69C117.09,332.12,117,332.17,117,332.21Z" transform="translate(-82.11 -64.05)"/><path class="cls-22" d="M122.63,310.5a19.68,19.68,0,0,0,3.16-1.38c.46-.32.84-.08,1.21.27q7.21,6.77,14,14c.82.87.11,1.18-.38,1.58a33.15,33.15,0,0,1-12.45,6.21,19,19,0,0,1-6.11,1.06,1.8,1.8,0,0,1-.14-1.08q0-9.61,0-19.22C121.92,311.33,121.74,310.64,122.63,310.5Z" transform="translate(-82.11 -64.05)"/><path class="cls-22" d="M142.44,301c3.16,0,6.33,0,9.49,0,1,0,1.27.29,1.15,1.25a34,34,0,0,1-5.47,15c-2.51,3.72-2,3.64-5.16.57-4-3.86-7.91-7.87-11.89-11.79-.51-.5-.68-.92-.29-1.54a2.16,2.16,0,0,0,.4-.88c.19-2.38,1.81-2.54,3.68-2.5,2.7.06,5.4,0,8.09,0Z" transform="translate(-82.11 -64.05)"/></svg>