<svg xmlns="http://www.w3.org/2000/svg" viewBox="0 0 195.73 141.23"><defs><style>.cls-1{isolation:isolate;}.cls-2{fill:#d91b5c;}.cls-3{fill:#3f3250;}.cls-4{opacity:0.1;mix-blend-mode:multiply;}.cls-5{fill:#231f20;}</style></defs><title>Sans titre - 1</title><g class="cls-1"><g id="Calque_1" data-name="Calque 1"><path class="cls-2" d="M909.27,564.53,885,553.35l-.36,0v-.1l-10.09-7.6v.07a6.8,6.8,0,0,0-1.73-3.26l-.13.15V530.08a71.61,71.61,0,0,0,6.22-11.47c1.53-1,6.4-4.82,6.63-11.43.21-5.95-1.79-7.38-3.56-7.41.44-4.13,2.57-34.15-28-34.15-32.84,0-28.18,34.62-28.18,34.62h0c-1.72.22-3.55,1.5-3.27,6.93a15.1,15.1,0,0,0,6.63,11.43A71.68,71.68,0,0,0,835.36,530v12.52a6.87,6.87,0,0,0-1.63,3.14l-10,7.56v.43l-23.52,10.84a15.62,15.62,0,0,0-8.79,11.16l-4.16,21.07s4,10.09,67.5,10.09,67.5-10.09,67.5-10.09l-4.16-21.07A15.62,15.62,0,0,0,909.27,564.53Z" transform="translate(-756.15 -465.62)"/><path class="cls-3" d="M816.11,518.54c.28-2.61,1.62-21.61-17.72-21.61-20.78,0-17.83,21.91-17.83,21.91-1.09.14-2.25.95-2.07,4.39a9.55,9.55,0,0,0,4.2,7.24,45.33,45.33,0,0,0,3.92,7.23v7.92a4.35,4.35,0,0,0-1,2l-6.35,4.78v.27l-14.88,6.86a9.89,9.89,0,0,0-5.56,7.06l-2.63,13.33s2,4.94,29.77,6.13l2.17-11a19,19,0,0,1,10.68-13.56l19.44-9-.2-.09h-.23v-.06l-6.39-4.81v0a4.3,4.3,0,0,0-1.09-2.06l-.08.09v-7.93a45.33,45.33,0,0,0,3.94-7.26,9.33,9.33,0,0,0,4.2-7.24C818.49,519.46,817.23,518.56,816.11,518.54Z" transform="translate(-756.15 -465.62)"/><path class="cls-3" d="M943.69,559.51l-15.36-7.08h-.22v-.06l-6.39-4.81v0a4.3,4.3,0,0,0-1.09-2.06l-.08.09v-7.93a45.33,45.33,0,0,0,3.94-7.26,9.33,9.33,0,0,0,4.2-7.24c.13-3.76-1.13-4.67-2.25-4.69.28-2.61,1.62-21.61-17.72-21.61-20.78,0-17.83,21.91-17.83,21.91-1.09.14-2.25.95-2.07,4.39a9.55,9.55,0,0,0,4.2,7.24,45.37,45.37,0,0,0,3.92,7.23v7.92a4.35,4.35,0,0,0-1,2L890.06,552l20.61,9.5A19,19,0,0,1,921.35,575L923.51,586c26.47-1.29,28.37-6.06,28.37-6.06l-2.63-13.33A9.89,9.89,0,0,0,943.69,559.51Z" transform="translate(-756.15 -465.62)"/><g class="cls-4"><path class="cls-5" d="M854.72,606.86h0c63.49,0,67.5-10.09,67.5-10.09l-4.16-21.07a15.62,15.62,0,0,0-8.79-11.16L885,553.35l-.36,0v-.1l-10.09-7.6v.07a6.8,6.8,0,0,0-1.73-3.26l-.13.15V530.08a71.61,71.61,0,0,0,6.22-11.47c1.53-1,6.4-4.82,6.63-11.43.21-5.95-1.79-7.38-3.56-7.41.43-4.1,2.52-33.65-27.27-34.14Z" transform="translate(-756.15 -465.62)"/></g><g class="cls-4"><path class="cls-5" d="M921.35,575,923.51,586c26.47-1.29,28.37-6.06,28.37-6.06l-2.63-13.33a9.89,9.89,0,0,0-5.56-7.06l-15.36-7.08h-.23v-.06l-6.39-4.81v0a4.3,4.3,0,0,0-1.09-2.06l-.08.09v-7.93a45.33,45.33,0,0,0,3.94-7.26,9.33,9.33,0,0,0,4.2-7.24c.13-3.76-1.13-4.67-2.25-4.69.28-2.61,1.62-21.61-17.72-21.61h-.07v63.61l2,.94A19,19,0,0,1,921.35,575Z" transform="translate(-756.15 -465.62)"/></g><g class="cls-4"><path class="cls-5" d="M797.61,562.07c.38-.21.76-.41,1.16-.59l19.44-9-.2-.09h-.23v-.06l-6.39-4.81v0a4.3,4.3,0,0,0-1.09-2.06l-.08.09v-7.93a45.37,45.37,0,0,0,3.94-7.26,9.34,9.34,0,0,0,4.2-7.24c.13-3.76-1.13-4.67-2.25-4.69.28-2.61,1.62-21.61-17.72-21.61l-.78,0Z" transform="translate(-756.15 -465.62)"/></g></g></g></svg>