<svg id="Calque_1" data-name="Calque 1" xmlns="http://www.w3.org/2000/svg" viewBox="0 0 395.86 49.41"><defs><style>.cls-1{fill:#fff;}</style></defs><title>fundition-black</title><path class="cls-1" d="M95.22,87.84c-.39.1-.48,0-.45-.35v-.35a1.17,1.17,0,0,1,.61-1.26,3.56,3.56,0,0,0,1.7-3.54,1.88,1.88,0,0,0-1-1.48c-4.54-2.76-9.14-5.4-13.77-8a.65.65,0,0,0-.84,0c-.54.42-1.09.78-1.67,1.16a.63.63,0,0,0-.29.45c-.35,1.61-.67,3.19-1.12,4.76a1.25,1.25,0,0,1-1.23,1A4.23,4.23,0,0,1,74.85,80a1.58,1.58,0,0,1-1-1.54,16.79,16.79,0,0,1,.45-4.18c.13-.65.26-1.26.39-1.9a2.69,2.69,0,0,1,1.09-1.74c1.54-1.12,3.09-2.28,4.63-3.44a5.62,5.62,0,0,1,.87-.51,1.13,1.13,0,0,1,.68,0c3.37.83,6,3.5,8.94,5.24a1.27,1.27,0,0,0,1,.16c4.5-1.09,8.94-2.48,13.45-3.57a.8.8,0,0,1,.25,0V59.86a1.58,1.58,0,0,0-1.57-1.58H59.32a1.58,1.58,0,0,0-1.58,1.58v10.2c2.74.8,5.5,1.54,8.24,2.41a3.81,3.81,0,0,0,3.41-.84c1.93-1.22,3.86-2.44,5.79-3.7a1,1,0,0,1,.83-.06,1.8,1.8,0,0,1,.58.19c.26.13.65.19.68.48s-.36.32-.55.45c-.67.49-1.35.9-2,1.42a3.15,3.15,0,0,0-.87,1.8c-.42,1.51-.65,3-.94,4.54a8.8,8.8,0,0,0,0,2,2.32,2.32,0,0,0,1.16,1.83,6.44,6.44,0,0,0,4,.58,1.3,1.3,0,0,0,1.12-.8,12.44,12.44,0,0,0,1-3c.13-.65.29-1.29.38-1.93a2.56,2.56,0,0,1,1.39-1.61.58.58,0,0,1,.32,0c2.25,1.19,4.41,2.44,6.59,3.76s4.38,2.54,6.6,3.77c1.16.64,1.29,1.44.45,2.73s-1.58,1.29-3,.35a20.1,20.1,0,0,0-3.06-1.8c-.26-.09-.48-.06-.74-.16a.37.37,0,0,0-.45.26c-.07.16.1.26.22.35.84.55,1.74,1,2.58,1.45A14.68,14.68,0,0,1,93.58,86a1.25,1.25,0,0,1,.35,1.41,4,4,0,0,1-1.16,1.9.87.87,0,0,1-1,.22,22.32,22.32,0,0,1-3-1.6c-.67-.39-1.31-.81-2-1.16a.51.51,0,0,0-.68.09.15.15,0,0,0,0,.07c-.19.32.16.35.32.48,1,.58,1.93,1.16,2.86,1.74.36.22.68.48,1.07.74a.79.79,0,0,1,.32.87,5,5,0,0,1-.84,1.77,1.39,1.39,0,0,1-2.15.32c-1-.61-1.93-1.13-2.93-1.64a1.48,1.48,0,0,0-.52-.2c-.09,0-.29-.06-.32.07a.33.33,0,0,0,.16.35c.45.29.94.55,1.39.84A1.31,1.31,0,0,1,85.89,94a3.52,3.52,0,0,1-1.45,1.8,1.09,1.09,0,0,1-.9,0c-.77-.29-.87-.58-.42-1.25a2.32,2.32,0,0,0-.29-2.7,4.23,4.23,0,0,0-2.7-1.52.65.65,0,0,1-.58-.48,3.57,3.57,0,0,0-2.44-2.19,3,3,0,0,0-2.32.33c-.61.32-.61.32-.93-.33a2,2,0,0,0-.77-.77,3.42,3.42,0,0,0-1.58-.32,2.12,2.12,0,0,0-1.58.55c-.29.32-.61.74-1,.83s-.68-.42-1-.64a4.38,4.38,0,0,0-2.22-.84,1.76,1.76,0,0,0-1.48,1,.86.86,0,0,1-1.13.42c-1.8-.55-3.57-1.06-5.34-1.58v18.31a1.58,1.58,0,0,0,1.58,1.57h44.81a1.57,1.57,0,0,0,1.57-1.57V85l-4.56,1.29C99.14,86.78,97.18,87.3,95.22,87.84Zm-29.28,4a3.42,3.42,0,0,1-1.89-1.13,1.16,1.16,0,0,1-.13-1.45,6.29,6.29,0,0,1,.9-1.28,1.3,1.3,0,0,1,1.09-.65,2.67,2.67,0,0,1,1.84.77A1.41,1.41,0,0,1,68,90.29a14.38,14.38,0,0,1-.9,1.16,1.17,1.17,0,0,1-1.16.42Zm4,2.28c-.8-.26-1.64-.48-2-1.38a1,1,0,0,1,.06-1c.87-1.32,1.74-2.67,2.61-4a.35.35,0,0,1,.29-.19,3.16,3.16,0,0,1,2.73,1.22.77.77,0,0,1,.19.51,5.53,5.53,0,0,1-.22.65,22.8,22.8,0,0,1-1.9,3.54C71.12,94.34,70.87,94.47,69.9,94.15ZM74,96.72a11.27,11.27,0,0,1-1.55-.9c-.64-.48-.74-.74-.38-1.48.67-1.45,1.44-2.86,2.22-4.28l.48-.86a1,1,0,0,1,1.09-.65,2.6,2.6,0,0,1,2.67,1.55.68.68,0,0,1,0,.77A52.32,52.32,0,0,1,75,96.47.63.63,0,0,1,74,96.72Zm8.23-3a20.67,20.67,0,0,1-2.51,5c-.13.16-.58.71-.83.61l-.68-.22c-.45-.17-.9-.33-1.32-.52-.77-.35-1-.9-.64-1.64a56.77,56.77,0,0,1,3-5.15c.26-.41.68-.35,1-.32a2.62,2.62,0,0,1,1.77,1.13,1.14,1.14,0,0,1,.16,1.12Z" transform="translate(-57.74 -57.54)"/><path class="cls-1" d="M143.36,86.62h-19v19.59h-9.9V58.28h31.29v8H124.4V78.72h19Z" transform="translate(-57.74 -57.54)"/><path class="cls-1" d="M187.92,58.28v31.6c0,5.27-1.68,9.38-4.95,12.43S175.18,107,169.49,107s-10.11-1.47-13.38-4.42-5-7.06-5.06-12.22v-32H161V90c0,3.16.73,5.48,2.21,6.85a8.46,8.46,0,0,0,6.21,2.21c5.59,0,8.43-3,8.54-8.74v-32Z" transform="translate(-57.74 -57.54)"/><path class="cls-1" d="M235.12,106.32h-9.9L205.94,74.71v31.61H196v-48h9.9L225.22,90V58.28h9.9Z" transform="translate(-57.74 -57.54)"/><path class="cls-1" d="M243.76,106.32v-48H258.5a22.76,22.76,0,0,1,11.38,2.85,19.93,19.93,0,0,1,7.8,8.11,24.73,24.73,0,0,1,2.84,12v2.21a25.73,25.73,0,0,1-2.74,11.9,19.23,19.23,0,0,1-7.79,8.11,23.85,23.85,0,0,1-11.28,3H243.76Zm9.9-40V98.42h4.74q5.85,0,8.85-3.8c2-2.52,3.05-6.11,3.16-10.85V81.14c0-4.84-1.06-8.64-3.06-11.06s-5-3.79-8.85-3.79Z" transform="translate(-57.74 -57.54)"/><path class="cls-1" d="M298.22,106.32h-9.9v-48h9.9Z" transform="translate(-57.74 -57.54)"/><path class="cls-1" d="M342.57,66.29H327.82v40h-9.9v-40H303.38v-8h39.19v8Z" transform="translate(-57.74 -57.54)"/><path class="cls-1" d="M358.69,106.32h-9.91v-48h9.91Z" transform="translate(-57.74 -57.54)"/><path class="cls-1" d="M407.35,83.35a28.86,28.86,0,0,1-2.52,12.43,18.89,18.89,0,0,1-7.17,8.22,21.19,21.19,0,0,1-21.38.11A18.48,18.48,0,0,1,369,95.89a28.44,28.44,0,0,1-2.63-12.22V81.25a29.71,29.71,0,0,1,2.52-12.54,19.35,19.35,0,0,1,7.27-8.32,20.08,20.08,0,0,1,10.64-2.85,19.78,19.78,0,0,1,10.64,2.85,18.76,18.76,0,0,1,7.27,8.32,29.05,29.05,0,0,1,2.53,12.43v2.21Zm-10-2.21c0-5.06-1-8.85-2.74-11.48a8.77,8.77,0,0,0-7.69-3.9,8.65,8.65,0,0,0-7.69,3.9c-1.79,2.63-2.74,6.42-2.74,11.38v2.31c0,5,.95,8.75,2.74,11.38A8.77,8.77,0,0,0,387,98.84a8.67,8.67,0,0,0,7.69-3.9c1.79-2.63,2.64-6.43,2.74-11.38V81.14Z" transform="translate(-57.74 -57.54)"/><path class="cls-1" d="M453.6,106.32h-9.9L424.42,74.71v31.61h-9.9v-48h9.9L443.7,90V58.28h9.9Z" transform="translate(-57.74 -57.54)"/></svg>