<svg id="Calque_1" data-name="Calque 1" xmlns="http://www.w3.org/2000/svg" viewBox="0 0 495.1 169.3"><defs><style>.cls-1{fill:#d91b5c;}.cls-2{isolation:isolate;}.cls-3{fill:#fff;}</style></defs><title>Plan de travail 1</title><path class="cls-1" d="M116.5,100.9c-1.2.3-1.5,0-1.4-1.1V98.7a3.62,3.62,0,0,1,1.9-3.9,11.11,11.11,0,0,0,5.3-11,5.91,5.91,0,0,0-3-4.6c-14.1-8.6-28.4-16.8-42.8-25a2,2,0,0,0-2.6.1c-1.7,1.3-3.4,2.4-5.2,3.6a1.94,1.94,0,0,0-.9,1.4c-1.1,5-2.1,9.9-3.5,14.8a3.86,3.86,0,0,1-3.8,3.1c-2.5.2-4.9.4-7.3-.8a4.93,4.93,0,0,1-3-4.8,51.81,51.81,0,0,1,1.4-13c.4-2,.8-3.9,1.2-5.9a8.47,8.47,0,0,1,3.4-5.4c4.8-3.5,9.6-7.1,14.4-10.7A19.1,19.1,0,0,1,73.3,35a3.75,3.75,0,0,1,2.1,0C85.9,37.6,94,45.9,103.2,51.3a4,4,0,0,0,3.2.5c14-3.4,27.8-7.7,41.8-11.1a2.49,2.49,0,0,1,.8-.1V13.9A4.91,4.91,0,0,0,144.1,9H4.9A4.91,4.91,0,0,0,0,13.9V45.6c8.5,2.5,17.1,4.8,25.6,7.5,4.2,1.3,7.4-.5,10.6-2.6,6-3.8,12-7.6,18-11.5a3.38,3.38,0,0,1,2.6-.2,6.36,6.36,0,0,1,1.8.6c.8.4,2,.6,2.1,1.5.1.7-1.1,1-1.7,1.4-2.1,1.5-4.2,2.8-6.2,4.4-1.8,1.4-2.1,3.6-2.7,5.6-1.3,4.7-2,9.4-2.9,14.1a25.65,25.65,0,0,0-.1,6.2,7.16,7.16,0,0,0,3.6,5.7c4.3,2.2,7.6,2.2,12.3,1.8a4.07,4.07,0,0,0,3.5-2.5,38.84,38.84,0,0,0,3-9.3c.4-2,.9-4,1.2-6,.4-2.4,2.4-3.8,4.3-5a1.7,1.7,0,0,1,1,0C83,61,89.7,64.9,96.5,69s13.6,7.9,20.5,11.7c3.6,2,4,4.5,1.4,8.5-2.4,3.8-4.9,4-9.4,1.1-3.1-2-6.1-4.2-9.5-5.6-.8-.3-1.5-.2-2.3-.5a1.14,1.14,0,0,0-1.4.8c-.2.5.3.8.7,1.1,2.6,1.7,5.4,3,8,4.5a44.87,44.87,0,0,1,6.9,4.4,3.9,3.9,0,0,1,1.1,4.4,12.46,12.46,0,0,1-3.6,5.9,2.77,2.77,0,0,1-3.2.7c-3.3-1.2-6.1-3.3-9.2-5-2.1-1.2-4.1-2.5-6.3-3.6a1.55,1.55,0,0,0-2.1.3.35.35,0,0,0-.1.2c-.6,1,.5,1.1,1,1.5,3,1.8,6,3.6,8.9,5.4,1.1.7,2.1,1.5,3.3,2.3a2.42,2.42,0,0,1,1,2.7,15.5,15.5,0,0,1-2.6,5.5c-2.1,2.5-4,2.8-6.7,1-3-1.9-6-3.5-9.1-5.1a4.42,4.42,0,0,0-1.6-.6c-.3-.1-.9-.2-1,.2a1.07,1.07,0,0,0,.5,1.1c1.4.9,2.9,1.7,4.3,2.6a4.07,4.07,0,0,1,1.5,5.5c-1.1,2.1-2.1,4.5-4.5,5.6a3.42,3.42,0,0,1-2.8.1c-2.4-.9-2.7-1.8-1.3-3.9a7.25,7.25,0,0,0-.9-8.4,13.22,13.22,0,0,0-8.4-4.7,2,2,0,0,1-1.8-1.5,11,11,0,0,0-7.6-6.8,9.09,9.09,0,0,0-7.2,1c-1.9,1-1.9,1-2.9-1A6.15,6.15,0,0,0,47.7,98a10.27,10.27,0,0,0-4.9-1c-2.2.1-3.3.3-4.9,1.7-.9,1-1.9,2.3-3.1,2.6s-2.1-1.3-3.2-2a13.27,13.27,0,0,0-6.9-2.6c-2.1-.1-3.6,1.5-4.6,3.1-1,1.4-1.7,1.8-3.5,1.3C11,99.4,5.5,97.8,0,96.2v56.9A4.91,4.91,0,0,0,4.9,158H144.2a4.91,4.91,0,0,0,4.9-4.9V91.9c-4.7,1.3-9.5,2.7-14.2,4C128.7,97.6,122.6,99.2,116.5,100.9Zm-91,12.5a10.56,10.56,0,0,1-5.9-3.5,3.62,3.62,0,0,1-.4-4.5,22.11,22.11,0,0,1,2.8-4c1-1.2,1.6-1.9,3.4-2a8.2,8.2,0,0,1,5.7,2.4c2.4,2.3,2.6,3.9.8,6.7-.8,1.3-1.9,2.4-2.8,3.6a3.56,3.56,0,0,1-3.6,1.3Zm12.3,7.1c-2.5-.8-5.1-1.5-6.2-4.3a3.12,3.12,0,0,1,.2-3.1c2.7-4.1,5.4-8.3,8.1-12.4a1.15,1.15,0,0,1,.9-.6c2.7-.5,7,1.4,8.5,3.8a2.45,2.45,0,0,1,.6,1.6,15.87,15.87,0,0,1-.7,2,68.6,68.6,0,0,1-5.9,11C41.6,121.1,40.8,121.5,37.8,120.5Zm12.7,8a39.75,39.75,0,0,1-4.8-2.8c-2-1.5-2.3-2.3-1.2-4.6,2.1-4.5,4.5-8.9,6.9-13.3l1.5-2.7a3.17,3.17,0,0,1,3.4-2c4-.1,6.6,1.4,8.3,4.8a2.11,2.11,0,0,1,0,2.4,164.63,164.63,0,0,1-11,17.4A2,2,0,0,1,50.5,128.5Zm25.6-9.2a64.41,64.41,0,0,1-7.8,15.5c-.4.5-1.8,2.2-2.6,1.9l-2.1-.7c-1.4-.5-2.8-1-4.1-1.6-2.4-1.1-3.2-2.8-2-5.1a171.63,171.63,0,0,1,9.4-16c.8-1.3,2.1-1.1,3.2-1a8.07,8.07,0,0,1,5.5,3.5,3.62,3.62,0,0,1,.5,3.5Z"/><g class="cls-2"><path class="cls-3" d="M169.3,107.1v-30h9.3a14.14,14.14,0,0,1,7.1,1.8,12.68,12.68,0,0,1,4.9,5.1,15.41,15.41,0,0,1,1.8,7.5v1.4a16.56,16.56,0,0,1-1.7,7.5,12.06,12.06,0,0,1-4.9,5.1,14.14,14.14,0,0,1-7.1,1.8h-9.4Zm6.2-25v20.1h3a6.84,6.84,0,0,0,5.6-2.4c1.3-1.6,1.9-3.8,2-6.8V91.4c0-3.1-.6-5.4-1.9-6.9a6.71,6.71,0,0,0-5.6-2.4Z"/><path class="cls-3" d="M214.9,94.1H203v8.1h14v5H196.8V77.1h20.1v5H203v7.2h11.9Z"/><path class="cls-3" d="M244.2,97.1a10.23,10.23,0,0,1-3.6,7.6,12.45,12.45,0,0,1-8.5,2.8,11.24,11.24,0,0,1-9.1-3.9c-2.2-2.6-3.3-6.2-3.3-10.7V91.1a18.08,18.08,0,0,1,1.5-7.6,11.58,11.58,0,0,1,4.4-5.1,12.1,12.1,0,0,1,6.6-1.8c3.5,0,6.3.9,8.4,2.8a12,12,0,0,1,3.7,7.8H238a6.77,6.77,0,0,0-1.6-4.2,5.72,5.72,0,0,0-4.2-1.3,5.07,5.07,0,0,0-4.6,2.2,12.53,12.53,0,0,0-1.6,6.9v2.3c0,3.2.5,5.6,1.5,7.1a5.2,5.2,0,0,0,4.7,2.3,6.15,6.15,0,0,0,4.3-1.3,5.54,5.54,0,0,0,1.6-4.1Z"/><path class="cls-3" d="M266.3,94.1H254.4v8.1h14v5H248.2V77.1h20.1v5H254.4v7.2h11.9Z"/></g><g class="cls-2"><path class="cls-3" d="M296.5,107.1h-6.2L278.2,87.3v19.8H272v-30h6.2l12.1,19.8V77.1h6.2Z"/></g><g class="cls-2"><path class="cls-3" d="M323.9,82.1h-9.2v25h-6.2v-25h-9.1v-5h24.5v5Z"/><path class="cls-3" d="M338.6,96.1h-4.9v11h-6.2v-30h11.2c3.6,0,6.3.8,8.2,2.4a8.27,8.27,0,0,1,2.9,6.7,8.41,8.41,0,0,1-5.3,8.4l6.5,12.3v.3h-6.6Zm-4.9-5h5a4.89,4.89,0,0,0,3.6-1.2,4.16,4.16,0,0,0,1.3-3.3,4.46,4.46,0,0,0-1.2-3.3,5,5,0,0,0-3.7-1.2h-5v9Z"/><path class="cls-3" d="M371.4,100.9H360.5l-2.1,6.2h-6.6L363,77h5.7L380,107.1h-6.6Zm-9.1-5h7.5L366,84.7Z"/><path class="cls-3" d="M389.1,102.1h13.2v5H383v-30h6.2v25Z"/><path class="cls-3" d="M412.4,107.1h-6.2v-30h6.2Z"/><path class="cls-3" d="M424.7,102.1h15.2v5H417v-3.6l14.9-21.4H417v-5h22.5v3.6Z"/><path class="cls-3" d="M461.9,94.1H450v8.1h14v5H443.8V77.1h20.1v5H450v7.2h11.9Z"/><path class="cls-3" d="M467.6,107.1v-30h9.3a14.14,14.14,0,0,1,7.1,1.8,12.68,12.68,0,0,1,4.9,5.1,15.41,15.41,0,0,1,1.8,7.5v1.4a16.56,16.56,0,0,1-1.7,7.5,12.06,12.06,0,0,1-4.9,5.1,14.14,14.14,0,0,1-7.1,1.8h-9.4Zm6.2-25v20.1h3a6.84,6.84,0,0,0,5.6-2.4c1.3-1.6,1.9-3.8,2-6.8V91.4c0-3.1-.6-5.4-1.9-6.9a6.71,6.71,0,0,0-5.6-2.4Z"/></g><g class="cls-2"><path class="cls-3" d="M192.9,147.9a10.23,10.23,0,0,1-3.6,7.6,12.45,12.45,0,0,1-8.5,2.8,11.24,11.24,0,0,1-9.1-3.9c-2.2-2.6-3.3-6.2-3.3-10.7v-1.8a18.08,18.08,0,0,1,1.5-7.6,11.58,11.58,0,0,1,4.4-5.1,12.1,12.1,0,0,1,6.6-1.8c3.5,0,6.3.9,8.4,2.8A12,12,0,0,1,193,138h-6.2a6.77,6.77,0,0,0-1.6-4.2,5.72,5.72,0,0,0-4.2-1.3,5.07,5.07,0,0,0-4.6,2.2,12.53,12.53,0,0,0-1.6,6.9v2.3c0,3.2.5,5.6,1.5,7.1a5.2,5.2,0,0,0,4.7,2.3,6.15,6.15,0,0,0,4.3-1.3,5.54,5.54,0,0,0,1.6-4.1Z"/><path class="cls-3" d="M208.1,146.9h-4.9v11H197V127.8h11.2c3.6,0,6.3.8,8.2,2.4a8.27,8.27,0,0,1,2.9,6.7,8.41,8.41,0,0,1-5.3,8.4l6.5,12.3v.3h-6.6Zm-4.9-5.1h5a4.89,4.89,0,0,0,3.6-1.2,4.16,4.16,0,0,0,1.3-3.3,4.46,4.46,0,0,0-1.2-3.3,5,5,0,0,0-3.7-1.2h-5v9Z"/><path class="cls-3" d="M248.7,143.5a17.25,17.25,0,0,1-1.6,7.8,11.44,11.44,0,0,1-4.5,5.2,12.44,12.44,0,0,1-6.7,1.8,12.69,12.69,0,0,1-6.7-1.8,11.19,11.19,0,0,1-4.5-5.1,17.1,17.1,0,0,1-1.6-7.7v-1.5a17.25,17.25,0,0,1,1.6-7.8,12.13,12.13,0,0,1,4.5-5.2,12.44,12.44,0,0,1,6.7-1.8,12.69,12.69,0,0,1,6.7,1.8,11.51,11.51,0,0,1,4.5,5.2,17.54,17.54,0,0,1,1.6,7.8Zm-6.3-1.3a13,13,0,0,0-1.7-7.2,5.54,5.54,0,0,0-4.8-2.5,5.46,5.46,0,0,0-4.8,2.4c-1.1,1.6-1.7,4-1.7,7.1v1.5c0,3.1.6,5.5,1.7,7.1a6,6,0,0,0,9.7.1c1.1-1.6,1.7-4,1.7-7.1v-1.4Z"/><path class="cls-3" d="M276.6,149.2l4-21.4h6.2l-6.7,30.1h-6.2L269,137.8l-4.9,20.1h-6.2l-6.7-30.1h6.2l4.1,21.4,5-21.4h5.2Z"/><path class="cls-3" d="M290.2,157.9V127.8h9.3a14.14,14.14,0,0,1,7.1,1.8,12.68,12.68,0,0,1,4.9,5.1,15.41,15.41,0,0,1,1.8,7.5v1.4a16.56,16.56,0,0,1-1.7,7.5,12.06,12.06,0,0,1-4.9,5.1,14.14,14.14,0,0,1-7.1,1.8h-9.4Zm6.1-25.1v20.1h3a6.84,6.84,0,0,0,5.6-2.4c1.3-1.6,1.9-3.8,2-6.8v-1.6c0-3.1-.6-5.4-1.9-6.9a6.71,6.71,0,0,0-5.6-2.4h-3.1Z"/><path class="cls-3" d="M335.7,145.6H323.8v12.3h-6.2V127.8h19.6v5H323.8v7.8h11.9Z"/><path class="cls-3" d="M363.6,127.8v19.8a10,10,0,0,1-3.1,7.8,12.07,12.07,0,0,1-8.4,2.9c-3.5,0-6.3-.9-8.4-2.8a10.15,10.15,0,0,1-3.2-7.7v-20h6.2v19.8a5.84,5.84,0,0,0,1.4,4.3,5.3,5.3,0,0,0,3.9,1.4c3.5,0,5.3-1.8,5.3-5.5v-20Z"/><path class="cls-3" d="M393.1,157.9h-6.2l-12.1-19.8v19.8h-6.2V127.8h6.2l12.1,19.8V127.8h6.2Z"/><path class="cls-3" d="M398.5,157.9V127.8h9.3a14.14,14.14,0,0,1,7.1,1.8,12.68,12.68,0,0,1,4.9,5.1,15.41,15.41,0,0,1,1.8,7.5v1.4a16.56,16.56,0,0,1-1.7,7.5,12.06,12.06,0,0,1-4.9,5.1,14.14,14.14,0,0,1-7.1,1.8h-9.4Zm6.2-25.1v20.1h3a6.84,6.84,0,0,0,5.6-2.4c1.3-1.6,1.9-3.8,2-6.8v-1.6c0-3.1-.6-5.4-1.9-6.9a6.71,6.71,0,0,0-5.6-2.4h-3.1Z"/><path class="cls-3" d="M432.6,157.9h-6.2V127.8h6.2Z"/><path class="cls-3" d="M462.8,157.9h-6.2l-12.1-19.8v19.8h-6.2V127.8h6.2l12.1,19.8V127.8h6.2Z"/><path class="cls-3" d="M492,154.1a10.76,10.76,0,0,1-4.7,3.1,20.63,20.63,0,0,1-6.8,1.1,13.45,13.45,0,0,1-6.8-1.7,10.71,10.71,0,0,1-4.5-4.9,16.67,16.67,0,0,1-1.6-7.6v-2a18.71,18.71,0,0,1,1.5-7.8,10.8,10.8,0,0,1,4.4-5,12.16,12.16,0,0,1,6.7-1.7,13.14,13.14,0,0,1,8.4,2.5,11.13,11.13,0,0,1,3.6,7.4h-6a6.47,6.47,0,0,0-1.8-3.8,5.69,5.69,0,0,0-3.9-1.2,5.46,5.46,0,0,0-4.8,2.4c-1.1,1.6-1.7,3.9-1.7,7.1v1.9c0,3.2.6,5.5,1.8,7.1a6.25,6.25,0,0,0,5.3,2.4c2.3,0,4-.5,5-1.5v-5.2h-5.6v-4.6H492Z"/></g><g class="cls-2"><path class="cls-1" d="M196.4,36.2h-18V54.8H169V9.3h29.7v7.6H178.4V28.7h18Z"/><path class="cls-1" d="M238.7,9.3v30c0,5-1.6,8.9-4.7,11.8s-7.4,4.4-12.8,4.4-9.6-1.4-12.7-4.2-4.7-6.7-4.8-11.6V9.3h9.4V39.4c0,3,.7,5.2,2.1,6.5a8,8,0,0,0,5.9,2.1c5.3,0,8-2.8,8.1-8.3V9.3Z"/><path class="cls-1" d="M283.5,54.9h-9.4l-18.3-30v30h-9.4V9.3h9.4l18.3,30.1V9.3h9.4Z"/><path class="cls-1" d="M291.7,54.9V9.3h14A21.64,21.64,0,0,1,316.5,12a18.94,18.94,0,0,1,7.4,7.7,23.43,23.43,0,0,1,2.7,11.4v2.1A24.44,24.44,0,0,1,324,44.5a18.32,18.32,0,0,1-7.4,7.7A22.72,22.72,0,0,1,305.9,55H291.7Zm9.4-38V47.4h4.5q5.55,0,8.4-3.6c1.9-2.4,2.9-5.8,3-10.3V31c0-4.6-1-8.2-2.9-10.5s-4.7-3.6-8.4-3.6Z"/></g><g class="cls-2"><path class="cls-1" d="M343.4,54.9H334V9.3h9.4Z"/></g><g class="cls-2"><path class="cls-1" d="M385.5,16.9h-14v38h-9.4v-38H348.3V9.3h37.2v7.6Z"/><path class="cls-1" d="M400.8,54.9h-9.4V9.3h9.4Z"/><path class="cls-1" d="M447,33.1a27.32,27.32,0,0,1-2.4,11.8,17.94,17.94,0,0,1-6.8,7.8,20.11,20.11,0,0,1-20.3.1,17.53,17.53,0,0,1-6.9-7.8,27.06,27.06,0,0,1-2.5-11.6V31.1a28.1,28.1,0,0,1,2.4-11.9,18.35,18.35,0,0,1,6.9-7.9,19.08,19.08,0,0,1,10.1-2.7,18.84,18.84,0,0,1,10.1,2.7,17.86,17.86,0,0,1,6.9,7.9A27.64,27.64,0,0,1,446.9,31v2.1ZM437.5,31c0-4.8-.9-8.4-2.6-10.9a8.33,8.33,0,0,0-7.3-3.7,8.22,8.22,0,0,0-7.3,3.7c-1.7,2.5-2.6,6.1-2.6,10.8v2.2c0,4.7.9,8.3,2.6,10.8a8.34,8.34,0,0,0,7.4,3.9,8.22,8.22,0,0,0,7.3-3.7c1.7-2.5,2.5-6.1,2.6-10.8V31Z"/><path class="cls-1" d="M490.9,54.9h-9.4l-18.3-30v30h-9.4V9.3h9.4l18.3,30.1V9.3h9.4Z"/></g></svg>