<?xml version="1.0" encoding="utf-8"?>
<!-- Generator: Adobe Illustrator 22.1.0, SVG Export Plug-In . SVG Version: 6.00 Build 0)  -->
<svg version="1.1" id="Calque_1" xmlns="http://www.w3.org/2000/svg" xmlns:xlink="http://www.w3.org/1999/xlink" x="0px" y="0px"
	 viewBox="0 0 495.1 169.3" style="enable-background:new 0 0 495.1 169.3;" xml:space="preserve">
<style type="text/css">
	.st0{fill:#FFFFFF;}
	.st1{enable-background:new    ;}
</style>
<title>fundition</title>
<path class="st0" d="M118.5,100.9c-1.2,0.3-1.5,0-1.4-1.1c0-0.4,0-0.8,0-1.1c-0.3-1.6,0.5-3.2,1.9-3.9c3.8-2.3,5.9-6.6,5.3-11
	c-0.2-1.9-1.3-3.7-3-4.6c-14.1-8.6-28.4-16.8-42.8-25c-0.8-0.6-1.9-0.6-2.6,0.1c-1.7,1.3-3.4,2.4-5.2,3.6c-0.5,0.3-0.8,0.8-0.9,1.4
	c-1.1,5-2.1,9.9-3.5,14.8c-0.4,1.8-1.9,3.1-3.8,3.1c-2.5,0.2-4.9,0.4-7.3-0.8c-1.9-0.8-3.1-2.7-3-4.8c-0.1-4.4,0.4-8.7,1.4-13
	c0.4-2,0.8-3.9,1.2-5.9c0.4-2.2,1.6-4.1,3.4-5.4c4.8-3.5,9.6-7.1,14.4-10.7c0.9-0.6,1.8-1.2,2.7-1.6c0.7-0.2,1.4-0.2,2.1,0
	c10.5,2.6,18.6,10.9,27.8,16.3c0.9,0.6,2.1,0.8,3.2,0.5c14-3.4,27.8-7.7,41.8-11.1c0.3-0.1,0.6-0.1,0.8-0.1V13.9
	c0-2.7-2.2-4.9-4.9-4.9H6.9C4.2,9,2,11.2,2,13.9v31.7c8.5,2.5,17.1,4.8,25.6,7.5c4.2,1.3,7.4-0.5,10.6-2.6c6-3.8,12-7.6,18-11.5
	c0.8-0.4,1.8-0.5,2.6-0.2c0.6,0.1,1.2,0.3,1.8,0.6c0.8,0.4,2,0.6,2.1,1.5c0.1,0.7-1.1,1-1.7,1.4c-2.1,1.5-4.2,2.8-6.2,4.4
	c-1.8,1.4-2.1,3.6-2.7,5.6c-1.3,4.7-2,9.4-2.9,14.1c-0.3,2-0.3,4.1-0.1,6.2c0.2,2.4,1.5,4.5,3.6,5.7c4.3,2.2,7.6,2.2,12.3,1.8
	c1.6-0.1,2.9-1.1,3.5-2.5c1.4-3,2.4-6.1,3-9.3c0.4-2,0.9-4,1.2-6c0.4-2.4,2.4-3.8,4.3-5c0.3-0.1,0.7-0.1,1,0
	C85,61,91.7,64.9,98.5,69s13.6,7.9,20.5,11.7c3.6,2,4,4.5,1.4,8.5c-2.4,3.8-4.9,4-9.4,1.1c-3.1-2-6.1-4.2-9.5-5.6
	c-0.8-0.3-1.5-0.2-2.3-0.5C98.6,84,98,84.4,97.8,85c-0.2,0.5,0.3,0.8,0.7,1.1c2.6,1.7,5.4,3,8,4.5c2.4,1.3,4.8,2.7,6.9,4.4
	c1.3,1.1,1.7,2.9,1.1,4.4c-0.6,2.3-1.9,4.3-3.6,5.9c-0.8,0.9-2.1,1.2-3.2,0.7c-3.3-1.2-6.1-3.3-9.2-5c-2.1-1.2-4.1-2.5-6.3-3.6
	c-0.7-0.5-1.6-0.3-2.1,0.3c0,0-0.1,0.1-0.1,0.2c-0.6,1,0.5,1.1,1,1.5c3,1.8,6,3.6,8.9,5.4c1.1,0.7,2.1,1.5,3.3,2.3
	c0.9,0.6,1.3,1.7,1,2.7c-0.5,2-1.4,3.9-2.6,5.5c-2.1,2.5-4,2.8-6.7,1c-3-1.9-6-3.5-9.1-5.1c-0.5-0.3-1-0.5-1.6-0.6
	c-0.3-0.1-0.9-0.2-1,0.2s0.1,0.8,0.5,1.1c1.4,0.9,2.9,1.7,4.3,2.6c1.9,1.1,2.6,3.6,1.5,5.5c-1.1,2.1-2.1,4.5-4.5,5.6
	c-0.9,0.4-1.9,0.5-2.8,0.1c-2.4-0.9-2.7-1.8-1.3-3.9c1.5-2.7,1.2-6.1-0.9-8.4c-2.1-2.6-5.1-4.2-8.4-4.7c-0.8-0.1-1.6-0.6-1.8-1.5
	c-1.3-3.4-4.1-5.9-7.6-6.8c-2.4-0.7-5.1-0.3-7.2,1c-1.9,1-1.9,1-2.9-1c-0.6-1-1.4-1.9-2.4-2.4c-1.5-0.7-3.2-1.1-4.9-1
	c-2.2,0.1-3.3,0.3-4.9,1.7c-0.9,1-1.9,2.3-3.1,2.6s-2.1-1.3-3.2-2c-2-1.5-4.4-2.4-6.9-2.6c-2.1-0.1-3.6,1.5-4.6,3.1
	c-1,1.4-1.7,1.8-3.5,1.3C13,99.4,7.5,97.8,2,96.2v56.9c0,2.7,2.2,4.9,4.9,4.9h139.3c2.7,0,4.9-2.2,4.9-4.9V91.9
	c-4.7,1.3-9.5,2.7-14.2,4C130.7,97.6,124.6,99.2,118.5,100.9z M27.5,113.4c-2.3-0.5-4.4-1.7-5.9-3.5c-1.2-1.2-1.3-3.1-0.4-4.5
	c0.8-1.4,1.7-2.8,2.8-4c1-1.2,1.6-1.9,3.4-2c2.1,0,4.2,0.9,5.7,2.4c2.4,2.3,2.6,3.9,0.8,6.7c-0.8,1.3-1.9,2.4-2.8,3.6
	C30.3,113.2,28.8,113.7,27.5,113.4L27.5,113.4z M39.8,120.5c-2.5-0.8-5.1-1.5-6.2-4.3c-0.5-1-0.4-2.2,0.2-3.1
	c2.7-4.1,5.4-8.3,8.1-12.4c0.2-0.3,0.5-0.6,0.9-0.6c2.7-0.5,7,1.4,8.5,3.8c0.4,0.5,0.6,1,0.6,1.6c-0.2,0.7-0.4,1.3-0.7,2
	c-1.6,3.8-3.6,7.5-5.9,11C43.6,121.1,42.8,121.5,39.8,120.5z M52.5,128.5c-1.6-0.8-3.2-1.7-4.8-2.8c-2-1.5-2.3-2.3-1.2-4.6
	c2.1-4.5,4.5-8.9,6.9-13.3c0.5-0.9,1-1.8,1.5-2.7c0.8-1.6,1.7-2,3.4-2c4-0.1,6.6,1.4,8.3,4.8c0.5,0.7,0.5,1.7,0,2.4
	c-3.3,6-7,11.9-11,17.4C54.8,129,53.9,129.3,52.5,128.5z M78.1,119.3c-1.9,5.5-4.5,10.7-7.8,15.5c-0.4,0.5-1.8,2.2-2.6,1.9l-2.1-0.7
	c-1.4-0.5-2.8-1-4.1-1.6c-2.4-1.1-3.2-2.8-2-5.1c2.8-5.5,6-10.8,9.4-16c0.8-1.3,2.1-1.1,3.2-1c2.2,0.3,4.2,1.6,5.5,3.5
	C78.3,116.7,78.6,118.1,78.1,119.3L78.1,119.3z"/>
<g class="st1">
	<path class="st0" d="M171.3,107.1v-30h9.3c2.6,0,5,0.6,7.1,1.8c2.1,1.2,3.7,2.9,4.9,5.1s1.8,4.7,1.8,7.5v1.4c0,2.8-0.6,5.3-1.7,7.5
		s-2.8,3.9-4.9,5.1c-2.1,1.2-4.5,1.8-7.1,1.8h-9.4V107.1z M177.5,82.1v20.1h3c2.4,0,4.3-0.8,5.6-2.4s1.9-3.8,2-6.8v-1.6
		c0-3.1-0.6-5.4-1.9-6.9c-1.3-1.6-3.1-2.4-5.6-2.4C180.6,82.1,177.5,82.1,177.5,82.1z"/>
	<path class="st0" d="M216.9,94.1H205v8.1h14v5h-20.2V77.1h20.1v5H205v7.2h11.9V94.1z"/>
	<path class="st0" d="M246.2,97.1c-0.2,3.2-1.4,5.8-3.6,7.6c-2.2,1.9-5,2.8-8.5,2.8c-3.9,0-6.9-1.3-9.1-3.9
		c-2.2-2.6-3.3-6.2-3.3-10.7v-1.8c0-2.9,0.5-5.4,1.5-7.6s2.5-3.9,4.4-5.1s4.1-1.8,6.6-1.8c3.5,0,6.3,0.9,8.4,2.8
		c2.1,1.9,3.3,4.5,3.7,7.8H240c-0.2-1.9-0.7-3.3-1.6-4.2c-0.9-0.9-2.3-1.3-4.2-1.3c-2.1,0-3.6,0.7-4.6,2.2s-1.6,3.8-1.6,6.9v2.3
		c0,3.2,0.5,5.6,1.5,7.1s2.5,2.3,4.7,2.3c1.9,0,3.3-0.4,4.3-1.3s1.5-2.2,1.6-4.1C240.1,97.1,246.2,97.1,246.2,97.1z"/>
	<path class="st0" d="M268.3,94.1h-11.9v8.1h14v5h-20.2V77.1h20.1v5h-13.9v7.2h11.9V94.1z"/>
</g>
<g class="st1">
	<path class="st0" d="M298.5,107.1h-6.2l-12.1-19.8v19.8H274v-30h6.2l12.1,19.8V77.1h6.2V107.1z"/>
</g>
<g class="st1">
	<path class="st0" d="M325.9,82.1h-9.2v25h-6.2v-25h-9.1v-5h24.5L325.9,82.1L325.9,82.1z"/>
	<path class="st0" d="M340.6,96.1h-4.9v11h-6.2v-30h11.2c3.6,0,6.3,0.8,8.2,2.4c1.9,1.6,2.9,3.8,2.9,6.7c0,2.1-0.4,3.8-1.3,5.1
		c-0.9,1.4-2.2,2.5-4,3.3l6.5,12.3v0.3h-6.6L340.6,96.1z M335.7,91.1h5c1.6,0,2.8-0.4,3.6-1.2c0.9-0.8,1.3-1.9,1.3-3.3
		c0-1.4-0.4-2.5-1.2-3.3c-0.8-0.8-2-1.2-3.7-1.2h-5L335.7,91.1L335.7,91.1z"/>
	<path class="st0" d="M373.5,100.9h-10.9l-2.1,6.2h-6.6L365.1,77h5.7l11.3,30.1h-6.6L373.5,100.9z M364.4,95.9h7.5l-3.8-11.2
		L364.4,95.9z"/>
	<path class="st0" d="M391.2,102.1h13.2v5h-19.3v-30h6.2v25H391.2z"/>
	<path class="st0" d="M414.5,107.1h-6.2v-30h6.2V107.1z"/>
	<path class="st0" d="M426.8,102.1H442v5h-22.9v-3.6L434,82.1h-14.9v-5h22.5v3.6L426.8,102.1z"/>
	<path class="st0" d="M464.1,94.1h-11.9v8.1h14v5H446V77.1h20.1v5h-13.9v7.2h11.9V94.1z"/>
	<path class="st0" d="M469.8,107.1v-30h9.3c2.6,0,5,0.6,7.1,1.8c2.1,1.2,3.7,2.9,4.9,5.1c1.2,2.2,1.8,4.7,1.8,7.5v1.4
		c0,2.8-0.6,5.3-1.7,7.5c-1.1,2.2-2.8,3.9-4.9,5.1c-2.1,1.2-4.5,1.8-7.1,1.8h-9.4V107.1z M476,82.1v20.1h3c2.4,0,4.3-0.8,5.6-2.4
		c1.3-1.6,1.9-3.8,2-6.8v-1.6c0-3.1-0.6-5.4-1.9-6.9c-1.3-1.6-3.1-2.4-5.6-2.4C479.1,82.1,476,82.1,476,82.1z"/>
</g>
<g class="st1">
	<path class="st0" d="M195.3,147.8c-0.2,3.2-1.4,5.8-3.6,7.6c-2.2,1.9-5,2.8-8.4,2.8c-3.9,0-6.9-1.3-9-3.9
		c-2.2-2.6-3.3-6.2-3.3-10.6v-1.8c0-2.9,0.5-5.4,1.5-7.6c1-2.2,2.5-3.9,4.4-5.1c1.9-1.2,4.1-1.8,6.6-1.8c3.5,0,6.3,0.9,8.3,2.8
		s3.3,4.5,3.7,7.7h-6.2c-0.2-1.9-0.7-3.3-1.6-4.2c-0.9-0.9-2.3-1.3-4.2-1.3c-2.1,0-3.6,0.7-4.6,2.2c-1,1.5-1.6,3.8-1.6,6.9v2.3
		c0,3.2,0.5,5.6,1.5,7.1c1,1.5,2.5,2.3,4.7,2.3c1.9,0,3.3-0.4,4.3-1.3c1-0.9,1.5-2.2,1.6-4.1H195.3z"/>
	<path class="st0" d="M210.4,146.8h-4.9v10.9h-6.2v-29.9h11.1c3.6,0,6.3,0.8,8.1,2.4c1.9,1.6,2.9,3.8,2.9,6.7c0,2.1-0.4,3.8-1.3,5.1
		c-0.9,1.4-2.2,2.5-4,3.3l6.5,12.2v0.3h-6.6L210.4,146.8z M205.6,141.8h5c1.6,0,2.8-0.4,3.6-1.2c0.9-0.8,1.3-1.9,1.3-3.3
		c0-1.4-0.4-2.5-1.2-3.3s-2-1.2-3.7-1.2h-5L205.6,141.8L205.6,141.8z"/>
	<path class="st0" d="M250.8,143.5c0,3-0.5,5.6-1.6,7.7c-1,2.2-2.5,4-4.5,5.2c-1.9,1.2-4.2,1.8-6.7,1.8c-2.5,0-4.7-0.6-6.7-1.8
		s-3.5-2.9-4.5-5.1c-1.1-2.2-1.6-4.8-1.6-7.7v-1.5c0-3,0.5-5.6,1.6-7.7c1.1-2.3,2.6-4,4.5-5.2c1.9-1.2,4.2-1.8,6.7-1.8
		c2.5,0,4.7,0.6,6.7,1.8c1.9,1.2,3.5,2.9,4.5,5.2c1.1,2.3,1.6,4.8,1.6,7.7V143.5z M244.5,142.2c0-3.2-0.6-5.5-1.7-7.2
		c-1.1-1.6-2.7-2.5-4.8-2.5c-2.1,0-3.7,0.8-4.8,2.4c-1.1,1.6-1.7,4-1.7,7.1v1.5c0,3.1,0.6,5.5,1.7,7.1c1.1,1.7,2.8,2.5,4.9,2.5
		c2.1,0,3.7-0.8,4.8-2.4c1.1-1.6,1.7-4,1.7-7.1L244.5,142.2L244.5,142.2z"/>
	<path class="st0" d="M278.5,149.1l4-21.3h6.2l-6.7,29.9h-6.2l-4.9-20l-4.9,20h-6.2l-6.7-29.9h6.2l4.1,21.3l5-21.3h5.2L278.5,149.1z
		"/>
	<path class="st0" d="M292,157.8v-29.9h9.2c2.6,0,5,0.6,7.1,1.8c2.1,1.2,3.7,2.9,4.9,5.1c1.2,2.2,1.8,4.7,1.8,7.5v1.4
		c0,2.8-0.6,5.3-1.7,7.5c-1.1,2.2-2.8,3.9-4.9,5.1c-2.1,1.2-4.5,1.8-7.1,1.8L292,157.8L292,157.8z M298.1,132.8v20h3
		c2.4,0,4.3-0.8,5.6-2.4c1.3-1.6,1.9-3.8,2-6.8v-1.6c0-3.1-0.6-5.4-1.9-6.9c-1.3-1.6-3.1-2.4-5.6-2.4L298.1,132.8L298.1,132.8z"/>
	<path class="st0" d="M337.2,145.5h-11.8v12.2h-6.2v-29.9h19.5v5h-13.3v7.7h11.8V145.5z"/>
	<path class="st0" d="M364.9,127.9v19.7c0,3.3-1,5.9-3.1,7.7s-4.9,2.9-8.3,2.9s-6.3-0.9-8.3-2.8c-2.1-1.9-3.1-4.4-3.2-7.7v-19.9h6.2
		v19.7c0,2,0.5,3.4,1.4,4.3c0.9,0.9,2.2,1.4,3.9,1.4c3.5,0,5.3-1.8,5.3-5.5v-19.9H364.9z"/>
	<path class="st0" d="M394.2,157.8h-6.2l-12-19.7v19.7h-6.2v-29.9h6.2l12,19.7v-19.7h6.2V157.8z"/>
	<path class="st0" d="M399.6,157.8v-29.9h9.2c2.6,0,5,0.6,7.1,1.8c2.1,1.2,3.7,2.9,4.9,5.1c1.2,2.2,1.8,4.7,1.8,7.5v1.4
		c0,2.8-0.6,5.3-1.7,7.5c-1.1,2.2-2.8,3.9-4.9,5.1c-2.1,1.2-4.5,1.8-7.1,1.8L399.6,157.8L399.6,157.8z M405.8,132.8v20h3
		c2.4,0,4.3-0.8,5.6-2.4c1.3-1.6,1.9-3.8,2-6.8v-1.6c0-3.1-0.6-5.4-1.9-6.9c-1.3-1.6-3.1-2.4-5.6-2.4L405.8,132.8L405.8,132.8z"/>
	<path class="st0" d="M433.5,157.8h-6.2v-29.9h6.2V157.8z"/>
	<path class="st0" d="M463.5,157.8h-6.2l-12-19.7v19.7h-6.2v-29.9h6.2l12,19.7v-19.7h6.2V157.8z"/>
	<path class="st0" d="M492.5,154c-1.1,1.3-2.7,2.4-4.7,3.1s-4.3,1.1-6.8,1.1c-2.6,0-4.9-0.6-6.8-1.7c-2-1.1-3.5-2.8-4.5-4.9
		c-1.1-2.2-1.6-4.7-1.6-7.6v-2c0-3,0.5-5.6,1.5-7.7c1-2.2,2.5-3.9,4.4-5c1.9-1.2,4.1-1.7,6.7-1.7c3.6,0,6.4,0.9,8.3,2.5
		c2,1.7,3.2,4.2,3.6,7.4h-6c-0.3-1.7-0.9-3-1.8-3.8c-0.9-0.8-2.2-1.2-3.9-1.2c-2.1,0-3.7,0.8-4.8,2.4c-1.1,1.6-1.7,3.9-1.7,7.1v1.9
		c0,3.2,0.6,5.5,1.8,7.1c1.2,1.6,3,2.4,5.3,2.4s4-0.5,5-1.5v-5.2h-5.6v-4.6h11.4V154z"/>
</g>
<g class="st1">
	<path class="st0" d="M198.4,36.2h-18v18.6H171V9.3h29.7v7.6h-20.3v11.8h18V36.2z"/>
	<path class="st0" d="M240.7,9.3v30c0,5-1.6,8.9-4.7,11.8c-3.1,2.9-7.4,4.4-12.8,4.4c-5.3,0-9.6-1.4-12.7-4.2s-4.7-6.7-4.8-11.6V9.3
		h9.4v30.1c0,3,0.7,5.2,2.1,6.5c1.4,1.4,3.4,2.1,5.9,2.1c5.3,0,8-2.8,8.1-8.3V9.3H240.7z"/>
	<path class="st0" d="M285.5,54.9h-9.4l-18.3-30v30h-9.4V9.3h9.4l18.3,30.1V9.3h9.4V54.9z"/>
	<path class="st0" d="M293.7,54.9V9.3h14c4,0,7.6,0.9,10.8,2.7c3.2,1.8,5.6,4.4,7.4,7.7s2.7,7.1,2.7,11.4v2.1c0,4.2-0.9,8-2.6,11.3
		s-4.2,5.9-7.4,7.7s-6.8,2.7-10.7,2.8L293.7,54.9L293.7,54.9z M303.1,16.9v30.5h4.5c3.7,0,6.5-1.2,8.4-3.6c1.9-2.4,2.9-5.8,3-10.3
		V31c0-4.6-1-8.2-2.9-10.5c-1.9-2.4-4.7-3.6-8.4-3.6H303.1z"/>
</g>
<g class="st1">
	<path class="st0" d="M345.4,54.9H336V9.3h9.4V54.9z"/>
</g>
<g class="st1">
	<path class="st0" d="M387.5,16.9h-14v38h-9.4v-38h-13.8V9.3h37.2L387.5,16.9L387.5,16.9z"/>
	<path class="st0" d="M402.8,54.9h-9.4V9.3h9.4V54.9z"/>
	<path class="st0" d="M449,33.1c0,4.5-0.8,8.4-2.4,11.8c-1.6,3.4-3.9,6-6.8,7.8s-6.3,2.8-10.2,2.8c-3.8,0-7.2-0.9-10.1-2.7
		c-3-1.8-5.3-4.4-6.9-7.8s-2.5-7.3-2.5-11.6v-2.3c0-4.5,0.8-8.4,2.4-11.9c1.6-3.4,3.9-6,6.9-7.9c3-1.8,6.3-2.7,10.1-2.7
		s7.2,0.9,10.1,2.7c3,1.8,5.2,4.4,6.9,7.9c1.6,3.4,2.4,7.4,2.4,11.8v2.1H449z M439.5,31c0-4.8-0.9-8.4-2.6-10.9s-4.2-3.7-7.3-3.7
		c-3.2,0-5.6,1.2-7.3,3.7c-1.7,2.5-2.6,6.1-2.6,10.8v2.2c0,4.7,0.9,8.3,2.6,10.8c1.7,2.6,4.2,3.9,7.4,3.9c3.2,0,5.6-1.2,7.3-3.7
		c1.7-2.5,2.5-6.1,2.6-10.8V31H439.5z"/>
	<path class="st0" d="M492.9,54.9h-9.4l-18.3-30v30h-9.4V9.3h9.4l18.3,30.1V9.3h9.4V54.9z"/>
</g>
</svg>
