<?xml version="1.0" encoding="utf-8"?>
<!-- Generator: Adobe Illustrator 22.1.0, SVG Export Plug-In . SVG Version: 6.00 Build 0)  -->
<svg version="1.1" id="Calque_1" xmlns="http://www.w3.org/2000/svg" xmlns:xlink="http://www.w3.org/1999/xlink" x="0px" y="0px"
	 viewBox="0 0 1015 199.8" style="enable-background:new 0 0 1015 199.8;" xml:space="preserve">
<style type="text/css">
	.st0{fill:#D91B5C;}
	.st1{enable-background:new    ;}
	.st2{fill:#22252C;}
</style>
<title>sfundition</title>
<path class="st0" d="M99.5,77.1c-1,0.2-1.2,0-1.2-0.9v-0.9c-0.2-1.3,0.4-2.6,1.6-3.2c3.1-1.9,4.8-5.4,4.3-9c-0.1-1.6-1.1-3-2.5-3.8
	c-11.5-7.1-23.3-13.8-35.1-20.5c-0.6-0.5-1.5-0.5-2.1,0.1c-1.4,1.1-2.8,2-4.3,3c-0.4,0.3-0.7,0.7-0.7,1.2c-0.9,4.1-1.7,8.1-2.9,12.1
	c-0.3,1.5-1.6,2.5-3.1,2.5c-2,0.2-4,0.3-6-0.7c-1.6-0.7-2.6-2.2-2.5-3.9c-0.1-3.6,0.3-7.2,1.1-10.7c0.3-1.6,0.7-3.2,1-4.8
	c0.3-1.8,1.3-3.4,2.8-4.4c3.9-2.9,7.9-5.8,11.8-8.8c0.7-0.5,1.4-0.9,2.2-1.3c0.6-0.2,1.2-0.2,1.7,0C74.4,25.2,81,32,88.6,36.4
	c0.8,0.5,1.7,0.7,2.6,0.4c11.5-2.8,22.8-6.3,34.3-9.1c0.2-0.1,0.4-0.1,0.7-0.1V5.8c0-2.2-1.8-4-4-4H8c-2.2,0-4,1.8-4,4v26
	c7,2,14,3.9,21,6.2c3.5,1.1,6.1-0.4,8.7-2.1c4.9-3.1,9.8-6.2,14.8-9.4c0.7-0.3,1.4-0.4,2.1-0.2c0.5,0.1,1,0.3,1.5,0.5
	c0.7,0.3,1.6,0.5,1.7,1.2c0.1,0.6-0.9,0.8-1.4,1.2c-1.7,1.2-3.4,2.3-5.1,3.6c-1.5,1.2-1.7,3-2.2,4.6c-1.1,3.9-1.7,7.7-2.4,11.6
	c-0.2,1.7-0.3,3.4-0.1,5.1c0.2,2,1.3,3.7,3,4.7c3.5,1.8,6.2,1.8,10.1,1.5c1.3-0.1,2.4-0.8,2.9-2c1.1-2.4,2-5,2.5-7.7
	c0.3-1.6,0.7-3.3,1-4.9c0.3-2,2-3.1,3.5-4.1c0.3-0.1,0.6-0.1,0.8,0c5.7,3,11.2,6.2,16.8,9.6c5.6,3.4,11.2,6.5,16.8,9.6
	c2.9,1.6,3.3,3.7,1.1,7c-2,3.1-4,3.3-7.7,0.9c-2.5-1.8-5.1-3.3-7.8-4.6c-0.7-0.3-1.2-0.2-1.9-0.4c-0.5-0.1-1,0.2-1.1,0.6
	c0,0,0,0,0,0c-0.2,0.4,0.3,0.7,0.6,0.9c2.1,1.4,4.4,2.5,6.6,3.7c2,1,3.9,2.2,5.7,3.6c1,0.9,1.4,2.3,0.9,3.6
	c-0.5,1.9-1.5,3.5-2.9,4.8c-0.7,0.7-1.7,1-2.6,0.6c-2.7-1-5-2.7-7.6-4.1c-1.7-1-3.4-2-5.2-3c-0.5-0.4-1.3-0.3-1.7,0.2
	c0,0-0.1,0.1-0.1,0.2c-0.5,0.8,0.4,0.9,0.8,1.2c2.5,1.5,4.9,3,7.3,4.4c0.9,0.6,1.7,1.2,2.7,1.9c0.7,0.5,1.1,1.4,0.8,2.2
	c-0.4,1.6-1.1,3.2-2.1,4.5c-1.7,2.1-3.3,2.3-5.5,0.8c-2.4-1.6-4.9-2.9-7.4-4.2c-0.4-0.3-0.9-0.4-1.3-0.5c-0.2-0.1-0.7-0.2-0.8,0.2
	c-0.1,0.4,0.1,0.7,0.4,0.9c1.2,0.7,2.4,1.4,3.5,2.1c1.6,0.9,2.1,3,1.2,4.5c-0.9,1.7-1.7,3.7-3.7,4.6c-0.7,0.4-1.6,0.4-2.3,0.1
	c-2-0.7-2.2-1.5-1.1-3.2c1.2-2.2,0.9-5-0.7-6.9c-1.7-2.1-4.2-3.5-6.9-3.8c-0.7-0.1-1.3-0.5-1.5-1.2c-1-2.8-3.4-4.8-6.2-5.6
	c-2-0.6-4.1-0.3-5.9,0.8c-1.6,0.8-1.6,0.8-2.4-0.8c-0.5-0.8-1.2-1.5-2-2c-1.2-0.6-2.6-0.9-4-0.8c-1.5-0.1-2.9,0.4-4,1.4
	c-0.7,0.8-1.5,1.9-2.5,2.1s-1.7-1.1-2.6-1.6c-1.6-1.2-3.6-2-5.7-2.1c-1.7-0.1-3,1.2-3.8,2.6c-0.8,1.1-1.4,1.5-2.9,1.1
	c-4.6-1.4-9.1-2.7-13.6-4v46.6c0,2.2,1.8,4,4,4h114.2c2.2,0,4-1.8,4-4V69.8c-3.8,1.1-7.8,2.2-11.6,3.3
	C109.5,74.4,104.5,75.7,99.5,77.1z M24.9,87.3c-1.9-0.4-3.6-1.4-4.8-2.9c-0.9-1-1.1-2.5-0.3-3.7c0.6-1.2,1.4-2.3,2.3-3.3
	c0.6-1,1.6-1.6,2.8-1.6c1.8,0,3.4,0.8,4.7,2c2,1.9,2.1,3.2,0.7,5.5c-0.7,1.1-1.6,2-2.3,3C27.1,87.3,25.9,87.7,24.9,87.3L24.9,87.3z
	 M35,93.1c-2-0.7-4.2-1.2-5.1-3.5c-0.4-0.8-0.3-1.8,0.2-2.5c2.2-3.4,4.4-6.8,6.6-10.2c0.2-0.3,0.4-0.5,0.7-0.5c2.7-0.2,5.3,1,7,3.1
	c0.3,0.4,0.5,0.8,0.5,1.3c-0.2,0.6-0.3,1.1-0.6,1.6c-1.3,3.1-3,6.2-4.8,9C38.1,93.6,37.4,94,35,93.1z M45.4,99.8
	c-1.4-0.7-2.7-1.4-3.9-2.3c-1.6-1.2-1.9-1.9-1-3.8c1.7-3.7,3.7-7.3,5.7-10.9l1.2-2.2c0.4-1.1,1.6-1.8,2.8-1.6
	c3.3-0.1,5.4,1.2,6.8,3.9c0.4,0.6,0.4,1.4,0,2c-2.7,4.9-5.7,9.7-9,14.3c-0.3,0.8-1.3,1.2-2.1,0.9C45.7,100,45.5,99.9,45.4,99.8z
	 M66.4,92.2c-1.5,4.5-3.7,8.7-6.4,12.7c-0.3,0.4-1.5,1.8-2.1,1.6l-1.7-0.6c-1.2-0.4-2.3-0.8-3.4-1.3c-2-0.9-2.6-2.3-1.6-4.2
	c2.3-4.5,4.9-8.9,7.7-13.1c0.7-1.1,1.7-0.9,2.6-0.8c1.8,0.3,3.5,1.3,4.5,2.9C66.6,90.1,66.8,91.2,66.4,92.2L66.4,92.2z"/>
<g>
	<path class="st0" d="M221.7,74h-48.3v49.9h-25.2V1.8h79.6v20.4h-54.4v31.6h48.3V74z"/>
	<path class="st0" d="M335.1,1.9v80.4c0,13.4-4.3,23.9-12.6,31.6s-19.8,11.8-34.3,11.8c-14.2,0-25.7-3.8-34-11.3s-12.6-18-12.9-31.1
		V1.9h25.2v80.7c0,8,1.9,13.9,5.6,17.4c3.8,3.8,9.1,5.6,15.8,5.6c14.2,0,21.4-7.5,21.7-22.3V1.9H335.1z"/>
	<path class="st0" d="M455.2,124.1H430l-49-80.4v80.4h-25.2V1.9H381l49,80.7V1.9h25.2L455.2,124.1z"/>
	<path class="st0" d="M477.1,124.1V1.9h37.5c10.1-0.2,20.1,2.3,29,7.2c8.6,4.8,15,11.8,19.8,20.6s7.2,19,7.2,30.5v5.6
		c0.1,10.5-2.3,20.9-7,30.3c-4.4,8.7-11.3,15.9-19.8,20.6c-8.8,4.8-18.6,7.4-28.7,7.5L477.1,124.1L477.1,124.1z M502.3,22.3V104
		h12.1c9.9,0,17.4-3.2,22.5-9.7c5.1-6.4,7.8-15.5,8-27.6V60c0-12.3-2.7-22-7.8-28.1c-5.1-6.4-12.6-9.7-22.5-9.7H502.3z"/>
</g>
<g>
	<path class="st0" d="M615.7,124.1h-25.2V1.9h25.2V124.1z"/>
</g>
<g>
	<path class="st0" d="M1011.1,199.8H4v-9.9h1007.1V199.8z"/>
</g>
<g>
	<path class="st0" d="M728.6,22.3H691v101.9h-25.2V22.3h-37V1.9h99.7L728.6,22.3L728.6,22.3z"/>
	<path class="st0" d="M769.6,124.1h-25.2V1.9h25.2V124.1z"/>
	<path class="st0" d="M893.4,65.7c0,12.1-2.1,22.5-6.4,31.6c-3.9,8.6-10.2,15.9-18.2,20.9c-8.2,5.1-17.7,7.7-27.3,7.5
		c-10.2,0-19.3-2.4-27.1-7.2c-8.1-4.9-14.6-12.2-18.5-20.9c-4.5-9.7-6.8-20.4-6.7-31.1v-6.2c0-12.1,2.2-22.5,6.4-31.9
		c4-8.7,10.4-16.1,18.5-21.2c8.2-4.9,17.5-7.4,27.1-7.2c10.2,0,19.3,2.4,27.1,7.2c8,4.8,13.9,11.8,18.5,21.2
		c4.3,9.1,6.4,19.8,6.4,31.6v5.6H893.4z M868,60c0-12.9-2.4-22.5-7-29.2s-11.3-9.9-19.6-9.9c-8.6,0-15,3.2-19.6,9.9s-7,16.3-7,29
		v5.9c0,12.6,2.4,22.3,7,29c4.6,7,11.3,10.5,19.8,10.5s15-3.2,19.6-9.9s6.7-16.3,7-29V60H868z"/>
	<path class="st0" d="M1011.1,124.1h-25.2l-49.1-80.4v80.4h-25.2V1.9h25.2l49.1,80.7V1.9h25.2V124.1z"/>
</g>
<g class="st1">
	<path class="st2" d="M30.8,163.7c0,5.3-1.5,9.4-4.5,12.2s-7.4,4.2-13.1,4.2H4.1v-32.2h10.1c5.3,0,9.4,1.4,12.3,4.2
		C29.4,154.8,30.8,158.7,30.8,163.7z M23.7,163.8c0-6.9-3.1-10.4-9.2-10.4h-3.6v21h2.9C20.4,174.4,23.7,170.9,23.7,163.8z"/>
	<path class="st2" d="M56.1,180.1H37.5v-32.2h18.6v5.6H44.3v7.1h10.9v5.6H44.3v8.3h11.7V180.1z"/>
	<path class="st2" d="M76.5,153.1c-2.6,0-4.6,1-6,2.9c-1.4,1.9-2.1,4.6-2.1,8.1c0,7.2,2.7,10.8,8.1,10.8c2.3,0,5-0.6,8.2-1.7v5.7
		c-2.6,1.1-5.6,1.7-8.9,1.7c-4.7,0-8.3-1.4-10.8-4.3c-2.5-2.8-3.7-6.9-3.7-12.3c0-3.4,0.6-6.3,1.8-8.8s3-4.5,5.3-5.8
		c2.3-1.3,5-2,8-2c3.1,0,6.3,0.8,9.4,2.3l-2.2,5.6c-1.2-0.6-2.4-1.1-3.6-1.5C78.9,153.3,77.7,153.1,76.5,153.1z"/>
	<path class="st2" d="M110.1,180.1H91.6v-32.2h18.6v5.6H98.4v7.1h10.9v5.6H98.4v8.3h11.7V180.1z"/>
	<path class="st2" d="M145.5,180.1h-8.7l-14-24.4h-0.2c0.3,4.3,0.4,7.4,0.4,9.2v15.2h-6.1v-32.2h8.6l14,24.2h0.2
		c-0.2-4.2-0.3-7.2-0.3-8.9v-15.3h6.2V180.1z"/>
	<path class="st2" d="M166,180.1h-6.8v-26.6h-8.8v-5.7h24.3v5.7H166V180.1z"/>
	<path class="st2" d="M186.6,167.7v12.4h-6.8v-32.2h9.4c4.4,0,7.6,0.8,9.7,2.4c2.1,1.6,3.2,4,3.2,7.3c0,1.9-0.5,3.6-1.6,5.1
		c-1,1.5-2.5,2.6-4.4,3.5c4.9,7.2,8,11.9,9.5,14h-7.6l-7.7-12.4H186.6z M186.6,162.2h2.2c2.2,0,3.8-0.4,4.8-1.1
		c1-0.7,1.5-1.9,1.5-3.4c0-1.5-0.5-2.6-1.6-3.3c-1.1-0.6-2.7-1-4.9-1h-2.1V162.2z"/>
	<path class="st2" d="M229.3,180.1l-2.3-7.7h-11.8l-2.3,7.7h-7.4l11.4-32.4h8.4l11.4,32.4H229.3z M225.3,166.7
		c-2.2-7-3.4-10.9-3.7-11.8c-0.3-0.9-0.5-1.6-0.6-2.2c-0.5,1.9-1.9,6.5-4.2,14H225.3z"/>
	<path class="st2" d="M240.7,180.1v-32.2h6.8v26.6h13.1v5.6H240.7z"/>
	<path class="st2" d="M266.3,180.1v-32.2h6.8v32.2H266.3z"/>
	<path class="st2" d="M302.2,180.1h-24v-4.4l15.5-22.2h-15v-5.6h23.2v4.4l-15.4,22.2h15.9V180.1z"/>
	<path class="st2" d="M325.9,180.1h-18.6v-32.2h18.6v5.6h-11.7v7.1h10.9v5.6h-10.9v8.3h11.7V180.1z"/>
	<path class="st2" d="M359.4,163.7c0,5.3-1.5,9.4-4.5,12.2s-7.4,4.2-13.1,4.2h-9.1v-32.2h10.1c5.3,0,9.4,1.4,12.3,4.2
		C358,154.8,359.4,158.7,359.4,163.7z M352.3,163.8c0-6.9-3.1-10.4-9.2-10.4h-3.6v21h2.9C349,174.4,352.3,170.9,352.3,163.8z"/>
	<path class="st2" d="M391.5,153.1c-2.6,0-4.6,1-6,2.9c-1.4,1.9-2.1,4.6-2.1,8.1c0,7.2,2.7,10.8,8.1,10.8c2.3,0,5-0.6,8.2-1.7v5.7
		c-2.6,1.1-5.6,1.7-8.9,1.7c-4.7,0-8.3-1.4-10.8-4.3c-2.5-2.8-3.7-6.9-3.7-12.3c0-3.4,0.6-6.3,1.8-8.8s3-4.5,5.3-5.8
		c2.3-1.3,5-2,8-2c3.1,0,6.3,0.8,9.4,2.3l-2.2,5.6c-1.2-0.6-2.4-1.1-3.6-1.5C393.9,153.3,392.7,153.1,391.5,153.1z"/>
	<path class="st2" d="M413.5,167.7v12.4h-6.8v-32.2h9.4c4.4,0,7.6,0.8,9.7,2.4c2.1,1.6,3.2,4,3.2,7.3c0,1.9-0.5,3.6-1.6,5.1
		c-1,1.5-2.5,2.6-4.4,3.5c4.9,7.2,8,11.9,9.5,14h-7.6l-7.7-12.4H413.5z M413.5,162.2h2.2c2.2,0,3.8-0.4,4.8-1.1
		c1-0.7,1.5-1.9,1.5-3.4c0-1.5-0.5-2.6-1.6-3.3c-1.1-0.6-2.7-1-4.9-1h-2.1V162.2z"/>
	<path class="st2" d="M465.7,163.9c0,5.3-1.3,9.4-4,12.3c-2.6,2.9-6.4,4.3-11.4,4.3c-4.9,0-8.7-1.4-11.4-4.3c-2.6-2.9-4-7-4-12.4
		s1.3-9.5,4-12.3c2.7-2.8,6.5-4.2,11.4-4.2c5,0,8.7,1.4,11.4,4.3S465.7,158.6,465.7,163.9z M442.2,163.9c0,3.6,0.7,6.3,2.1,8.1
		c1.4,1.8,3.4,2.7,6.1,2.7c5.5,0,8.2-3.6,8.2-10.9c0-7.3-2.7-10.9-8.1-10.9c-2.7,0-4.8,0.9-6.2,2.7
		C442.9,157.6,442.2,160.3,442.2,163.9z"/>
	<path class="st2" d="M503.8,180.1H496l-4.4-16.9c-0.2-0.6-0.4-1.8-0.8-3.7c-0.4-1.9-0.6-3.2-0.7-3.8c-0.1,0.8-0.3,2.1-0.7,3.8
		c-0.4,1.8-0.6,3-0.8,3.8l-4.3,16.9h-7.8l-8.2-32.2h6.7l4.1,17.6c0.7,3.2,1.2,6.1,1.6,8.4c0.1-0.8,0.3-2.1,0.6-3.9
		c0.3-1.8,0.6-3.1,0.9-4.1l4.7-18.1h6.5l4.7,18.1c0.2,0.8,0.5,2,0.8,3.7c0.3,1.7,0.5,3.1,0.7,4.3c0.1-1.1,0.4-2.6,0.7-4.3
		s0.6-3.1,0.9-4.2l4.1-17.6h6.7L503.8,180.1z"/>
	<path class="st2" d="M542.8,163.7c0,5.3-1.5,9.4-4.5,12.2s-7.4,4.2-13.1,4.2h-9.1v-32.2h10.1c5.3,0,9.4,1.4,12.3,4.2
		C541.4,154.8,542.8,158.7,542.8,163.7z M535.7,163.8c0-6.9-3.1-10.4-9.2-10.4h-3.6v21h2.9C532.4,174.4,535.7,170.9,535.7,163.8z"/>
	<path class="st2" d="M556.2,180.1h-6.7v-32.2H568v5.6h-11.8v8.3h10.9v5.6h-10.9V180.1z"/>
	<path class="st2" d="M600.5,147.8v20.9c0,2.4-0.5,4.5-1.6,6.3c-1.1,1.8-2.6,3.2-4.6,4.1c-2,1-4.4,1.4-7.1,1.4
		c-4.1,0-7.4-1.1-9.7-3.2c-2.3-2.1-3.4-5-3.4-8.7v-20.8h6.8v19.7c0,2.5,0.5,4.3,1.5,5.5c1,1.2,2.7,1.7,5,1.7c2.2,0,3.9-0.6,4.9-1.8
		c1-1.2,1.5-3,1.5-5.5v-19.7H600.5z"/>
	<path class="st2" d="M637,180.1h-8.7l-14-24.4h-0.2c0.3,4.3,0.4,7.4,0.4,9.2v15.2h-6.1v-32.2h8.6l14,24.2h0.2
		c-0.2-4.2-0.3-7.2-0.3-8.9v-15.3h6.2V180.1z"/>
	<path class="st2" d="M671.9,163.7c0,5.3-1.5,9.4-4.5,12.2s-7.4,4.2-13.1,4.2h-9.1v-32.2h10.1c5.3,0,9.4,1.4,12.3,4.2
		C670.4,154.8,671.9,158.7,671.9,163.7z M664.8,163.8c0-6.9-3.1-10.4-9.2-10.4H652v21h2.9C661.5,174.4,664.8,170.9,664.8,163.8z"/>
	<path class="st2" d="M678.6,180.1v-32.2h6.8v32.2H678.6z"/>
	<path class="st2" d="M722.1,180.1h-8.7l-14-24.4h-0.2c0.3,4.3,0.4,7.4,0.4,9.2v15.2h-6.1v-32.2h8.6l14,24.2h0.2
		c-0.2-4.2-0.3-7.2-0.3-8.9v-15.3h6.2V180.1z"/>
	<path class="st2" d="M742.5,162h12.8v16.7c-2.1,0.7-4,1.2-5.9,1.4c-1.8,0.3-3.7,0.4-5.6,0.4c-4.9,0-8.6-1.4-11.1-4.3
		c-2.6-2.9-3.8-7-3.8-12.3c0-5.2,1.5-9.3,4.5-12.2c3-2.9,7.1-4.4,12.4-4.4c3.3,0,6.5,0.7,9.6,2l-2.3,5.5c-2.4-1.2-4.8-1.8-7.3-1.8
		c-3,0-5.3,1-7.1,3c-1.8,2-2.7,4.7-2.7,8c0,3.5,0.7,6.2,2.2,8c1.4,1.8,3.5,2.8,6.3,2.8c1.4,0,2.9-0.1,4.3-0.4v-6.7h-6.1V162z"/>
	<path class="st2" d="M797,157.9c0,3.5-1.1,6.1-3.3,8c-2.2,1.8-5.3,2.8-9.3,2.8h-2.9v11.5h-6.8v-32.2H785c3.9,0,6.9,0.8,8.9,2.5
		S797,154.6,797,157.9z M781.5,163h2.2c2.1,0,3.7-0.4,4.7-1.2c1-0.8,1.6-2,1.6-3.6c0-1.6-0.4-2.8-1.3-3.6s-2.2-1.1-4.1-1.1h-3.1V163
		z"/>
	<path class="st2" d="M803.1,180.1v-32.2h6.8v26.6H823v5.6H803.1z"/>
	<path class="st2" d="M848.3,180.1l-2.3-7.7h-11.8l-2.3,7.7h-7.4l11.4-32.4h8.4l11.4,32.4H848.3z M844.4,166.7
		c-2.2-7-3.4-10.9-3.7-11.8c-0.3-0.9-0.5-1.6-0.6-2.2c-0.5,1.9-1.9,6.5-4.2,14H844.4z"/>
	<path class="st2" d="M872.2,180.1h-6.8v-26.6h-8.8v-5.7h24.3v5.7h-8.8V180.1z"/>
	<path class="st2" d="M892.6,180.1h-6.7v-32.2h18.5v5.6h-11.8v8.3h10.9v5.6h-10.9V180.1z"/>
	<path class="st2" d="M940,163.9c0,5.3-1.3,9.4-4,12.3s-6.4,4.3-11.4,4.3c-4.9,0-8.7-1.4-11.4-4.3s-4-7-4-12.4s1.3-9.5,4-12.3
		c2.7-2.8,6.5-4.2,11.4-4.2c5,0,8.7,1.4,11.4,4.3S940,158.6,940,163.9z M916.4,163.9c0,3.6,0.7,6.3,2.1,8.1s3.4,2.7,6.1,2.7
		c5.5,0,8.2-3.6,8.2-10.9c0-7.3-2.7-10.9-8.1-10.9c-2.7,0-4.8,0.9-6.2,2.7C917.1,157.6,916.4,160.3,916.4,163.9z"/>
	<path class="st2" d="M953.5,167.7v12.4h-6.8v-32.2h9.4c4.4,0,7.6,0.8,9.7,2.4c2.1,1.6,3.2,4,3.2,7.3c0,1.9-0.5,3.6-1.6,5.1
		s-2.5,2.6-4.4,3.5c4.9,7.2,8,11.9,9.5,14h-7.6l-7.7-12.4H953.5z M953.5,162.2h2.2c2.2,0,3.8-0.4,4.8-1.1c1-0.7,1.5-1.9,1.5-3.4
		c0-1.5-0.5-2.6-1.6-3.3c-1.1-0.6-2.7-1-4.9-1h-2.1V162.2z"/>
	<path class="st2" d="M990.1,180.1l-7.8-25.3h-0.2c0.3,5.1,0.4,8.6,0.4,10.3v15h-6.1v-32.2h9.3l7.6,24.7h0.1l8.1-24.7h9.3v32.2h-6.4
		v-15.3c0-0.7,0-1.6,0-2.5c0-0.9,0.1-3.4,0.3-7.5h-0.2l-8.3,25.3H990.1z"/>
</g>
</svg>
