<svg id="Calque_1" data-name="Calque 1" xmlns="http://www.w3.org/2000/svg" viewBox="0 0 154.98 154.98"><defs><style>.cls-1{fill:#d91b5c;}.cls-2{opacity:0.1;}.cls-3{fill:#e5e5e5;}</style></defs><title>heartb</title><path class="cls-1" d="M137.34,96.3c-1.22.34-1.53,0-1.46-1.12,0-.41,0-.78,0-1.19a3.76,3.76,0,0,1,2-4,11.62,11.62,0,0,0,5.53-11.39,6.15,6.15,0,0,0-3.12-4.78c-14.68-8.95-29.6-17.42-44.55-26A2.1,2.1,0,0,0,93,48c-1.76,1.32-3.59,2.54-5.39,3.8a2.22,2.22,0,0,0-.95,1.49C85.51,58.4,84.49,63.59,83,68.67a4,4,0,0,1-3.93,3.22c-2.61.24-5.12.41-7.59-.81a5.27,5.27,0,0,1-3.08-5,55.24,55.24,0,0,1,1.46-13.56c.41-2,.85-4.07,1.25-6.1a9,9,0,0,1,3.49-5.59q7.48-5.49,15-11.09a14.89,14.89,0,0,1,2.85-1.66,3.4,3.4,0,0,1,2.17,0c10.88,2.68,19.29,11.29,28.92,17a4,4,0,0,0,3.32.47c14.58-3.49,28.92-8,43.46-11.59a5.43,5.43,0,0,1,.88-.15v-28A5.07,5.07,0,0,0,166.12.7H21.24a5.07,5.07,0,0,0-5.05,5.05v33c8.86,2.65,17.83,5,26.65,7.79,4.37,1.36,7.66-.54,11-2.68,6.24-4,12.51-7.93,18.75-11.93a3.69,3.69,0,0,1,2.75-.2,6,6,0,0,1,1.86.61c.81.44,2.1.61,2.2,1.56.1.75-1.12,1-1.76,1.46-2.14,1.53-4.37,2.95-6.48,4.54-1.9,1.42-2.17,3.76-2.78,5.86-1.39,4.85-2.08,9.76-3.07,14.71a27.43,27.43,0,0,0-.12,6.42,7.89,7.89,0,0,0,3.7,6c4.44,2.31,7.88,2.27,12.83,1.86a4.42,4.42,0,0,0,3.67-2.63,40.91,40.91,0,0,0,3.12-9.69c.44-2.1.89-4.17,1.26-6.27.41-2.54,2.44-4,4.51-5.22a1.26,1.26,0,0,1,1,0c7.32,3.83,14.21,7.93,21.33,12.16S130.85,71.23,138,75.24c3.7,2.07,4.17,4.64,1.46,8.85-2.54,3.93-5.05,4.14-9.83,1.12-3.25-2-6.34-4.34-9.9-5.83-.78-.34-1.59-.2-2.37-.58a1.22,1.22,0,0,0-1.42.88c-.17.58.27.81.75,1.12,2.68,1.76,5.56,3.08,8.34,4.68a44.92,44.92,0,0,1,7.22,4.61,4,4,0,0,1,1.12,4.58,13.67,13.67,0,0,1-3.73,6.14,2.89,2.89,0,0,1-3.32.71c-3.46-1.25-6.37-3.39-9.53-5.19-2.2-1.22-4.27-2.64-6.54-3.76a1.58,1.58,0,0,0-2.31.51c-.58,1,.51,1.19,1.05,1.53,3.08,1.9,6.2,3.73,9.29,5.63,1.19.71,2.24,1.59,3.39,2.34a2.41,2.41,0,0,1,1,2.81,14.9,14.9,0,0,1-2.71,5.73c-2.14,2.58-4.14,2.88-6.95,1.05a104,104,0,0,0-9.49-5.29,9.9,9.9,0,0,0-1.66-.64c-.34-.1-.88-.24-1.08.17s.07.85.47,1.12c1.49.92,3,1.8,4.51,2.75a4.22,4.22,0,0,1,1.56,5.76c-1.15,2.24-2.14,4.64-4.68,5.8a3.78,3.78,0,0,1-2.92.14c-2.51-.88-2.81-1.9-1.36-4.1a7.42,7.42,0,0,0-1-8.71,13.77,13.77,0,0,0-8.75-4.88,2,2,0,0,1-1.86-1.53,11.63,11.63,0,0,0-7.9-7.12,9.58,9.58,0,0,0-7.53,1.05c-2,1.08-2,1-3-1a6.13,6.13,0,0,0-2.54-2.54,10.55,10.55,0,0,0-5.14-1.08c-2.33.07-3.39.31-5.09,1.75-.92,1.05-2,2.41-3.19,2.68S50.17,95.1,49,94.36a14.74,14.74,0,0,0-7.15-2.64c-2.17-.14-3.7,1.56-4.78,3.19-1,1.46-1.73,1.86-3.63,1.36C27.67,94.72,21.94,93,16.19,91.39v59.23a5.07,5.07,0,0,0,5.05,5.05H166.12a5.07,5.07,0,0,0,5.05-5.05V86.92c-4.93,1.39-9.86,2.79-14.81,4.16C150.05,92.84,143.68,94.5,137.34,96.3ZM42.66,109.25a11.32,11.32,0,0,1-6.14-3.63,3.83,3.83,0,0,1-.44-4.71A23.35,23.35,0,0,1,39,96.77c1-1.22,1.63-1.93,3.55-2.06a8.28,8.28,0,0,1,5.91,2.54c2.47,2.37,2.71,4.1.85,6.95-.88,1.32-1.93,2.47-2.88,3.73A3.47,3.47,0,0,1,42.66,109.25Zm12.88,7.46c-2.58-.78-5.25-1.56-6.41-4.47a3.31,3.31,0,0,1,.24-3.22c2.81-4.31,5.63-8.58,8.44-12.88a1.23,1.23,0,0,1,.92-.64c2.85-.51,7.32,1.46,8.88,3.93a3.12,3.12,0,0,1,.64,1.63,20.78,20.78,0,0,1-.75,2,70.4,70.4,0,0,1-6.17,11.46C59.51,117.28,58.66,117.66,55.54,116.71ZM68.76,125a44.85,44.85,0,0,1-4.95-2.88c-2.07-1.56-2.34-2.41-1.25-4.78,2.14-4.71,4.64-9.25,7.15-13.8.51-.95,1.08-1.86,1.56-2.81.81-1.63,1.74-2,3.59-2.14,4.14-.1,6.92,1.49,8.58,5a2.45,2.45,0,0,1,0,2.54A173.71,173.71,0,0,1,72,124.27C71.07,125.52,70.15,125.83,68.76,125Zm26.61-9.59a70.67,70.67,0,0,1-8.07,16.07c-.37.47-1.87,2.29-2.72,2l-2.19-.73c-1.42-.58-2.89-1-4.31-1.67-2.51-1.15-3.29-2.95-2-5.36a184.88,184.88,0,0,1,9.73-16.61c.85-1.32,2.14-1.15,3.32-1a8.17,8.17,0,0,1,5.7,3.59A3.91,3.91,0,0,1,95.37,115.42Z" transform="translate(-16.19 -0.7)"/><g class="cls-2"><path class="cls-3" d="M16.19,150.62a5.07,5.07,0,0,0,5.05,5.05H166.12a5.07,5.07,0,0,0,5.05-5.05V113.25" transform="translate(-16.19 -0.7)"/></g></svg>