<svg id="Calque_1" data-name="Calque 1" xmlns="http://www.w3.org/2000/svg" viewBox="0 0 155.01 154.97"><defs><style>.cls-1{fill:#d91b5c;}.cls-2{opacity:0.1;}.cls-3{fill:#e5e5e5;}</style></defs><title>fund</title><path class="cls-1" d="M121.15,95.6c-1.22.34-1.53,0-1.46-1.12V93.29a3.77,3.77,0,0,1,2-4,11.62,11.62,0,0,0,5.53-11.39,6.14,6.14,0,0,0-3.12-4.78c-14.68-9-29.6-17.42-44.55-26a2.1,2.1,0,0,0-2.74.18c-1.76,1.32-3.59,2.54-5.39,3.8a2.21,2.21,0,0,0-1,1.49C69.32,57.7,68.3,62.89,66.81,68a4,4,0,0,1-3.93,3.22c-2.61.24-5.12.41-7.59-.81a5.27,5.27,0,0,1-3.08-5,55.25,55.25,0,0,1,1.46-13.56c.41-2,.85-4.07,1.25-6.1a9,9,0,0,1,3.49-5.59q7.49-5.49,15-11.09a15,15,0,0,1,2.85-1.66,3.36,3.36,0,0,1,2.17,0c10.88,2.68,19.29,11.29,28.92,17a4,4,0,0,0,3.32.47c14.58-3.49,28.92-8,43.46-11.59a6.47,6.47,0,0,1,.88-.15v-28A5.07,5.07,0,0,0,150,0H5.05A5.07,5.07,0,0,0,0,5.05v33c8.86,2.65,17.83,5,26.65,7.79,4.37,1.36,7.66-.54,11-2.68,6.24-4,12.51-7.93,18.75-11.93a3.69,3.69,0,0,1,2.75-.2,6.07,6.07,0,0,1,1.86.61c.81.44,2.1.61,2.2,1.56.1.75-1.12,1-1.76,1.46-2.14,1.53-4.37,3-6.48,4.54-1.9,1.42-2.17,3.76-2.78,5.86-1.39,4.85-2.08,9.76-3.07,14.71A27.58,27.58,0,0,0,49,66.19a7.88,7.88,0,0,0,3.7,6c4.44,2.31,7.88,2.27,12.83,1.86a4.43,4.43,0,0,0,3.67-2.63,40.77,40.77,0,0,0,3.12-9.69c.44-2.1.89-4.17,1.26-6.27.41-2.54,2.44-4,4.51-5.22a1.24,1.24,0,0,1,1,0c7.32,3.83,14.21,7.93,21.33,12.16s14.24,8.13,21.39,12.14c3.7,2.07,4.17,4.64,1.46,8.85-2.54,3.93-5,4.14-9.83,1.12-3.25-2-6.34-4.34-9.9-5.83-.78-.34-1.59-.2-2.37-.58a1.22,1.22,0,0,0-1.42.88c-.17.58.27.81.75,1.12,2.68,1.76,5.56,3.08,8.34,4.68a44.64,44.64,0,0,1,7.22,4.61A4,4,0,0,1,117.18,94a13.65,13.65,0,0,1-3.73,6.14,2.89,2.89,0,0,1-3.32.71c-3.46-1.25-6.37-3.39-9.53-5.19-2.2-1.22-4.27-2.64-6.54-3.76a1.58,1.58,0,0,0-2.21.35s-.07.1-.1.16c-.58,1,.51,1.19,1,1.53,3.08,1.9,6.2,3.73,9.29,5.63,1.19.71,2.24,1.59,3.39,2.34a2.4,2.4,0,0,1,1,2.81,14.92,14.92,0,0,1-2.71,5.73c-2.14,2.58-4.14,2.88-7,1a104.75,104.75,0,0,0-9.49-5.29,9.82,9.82,0,0,0-1.66-.64c-.34-.1-.88-.24-1.08.17a.92.92,0,0,0,.47,1.12c1.49.92,3,1.8,4.51,2.75a4.22,4.22,0,0,1,1.56,5.76C90,117.58,89,120,86.45,121.14a3.75,3.75,0,0,1-2.92.14c-2.51-.88-2.81-1.9-1.36-4.1a7.41,7.41,0,0,0-1-8.71,13.75,13.75,0,0,0-8.75-4.88,2,2,0,0,1-1.86-1.53,11.62,11.62,0,0,0-7.9-7.12,9.61,9.61,0,0,0-7.53,1c-2,1.08-2,1-3-1a6.1,6.1,0,0,0-2.54-2.54,10.49,10.49,0,0,0-5.14-1.08c-2.33.07-3.39.31-5.09,1.75-.92,1-2,2.41-3.19,2.68S34,94.4,32.81,93.66A14.79,14.79,0,0,0,25.66,91c-2.17-.14-3.7,1.56-4.78,3.19-1,1.46-1.73,1.86-3.63,1.36C11.48,94,5.75,92.3,0,90.69v59.23A5.07,5.07,0,0,0,5.05,155H149.93a5.07,5.07,0,0,0,5-5.05V86.22c-4.93,1.39-9.86,2.79-14.81,4.16C133.86,92.14,127.49,93.8,121.15,95.6Zm-94.68,13a11.35,11.35,0,0,1-6.14-3.63,3.83,3.83,0,0,1-.44-4.71,23.43,23.43,0,0,1,2.92-4.14c1-1.22,1.63-1.93,3.55-2.06a8.3,8.3,0,0,1,5.91,2.54c2.47,2.37,2.71,4.1.85,7-.88,1.32-1.93,2.47-2.88,3.73A3.47,3.47,0,0,1,26.47,108.55ZM39.35,116c-2.58-.78-5.25-1.56-6.41-4.47a3.33,3.33,0,0,1,.24-3.22C36,104,38.81,99.74,41.62,95.44a1.23,1.23,0,0,1,.92-.64c2.85-.51,7.32,1.46,8.88,3.93a3.14,3.14,0,0,1,.64,1.63c-.22.68-.47,1.35-.75,2a70.27,70.27,0,0,1-6.17,11.46C43.32,116.58,42.47,117,39.35,116Zm13.22,8.29a45.25,45.25,0,0,1-5-2.88c-2.07-1.56-2.34-2.41-1.25-4.78,2.14-4.71,4.64-9.25,7.15-13.8.51-1,1.08-1.86,1.56-2.81.81-1.63,1.74-2,3.59-2.14,4.14-.1,6.92,1.49,8.58,5a2.46,2.46,0,0,1,0,2.54,175,175,0,0,1-11.44,18.14C54.88,124.82,54,125.13,52.57,124.3Zm26.61-9.59a70.56,70.56,0,0,1-8.07,16.07c-.37.47-1.87,2.29-2.72,2l-2.19-.73c-1.42-.58-2.89-1-4.31-1.67-2.51-1.15-3.29-2.95-2-5.36a183.85,183.85,0,0,1,9.73-16.61c.85-1.32,2.14-1.15,3.32-1a8.17,8.17,0,0,1,5.7,3.59,3.91,3.91,0,0,1,.54,3.72Z" transform="translate(0 0)"/><g class="cls-2"><path class="cls-3" d="M0,149.92A5.07,5.07,0,0,0,5.05,155H149.93a5.07,5.07,0,0,0,5-5.05V112.55" transform="translate(0 0)"/></g></svg>