<svg id="Calque_1" data-name="Calque 1" xmlns="http://www.w3.org/2000/svg" viewBox="0 0 185.81 156.37"><defs><style>.cls-1{fill:#d91b5c;}.cls-2{opacity:0.1;}.cls-3{fill:#ccc;}</style></defs><title>Plan de travail 1</title><g id="Calque_1-2" data-name="Calque 1"><path class="cls-1" d="M130.15,0C99.71,0,87,30.55,87,30.55S77,0,43.93,0A43.9,43.9,0,0,0,3.12,60.15C15.42,98.35,87,144.92,87,144.92S158.65,98.35,171,60.15A43.89,43.89,0,0,0,130.15,0Z"/><g class="cls-2"><path class="cls-3" d="M70.92,117.76A113.33,113.33,0,0,1,48,115.41,419.34,419.34,0,0,0,87,144.92S158.64,98.35,171,60.15c.08-.19.15-.39.22-.59C150.87,94.13,113.25,117.76,70.92,117.76Z"/></g></g></svg>