<svg id="Layer_1" data-name="Layer 1" xmlns="http://www.w3.org/2000/svg" viewBox="0 0 264.12 240.04"><defs><style>.cls-1,.cls-3{fill:#8bc543;}.cls-1{stroke:#006738;stroke-miterlimit:10;stroke-width:12.54px;}.cls-2{fill:#006738;}</style></defs><title>Untitled-1</title><rect class="cls-1" x="142.85" y="190.55" width="206.96" height="99.45" transform="translate(-211.72 24.23) rotate(-30.83)"/><path class="cls-2" d="M280.62,219.82A39.93,39.93,0,1,1,225.88,206,39.92,39.92,0,0,1,280.62,219.82Z" transform="translate(-123.39 -135.95)"/><path class="cls-2" d="M132,250.6l13.55,22.7a26.43,26.43,0,0,0,9.15-36.24Z" transform="translate(-123.39 -135.95)"/><path class="cls-3" d="M248.06,226.78q-2.67-3.69-9.55.41T233.79,235a4,4,0,0,0,4.18,1.94c1.89-.21,5.34-1.21,10.33-3s9.15-2.35,12.46-1.59a12.12,12.12,0,0,1,7.85,6,11.26,11.26,0,0,1,.15,11.74A25.3,25.3,0,0,1,259,260q-15.76,9.41-25.16-1.35l8.27-5.89q4.74,5.76,13.1.77,7.83-4.67,4.66-10a4.43,4.43,0,0,0-4-2.37q-2.58,0-10.41,2.8c-5.23,1.87-9.44,2.5-12.63,1.86a10.55,10.55,0,0,1-7.3-5.15,10.9,10.9,0,0,1-.54-10q2.15-5.49,9.79-10.06,15.13-9,21.85.56Z" transform="translate(-123.39 -135.95)"/><rect class="cls-3" x="228.61" y="213.1" width="9.65" height="8.78" transform="translate(-201.87 14.41) rotate(-30.83)"/><rect class="cls-3" x="255.44" y="258.06" width="9.65" height="8.78" transform="matrix(0.86, -0.51, 0.51, 0.86, -221.12, 34.51)"/><path class="cls-2" d="M182.14,334.65l22.7-13.55A26.43,26.43,0,0,0,168.6,312Z" transform="translate(-123.39 -135.95)"/><path class="cls-2" d="M359.87,228.59,346.32,205.9a26.43,26.43,0,0,0-9.15,36.24Z" transform="translate(-123.39 -135.95)"/><path class="cls-2" d="M309.71,144.55,287,158.09a26.43,26.43,0,0,0,36.24,9.16Z" transform="translate(-123.39 -135.95)"/><path class="cls-2" d="M197.14,269.63a9,9,0,1,1-12.36-3.12A9,9,0,0,1,197.14,269.63Z" transform="translate(-123.39 -135.95)"/><path class="cls-2" d="M311,201.68a9,9,0,1,1-12.36-3.12A9,9,0,0,1,311,201.68Z" transform="translate(-123.39 -135.95)"/><polygon class="cls-1" points="249.98 136.54 58.62 215.4 20.73 123.44 212.08 44.59 249.98 136.54"/><path class="cls-2" d="M295.66,250.73A39.93,39.93,0,1,1,243.54,229,39.93,39.93,0,0,1,295.66,250.73Z" transform="translate(-123.39 -135.95)"/><path class="cls-2" d="M144.13,259.39l10.07,24.44a26.43,26.43,0,0,0,14.36-34.51Z" transform="translate(-123.39 -135.95)"/><path class="cls-3" d="M262.43,252.85q-2.08-4-9.51-1t-5.8,7a4,4,0,0,0,3.84,2.54q2.86.1,10.67-1.49t12.55.26a12.11,12.11,0,0,1,6.89,7.07,11.28,11.28,0,0,1-1.57,11.64,25.43,25.43,0,0,1-11.09,8.45q-17,7-24.69-5l9.05-4.61q3.84,6.39,12.84,2.68,8.42-3.47,6.07-9.18a4.42,4.42,0,0,0-3.6-2.93q-2.55-.4-10.71,1.24t-12.77,0a10.56,10.56,0,0,1-6.46-6.16,10.88,10.88,0,0,1,.94-10q2.92-5.13,11.15-8.52,16.31-6.72,21.53,3.76Z" transform="translate(-123.39 -135.95)"/><rect class="cls-3" x="244.5" y="237.13" width="9.65" height="8.77" transform="translate(-196.59 -22.76) rotate(-22.39)"/><rect class="cls-3" x="264.45" y="285.53" width="9.65" height="8.78" transform="translate(-213.47 -11.65) rotate(-22.37)"/><path class="cls-2" d="M181.41,349.88l24.44-10.07a26.44,26.44,0,0,0-34.51-14.37Z" transform="translate(-123.39 -135.95)"/><path class="cls-2" d="M372.76,271,362.7,246.59a26.42,26.42,0,0,0-14.37,34.51Z" transform="translate(-123.39 -135.95)"/><path class="cls-2" d="M335.48,180.54,311,190.61A26.43,26.43,0,0,0,345.55,205Z" transform="translate(-123.39 -135.95)"/><path class="cls-2" d="M205.78,287.77a9,9,0,1,1-11.77-4.9A9,9,0,0,1,205.78,287.77Z" transform="translate(-123.39 -135.95)"/><path class="cls-2" d="M328.38,237.25a9,9,0,1,1-11.76-4.91A9,9,0,0,1,328.38,237.25Z" transform="translate(-123.39 -135.95)"/><rect class="cls-1" x="164.16" y="245.96" width="206.96" height="99.45" transform="translate(-185.61 -64.44) rotate(-13.65)"/><path class="cls-2" d="M306.44,286.26a39.93,39.93,0,1,1-48.22-29.38A39.93,39.93,0,0,1,306.44,286.26Z" transform="translate(-123.39 -135.95)"/><path class="cls-2" d="M155.35,271.78l6.23,25.68A26.42,26.42,0,0,0,181,265.54Z" transform="translate(-123.39 -135.95)"/><path class="cls-3" d="M273.27,283.3q-1.45-4.32-9.24-2.43t-6.81,6.07a4,4,0,0,0,3.42,3.09q2.79.54,10.76.15t12.37,2.17a12.09,12.09,0,0,1,5.73,8,11.28,11.28,0,0,1-3.32,11.27,25.36,25.36,0,0,1-12.25,6.66q-17.83,4.32-23.64-8.73l9.65-3.18q2.83,6.9,12.28,4.61,8.86-2.16,7.4-8.16a4.44,4.44,0,0,0-3.11-3.44c-1.64-.52-5.24-.65-10.78-.4s-9.75-.4-12.61-1.95a10.59,10.59,0,0,1-5.45-7.07,10.93,10.93,0,0,1,2.44-9.73q3.67-4.62,12.32-6.72,17.13-4.16,20.71,7Z" transform="translate(-123.39 -135.95)"/><rect class="cls-3" x="257.22" y="265.72" width="9.64" height="8.78" transform="translate(-179.65 -66.61) rotate(-13.63)"/><rect class="cls-3" x="269.57" y="316.59" width="9.65" height="8.78" transform="translate(-191.29 -62.26) rotate(-13.63)"/><path class="cls-2" d="M178.44,366.89l25.69-6.24A26.44,26.44,0,0,0,172.2,341.2Z" transform="translate(-123.39 -135.95)"/><path class="cls-2" d="M379.56,318.05l-6.24-25.69a26.45,26.45,0,0,0-19.45,31.93Z" transform="translate(-123.39 -135.95)"/><path class="cls-2" d="M356.46,222.94l-25.68,6.24a26.43,26.43,0,0,0,31.92,19.45Z" transform="translate(-123.39 -135.95)"/><path class="cls-2" d="M212,309.2a9,9,0,1,1-10.89-6.63A9,9,0,0,1,212,309.2Z" transform="translate(-123.39 -135.95)"/><path class="cls-2" d="M340.83,277.91a9,9,0,1,1-10.89-6.64A9,9,0,0,1,340.83,277.91Z" transform="translate(-123.39 -135.95)"/></svg>