<svg xmlns="http://www.w3.org/2000/svg" viewBox="0 0 750.3 531.43"><defs><style>.cls-1{isolation:isolate;}.cls-2{fill:#f4b48a;}.cls-3{fill:#f2a775;}.cls-4{fill:#2b3a4d;}.cls-5{fill:#84d9fe;}.cls-6{fill:#fddd4e;}.cls-7{fill:none;stroke:#c1a38d;stroke-linecap:round;stroke-miterlimit:10;stroke-width:1.42px;opacity:0.7;mix-blend-mode:multiply;}.cls-8{fill:#523b2e;}.cls-9{fill:#fff;}.cls-10{fill:#341909;}.cls-11{fill:#f7c282;}.cls-12{fill:#f8cb95;}.cls-13{fill:#b8eac9;}.cls-14{fill:#e4e4e4;}.cls-15{fill:#fdce5b;}.cls-16{fill:#c25b14;}.cls-17{fill:#404e5f;}.cls-18{fill:#e2f6e9;}.cls-19{fill:#a27555;}.cls-20{fill:#925d37;}.cls-21{fill:#4f2e1a;}.cls-22{fill:#f0553f;}.cls-23{fill:#895837;}.cls-24{fill:#4cdbc4;}.cls-25{fill:#4a3224;}.cls-26{fill:#f8f8f8;}.cls-27{fill:#483022;}.cls-28{fill:#e8e8e8;}.cls-29{fill:#425061;}.cls-30{fill:#475464;}.cls-31{fill:#8fdda9;}.cls-32{fill:#fbd3cd;}</style></defs><title>96893-OKN2UE-892</title><g class="cls-1"><g id="DESIGNED_BY_FREEPIK" data-name="DESIGNED BY FREEPIK"><rect class="cls-2" x="416.92" y="94.05" width="38.68" height="59.28"/><rect class="cls-2" x="416.92" y="126" width="38.68" height="45.41" rx="11.08" ry="11.08"/><path class="cls-2" d="M469.31,347.63a6.73,6.73,0,0,1-6.73-6.73l-3.08-86.26c0-3.71,6.09-6.87,9.8-6.87s8.13-4.42,8.13-.7L476,340.9A6.73,6.73,0,0,1,469.31,347.63Z" transform="translate(-21.9 -95.08)"/><path class="cls-2" d="M447,347.63a6.73,6.73,0,0,1-6.73-6.73l-1.52-94c0-3.71,4.53.84,8.25.84s9.69,3.29,9.69,7l-3,86.12A6.73,6.73,0,0,1,447,347.63Z" transform="translate(-21.9 -95.08)"/><path class="cls-2" d="M489,274.05h-.08a5,5,0,0,1-5-5.12c0-.47.68-46.83-2.84-64.08-2.11-10.35-15.49-11.21-16.06-11.24a5,5,0,0,1,.5-10.08c.89,0,21.76,1.24,25.45,19.31,3.74,18.32,3.07,64.3,3,66.25A5,5,0,0,1,489,274.05Z" transform="translate(-21.9 -95.08)"/><path class="cls-2" d="M427.32,274.05a5,5,0,0,1-5-5c0-1.95-.69-47.93,3-66.25,3.69-18.07,24.56-19.26,25.45-19.31a5,5,0,0,1,.49,10.08c-.63,0-13.94.92-16.05,11.24-3.52,17.26-2.85,63.62-2.84,64.08a5,5,0,0,1-5,5.12Z" transform="translate(-21.9 -95.08)"/><path class="cls-3" d="M458.16,195h0a9.38,9.38,0,0,1-9.35-9.35V172.84a9.38,9.38,0,0,1,9.35-9.35h0a9.38,9.38,0,0,1,9.35,9.35v12.82A9.38,9.38,0,0,1,458.16,195Z" transform="translate(-21.9 -95.08)"/><circle class="cls-3" cx="468.21" cy="51.73" r="7.29"/><circle class="cls-3" cx="404.3" cy="51.73" r="7.29"/><path class="cls-2" d="M458.16,178.76h0a32,32,0,0,1-31.86-31.86V130.74c0-17.52,14.34-25.14,31.86-25.14h0c17.52,0,31.86,7.61,31.86,25.14v16.16A32,32,0,0,1,458.16,178.76Z" transform="translate(-21.9 -95.08)"/><path class="cls-2" d="M462.58,336.17v13.35h27.64L476,336.17S462.47,336.07,462.58,336.17Z" transform="translate(-21.9 -95.08)"/><path class="cls-2" d="M453.74,336.17v13.35H426.09l14.19-13.35S453.84,336.07,453.74,336.17Z" transform="translate(-21.9 -95.08)"/><path class="cls-4" d="M491.41,202.75C488.28,187.41,473,184,467.51,183.3v2.36a9.35,9.35,0,0,1-18.71,0V183.3c-5.49.73-20.77,4.11-23.9,19.45-2.7,13.25-3.11,41-3.11,56.1h10.94c0-14.74.4-41.74,2.88-53.91a11.23,11.23,0,0,1,2.78-5.44v49.34h39.52V199.49a11.26,11.26,0,0,1,2.78,5.44c2.48,12.17,2.87,39.17,2.88,53.91h10.94C494.52,243.76,494.11,216,491.41,202.75Z" transform="translate(-21.9 -95.08)"/><path class="cls-4" d="M462.28,336.18v13.35h27.94L476,336.17S462.18,336.08,462.28,336.18Z" transform="translate(-21.9 -95.08)"/><path class="cls-4" d="M454,336.18v13.35H426.09l14.19-13.35S454.14,336.08,454,336.18Z" transform="translate(-21.9 -95.08)"/><path class="cls-5" d="M455.63,299l1.07-32.13c.32,0,.65,0,1,0h1c.3,0,.59,0,.88,0L460.63,299H477.1l.72-49.54c0-.37,0-.75.06-1.13H438.36l.8,50.66Z" transform="translate(-21.9 -95.08)"/><path class="cls-6" d="M425.87,130.74a25.09,25.09,0,0,1,2.58-11.55l.5-1,.28,1.07a28.37,28.37,0,0,1,.77,4c.47,4.09.86,12.86-1,16.77a4.7,4.7,0,0,1-2.55,2.6l-.56.2Z" transform="translate(-21.9 -95.08)"/><path class="cls-6" d="M489.88,142.65a4.7,4.7,0,0,1-2.55-2.6c-1.88-3.91-1.49-12.68-1-16.77a28.44,28.44,0,0,1,.77-4l.28-1.06.5,1a25.12,25.12,0,0,1,2.58,11.55v12.11Z" transform="translate(-21.9 -95.08)"/><path class="cls-6" d="M423.28,131.32c0-18.36,16.51-27.47,34.87-27.47h0c15.22,0,27,6,31,18.36-.41,1.6-7.17,4.75-11.91,6.45a18.22,18.22,0,0,0,1.68-9.81c-2.66,5.47-10.37,10.79-19.06,12.75,1-4.34,2.38-8,2.1-11.63-4.9,5.47-11.63,10.65-24.24,13.45A85.23,85.23,0,0,0,444,121.09C429.59,131.18,423.28,131.32,423.28,131.32Z" transform="translate(-21.9 -95.08)"/><path class="cls-7" d="M447.63,164A15.3,15.3,0,0,0,457,167.1a14.52,14.52,0,0,0,11.61-5.31" transform="translate(-21.9 -95.08)"/><path class="cls-8" d="M441.14,151.3h0a3.88,3.88,0,0,1-3.87-3.87v-2.82a3.88,3.88,0,0,1,3.87-3.87h0a3.88,3.88,0,0,1,3.87,3.87v2.82A3.88,3.88,0,0,1,441.14,151.3Z" transform="translate(-21.9 -95.08)"/><circle class="cls-9" cx="418.18" cy="49.1" r="1.31"/><path class="cls-8" d="M473.32,151.3h0a3.88,3.88,0,0,1-3.87-3.87v-2.82a3.88,3.88,0,0,1,3.87-3.87h0a3.88,3.88,0,0,1,3.87,3.87v2.82A3.88,3.88,0,0,1,473.32,151.3Z" transform="translate(-21.9 -95.08)"/><circle class="cls-9" cx="450.36" cy="49.1" r="1.31"/><rect class="cls-6" x="414.21" y="39.1" width="10.06" height="2.82"/><rect class="cls-6" x="446.39" y="39.1" width="10.06" height="2.82"/><path class="cls-10" d="M319.67,116.92c-11.74-16.89-30.61-15.35-31.39-15.35S268.64,100,256.9,116.92c-12,17.24-7.43,81.14-5.33,90.61,8.26,0,65.18,0,73.43,0C327.1,198.06,331.65,134.16,319.67,116.92Z" transform="translate(-21.9 -95.08)"/><path class="cls-11" d="M300.83,220.21c0-12,6.73-31.32,6.73-31.32H268.94s6.73,19.34,6.73,31.32c0,6.64-4,16.36-5.44,22.73-.68,3.06-.9,8.49.65,11.87,3.12,6.82,9.15,11.44,16.92,11.44h.89c7.77,0,13.8-4.62,16.92-11.44,1.55-3.38,1.34-8.81.65-11.87C304.84,236.56,300.83,226.85,300.83,220.21Z" transform="translate(-21.9 -95.08)"/><path class="cls-11" d="M260.81,273.81a5,5,0,0,1-5-4.94c0-1.92-1-47.32,2.76-65.65,2.92-14.3,15.73-19.28,22.11-19.92a5,5,0,0,1,1,10c-.53.06-11.12,1.43-13.25,11.9-3.51,17.24-2.57,63-2.56,63.42a5,5,0,0,1-4.93,5.15Z" transform="translate(-21.9 -95.08)"/><path class="cls-11" d="M316.32,273.81h-.11a5,5,0,0,1-4.93-5.15c0-.46,1-46.19-2.55-63.42-2.14-10.51-12.81-11.85-13.26-11.9a5,5,0,0,1,1-10c6.37.64,19.19,5.62,22.11,19.92,3.74,18.34,2.8,63.73,2.75,65.65A5,5,0,0,1,316.32,273.81Z" transform="translate(-21.9 -95.08)"/><rect class="cls-11" x="258.82" y="68.16" width="15.14" height="31.53" rx="4.19" ry="4.19"/><circle class="cls-12" cx="298.34" cy="51.48" r="7.29"/><circle class="cls-12" cx="234.43" cy="51.48" r="7.29"/><path class="cls-12" d="M288.28,178.51h0a32,32,0,0,1-31.86-31.86V130.49c0-17.52,14.34-25.14,31.86-25.14h0c17.52,0,31.86,7.61,31.86,25.14v16.16A32,32,0,0,1,288.28,178.51Z" transform="translate(-21.9 -95.08)"/><path class="cls-12" d="M294,340.66,290.6,254c0-3,5.81-5.19,8.83-5.19s7.15-1.13,7.15,1.89l-1.68,90C304.9,343.68,294,343.68,294,340.66Z" transform="translate(-21.9 -95.08)"/><path class="cls-12" d="M271.67,340.66l-1.77-89.55c0-3,4.22-2.31,7.24-2.31s8.42,1.89,8.42,4.9l-3,87C282.6,343.68,271.67,343.68,271.67,340.66Z" transform="translate(-21.9 -95.08)"/><polygon class="cls-12" points="260.89 240.78 260.72 254.13 256.64 254.15 256.22 248.3 249.65 254.16 234.32 254.2 249.67 240.79 260.89 240.78"/><path class="cls-10" d="M271.55,349.24l6.57-5.87.42,5.85h4.08l.17-13.13a24.37,24.37,0,0,1-5.41,4.49l-1.85,1.14A14,14,0,0,1,263.45,343l-7.23,6.32Z" transform="translate(-21.9 -95.08)"/><polygon class="cls-12" points="271.88 240.78 272.05 254.13 276.13 254.15 276.55 248.3 283.12 254.16 298.45 254.2 283.1 240.79 271.88 240.78"/><path class="cls-10" d="M305,349.24l-6.57-5.87-.42,5.85h-4.08l-.17-13.13a24.37,24.37,0,0,0,5.41,4.49l1.85,1.14A14,14,0,0,0,313.12,343l7.23,6.32Z" transform="translate(-21.9 -95.08)"/><path class="cls-10" d="M270.29,292.45l-.81-41.05a27.28,27.28,0,0,1,.11-6.94l.05-.36h37.23l.05.36a26.17,26.17,0,0,1,.07,7.07l-.76,40.92Z" transform="translate(-21.9 -95.08)"/><path class="cls-10" d="M256.36,145a62.32,62.32,0,0,0,5.57-13.87c2.52-8.83.21-18.18.21-18.18a15.87,15.87,0,0,0-5,7.36,39.32,39.32,0,0,0-1.89,13.35A97.07,97.07,0,0,0,256.36,145Z" transform="translate(-21.9 -95.08)"/><path class="cls-10" d="M320.16,145a62.32,62.32,0,0,1-5.57-13.87c-2.52-8.83-.21-18.18-.21-18.18a15.87,15.87,0,0,1,5,7.36,39.32,39.32,0,0,1,1.89,13.35A97.07,97.07,0,0,1,320.16,145Z" transform="translate(-21.9 -95.08)"/><path class="cls-10" d="M304.32,106.2c-5.41-2.91-12.23-3.31-16.25-3.32s-10.31.24-16.06,3.11c-8.44,4.22-11.7,8.13-11.7,8.13s3.08-.42,4.34,7.85a64.53,64.53,0,0,1,.81,11.23h45.47a64.54,64.54,0,0,1,.81-11.23c1.26-8.27,4.34-7.85,4.34-7.85A65.11,65.11,0,0,0,304.32,106.2Z" transform="translate(-21.9 -95.08)"/><path class="cls-13" d="M318.85,203c-2.27-11.14-10.45-16.71-17.07-19-.09,9.81-6.23,17.73-13.8,17.73S274.4,194,274.19,184.28c-6.46,2.46-14.08,8-16.26,18.71-2.64,13-3,39.18-2.9,54.31H266c0-14.77.25-40.29,2.66-52.13a13.85,13.85,0,0,1,2.83-6.08c1.69,6.22,3.6,14.65,3.6,21,0,4.33-1.78,10.14-3.35,15.26-.82,2.68-1.6,5.21-2.08,7.38a16.23,16.23,0,0,0-.31,4l37.37-.16a17,17,0,0,0-.2-3.89c-.48-2.17-1.26-4.7-2.08-7.39-1.57-5.12-3.34-10.92-3.34-15.25,0-6.48,2-15.16,3.75-21.54a13.8,13.8,0,0,1,3.3,6.66c2.41,11.84,2.71,37.35,2.66,52.13h10.94C321.8,242.17,321.49,216,318.85,203Z" transform="translate(-21.9 -95.08)"/><path class="cls-7" d="M275.12,160c2,4.24,7,7.25,12.78,7.25s10.8-3,12.78-7.25" transform="translate(-21.9 -95.08)"/><path class="cls-8" d="M272.05,151.48h0a3.88,3.88,0,0,1-3.87-3.87v-2.82a3.88,3.88,0,0,1,3.87-3.87h0a3.88,3.88,0,0,1,3.87,3.87v2.82A3.88,3.88,0,0,1,272.05,151.48Z" transform="translate(-21.9 -95.08)"/><circle class="cls-9" cx="249.1" cy="49.28" r="1.31"/><path class="cls-8" d="M304.23,151.48h0a3.88,3.88,0,0,1-3.87-3.87v-2.82a3.88,3.88,0,0,1,3.87-3.87h0a3.88,3.88,0,0,1,3.87,3.87v2.82A3.88,3.88,0,0,1,304.23,151.48Z" transform="translate(-21.9 -95.08)"/><circle class="cls-9" cx="281.28" cy="49.28" r="1.31"/><rect class="cls-10" x="245.13" y="40.48" width="10.06" height="1.61"/><rect class="cls-10" x="277.31" y="40.48" width="10.06" height="1.61"/><path class="cls-14" d="M393,169c-11.74-16.89-30.61-15.35-31.39-15.35S342,152.12,330.27,169c-12,17.24-7.43,71.05-5.33,80.51,8.26,0,22.52,0,36.67.05h.1c14.14,0,28.41,0,36.67-.05C400.47,240.06,405,186.24,393,169Z" transform="translate(-21.9 -95.08)"/><path class="cls-3" d="M373.62,271.45c0-12,6.73-31.32,6.73-31.32H341.74s6.73,19.34,6.73,31.32c0,6.64-4,16.36-5.44,22.73-.68,3.06-.9,8.49.65,11.87,3.12,6.82,9.15,11.44,16.92,11.44h.89c7.77,0,13.8-4.62,16.92-11.44,1.55-3.38,1.34-8.81.65-11.87C377.64,287.81,373.62,278.09,373.62,271.45Z" transform="translate(-21.9 -95.08)"/><path class="cls-2" d="M372.22,397.37a5.47,5.47,0,0,1-5.47-5.47l-3.36-86.68c0-3,5.81-5.19,8.83-5.19s7.15-1.13,7.15,1.89l-1.68,90A5.47,5.47,0,0,1,372.22,397.37Z" transform="translate(-21.9 -95.08)"/><path class="cls-2" d="M349.93,397.37a5.47,5.47,0,0,1-5.47-5.47l-1.77-89.55c0-3,4.22-2.31,7.24-2.31s8.42,1.89,8.42,4.9l-3,87A5.47,5.47,0,0,1,349.93,397.37Z" transform="translate(-21.9 -95.08)"/><path class="cls-3" d="M333.6,325.05a5,5,0,0,1-5-4.94c0-1.92-1-47.32,2.76-65.65,2.92-14.3,15.73-19.28,22.11-19.92a5,5,0,0,1,1,10c-.53.06-11.12,1.43-13.25,11.9-3.51,17.24-2.57,63-2.56,63.42a5,5,0,0,1-4.93,5.15Z" transform="translate(-21.9 -95.08)"/><path class="cls-3" d="M389.11,325.05H389a5,5,0,0,1-4.93-5.15c0-.46,1-46.19-2.55-63.42-2.14-10.51-12.81-11.85-13.26-11.9a5,5,0,0,1,1-10c6.37.64,19.19,5.62,22.11,19.92,3.74,18.34,2.8,63.73,2.75,65.65A5,5,0,0,1,389.11,325.05Z" transform="translate(-21.9 -95.08)"/><rect class="cls-3" x="331.61" y="119.4" width="15.14" height="31.53" rx="4.19" ry="4.19"/><circle class="cls-2" cx="371.13" cy="102.73" r="7.29"/><circle class="cls-2" cx="307.22" cy="102.73" r="7.29"/><path class="cls-2" d="M361.08,229.76h0a32,32,0,0,1-31.86-31.86V181.74c0-17.52,14.34-25.14,31.86-25.14h0c17.52,0,31.86,7.61,31.86,25.14v16.16A32,32,0,0,1,361.08,229.76Z" transform="translate(-21.9 -95.08)"/><polygon class="cls-2" points="333.51 292.03 333.51 305.38 307.11 305.44 322.46 292.03 333.51 292.03"/><polygon class="cls-2" points="344.84 292.03 344.84 305.38 371.24 305.44 355.9 292.03 344.84 292.03"/><path class="cls-4" d="M348.82,394l-1.58,1a12.1,12.1,0,0,1-12.4.14l-6.38,5.58,28.08-.07-.88-13.07A25.67,25.67,0,0,1,348.82,394Z" transform="translate(-21.9 -95.08)"/><path class="cls-4" d="M373.34,394l1.58,1a12.1,12.1,0,0,0,12.4.14l6.38,5.58-28.08-.07.74-13.1A26.47,26.47,0,0,0,373.34,394Z" transform="translate(-21.9 -95.08)"/><path class="cls-14" d="M375.7,157.86s-16.36,6.59-29.31,16.9A106.12,106.12,0,0,0,329,192.55s-2.8-12.75.28-19.62,9.75-12.47,16.54-15.42a36.11,36.11,0,0,1,21.86-2.61C373.94,156.1,375.7,157.86,375.7,157.86Z" transform="translate(-21.9 -95.08)"/><path class="cls-14" d="M374.13,156.11a46.93,46.93,0,0,0,6,21.58A104.16,104.16,0,0,0,393,195.63s2.24-10.23,1.26-16.12-.56-10.09-4.91-14S378.19,156.81,374.13,156.11Z" transform="translate(-21.9 -95.08)"/><path class="cls-4" d="M347.86,271.57c0,4.33-2.77,10.8-4.22,16-2.06,7.34-2.83,23.89-3.83,41.94H382.1c-1-18-.52-28.59-3.14-39.73-1.23-5.21-4.91-13.83-4.91-18.17,0-6.32,1.91-14.74,3.6-21,.28-1.86,1-7,4.07-11.11a24.34,24.34,0,0,0-6.75-3.68,2,2,0,0,1,0,.77c-.84,7.05-6.67,12.94-13.93,13a14.21,14.21,0,0,1-14.1-13.8,28.19,28.19,0,0,0-6.78,3.7c3.09,4.1,3.79,9.25,4.07,11.11C345.95,256.82,347.86,265.25,347.86,271.57Z" transform="translate(-21.9 -95.08)"/><path class="cls-7" d="M357.36,218a16.51,16.51,0,0,0,3,.28,14.56,14.56,0,0,0,11.52-5.2" transform="translate(-21.9 -95.08)"/><path class="cls-8" d="M344.56,202.46h0a3.88,3.88,0,0,1-3.87-3.87v-2.82a3.88,3.88,0,0,1,3.87-3.87h0a3.88,3.88,0,0,1,3.87,3.87v2.82A3.88,3.88,0,0,1,344.56,202.46Z" transform="translate(-21.9 -95.08)"/><circle class="cls-9" cx="321.6" cy="100.26" r="1.31"/><path class="cls-8" d="M376.74,202.46h0a3.88,3.88,0,0,1-3.87-3.87v-2.82a3.88,3.88,0,0,1,3.87-3.87h0a3.88,3.88,0,0,1,3.87,3.87v2.82A3.88,3.88,0,0,1,376.74,202.46Z" transform="translate(-21.9 -95.08)"/><circle class="cls-9" cx="353.78" cy="100.26" r="1.31"/><rect class="cls-14" x="317.63" y="91.46" width="10.06" height="1.61"/><rect class="cls-14" x="349.81" y="91.46" width="10.06" height="1.61"/><path class="cls-2" d="M83.47,215.18c0-12,6.73-31.32,6.73-31.32H51.59s6.73,19.34,6.73,31.32c0,6.64-4,16.36-5.44,22.73-.68,3.06-.9,8.49.65,11.87,3.12,6.82,9.15,11.44,16.92,11.44h.89c7.77,0,13.8-4.62,16.92-11.44,1.55-3.38,1.34-8.81.65-11.87C87.49,231.54,83.47,221.82,83.47,215.18Z" transform="translate(-21.9 -95.08)"/><path class="cls-2" d="M82.08,341.1a5.47,5.47,0,0,1-5.47-5.47L73.25,249c0-3,5.81-5.19,8.83-5.19s7.15-1.13,7.15,1.89l-1.68,90A5.47,5.47,0,0,1,82.08,341.1Z" transform="translate(-21.9 -95.08)"/><path class="cls-2" d="M59.78,341.1a5.47,5.47,0,0,1-5.47-5.47l-1.77-89.55c0-3,4.22-2.31,7.24-2.31s8.42,1.89,8.42,4.9l-3,87A5.47,5.47,0,0,1,59.78,341.1Z" transform="translate(-21.9 -95.08)"/><path class="cls-2" d="M43.45,268.79a5,5,0,0,1-5-4.94c0-1.92-1-47.32,2.76-65.65,2.92-14.3,15.73-19.28,22.11-19.92a5,5,0,0,1,1,10c-.53.06-11.12,1.43-13.25,11.9-3.51,17.24-2.57,63-2.56,63.42a5,5,0,0,1-4.93,5.15Z" transform="translate(-21.9 -95.08)"/><path class="cls-2" d="M99,268.79h-.11a5,5,0,0,1-4.93-5.15c0-.46,1-46.19-2.55-63.42-2.14-10.51-12.81-11.85-13.26-11.9a5,5,0,0,1,1-10c6.37.64,19.19,5.62,22.11,19.92,3.74,18.34,2.8,63.73,2.75,65.65A5,5,0,0,1,99,268.79Z" transform="translate(-21.9 -95.08)"/><rect class="cls-3" x="41.46" y="63.14" width="15.14" height="31.53" rx="4.19" ry="4.19"/><circle class="cls-3" cx="80.98" cy="46.46" r="7.29"/><circle class="cls-3" cx="17.07" cy="46.46" r="7.29"/><path class="cls-2" d="M70.93,173.49h0a32,32,0,0,1-31.86-31.86V125.47c0-17.52,14.34-25.14,31.86-25.14h0c17.52,0,31.86,7.61,31.86,25.14v16.16A32,32,0,0,1,70.93,173.49Z" transform="translate(-21.9 -95.08)"/><polygon class="cls-4" points="43.9 235.81 43.37 249.11 16.96 249.18 32.31 235.76 43.9 235.81"/><polygon class="cls-4" points="54.06 235.74 54.69 249.11 81.09 249.18 65.75 235.76 54.06 235.74"/><path class="cls-4" d="M47.54,327h47s-5-87.43-5.14-89.13H52.57C52.43,239.54,47.54,327,47.54,327Z" transform="translate(-21.9 -95.08)"/><path class="cls-15" d="M101.76,198c-2.27-11.14-10.45-16.71-17.07-19-.09,9.81-6.23,17.73-13.8,17.73S57.31,189,57.11,179.33c-6.46,2.46-14.08,8-16.26,18.71-2.64,13-3,39.18-2.9,54.31H48.9c0-14.77.25-40.29,2.66-52.13a13.85,13.85,0,0,1,2.83-6.08c1.69,6.22,3.6,14.65,3.6,21,0,4.33-1.78,10.14-3.35,15.26-.82,2.68-1.6,5.21-2.08,7.38-.06.26-.11.56-.17.87H89.58c-.05-.31-.11-.61-.17-.87-.48-2.17-1.26-4.7-2.08-7.39C85.77,225.24,84,219.44,84,215.11c0-6.48,2-15.16,3.75-21.54a13.8,13.8,0,0,1,3.3,6.66c2.41,11.84,2.71,37.35,2.66,52.13h10.94C104.72,237.21,104.4,211,101.76,198Z" transform="translate(-21.9 -95.08)"/><path class="cls-14" d="M105.22,129.55a34,34,0,0,0-10-18.78c-6.73-6.17-19.48-10.23-32.79-7.15S37.81,118.9,37.39,127.45a23.83,23.83,0,0,0,1.67,10.9v-.48c0-9.45,14.34-21.36,31.86-21.36h0c17.1,0,31.14,12.54,31.8,20.75C104.15,134.37,105.42,131.24,105.22,129.55Z" transform="translate(-21.9 -95.08)"/><path class="cls-4" d="M106.13,118.62C97.43,95.49,73.06,95.07,70.85,95.08s-26.58.41-35.28,23.55a62,62,0,0,0,3.08,51.15c3.78,6.73,7.57,10.65,5.75,14.72s-6.87,5.89-3.22,10.37,10.93,8.69,20.18,9.81,9.73,1.12,19,0,16.54-5.33,20.18-9.81-1.4-6.31-3.22-10.37,2-8,5.75-14.72A62,62,0,0,0,106.13,118.62Zm-5,25.66c0,16.06-12.77,28.82-30.29,28.82h.11c-17.52,0-30.18-12.76-30.18-28.82V129.47c0-9.45,12.66-23,30.18-23h0c17.52,0,30.18,14.86,30.18,23Z" transform="translate(-21.9 -95.08)"/><path class="cls-7" d="M66.28,161.81a16.49,16.49,0,0,0,3,.28,14.56,14.56,0,0,0,11.52-5.2" transform="translate(-21.9 -95.08)"/><path class="cls-8" d="M53.47,146.29h0a3.88,3.88,0,0,1-3.87-3.87V139.6a3.88,3.88,0,0,1,3.87-3.87h0a3.88,3.88,0,0,1,3.87,3.87v2.82A3.88,3.88,0,0,1,53.47,146.29Z" transform="translate(-21.9 -95.08)"/><circle class="cls-9" cx="30.52" cy="44.09" r="1.31"/><path class="cls-8" d="M85.65,146.29h0a3.88,3.88,0,0,1-3.87-3.87V139.6a3.88,3.88,0,0,1,3.87-3.87h0a3.88,3.88,0,0,1,3.87,3.87v2.82A3.88,3.88,0,0,1,85.65,146.29Z" transform="translate(-21.9 -95.08)"/><circle class="cls-9" cx="62.7" cy="44.09" r="1.31"/><rect class="cls-16" x="26.55" y="35.29" width="10.06" height="1.61"/><rect class="cls-16" x="58.73" y="35.29" width="10.06" height="1.61"/><rect class="cls-2" x="691.72" y="114.7" width="38.68" height="59.28"/><rect class="cls-2" x="691.72" y="146.65" width="38.68" height="45.41" rx="11.08" ry="11.08"/><path class="cls-4" d="M744.1,368.28a6.73,6.73,0,0,1-6.73-6.73L734.3,275.3c0-3.71,6.09-6.87,9.8-6.87s8.13-4.42,8.13-.7l-1.41,93.83A6.73,6.73,0,0,1,744.1,368.28Z" transform="translate(-21.9 -95.08)"/><path class="cls-4" d="M721.81,368.28a6.73,6.73,0,0,1-6.73-6.73l-1.52-94c0-3.71,4.53.84,8.25.84s9.69,3.29,9.69,7l-3,86.12A6.73,6.73,0,0,1,721.81,368.28Z" transform="translate(-21.9 -95.08)"/><path class="cls-2" d="M763.8,294.71h-.08a5,5,0,0,1-5-5.12c0-.47.68-46.83-2.84-64.08-2.11-10.35-15.49-11.21-16.06-11.24a5,5,0,0,1,.5-10.08c.89,0,21.76,1.23,25.45,19.31,3.74,18.32,3.07,64.3,3,66.25A5,5,0,0,1,763.8,294.71Z" transform="translate(-21.9 -95.08)"/><path class="cls-2" d="M702.11,294.71a5,5,0,0,1-5-5c0-1.95-.69-47.93,3-66.25,3.69-18.07,24.56-19.26,25.45-19.31a5,5,0,0,1,.49,10.08c-.63,0-13.94.92-16.05,11.24-3.52,17.26-2.85,63.62-2.84,64.08a5,5,0,0,1-5,5.12Z" transform="translate(-21.9 -95.08)"/><path class="cls-3" d="M733,215.66h0a9.38,9.38,0,0,1-9.35-9.35V193.49a9.38,9.38,0,0,1,9.35-9.35h0a9.38,9.38,0,0,1,9.35,9.35v12.82A9.38,9.38,0,0,1,733,215.66Z" transform="translate(-21.9 -95.08)"/><circle class="cls-2" cx="743.01" cy="72.38" r="7.29"/><circle class="cls-2" cx="679.1" cy="72.38" r="7.29"/><path class="cls-2" d="M733,199.41h0a32,32,0,0,1-31.86-31.86V151.39c0-17.52,14.34-25.14,31.86-25.14h0c17.52,0,31.86,7.61,31.86,25.14v16.16A32,32,0,0,1,733,199.41Z" transform="translate(-21.9 -95.08)"/><path class="cls-4" d="M737.38,356.83v13.35H765l-14.19-13.35S737.27,356.72,737.38,356.83Z" transform="translate(-21.9 -95.08)"/><path class="cls-4" d="M728.53,356.83v13.35H700.89l14.19-13.35S728.64,356.72,728.53,356.83Z" transform="translate(-21.9 -95.08)"/><rect class="cls-3" x="691.72" y="114.7" width="38.68" height="59.28"/><rect class="cls-2" x="691.72" y="146.65" width="38.68" height="45.41" rx="11.08" ry="11.08"/><path class="cls-4" d="M737.08,356.83v13.35H765l-14.19-13.35S737,356.73,737.08,356.83Z" transform="translate(-21.9 -95.08)"/><path class="cls-4" d="M728.83,356.83v13.35H700.89l14.19-13.35S728.94,356.73,728.83,356.83Z" transform="translate(-21.9 -95.08)"/><path class="cls-17" d="M729,362.25l2.49-74.73c.32,0,.65,0,1,0h1c.3,0,.59,0,.88,0l2.58,74.78,14.45-5,1.27-87.21c0-.37,0-.75.06-1.13H713.16l1.39,88.28Z" transform="translate(-21.9 -95.08)"/><path class="cls-13" d="M707.53,279.5c0-14.74.4-41.74,2.88-53.91a11.23,11.23,0,0,1,2.78-5.44v49.34h39.52V220.14a11.26,11.26,0,0,1,2.78,5.44c2.48,12.17,2.87,39.17,2.88,53.91h10.94c0-15.09-.41-42.85-3.11-56.1-2.78-13.63-15.16-17.82-21.74-19.1-2.29-.44-11.52,14.55-11.52,14.55s-9.47-15-12-14.45c-6.69,1.39-18.51,5.72-21.21,19s-3.11,41-3.11,56.1Z" transform="translate(-21.9 -95.08)"/><path class="cls-4" d="M732.94,265.48l7.15-17.66-5-27.68s-2.07.49-2.07.49-1.89-.49-1.82-.49l-4.87,27.68,6.66,17.66h0Z" transform="translate(-21.9 -95.08)"/><path class="cls-4" d="M728.62,216.12c0-2.34,1.94-2.7,4.34-2.7s4.34.36,4.34,2.7-1.94,5.78-4.34,5.78S728.62,218.46,728.62,216.12Z" transform="translate(-21.9 -95.08)"/><path class="cls-18" d="M723,201.35a25.59,25.59,0,0,0,8.62,11.19l-4.91,7.67a39.44,39.44,0,0,1-5.23-7.78,22.28,22.28,0,0,1-2.42-7.62Z" transform="translate(-21.9 -95.08)"/><path class="cls-18" d="M742.86,201.35a25.59,25.59,0,0,1-8.62,11.19l4.91,7.67a39.44,39.44,0,0,0,5.23-7.78,22.28,22.28,0,0,0,2.42-7.62Z" transform="translate(-21.9 -95.08)"/><path class="cls-14" d="M701.05,163.13s6-2.64,6.17-9.05-3.1-7.88-1.16-14.82a14.12,14.12,0,0,1,4.2-6.94s-7.36-1.37-10.93,3-3.31,14.14-1.47,19.55C699,158.18,701.05,163.13,701.05,163.13Z" transform="translate(-21.9 -95.08)"/><path class="cls-14" d="M764.84,163.13s-6-2.64-6.17-9.05,3.1-7.88,1.16-14.82a14.12,14.12,0,0,0-4.2-6.94s7.36-1.37,10.93,3,3.31,14.14,1.47,19.55C766.92,158.18,764.84,163.13,764.84,163.13Z" transform="translate(-21.9 -95.08)"/><path class="cls-7" d="M722.23,185.42a15.3,15.3,0,0,0,9.36,3.06,14.52,14.52,0,0,0,11.61-5.31" transform="translate(-21.9 -95.08)"/><path class="cls-8" d="M715.74,172.68h0a3.88,3.88,0,0,1-3.87-3.87V166a3.88,3.88,0,0,1,3.87-3.87h0a3.88,3.88,0,0,1,3.87,3.87v2.82A3.88,3.88,0,0,1,715.74,172.68Z" transform="translate(-21.9 -95.08)"/><circle class="cls-9" cx="692.78" cy="70.48" r="1.31"/><rect class="cls-8" x="722.15" y="67.05" width="7.74" height="10.56" rx="2.27" ry="2.27"/><circle class="cls-9" cx="724.96" cy="70.48" r="1.31"/><rect class="cls-14" x="688.81" y="60.48" width="10.06" height="2.82"/><rect class="cls-14" x="720.99" y="60.48" width="10.06" height="2.82"/><rect class="cls-2" x="117.86" y="120.46" width="38.68" height="59.28"/><rect class="cls-2" x="117.86" y="152.41" width="38.68" height="45.41" rx="11.08" ry="11.08"/><path class="cls-2" d="M170.25,374a6.73,6.73,0,0,1-6.73-6.73l-3.08-86.26c0-3.71,6.09-6.87,9.8-6.87s8.14-4.42,8.14-.7L177,367.31A6.73,6.73,0,0,1,170.25,374Z" transform="translate(-21.9 -95.08)"/><path class="cls-2" d="M148,374a6.73,6.73,0,0,1-6.73-6.73l-1.52-94c0-3.71,4.53.84,8.25.84s9.69,3.29,9.69,7l-3,86.12A6.73,6.73,0,0,1,148,374Z" transform="translate(-21.9 -95.08)"/><path class="cls-19" d="M189.94,300.46h-.08a5,5,0,0,1-5-5.12c0-.47.68-46.83-2.84-64.08C179.94,220.91,166.56,220,166,220a5,5,0,0,1,.5-10.08c.89,0,21.76,1.24,25.45,19.31,3.74,18.32,3.07,64.3,3,66.25A5,5,0,0,1,189.94,300.46Z" transform="translate(-21.9 -95.08)"/><path class="cls-19" d="M128.26,300.46a5,5,0,0,1-5-5c0-1.95-.69-47.93,3-66.25,3.69-18.07,24.56-19.26,25.45-19.31A5,5,0,0,1,152.2,220c-.63,0-13.94.92-16.05,11.24-3.52,17.26-2.85,63.62-2.84,64.08a5,5,0,0,1-5,5.12Z" transform="translate(-21.9 -95.08)"/><path class="cls-5" d="M182.89,240.56h11a109.87,109.87,0,0,0-1.52-11.11c-3.75-18.37-24.94-19.6-25.84-19.64-1.25-.06-3.94-.09-7.21-.09s-6.27,0-7.62.09c-.9,0-22.09,1.27-25.84,19.64a109.92,109.92,0,0,0-1.52,11.11h11c.34-3.42.75-6.48,1.25-8.93a11.23,11.23,0,0,1,2.78-5.44v49.34h39.52V226.19a11.26,11.26,0,0,1,2.78,5.44C182.14,234.07,182.55,237.14,182.89,240.56Z" transform="translate(-21.9 -95.08)"/><path class="cls-20" d="M159.1,221.42h0a9.38,9.38,0,0,1-9.35-9.35V199.25a9.38,9.38,0,0,1,9.35-9.35h0a9.38,9.38,0,0,1,9.35,9.35v12.82A9.38,9.38,0,0,1,159.1,221.42Z" transform="translate(-21.9 -95.08)"/><circle class="cls-3" cx="169.16" cy="78.14" r="7.29"/><circle class="cls-3" cx="105.25" cy="78.14" r="7.29"/><path class="cls-19" d="M159.1,205.17h0a32,32,0,0,1-31.86-31.86V157.15c0-17.52,14.34-25.14,31.86-25.14h0c17.52,0,31.86,7.61,31.86,25.14V173.3A32,32,0,0,1,159.1,205.17Z" transform="translate(-21.9 -95.08)"/><path class="cls-2" d="M163.52,362.58v13.35h27.64L177,362.58S163.42,362.48,163.52,362.58Z" transform="translate(-21.9 -95.08)"/><path class="cls-2" d="M154.68,362.58v13.35H127l14.19-13.35S154.78,362.48,154.68,362.58Z" transform="translate(-21.9 -95.08)"/><circle class="cls-19" cx="169.16" cy="78.14" r="7.29"/><circle class="cls-19" cx="105.25" cy="78.14" r="7.29"/><path class="cls-5" d="M163.22,362.59v13.35h27.94L177,362.58S163.12,362.49,163.22,362.59Z" transform="translate(-21.9 -95.08)"/><path class="cls-5" d="M155,362.59v13.35H127l14.19-13.35S155.08,362.49,155,362.59Z" transform="translate(-21.9 -95.08)"/><path class="cls-10" d="M155.16,368l2.49-74.73c.32,0,.65,0,1,0h1c.3,0,.59,0,.88,0L163,368.06l14.45-5,1.27-87.21c0-.37,0-.75.06-1.13H139.31L140.69,363Z" transform="translate(-21.9 -95.08)"/><path class="cls-21" d="M127.17,172.44s3.5-4.48,5.89-13.59-.84-19.62-.84-19.62-3.5.77-5.47,9.53C123.38,163.75,127.17,172.44,127.17,172.44Z" transform="translate(-21.9 -95.08)"/><path class="cls-21" d="M191,172.44s-3.5-4.48-5.89-13.59.84-19.62.84-19.62,3.5.77,5.47,9.53C194.77,163.75,191,172.44,191,172.44Z" transform="translate(-21.9 -95.08)"/><path class="cls-21" d="M186.59,140.77S175,152.54,154.22,151.7s-25.93-11.35-26.91-15.84.42-9.81.42-9.81,4.48,6.45,23.54,3.64,25.37-1.54,30.55,1.68S186.59,140.77,186.59,140.77Z" transform="translate(-21.9 -95.08)"/><path class="cls-9" d="M145.21,186.51c2,4.24,7,7.25,12.78,7.25s10.8-3,12.78-7.25Z" transform="translate(-21.9 -95.08)"/><path class="cls-8" d="M142.14,178h0a3.88,3.88,0,0,1-3.87-3.87v-2.82a3.88,3.88,0,0,1,3.87-3.87h0a3.88,3.88,0,0,1,3.87,3.87v2.82A3.88,3.88,0,0,1,142.14,178Z" transform="translate(-21.9 -95.08)"/><circle class="cls-9" cx="119.18" cy="75.77" r="1.31"/><path class="cls-8" d="M174.32,178h0a3.88,3.88,0,0,1-3.87-3.87v-2.82a3.88,3.88,0,0,1,3.87-3.87h0a3.88,3.88,0,0,1,3.87,3.87v2.82A3.88,3.88,0,0,1,174.32,178Z" transform="translate(-21.9 -95.08)"/><circle class="cls-9" cx="151.36" cy="75.77" r="1.31"/><rect class="cls-10" x="115.21" y="67.37" width="10.06" height="2.82"/><rect class="cls-10" x="147.39" y="67.37" width="10.06" height="2.82"/><rect class="cls-12" x="542.61" y="112.47" width="38.68" height="59.28"/><rect class="cls-12" x="542.61" y="144.42" width="38.68" height="45.41" rx="11.08" ry="11.08"/><path class="cls-12" d="M595,366a6.73,6.73,0,0,1-6.73-6.73l-3.08-86.26c0-3.71,6.09-6.87,9.8-6.87s8.13-4.42,8.13-.7l-1.41,93.83A6.73,6.73,0,0,1,595,366Z" transform="translate(-21.9 -95.08)"/><path class="cls-12" d="M572.69,366a6.73,6.73,0,0,1-6.73-6.73l-1.52-94c0-3.71,4.53.84,8.25.84s9.69,3.29,9.69,7l-3,86.12A6.73,6.73,0,0,1,572.69,366Z" transform="translate(-21.9 -95.08)"/><path class="cls-12" d="M614.68,292.47h-.08a5,5,0,0,1-5-5.12c0-.47.68-46.83-2.84-64.08-2.11-10.35-15.49-11.21-16.06-11.24a5,5,0,0,1,.5-10.08c.89,0,21.76,1.23,25.45,19.31,3.74,18.32,3.07,64.3,3,66.25A5,5,0,0,1,614.68,292.47Z" transform="translate(-21.9 -95.08)"/><path class="cls-12" d="M553,292.47a5,5,0,0,1-5-5c0-1.95-.69-47.93,3-66.25,3.69-18.07,24.56-19.26,25.45-19.31a5,5,0,0,1,.49,10.08c-.63,0-13.94.92-16.05,11.24-3.52,17.26-2.85,63.61-2.84,64.08a5,5,0,0,1-5,5.12Z" transform="translate(-21.9 -95.08)"/><rect class="cls-11" x="552.59" y="86.82" width="18.71" height="31.53" rx="5.5" ry="5.5"/><circle class="cls-11" cx="593.9" cy="70.14" r="7.29"/><circle class="cls-11" cx="529.99" cy="70.14" r="7.29"/><path class="cls-12" d="M583.84,197.17h0A32,32,0,0,1,552,165.31V149.16c0-17.52,14.34-25.14,31.86-25.14h0c17.52,0,31.86,7.61,31.86,25.14v16.16A32,32,0,0,1,583.84,197.17Z" transform="translate(-21.9 -95.08)"/><path class="cls-12" d="M588.27,354.59v13.35h27.64l-14.19-13.35S588.16,354.49,588.27,354.59Z" transform="translate(-21.9 -95.08)"/><path class="cls-12" d="M579.42,354.59v13.35H551.78L566,354.59S579.53,354.49,579.42,354.59Z" transform="translate(-21.9 -95.08)"/><circle class="cls-12" cx="593.9" cy="70.14" r="7.29"/><circle class="cls-12" cx="529.99" cy="70.14" r="7.29"/><path class="cls-12" d="M583.84,197.17h0A32,32,0,0,1,552,165.31V149.16c0-17.52,14.34-25.14,31.86-25.14h0c17.52,0,31.86,7.61,31.86,25.14v16.16A32,32,0,0,1,583.84,197.17Z" transform="translate(-21.9 -95.08)"/><path class="cls-22" d="M588,354.6v13.35h27.94l-14.19-13.35S587.86,354.5,588,354.6Z" transform="translate(-21.9 -95.08)"/><path class="cls-22" d="M579.72,354.6v13.35H551.78L566,354.59S579.83,354.5,579.72,354.6Z" transform="translate(-21.9 -95.08)"/><path class="cls-22" d="M617.09,221.17c-3.13-15.34-18.41-18.72-23.9-19.45v2.36a9.35,9.35,0,0,1-18.71,0v-2.36c-5.49.73-20.77,4.11-23.9,19.45-2.7,13.25-3.11,41-3.11,56.1h10.94c0-14.74.4-41.74,2.88-53.91a11.23,11.23,0,0,1,2.78-5.44v49.34H603.6V217.91a11.26,11.26,0,0,1,2.78,5.44c2.48,12.17,2.87,39.17,2.88,53.91h10.94C620.2,262.17,619.8,234.42,617.09,221.17Z" transform="translate(-21.9 -95.08)"/><path class="cls-10" d="M551.91,164.45s3.5-4.48,5.89-13.59-.84-19.62-.84-19.62-3.5.77-5.47,9.53C548.13,155.76,551.91,164.45,551.91,164.45Z" transform="translate(-21.9 -95.08)"/><path class="cls-10" d="M615.73,164.45s-3.5-4.48-5.89-13.59.84-19.62.84-19.62,3.5.77,5.47,9.53C619.51,155.76,615.73,164.45,615.73,164.45Z" transform="translate(-21.9 -95.08)"/><path class="cls-10" d="M611.33,132.78S599.7,144.55,579,143.71,553,132.36,552.05,127.87s.42-9.81.42-9.81,4.48,6.45,23.54,3.64,25.37-1.54,30.55,1.68S611.33,132.78,611.33,132.78Z" transform="translate(-21.9 -95.08)"/><path class="cls-23" d="M581.32,317.42l1.07-32.13c.32,0,.65,0,1,0h1c.3,0,.59,0,.88,0l1.11,32.13h16.47l.72-49.54c0-.37,0-.75.06-1.13H564.05l.8,50.66Z" transform="translate(-21.9 -95.08)"/><path class="cls-10" d="M616,157.3s-.87.06-2.15,5.63.42,15.87-8.39,21.13-15.72,4.41-17.53,3.78-1.81-4.2-1.81-4.2H584v0h-2s0,3.57-1.81,4.2-8.71,1.47-17.53-3.78-7.12-15.56-8.39-21.13-2.15-5.63-2.15-5.63-4,20,6.51,33.59c8,10.26,25.5,9.78,25.5,9.78h0c1.59,0,17.8,0,25.36-9.78C620,177.33,616,157.3,616,157.3Z" transform="translate(-21.9 -95.08)"/><path class="cls-10" d="M600.72,193.51a118.89,118.89,0,0,0-1.91-13c-.56-2.34-1.91-5.62-5.37-7.09-2.73-1.16-7.7-.48-9.67-.14-1.64-.31-6.3-1-9.11.16-3.45,1.47-4.81,4.76-5.37,7.09a118.89,118.89,0,0,0-1.91,13l6.32-3.78s-.52-7.7,3.08-10.14c3.44-2.33,11.32-2,14.52,0,3.69,2.3,3.08,10.14,3.08,10.14Z" transform="translate(-21.9 -95.08)"/><path class="cls-8" d="M566.6,170.32h0a3.88,3.88,0,0,1-3.87-3.87v-2.82a3.88,3.88,0,0,1,3.87-3.87h0a3.88,3.88,0,0,1,3.87,3.87v2.82A3.88,3.88,0,0,1,566.6,170.32Z" transform="translate(-21.9 -95.08)"/><circle class="cls-9" cx="543.64" cy="68.12" r="1.31"/><path class="cls-8" d="M598.78,170.32h0a3.88,3.88,0,0,1-3.87-3.87v-2.82a3.88,3.88,0,0,1,3.87-3.87h0a3.88,3.88,0,0,1,3.87,3.87v2.82A3.88,3.88,0,0,1,598.78,170.32Z" transform="translate(-21.9 -95.08)"/><circle class="cls-9" cx="575.82" cy="68.12" r="1.31"/><rect class="cls-10" x="539.68" y="58.12" width="10.06" height="2.82"/><rect class="cls-10" x="571.86" y="58.12" width="10.06" height="2.82"/><line class="cls-7" x1="555.06" y1="86.87" x2="567.79" y2="86.87"/><path class="cls-2" d="M662.89,298.48c0-12,6.73-31.32,6.73-31.32H631s6.73,19.34,6.73,31.32c0,6.64-4,16.36-5.44,22.73-.68,3.06-.9,8.49.65,11.87,3.12,6.82,9.15,11.44,16.92,11.44h.89c7.77,0,13.8-4.62,16.92-11.44,1.55-3.38,1.34-8.81.65-11.87C666.91,314.84,662.89,305.12,662.89,298.48Z" transform="translate(-21.9 -95.08)"/><path class="cls-2" d="M661.49,424.4a5.47,5.47,0,0,1-5.47-5.47l-3.36-86.68c0-3,5.81-5.19,8.83-5.19s7.15-1.13,7.15,1.89l-1.68,90A5.47,5.47,0,0,1,661.49,424.4Z" transform="translate(-21.9 -95.08)"/><path class="cls-2" d="M639.2,424.4a5.47,5.47,0,0,1-5.47-5.47L632,329.38c0-3,4.22-2.31,7.24-2.31s8.42,1.89,8.42,4.9l-3,87A5.47,5.47,0,0,1,639.2,424.4Z" transform="translate(-21.9 -95.08)"/><path class="cls-2" d="M622.87,352.09a5,5,0,0,1-5-4.94c0-1.92-1-47.32,2.76-65.65,2.92-14.3,15.73-19.28,22.11-19.92a5,5,0,0,1,1,10c-.53.06-11.12,1.43-13.25,11.9-3.51,17.24-2.57,63-2.56,63.42a5,5,0,0,1-4.93,5.15Z" transform="translate(-21.9 -95.08)"/><path class="cls-2" d="M678.38,352.09h-.11a5,5,0,0,1-4.93-5.15c0-.46,1-46.19-2.55-63.42-2.14-10.51-12.81-11.85-13.26-11.9a5,5,0,0,1,1-10c6.37.64,19.19,5.62,22.11,19.92,3.74,18.34,2.8,63.73,2.75,65.65A5,5,0,0,1,678.38,352.09Z" transform="translate(-21.9 -95.08)"/><rect class="cls-3" x="620.88" y="146.44" width="15.14" height="31.53" rx="4.19" ry="4.19"/><circle class="cls-3" cx="660.4" cy="129.76" r="7.29"/><circle class="cls-3" cx="596.49" cy="129.76" r="7.29"/><path class="cls-2" d="M650.35,256.79h0a32,32,0,0,1-31.86-31.86V208.77c0-17.52,14.34-25.14,31.86-25.14h0c17.52,0,31.86,7.61,31.86,25.14v16.16A32,32,0,0,1,650.35,256.79Z" transform="translate(-21.9 -95.08)"/><polygon class="cls-2" points="622.78 319.06 622.78 332.41 596.38 332.48 611.73 319.06 622.78 319.06"/><polygon class="cls-2" points="634.11 319.06 634.11 332.41 660.51 332.48 645.17 319.06 634.11 319.06"/><path class="cls-23" d="M697.14,239.13a12.34,12.34,0,0,0-2.69-7.7A15.72,15.72,0,0,0,688,206.52a17,17,0,0,0-15.59-28.09,14.17,14.17,0,0,0-22.75-4.54,14.17,14.17,0,0,0-22.75,4.54,17,17,0,0,0-15.59,28.09,15.72,15.72,0,0,0-6.48,24.91,12.36,12.36,0,0,0,1.29,16.78,14.39,14.39,0,0,0,16.65,23,14.38,14.38,0,0,0,26.88.5,14.38,14.38,0,0,0,26.88-.5,14.39,14.39,0,0,0,16.65-23A12.36,12.36,0,0,0,697.14,239.13Zm-45.83,18.81a14.36,14.36,0,0,0-1.68,3,14.35,14.35,0,0,0-1.68-3,13.19,13.19,0,0,0,1.68-.81A13.18,13.18,0,0,0,651.31,257.94Z" transform="translate(-21.9 -95.08)"/><path class="cls-11" d="M662.89,298.48c0-12,6.73-31.32,6.73-31.32H631s6.73,19.34,6.73,31.32c0,6.64-4,16.36-5.44,22.73-.68,3.06-.9,8.49.65,11.87,3.12,6.82,9.15,11.44,16.92,11.44h.89c7.77,0,13.8-4.62,16.92-11.44,1.55-3.38,1.34-8.81.65-11.87C666.91,314.83,662.89,305.12,662.89,298.48Z" transform="translate(-21.9 -95.08)"/><path class="cls-12" d="M661.5,424.4a5.47,5.47,0,0,1-5.47-5.47l-3.36-86.68c0-3,5.81-5.19,8.83-5.19s7.15-1.13,7.15,1.89l-1.68,90A5.47,5.47,0,0,1,661.5,424.4Z" transform="translate(-21.9 -95.08)"/><path class="cls-12" d="M639.2,424.4a5.47,5.47,0,0,1-5.47-5.47L632,329.38c0-3,4.22-2.31,7.24-2.31s8.42,1.89,8.42,4.9l-3,87A5.47,5.47,0,0,1,639.2,424.4Z" transform="translate(-21.9 -95.08)"/><path class="cls-11" d="M622.87,352.08a5,5,0,0,1-5-4.94c0-1.92-1-47.32,2.76-65.65,2.92-14.3,15.73-19.28,22.11-19.92a5,5,0,0,1,1,10c-.53.06-11.12,1.43-13.25,11.9-3.51,17.24-2.57,63-2.56,63.42a5,5,0,0,1-4.93,5.15Z" transform="translate(-21.9 -95.08)"/><path class="cls-11" d="M678.38,352.08h-.11a5,5,0,0,1-4.93-5.15c0-.46,1-46.19-2.55-63.42-2.14-10.51-12.81-11.85-13.26-11.9a5,5,0,0,1,1-10c6.37.64,19.19,5.62,22.11,19.92,3.74,18.34,2.8,63.73,2.75,65.65A5,5,0,0,1,678.38,352.08Z" transform="translate(-21.9 -95.08)"/><rect class="cls-11" x="620.88" y="146.43" width="15.14" height="31.53" rx="4.19" ry="4.19"/><circle class="cls-12" cx="660.4" cy="129.75" r="7.29"/><circle class="cls-12" cx="596.49" cy="129.75" r="7.29"/><path class="cls-12" d="M650.35,256.78h0a32,32,0,0,1-31.86-31.86V208.76c0-17.52,14.34-25.14,31.86-25.14h0c17.52,0,31.86,7.61,31.86,25.14v16.16A32,32,0,0,1,650.35,256.78Z" transform="translate(-21.9 -95.08)"/><polygon class="cls-12" points="622.79 319.06 622.79 332.4 596.38 332.47 611.73 319.06 622.79 319.06"/><polygon class="cls-12" points="634.11 319.06 634.11 332.4 660.51 332.47 645.17 319.06 634.11 319.06"/><path class="cls-23" d="M677.15,187.45a15.72,15.72,0,0,0-3,.41,11.79,11.79,0,0,0,.13-1.68,12.13,12.13,0,0,0-12.26-12c-5.74,0-9.75.74-11.88,5.71-2.81-4.13-6.06-5.71-11.72-5.71a11.91,11.91,0,0,0-12,13.68,15.31,15.31,0,0,0-3-.41c-10-.67-17.19,20.5-4.91,31.05a11.22,11.22,0,0,0,6.38-8.7,11.26,11.26,0,0,0,9.85-11.12c0-.36,0-.72-.05-1.08a12.12,12.12,0,0,0,15.4-8.51A12.21,12.21,0,0,0,662,198.17a12.5,12.5,0,0,0,3.73-.57c0,.35-.06.71-.06,1.08a11.31,11.31,0,0,0,10,11.12,11.23,11.23,0,0,0,6.47,8.7C694.57,207.95,687.27,186.79,677.15,187.45Z" transform="translate(-21.9 -95.08)"/><path class="cls-7" d="M646.48,245.16a16.49,16.49,0,0,0,3,.28,14.56,14.56,0,0,0,11.52-5.2" transform="translate(-21.9 -95.08)"/><path class="cls-8" d="M633.68,229.64h0a3.88,3.88,0,0,1-3.87-3.87V223a3.88,3.88,0,0,1,3.87-3.87h0a3.88,3.88,0,0,1,3.87,3.87v2.82A3.88,3.88,0,0,1,633.68,229.64Z" transform="translate(-21.9 -95.08)"/><circle class="cls-9" cx="610.72" cy="127.44" r="1.31"/><path class="cls-8" d="M665.86,229.64h0a3.88,3.88,0,0,1-3.87-3.87V223a3.88,3.88,0,0,1,3.87-3.87h0a3.88,3.88,0,0,1,3.87,3.87v2.82A3.88,3.88,0,0,1,665.86,229.64Z" transform="translate(-21.9 -95.08)"/><circle class="cls-9" cx="642.9" cy="127.44" r="1.31"/><rect class="cls-23" x="606.75" y="118.64" width="10.06" height="1.61"/><rect class="cls-23" x="638.93" y="118.64" width="10.06" height="1.61"/><polygon class="cls-10" points="623.85 319.25 623.85 298.12 610.89 298.19 611.03 319.25 594.86 333.1 624.06 332.92 623.85 319.25"/><polygon class="cls-10" points="632.96 319.25 632.96 298.12 645.92 298.19 645.78 319.25 661.43 332.75 632.75 332.92 632.96 319.25"/><path class="cls-10" d="M680.87,281.6c-2.27-11.14-10.45-16.71-17.07-19-.09,9.81-6.23,17.73-13.8,17.73s-13.58-7.77-13.78-17.44c-6.46,2.46-14.08,8-16.26,18.71-2.64,13-3,39.18-2.9,54.31H628c0-14.77.25-40.29,2.66-52.13a13.85,13.85,0,0,1,2.83-6.08c1.69,6.22,3.6,14.65,3.6,21,0,4.33-1.78,10.14-3.35,15.26-.82,2.68-1.6,5.21-2.08,7.38a16.23,16.23,0,0,0-.31,4l37.37-.16a17,17,0,0,0-.2-3.89c-.48-2.17-1.26-4.7-2.08-7.39-1.57-5.12-3.34-10.92-3.34-15.25,0-6.48,2-15.16,3.75-21.54a13.8,13.8,0,0,1,3.3,6.66c2.41,11.84,2.71,37.35,2.66,52.13h10.94C683.83,320.77,683.51,294.56,680.87,281.6Z" transform="translate(-21.9 -95.08)"/><path class="cls-24" d="M636.89,298.25c0,4.33-2.77,10.8-4.22,16-2.06,7.34-2.83,23.89-3.83,41.94h42.29c-1-18-.52-28.59-3.14-39.73-1.23-5.21-4.56-13.61-4.56-17.94,0-6.32,1.67-14.66,3.36-20.88.28-1.86.87-7.32,4-11.42a28,28,0,0,0-7.36-3.71,2,2,0,0,1,0,.77c-.84,7.05-6.06,13-13.32,13-7.59.07-13.43-6.36-13.59-13.88a31.49,31.49,0,0,0-7.29,3.78,23.69,23.69,0,0,1,4.13,12.2C635,284.59,636.89,291.93,636.89,298.25Z" transform="translate(-21.9 -95.08)"/><rect class="cls-3" x="498.75" y="180.33" width="38.68" height="59.28"/><rect class="cls-3" x="498.75" y="212.28" width="38.68" height="45.41" rx="11.08" ry="11.08"/><path class="cls-3" d="M551.14,433.91a6.73,6.73,0,0,1-6.73-6.73l-3.08-86.26c0-3.71,6.09-6.87,9.8-6.87s8.13-4.42,8.13-.7l-1.41,93.83A6.73,6.73,0,0,1,551.14,433.91Z" transform="translate(-21.9 -95.08)"/><path class="cls-3" d="M528.84,433.91a6.73,6.73,0,0,1-6.73-6.73l-1.52-94c0-3.71,4.53.84,8.25.84s9.69,3.29,9.69,7l-3,86.12A6.73,6.73,0,0,1,528.84,433.91Z" transform="translate(-21.9 -95.08)"/><path class="cls-3" d="M570.83,360.34h-.08a5,5,0,0,1-5-5.12c0-.47.68-46.83-2.84-64.08-2.11-10.35-15.49-11.21-16.06-11.24a5,5,0,0,1,.5-10.08c.89,0,21.76,1.23,25.45,19.31,3.74,18.32,3.07,64.3,3,66.25A5,5,0,0,1,570.83,360.34Z" transform="translate(-21.9 -95.08)"/><path class="cls-3" d="M509.15,360.34a5,5,0,0,1-5-5c0-1.95-.69-47.93,3-66.25,3.69-18.07,24.56-19.26,25.45-19.31a5,5,0,0,1,.49,10.08c-.63,0-13.94.92-16.05,11.24-3.52,17.26-2.85,63.61-2.84,64.08a5,5,0,0,1-5,5.12Z" transform="translate(-21.9 -95.08)"/><path class="cls-3" d="M540,281.3h0a9.38,9.38,0,0,1-9.35-9.35V259.12a9.38,9.38,0,0,1,9.35-9.35h0a9.38,9.38,0,0,1,9.35,9.35v12.82A9.38,9.38,0,0,1,540,281.3Z" transform="translate(-21.9 -95.08)"/><circle class="cls-2" cx="550.05" cy="138.01" r="7.29"/><circle class="cls-2" cx="486.14" cy="138.01" r="7.29"/><path class="cls-2" d="M540,265h0a32,32,0,0,1-31.86-31.86V217c0-17.52,14.34-25.14,31.86-25.14h0c17.52,0,31.86,7.61,31.86,25.14v16.16A32,32,0,0,1,540,265Z" transform="translate(-21.9 -95.08)"/><path class="cls-2" d="M544.41,422.45V435.8h27.64l-14.19-13.35S544.31,422.35,544.41,422.45Z" transform="translate(-21.9 -95.08)"/><path class="cls-2" d="M535.57,422.45V435.8H507.92l14.19-13.35S535.67,422.35,535.57,422.45Z" transform="translate(-21.9 -95.08)"/><path class="cls-10" d="M544.11,422.46v13.35h27.94l-14.19-13.35S544,422.36,544.11,422.46Z" transform="translate(-21.9 -95.08)"/><path class="cls-10" d="M535.87,422.46v13.35H507.92l14.19-13.35S536,422.36,535.87,422.46Z" transform="translate(-21.9 -95.08)"/><path class="cls-25" d="M536,427.88l2.49-74.73c.32,0,.65,0,1,0h1c.3,0,.59,0,.88,0l2.58,74.78,14.45-5,1.27-87.21c0-.37,0-.75.06-1.12H520.2l1.39,88.28Z" transform="translate(-21.9 -95.08)"/><path class="cls-16" d="M577.67,199.82c-1.32-1.49-3.35-1-5.31.15,2.34-3.09,3-6.26.42-7-2.78-.83-5.39,9.1-6,11.47l-.26.06.21.15v0l-.12.13.09,0,0,.11.15-.08.37.06a14.06,14.06,0,0,0,2.22,1.13c3.84,1.52,5.36,5.68,7.57,2.52,1.19-1.69-.82-3.26-3.41-4.06C577.07,203.61,579.47,201.85,577.67,199.82Z" transform="translate(-21.9 -95.08)"/><path class="cls-16" d="M507.7,217a25.09,25.09,0,0,1,2.58-11.55l.5-1,.28,1.07a28.35,28.35,0,0,1,.77,4c.47,4.09.86,12.86-1,16.77a4.7,4.7,0,0,1-2.55,2.6l-.56.2Z" transform="translate(-21.9 -95.08)"/><path class="cls-16" d="M571.71,228.93a4.7,4.7,0,0,1-2.55-2.6c-1.88-3.91-1.49-12.68-1-16.77a28.49,28.49,0,0,1,.77-4l.28-1.06.5,1A25.12,25.12,0,0,1,572.27,217v12.11Z" transform="translate(-21.9 -95.08)"/><path class="cls-16" d="M569.94,205s-11,8.09-31,8.93-35.92-4.61-36.58-10.3c-.81-7,7.12-3.87,7.12-3.87s-6.87-5.38-2.66-9.51c3.5-3.43,8.19,3.15,8.19,3.15s-3-7.19,1.65-7.53c4.24-.32,5.47,5.78,8.72,4s11.77-9.14,24.91-4.2S569.94,205,569.94,205Z" transform="translate(-21.9 -95.08)"/><path class="cls-9" d="M526.19,246.35c2,4.24,7,7.25,12.78,7.25s10.8-3,12.78-7.25Z" transform="translate(-21.9 -95.08)"/><rect class="cls-8" x="497.35" y="132.17" width="7.74" height="10.56" rx="2.27" ry="2.27"/><circle class="cls-9" cx="500.16" cy="135.6" r="1.31"/><path class="cls-8" d="M555.3,237.8h0a3.88,3.88,0,0,1-3.87-3.87v-2.82a3.88,3.88,0,0,1,3.87-3.87h0a3.88,3.88,0,0,1,3.87,3.87v2.82A3.88,3.88,0,0,1,555.3,237.8Z" transform="translate(-21.9 -95.08)"/><circle class="cls-9" cx="532.34" cy="135.6" r="1.31"/><rect class="cls-16" x="496.19" y="127.21" width="10.06" height="2.82"/><rect class="cls-16" x="528.37" y="127.21" width="10.06" height="2.82"/><path class="cls-14" d="M514.39,344.85c0-14.74.4-41.74,2.88-53.91a11.23,11.23,0,0,1,2.78-5.44v49.34h39.52V285.49a11.26,11.26,0,0,1,2.78,5.44c2.48,12.17,2.87,39.17,2.88,53.91h10.94c0-15.09-.41-42.85-3.11-56.1-2.78-13.63-15.16-17.82-21.74-19.1-2.29-.44-11.52,14.55-11.52,14.55s-9.47-15-12-14.45c-6.69,1.39-18.51,5.72-21.21,19s-3.11,41-3.11,56.1Z" transform="translate(-21.9 -95.08)"/><path class="cls-16" d="M539.8,330.83l7.15-17.66-5-27.68s-2.07.49-2.07.49-1.89-.49-1.82-.49l-4.87,27.68,6.66,17.66h0Z" transform="translate(-21.9 -95.08)"/><path class="cls-16" d="M535.48,281.47c0-2.34,1.94-2.7,4.34-2.7s4.34.36,4.34,2.7-1.94,5.78-4.34,5.78S535.48,283.81,535.48,281.47Z" transform="translate(-21.9 -95.08)"/><path class="cls-26" d="M529.91,266.7a25.59,25.59,0,0,0,8.62,11.19l-4.91,7.67a39.44,39.44,0,0,1-5.23-7.78,22.28,22.28,0,0,1-2.42-7.62Z" transform="translate(-21.9 -95.08)"/><path class="cls-26" d="M549.72,266.7a25.59,25.59,0,0,1-8.62,11.19l4.91,7.67a39.44,39.44,0,0,0,5.23-7.78,22.27,22.27,0,0,0,2.42-7.62Z" transform="translate(-21.9 -95.08)"/><path class="cls-10" d="M514.82,341.28c.08-15.3.58-39.06,2.87-50.26a10.8,10.8,0,0,1,1.95-4.36v48.59h20.28V311C538.58,308.08,527,273.1,526,270.14l-.13-.37-.38.1c-7.48,2-16.9,6.93-19.32,18.79-2.5,12.28-3,36.89-3.11,52.61Z" transform="translate(-21.9 -95.08)"/><path class="cls-10" d="M560,286.66A10.8,10.8,0,0,1,562,291c2.28,11.19,2.79,35,2.87,50.26h11.78c-.07-15.72-.61-40.33-3.11-52.61-2.42-11.86-11.84-16.76-19.32-18.79l-.38-.1-.13.37c-1.06,3-12.6,37.94-13.94,40.82v24.29H560Z" transform="translate(-21.9 -95.08)"/><path class="cls-25" d="M525.85,269.78l-.38.1c-.95.26-1.93.56-2.92.92-.82,3.82-2,10.39-1.52,14,.74,5.36,13,26.8,16.19,31.43,1.11,1.63,2,2.95,2.7,4V311C538.58,308.08,527,273.1,526,270.14Z" transform="translate(-21.9 -95.08)"/><path class="cls-25" d="M553.83,269.78l.38.1c.95.26,1.93.56,2.92.92.82,3.82,2,10.39,1.52,14-.74,5.36-13,26.8-16.19,31.43-1.11,1.63-2,2.95-2.7,4V311c1.34-2.89,12.88-37.86,13.94-40.82Z" transform="translate(-21.9 -95.08)"/><rect class="cls-3" x="196.29" y="162.04" width="38.68" height="59.28"/><path class="cls-3" d="M268.37,342h-.08a5,5,0,0,1-5-5.12c0-.47.68-46.83-2.84-64.08-2.11-10.35-15.49-11.21-16.06-11.24a5,5,0,0,1,.5-10.08c.89,0,21.76,1.23,25.45,19.31,3.74,18.32,3.07,64.3,3,66.25A5,5,0,0,1,268.37,342Z" transform="translate(-21.9 -95.08)"/><path class="cls-3" d="M206.69,342a5,5,0,0,1-5-5c0-1.95-.69-47.93,3-66.25,3.69-18.07,24.56-19.26,25.45-19.31a5,5,0,0,1,.49,10.08c-.63,0-13.94.92-16.05,11.24-3.52,17.26-2.85,63.61-2.84,64.08a5,5,0,0,1-5,5.12Z" transform="translate(-21.9 -95.08)"/><path class="cls-3" d="M237.53,263h0a9.38,9.38,0,0,1-9.35-9.35V240.82a9.38,9.38,0,0,1,9.35-9.35h0a9.38,9.38,0,0,1,9.35,9.35v12.82A9.38,9.38,0,0,1,237.53,263Z" transform="translate(-21.9 -95.08)"/><circle class="cls-2" cx="247.59" cy="119.71" r="7.29"/><circle class="cls-2" cx="183.68" cy="119.71" r="7.29"/><path class="cls-2" d="M237.53,246.74h0a32,32,0,0,1-31.86-31.86V198.72c0-17.52,14.34-25.14,31.86-25.14h0c17.52,0,31.86,7.61,31.86,25.14v16.16A32,32,0,0,1,237.53,246.74Z" transform="translate(-21.9 -95.08)"/><path class="cls-2" d="M242,404.16v13.35H269.6l-14.19-13.35S241.85,404.05,242,404.16Z" transform="translate(-21.9 -95.08)"/><path class="cls-2" d="M233.11,404.16v13.35H205.47l14.19-13.35S233.22,404.05,233.11,404.16Z" transform="translate(-21.9 -95.08)"/><path class="cls-4" d="M241.66,404.17v13.35H269.6l-14.19-13.35S241.55,404.06,241.66,404.17Z" transform="translate(-21.9 -95.08)"/><path class="cls-4" d="M233.41,404.17v13.35H205.47l14.19-13.35S233.51,404.06,233.41,404.17Z" transform="translate(-21.9 -95.08)"/><path class="cls-20" d="M205.25,198.72a25.09,25.09,0,0,1,2.58-11.55l.5-1,.28,1.07a28.35,28.35,0,0,1,.77,4c.47,4.09.86,12.86-1,16.77a4.7,4.7,0,0,1-2.55,2.6l-.56.2Z" transform="translate(-21.9 -95.08)"/><path class="cls-20" d="M269.26,210.64a4.7,4.7,0,0,1-2.55-2.6c-1.88-3.91-1.49-12.68-1-16.77a28.49,28.49,0,0,1,.77-4l.28-1.06.5,1a25.12,25.12,0,0,1,2.58,11.55v12.11Z" transform="translate(-21.9 -95.08)"/><path class="cls-20" d="M202.66,199.3c0-18.36,16.51-27.47,34.88-27.47h0c15.22,0,27,6,31,18.36-.41,1.6-7.17,4.75-11.91,6.45a18.22,18.22,0,0,0,1.68-9.81c-2.66,5.47-10.37,10.79-19.06,12.75,1-4.34,2.38-8,2.1-11.63-4.9,5.47-11.63,10.65-24.24,13.45a85.21,85.21,0,0,0,6.31-12.33C209,199.16,202.66,199.3,202.66,199.3Z" transform="translate(-21.9 -95.08)"/><path class="cls-7" d="M223.66,228.8c2,4.24,7,7.25,12.78,7.25s10.8-3,12.78-7.25" transform="translate(-21.9 -95.08)"/><path class="cls-8" d="M220.6,220.26h0a3.88,3.88,0,0,1-3.87-3.87v-2.82a3.88,3.88,0,0,1,3.87-3.87h0a3.88,3.88,0,0,1,3.87,3.87v2.82A3.88,3.88,0,0,1,220.6,220.26Z" transform="translate(-21.9 -95.08)"/><circle class="cls-9" cx="197.64" cy="118.06" r="1.31"/><path class="cls-8" d="M252.78,220.26h0a3.88,3.88,0,0,1-3.87-3.87v-2.82a3.88,3.88,0,0,1,3.87-3.87h0a3.88,3.88,0,0,1,3.87,3.87v2.82A3.88,3.88,0,0,1,252.78,220.26Z" transform="translate(-21.9 -95.08)"/><circle class="cls-9" cx="229.82" cy="118.06" r="1.31"/><rect class="cls-20" x="193.67" y="109.66" width="10.06" height="2.82"/><rect class="cls-20" x="225.85" y="109.66" width="10.06" height="2.82"/><path class="cls-27" d="M233.59,409.59l2.49-74.73c.32,0,.65,0,1,0h1c.3,0,.59,0,.88,0l2.58,74.78,14.45-5,1.27-87.21c0-.37,0-.75.06-1.13H217.74l1.39,88.28Z" transform="translate(-21.9 -95.08)"/><path class="cls-14" d="M212.11,327.11c0-14.74.4-41.74,2.88-53.91a11.23,11.23,0,0,1,2.78-5.44v49.34h39.52V267.76a11.26,11.26,0,0,1,2.78,5.44c2.48,12.17,2.87,39.17,2.88,53.91H273.9c0-15.09-.41-42.85-3.11-56.1-2.78-13.63-15.16-17.82-21.74-19.1-2.29-.44-11.52,14.55-11.52,14.55s-9.47-15-12-14.45c-6.69,1.39-18.51,5.72-21.21,19s-3.11,41-3.11,56.1Z" transform="translate(-21.9 -95.08)"/><path class="cls-22" d="M212.13,322.07c.1-15.23.64-38,2.86-48.87a11.23,11.23,0,0,1,2.78-5.44v49.34h39.52V267.76a11.26,11.26,0,0,1,2.78,5.44c2.22,10.89,2.76,33.64,2.86,48.87h10.94c-.1-15.62-.67-39.16-3.1-51.05-2.48-12.15-12.58-16.8-19.4-18.57-4.14,7.4-13.85,20.75-13.85,20.75s-12.85-18.47-13.91-20.73c-6.82,1.78-16.87,6.44-19.34,18.55-2.43,11.89-3,35.43-3.1,51.05Z" transform="translate(-21.9 -95.08)"/><path class="cls-28" d="M227.63,249a25.59,25.59,0,0,0,8.62,11.19l-4.91,7.67a39.43,39.43,0,0,1-5.23-7.78,22.28,22.28,0,0,1-2.42-7.62Z" transform="translate(-21.9 -95.08)"/><path class="cls-28" d="M247.44,249a25.59,25.59,0,0,1-8.62,11.19l4.91,7.67a39.44,39.44,0,0,0,5.23-7.78,22.28,22.28,0,0,0,2.42-7.62Z" transform="translate(-21.9 -95.08)"/><rect class="cls-3" x="231.78" y="284.77" width="38.68" height="59.28"/><rect class="cls-3" x="231.78" y="316.72" width="38.68" height="45.41" rx="11.08" ry="11.08"/><path class="cls-3" d="M284.17,538.35a6.73,6.73,0,0,1-6.73-6.73l-3.08-86.26c0-3.71,6.09-6.87,9.8-6.87s8.13-4.42,8.13-.7l-1.41,93.83A6.73,6.73,0,0,1,284.17,538.35Z" transform="translate(-21.9 -95.08)"/><path class="cls-3" d="M261.87,538.35a6.73,6.73,0,0,1-6.73-6.73l-1.52-94c0-3.71,4.53.84,8.25.84s9.69,3.29,9.69,7l-3,86.12A6.73,6.73,0,0,1,261.87,538.35Z" transform="translate(-21.9 -95.08)"/><path class="cls-3" d="M303.86,464.77h-.08a5,5,0,0,1-5-5.12c0-.47.68-46.83-2.84-64.08-2.11-10.35-15.49-11.21-16.06-11.24a5,5,0,0,1,.5-10.08c.89,0,21.76,1.23,25.45,19.31,3.74,18.32,3.07,64.3,3,66.25A5,5,0,0,1,303.86,464.77Z" transform="translate(-21.9 -95.08)"/><path class="cls-3" d="M242.18,464.77a5,5,0,0,1-5-5c0-1.95-.69-47.93,3-66.25,3.69-18.07,24.56-19.26,25.45-19.31a5,5,0,0,1,.49,10.08c-.63,0-13.94.92-16.05,11.24-3.52,17.26-2.85,63.62-2.84,64.08a5,5,0,0,1-5,5.12Z" transform="translate(-21.9 -95.08)"/><path class="cls-3" d="M273,385.73h0a9.38,9.38,0,0,1-9.35-9.35V363.55A9.38,9.38,0,0,1,273,354.2h0a9.38,9.38,0,0,1,9.35,9.35v12.82A9.38,9.38,0,0,1,273,385.73Z" transform="translate(-21.9 -95.08)"/><circle class="cls-2" cx="283.08" cy="242.44" r="7.29"/><circle class="cls-2" cx="219.17" cy="242.44" r="7.29"/><path class="cls-2" d="M273,369.47h0a32,32,0,0,1-31.86-31.86V321.45c0-17.52,14.34-25.14,31.86-25.14h0c17.52,0,31.86,7.61,31.86,25.14v16.16A32,32,0,0,1,273,369.47Z" transform="translate(-21.9 -95.08)"/><path class="cls-2" d="M277.44,526.89v13.35h27.64l-14.19-13.35S277.34,526.79,277.44,526.89Z" transform="translate(-21.9 -95.08)"/><path class="cls-2" d="M268.6,526.89v13.35H241l14.19-13.35S268.7,526.79,268.6,526.89Z" transform="translate(-21.9 -95.08)"/><path class="cls-4" d="M277.14,526.9v13.35h27.94l-14.19-13.35S277,526.79,277.14,526.9Z" transform="translate(-21.9 -95.08)"/><path class="cls-4" d="M268.9,526.9v13.35H241l14.19-13.35S269,526.79,268.9,526.9Z" transform="translate(-21.9 -95.08)"/><path class="cls-29" d="M269.08,532.32l2.49-74.73c.32,0,.65,0,1,0h1c.3,0,.59,0,.88,0L277,532.37l14.45-5,1.27-87.21c0-.37,0-.75.06-1.13H253.23l1.39,88.28Z" transform="translate(-21.9 -95.08)"/><path class="cls-14" d="M247.42,449.29c0-14.74.4-41.74,2.88-53.91a11.23,11.23,0,0,1,2.78-5.44v49.34h39.52V389.93a11.26,11.26,0,0,1,2.78,5.44c2.48,12.17,2.87,39.17,2.88,53.91h10.94c0-15.09-.41-42.85-3.11-56.1-2.78-13.63-15.16-17.82-21.74-19.1-2.29-.44-11.52,14.55-11.52,14.55s-9.47-15-12-14.45c-6.69,1.39-18.51,5.72-21.21,19s-3.11,41-3.11,56.1Z" transform="translate(-21.9 -95.08)"/><path class="cls-22" d="M272.83,435.27,280,417.61l-5-27.68s-2.07.49-2.07.49-1.89-.49-1.82-.49l-4.87,27.68,6.65,17.66h0Z" transform="translate(-21.9 -95.08)"/><path class="cls-22" d="M268.51,385.91c0-2.34,1.94-2.7,4.34-2.7s4.34.36,4.34,2.7-1.94,5.78-4.34,5.78S268.51,388.25,268.51,385.91Z" transform="translate(-21.9 -95.08)"/><path class="cls-26" d="M262.94,371.14a25.59,25.59,0,0,0,8.62,11.19L266.65,390a39.44,39.44,0,0,1-5.23-7.78,22.28,22.28,0,0,1-2.42-7.62Z" transform="translate(-21.9 -95.08)"/><path class="cls-26" d="M282.75,371.14a25.59,25.59,0,0,1-8.62,11.19L279,390a39.44,39.44,0,0,0,5.23-7.78,22.28,22.28,0,0,0,2.42-7.62Z" transform="translate(-21.9 -95.08)"/><path class="cls-4" d="M247.85,445.71c.08-15.3.58-39.06,2.87-50.26a10.8,10.8,0,0,1,1.95-4.36v48.59h20.28V415.4c-1.34-2.89-12.88-37.86-13.94-40.82l-.13-.37-.38.1c-7.48,2-16.9,6.93-19.32,18.79-2.5,12.28-3,36.89-3.11,52.61Z" transform="translate(-21.9 -95.08)"/><path class="cls-4" d="M293.07,391.09a10.8,10.8,0,0,1,1.95,4.36c2.28,11.19,2.79,35,2.87,50.26h11.78c-.07-15.72-.61-40.33-3.11-52.61-2.42-11.86-11.84-16.76-19.32-18.79l-.38-.1-.13.37c-1.06,3-12.6,37.94-13.94,40.82v24.29h20.28Z" transform="translate(-21.9 -95.08)"/><path class="cls-29" d="M258.88,374.21l-.38.1c-.95.26-1.93.56-2.92.92-.82,3.82-2,10.39-1.52,14,.74,5.36,13,26.8,16.19,31.43,1.11,1.63,2,2.95,2.7,4v-9.3c-1.34-2.89-12.88-37.86-13.94-40.82Z" transform="translate(-21.9 -95.08)"/><path class="cls-29" d="M286.86,374.21l.38.1c.95.26,1.93.56,2.92.92.82,3.82,2,10.39,1.52,14-.74,5.36-13,26.8-16.19,31.43-1.11,1.63-2,2.95-2.7,4v-9.3c1.34-2.89,12.88-37.86,13.94-40.82Z" transform="translate(-21.9 -95.08)"/><path class="cls-7" d="M258.86,350.88c2,4.24,7,7.25,12.78,7.25s10.8-3,12.78-7.25" transform="translate(-21.9 -95.08)"/><path class="cls-8" d="M255.79,342.33h0a3.88,3.88,0,0,1-3.87-3.87v-2.82a3.88,3.88,0,0,1,3.87-3.87h0a3.88,3.88,0,0,1,3.87,3.87v2.82A3.88,3.88,0,0,1,255.79,342.33Z" transform="translate(-21.9 -95.08)"/><circle class="cls-9" cx="232.83" cy="240.13" r="1.31"/><path class="cls-8" d="M288,342.33h0a3.88,3.88,0,0,1-3.87-3.87v-2.82a3.88,3.88,0,0,1,3.87-3.87h0a3.88,3.88,0,0,1,3.87,3.87v2.82A3.88,3.88,0,0,1,288,342.33Z" transform="translate(-21.9 -95.08)"/><circle class="cls-9" cx="265.01" cy="240.13" r="1.31"/><rect class="cls-16" x="228.87" y="230.13" width="10.06" height="2.82"/><rect class="cls-16" x="261.04" y="230.13" width="10.06" height="2.82"/><path class="cls-16" d="M241.14,333.2s6-2.64,6.17-9.05-3.1-7.88-1.16-14.82a14.12,14.12,0,0,1,4.2-6.94s-7.36-1.37-10.93,3S236.12,319.57,238,325C239.06,328.24,241.14,333.2,241.14,333.2Z" transform="translate(-21.9 -95.08)"/><path class="cls-16" d="M304.93,333.2s-6-2.64-6.17-9.05,3.1-7.88,1.16-14.82a14.12,14.12,0,0,0-4.2-6.94s7.36-1.37,10.93,3S310,319.57,308.11,325C307,328.24,304.93,333.2,304.93,333.2Z" transform="translate(-21.9 -95.08)"/><rect class="cls-2" x="19.9" y="248.48" width="38.68" height="59.28"/><rect class="cls-2" x="19.9" y="280.43" width="38.68" height="45.41" rx="11.08" ry="11.08"/><path class="cls-2" d="M72.29,502.06a6.73,6.73,0,0,1-6.73-6.73l-3.08-86.26c0-3.71,6.09-6.87,9.8-6.87s8.13-4.42,8.13-.7L79,495.33A6.73,6.73,0,0,1,72.29,502.06Z" transform="translate(-21.9 -95.08)"/><path class="cls-2" d="M50,502.06a6.73,6.73,0,0,1-6.73-6.73l-1.52-94c0-3.71,4.53.84,8.25.84s9.69,3.29,9.69,7l-3,86.12A6.73,6.73,0,0,1,50,502.06Z" transform="translate(-21.9 -95.08)"/><path class="cls-2" d="M92,428.48H91.9a5,5,0,0,1-5-5.12c0-.47.68-46.83-2.84-64.08C82,348.92,68.6,348.07,68,348a5,5,0,0,1,.5-10.08c.89,0,21.76,1.23,25.45,19.31,3.74,18.32,3.07,64.3,3,66.25A5,5,0,0,1,92,428.48Z" transform="translate(-21.9 -95.08)"/><path class="cls-2" d="M30.3,428.48a5,5,0,0,1-5-5c0-1.95-.69-47.93,3-66.25C32,339.19,52.86,338,53.75,338A5,5,0,0,1,54.24,348c-.63,0-13.94.92-16.05,11.24-3.52,17.26-2.85,63.62-2.84,64.08a5,5,0,0,1-5,5.12Z" transform="translate(-21.9 -95.08)"/><path class="cls-3" d="M61.14,349.44h0a9.38,9.38,0,0,1-9.35-9.35V327.26a9.38,9.38,0,0,1,9.35-9.35h0a9.38,9.38,0,0,1,9.35,9.35v12.82A9.38,9.38,0,0,1,61.14,349.44Z" transform="translate(-21.9 -95.08)"/><circle class="cls-3" cx="71.2" cy="206.16" r="7.29"/><circle class="cls-3" cx="7.29" cy="206.16" r="7.29"/><path class="cls-2" d="M61.14,333.19h0a32,32,0,0,1-31.86-31.86V285.17c0-17.52,14.34-25.14,31.86-25.14h0C78.66,260,93,267.64,93,285.17v16.16A32,32,0,0,1,61.14,333.19Z" transform="translate(-21.9 -95.08)"/><path class="cls-2" d="M65.56,490.6V504H93.2L79,490.6S65.46,490.5,65.56,490.6Z" transform="translate(-21.9 -95.08)"/><path class="cls-2" d="M56.72,490.6V504H29.07L43.26,490.6S56.82,490.5,56.72,490.6Z" transform="translate(-21.9 -95.08)"/><circle class="cls-2" cx="71.2" cy="206.16" r="7.29"/><circle class="cls-2" cx="7.29" cy="206.16" r="7.29"/><path class="cls-2" d="M61.14,333.19h0a32,32,0,0,1-31.86-31.86V285.17c0-17.52,14.34-25.14,31.86-25.14h0C78.66,260,93,267.64,93,285.17v16.16A32,32,0,0,1,61.14,333.19Z" transform="translate(-21.9 -95.08)"/><path class="cls-22" d="M65.26,490.61V504H93.2L79,490.6S65.16,490.51,65.26,490.61Z" transform="translate(-21.9 -95.08)"/><path class="cls-22" d="M57,490.61V504H29.07L43.26,490.6S57.12,490.51,57,490.61Z" transform="translate(-21.9 -95.08)"/><path class="cls-4" d="M57.2,496l2.49-74.73c.32,0,.65,0,1,0h1c.3,0,.59,0,.88,0l2.58,74.78,14.45-5,1.27-87.21c0-.37,0-.75.06-1.12H41.35L42.73,491Z" transform="translate(-21.9 -95.08)"/><path class="cls-22" d="M94.39,357.18c-3.13-15.34-18.41-18.72-23.9-19.45v2.36a9.35,9.35,0,0,1-18.71,0v-2.36c-5.49.73-20.77,4.11-23.9,19.45-2.7,13.25-3.11,41-3.11,56.1H35.71c0-14.74.4-41.74,2.88-53.91a11.24,11.24,0,0,1,2.78-5.44v49.34H80.9V353.92a11.26,11.26,0,0,1,2.78,5.44c2.48,12.17,2.87,39.17,2.88,53.91H97.51C97.5,398.18,97.09,370.43,94.39,357.18Z" transform="translate(-21.9 -95.08)"/><path class="cls-14" d="M94.8,357.1c-2.9-14.24-15.87-18.36-22.73-19.55v66.13h9.25V355.09a10.82,10.82,0,0,1,1.95,4.36c2.47,12.11,2.86,38.92,2.88,53.83v.42H97.93v-.42C97.92,398,97.5,370.35,94.8,357.1Z" transform="translate(-21.9 -95.08)"/><path class="cls-14" d="M50.21,403.68V337.55c-6.86,1.19-19.83,5.31-22.73,19.55-2.7,13.25-3.12,40.89-3.12,56.18v.42H36.14v-.42c0-14.9.4-41.71,2.88-53.83A10.8,10.8,0,0,1,41,355.08v48.59Z" transform="translate(-21.9 -95.08)"/><path class="cls-23" d="M29.21,300.46s3.5-4.48,5.89-13.59-.84-19.62-.84-19.62-3.5.77-5.47,9.53C25.42,291.77,29.21,300.46,29.21,300.46Z" transform="translate(-21.9 -95.08)"/><path class="cls-23" d="M93,300.46s-3.5-4.48-5.89-13.59.84-19.62.84-19.62,3.5.77,5.47,9.53C96.81,291.77,93,300.46,93,300.46Z" transform="translate(-21.9 -95.08)"/><path class="cls-23" d="M88.63,268.79S77,280.56,56.26,279.72s-25.93-11.35-26.91-15.84.42-9.81.42-9.81,4.48,6.45,23.54,3.64,25.37-1.54,30.55,1.68S88.63,268.79,88.63,268.79Z" transform="translate(-21.9 -95.08)"/><path class="cls-7" d="M47.31,314.89c2,4.24,7,7.25,12.78,7.25s10.8-3,12.78-7.25" transform="translate(-21.9 -95.08)"/><path class="cls-8" d="M44.25,306.35h0a3.88,3.88,0,0,1-3.87-3.87v-2.82a3.88,3.88,0,0,1,3.87-3.87h0a3.88,3.88,0,0,1,3.87,3.87v2.82A3.88,3.88,0,0,1,44.25,306.35Z" transform="translate(-21.9 -95.08)"/><circle class="cls-9" cx="21.29" cy="204.15" r="1.31"/><path class="cls-8" d="M76.42,306.35h0a3.88,3.88,0,0,1-3.87-3.87v-2.82a3.88,3.88,0,0,1,3.87-3.87h0a3.88,3.88,0,0,1,3.87,3.87v2.82A3.88,3.88,0,0,1,76.42,306.35Z" transform="translate(-21.9 -95.08)"/><circle class="cls-9" cx="53.47" cy="204.15" r="1.31"/><rect class="cls-23" x="17.32" y="194.14" width="10.06" height="2.82"/><rect class="cls-23" x="49.5" y="194.14" width="10.06" height="2.82"/><path class="cls-10" d="M42.34,410.82a31.68,31.68,0,0,1,.48,11.3c-.84,6.45-2.38,9.25-2.38,9.25a6.43,6.43,0,0,0,4.27-.08c2.76-.92,3.31-2,3.31-2a14.48,14.48,0,0,1-1.08,3.53,19.91,19.91,0,0,1-2.05,3.43,7.18,7.18,0,0,0,4.84,0A10.38,10.38,0,0,0,54,433.61a9.31,9.31,0,0,1-1.47,3.54c-.38.63-1.19,1.65-1.19,1.65s3.64,1.26,9.39-.14a41.29,41.29,0,0,0,10.37-4.2Z" transform="translate(-21.9 -95.08)"/><path class="cls-10" d="M105.4,410.82a31.69,31.69,0,0,0-.48,11.3c.84,6.45,2.38,9.25,2.38,9.25a6.43,6.43,0,0,1-4.27-.08c-2.76-.92-3.31-2-3.31-2a14.48,14.48,0,0,0,1.08,3.53,19.91,19.91,0,0,0,2.05,3.43,7.18,7.18,0,0,1-4.84,0,10.38,10.38,0,0,1-4.31-2.63,9.31,9.31,0,0,0,1.47,3.54c.38.63,1.19,1.65,1.19,1.65s-3.64,1.26-9.39-.14a41.29,41.29,0,0,1-10.37-4.2Z" transform="translate(-21.9 -95.08)"/><rect class="cls-2" x="32.64" y="353.18" width="38.68" height="59.28"/><rect class="cls-2" x="32.64" y="385.13" width="38.68" height="45.41" rx="11.08" ry="11.08"/><path class="cls-2" d="M85,606.76A6.73,6.73,0,0,1,78.3,600l-3.08-86.26c0-3.71,6.09-6.87,9.8-6.87s8.13-4.42,8.13-.7L91.75,600A6.73,6.73,0,0,1,85,606.76Z" transform="translate(-21.9 -95.08)"/><path class="cls-2" d="M62.73,606.76A6.73,6.73,0,0,1,56,600l-1.52-94c0-3.71,4.53.84,8.25.84s9.69,3.29,9.69,7l-3,86.12A6.73,6.73,0,0,1,62.73,606.76Z" transform="translate(-21.9 -95.08)"/><path class="cls-2" d="M104.71,533.19h-.08a5,5,0,0,1-5-5.12c0-.47.68-46.83-2.84-64.08-2.11-10.35-15.49-11.21-16.06-11.24a5,5,0,0,1,.5-10.08c.89,0,21.76,1.23,25.45,19.31,3.74,18.32,3.07,64.3,3,66.25A5,5,0,0,1,104.71,533.19Z" transform="translate(-21.9 -95.08)"/><path class="cls-2" d="M43,533.19a5,5,0,0,1-5-5c0-1.95-.69-47.93,3-66.25,3.69-18.07,24.56-19.26,25.45-19.31A5,5,0,0,1,67,452.74c-.63,0-13.94.92-16.05,11.24-3.52,17.26-2.85,63.61-2.84,64.08a5,5,0,0,1-5,5.12Z" transform="translate(-21.9 -95.08)"/><path class="cls-3" d="M73.87,454.15h0a9.38,9.38,0,0,1-9.35-9.35V432a9.38,9.38,0,0,1,9.35-9.35h0A9.38,9.38,0,0,1,83.23,432v12.82A9.38,9.38,0,0,1,73.87,454.15Z" transform="translate(-21.9 -95.08)"/><circle class="cls-2" cx="83.93" cy="310.86" r="7.29"/><circle class="cls-2" cx="20.02" cy="310.86" r="7.29"/><path class="cls-2" d="M73.87,437.89h0A32,32,0,0,1,42,406V389.87c0-17.52,14.34-25.14,31.86-25.14h0c17.52,0,31.86,7.61,31.86,25.14V406A32,32,0,0,1,73.87,437.89Z" transform="translate(-21.9 -95.08)"/><path class="cls-2" d="M78.3,595.31v13.35h27.64L91.75,595.31S78.19,595.2,78.3,595.31Z" transform="translate(-21.9 -95.08)"/><path class="cls-2" d="M69.45,595.31v13.35H41.81L56,595.31S69.56,595.2,69.45,595.31Z" transform="translate(-21.9 -95.08)"/><path class="cls-10" d="M41.54,389.87a25.09,25.09,0,0,1,2.58-11.55l.5-1,.28,1.07a28.34,28.34,0,0,1,.77,4c.47,4.09.86,12.86-1,16.77a4.7,4.7,0,0,1-2.55,2.6l-.56.2Z" transform="translate(-21.9 -95.08)"/><path class="cls-10" d="M105.55,401.78a4.7,4.7,0,0,1-2.55-2.6c-1.88-3.91-1.49-12.68-1-16.77a28.49,28.49,0,0,1,.77-4l.28-1.06.5,1a25.12,25.12,0,0,1,2.58,11.55V402Z" transform="translate(-21.9 -95.08)"/><path class="cls-10" d="M39,390.45C39,372.08,55.46,363,73.83,363h0c15.22,0,27,6,31,18.36-.41,1.6-7.17,4.75-11.91,6.45A18.22,18.22,0,0,0,94.59,378c-2.66,5.47-10.37,10.79-19.06,12.75,1-4.34,2.38-8,2.1-11.63-4.9,5.47-11.63,10.65-24.24,13.45a85.21,85.21,0,0,0,6.31-12.33C45.26,390.31,39,390.45,39,390.45Z" transform="translate(-21.9 -95.08)"/><path class="cls-10" d="M78,595.31v13.35h27.94L91.75,595.31S77.89,595.21,78,595.31Z" transform="translate(-21.9 -95.08)"/><path class="cls-10" d="M69.75,595.31v13.35H41.81L56,595.31S69.86,595.21,69.75,595.31Z" transform="translate(-21.9 -95.08)"/><path class="cls-14" d="M69.93,600.73,72.42,526c.32,0,.65,0,1,0h1c.3,0,.59,0,.88,0l2.58,74.78,14.45-5,1.27-87.21c0-.37,0-.75.06-1.13H54.08l1.39,88.28Z" transform="translate(-21.9 -95.08)"/><path class="cls-30" d="M48.45,518c0-14.74.4-41.74,2.88-53.91a11.23,11.23,0,0,1,2.78-5.44V508H93.64V458.62a11.26,11.26,0,0,1,2.78,5.44c2.48,12.17,2.87,39.17,2.88,53.91h10.94c0-15.09-.41-42.85-3.11-56.1-2.78-13.63-15.16-17.82-21.74-19.1-2.29-.44-11.52,14.55-11.52,14.55s-9.47-15-12-14.45c-6.69,1.39-18.51,5.72-21.21,19s-3.11,41-3.11,56.1Z" transform="translate(-21.9 -95.08)"/><path class="cls-5" d="M73.86,504,81,486.31l-5-27.68s-2.07.49-2.07.49-1.89-.49-1.82-.49L67.2,486.31,73.85,504h0Z" transform="translate(-21.9 -95.08)"/><path class="cls-5" d="M69.54,454.6c0-2.34,1.94-2.7,4.34-2.7s4.34.36,4.34,2.7-1.94,5.78-4.34,5.78S69.54,456.94,69.54,454.6Z" transform="translate(-21.9 -95.08)"/><path class="cls-4" d="M64,439.83A25.59,25.59,0,0,0,72.59,451l-4.91,7.67a39.44,39.44,0,0,1-5.23-7.78A22.28,22.28,0,0,1,60,443.3Z" transform="translate(-21.9 -95.08)"/><path class="cls-4" d="M83.78,439.83A25.59,25.59,0,0,1,75.16,451l4.91,7.67a39.44,39.44,0,0,0,5.23-7.78,22.28,22.28,0,0,0,2.42-7.62Z" transform="translate(-21.9 -95.08)"/><path class="cls-9" d="M60.06,419.12c2,4.24,7,7.25,12.78,7.25s10.8-3,12.78-7.25Z" transform="translate(-21.9 -95.08)"/><path class="cls-8" d="M57,410.57h0a3.88,3.88,0,0,1-3.87-3.87v-2.82A3.88,3.88,0,0,1,57,400h0a3.88,3.88,0,0,1,3.87,3.87v2.82A3.88,3.88,0,0,1,57,410.57Z" transform="translate(-21.9 -95.08)"/><circle class="cls-9" cx="34.04" cy="308.37" r="1.31"/><path class="cls-8" d="M89.18,410.57h0a3.88,3.88,0,0,1-3.87-3.87v-2.82A3.88,3.88,0,0,1,89.18,400h0A3.88,3.88,0,0,1,93,403.89v2.82A3.88,3.88,0,0,1,89.18,410.57Z" transform="translate(-21.9 -95.08)"/><circle class="cls-9" cx="66.22" cy="308.37" r="1.31"/><rect class="cls-10" x="30.07" y="299.98" width="10.06" height="2.82"/><rect class="cls-10" x="62.25" y="299.98" width="10.06" height="2.82"/><path class="cls-23" d="M689.91,327.57a31.68,31.68,0,0,1,.48,11.3c-.84,6.45-2.38,9.25-2.38,9.25a6.43,6.43,0,0,0,4.27-.08c2.76-.92,3.31-2,3.31-2a14.48,14.48,0,0,1-1.08,3.53,19.9,19.9,0,0,1-2.05,3.43,7.18,7.18,0,0,0,4.84,0,10.38,10.38,0,0,0,4.31-2.63,9.31,9.31,0,0,1-1.47,3.54c-.38.63-1.19,1.65-1.19,1.65s3.64,1.26,9.39-.14a41.29,41.29,0,0,0,10.37-4.2Z" transform="translate(-21.9 -95.08)"/><path class="cls-23" d="M753,327.57a31.69,31.69,0,0,0-.48,11.3c.84,6.45,2.38,9.25,2.38,9.25a6.43,6.43,0,0,1-4.27-.08c-2.76-.92-3.31-2-3.31-2a14.49,14.49,0,0,0,1.08,3.53,19.91,19.91,0,0,0,2.05,3.43,7.18,7.18,0,0,1-4.84,0,10.38,10.38,0,0,1-4.31-2.63,9.31,9.31,0,0,0,1.47,3.54c.38.63,1.19,1.65,1.19,1.65s-3.64,1.26-9.39-.14a41.29,41.29,0,0,1-10.37-4.2Z" transform="translate(-21.9 -95.08)"/><rect class="cls-2" x="680.2" y="269.93" width="38.68" height="59.28"/><rect class="cls-2" x="680.2" y="301.88" width="38.68" height="45.41" rx="11.08" ry="11.08"/><path class="cls-2" d="M732.59,523.51a6.73,6.73,0,0,1-6.73-6.73l-3.08-86.26c0-3.71,6.09-6.87,9.8-6.87s8.14-4.42,8.14-.7l-1.41,93.83A6.73,6.73,0,0,1,732.59,523.51Z" transform="translate(-21.9 -95.08)"/><path class="cls-2" d="M710.29,523.51a6.73,6.73,0,0,1-6.73-6.73l-1.52-94c0-3.71,4.53.84,8.25.84s9.69,3.29,9.69,7l-3,86.12A6.73,6.73,0,0,1,710.29,523.51Z" transform="translate(-21.9 -95.08)"/><path class="cls-2" d="M752.28,449.93h-.08a5,5,0,0,1-5-5.12c0-.47.68-46.83-2.84-64.08-2.11-10.35-15.49-11.21-16.06-11.24a5,5,0,0,1,.5-10.08c.89,0,21.76,1.23,25.45,19.31,3.74,18.32,3.07,64.3,3,66.25A5,5,0,0,1,752.28,449.93Z" transform="translate(-21.9 -95.08)"/><path class="cls-2" d="M690.6,449.93a5,5,0,0,1-5-5c0-1.95-.69-47.93,3-66.25,3.69-18.07,24.56-19.26,25.45-19.31a5,5,0,0,1,.49,10.08c-.63,0-13.94.92-16.05,11.24-3.52,17.26-2.85,63.61-2.84,64.08a5,5,0,0,1-5,5.12Z" transform="translate(-21.9 -95.08)"/><path class="cls-3" d="M721.44,370.89h0a9.38,9.38,0,0,1-9.35-9.35V348.71a9.38,9.38,0,0,1,9.35-9.35h0a9.38,9.38,0,0,1,9.35,9.35v12.82A9.38,9.38,0,0,1,721.44,370.89Z" transform="translate(-21.9 -95.08)"/><circle class="cls-2" cx="731.5" cy="227.6" r="7.29"/><circle class="cls-2" cx="667.59" cy="227.6" r="7.29"/><path class="cls-2" d="M721.44,354.63h0a32,32,0,0,1-31.86-31.86V306.61c0-17.52,14.34-25.14,31.86-25.14h0c17.52,0,31.86,7.61,31.86,25.14v16.16A32,32,0,0,1,721.44,354.63Z" transform="translate(-21.9 -95.08)"/><path class="cls-2" d="M725.86,512V525.4H753.5L739.32,512S725.76,511.94,725.86,512Z" transform="translate(-21.9 -95.08)"/><path class="cls-2" d="M717,512V525.4H689.37L703.56,512S717.12,511.94,717,512Z" transform="translate(-21.9 -95.08)"/><path class="cls-23" d="M718.92,474.88,720,442.74c.32,0,.65,0,1,0h1c.3,0,.59,0,.88,0l1.11,32.13h16.47l.72-49.54c0-.37,0-.75.06-1.13H701.65l.8,50.66Z" transform="translate(-21.9 -95.08)"/><path class="cls-23" d="M689.11,306.61a25.09,25.09,0,0,1,2.58-11.55l.5-1,.28,1.07a28.34,28.34,0,0,1,.77,4c.47,4.09.86,12.86-1,16.77a4.7,4.7,0,0,1-2.55,2.6l-.56.2Z" transform="translate(-21.9 -95.08)"/><path class="cls-23" d="M753.12,318.53a4.7,4.7,0,0,1-2.55-2.6c-1.88-3.91-1.49-12.68-1-16.77a28.46,28.46,0,0,1,.77-4l.28-1.06.5,1a25.12,25.12,0,0,1,2.58,11.55v12.11Z" transform="translate(-21.9 -95.08)"/><path class="cls-23" d="M686.52,307.19c0-18.36,16.51-27.47,34.88-27.47h0c15.22,0,27,6,31,18.36-.41,1.6-7.17,4.75-11.91,6.45a18.23,18.23,0,0,0,1.68-9.81c-2.66,5.47-10.37,10.79-19.06,12.75,1-4.34,2.38-8,2.1-11.63-4.91,5.47-11.63,10.65-24.25,13.45A85.21,85.21,0,0,0,707.26,297C692.82,307.05,686.52,307.19,686.52,307.19Z" transform="translate(-21.9 -95.08)"/><path class="cls-10" d="M725.56,512.06v13.35H753.5L739.32,512S725.46,512,725.56,512.06Z" transform="translate(-21.9 -95.08)"/><path class="cls-10" d="M717.32,512.06v13.35H689.37L703.56,512S717.42,512,717.32,512.06Z" transform="translate(-21.9 -95.08)"/><path class="cls-14" d="M696,434.72c0-14.74.4-41.74,2.88-53.91a11.23,11.23,0,0,1,2.78-5.44V424.7H741.2V375.37a11.26,11.26,0,0,1,2.78,5.44c2.48,12.17,2.87,39.17,2.88,53.91H757.8c0-15.09-.41-42.85-3.11-56.1C751.91,365,739.53,360.8,733,359.53c-2.29-.44-11.52,14.55-11.52,14.55s-9.47-15-12-14.45c-6.69,1.39-18.51,5.72-21.21,19s-3.11,41-3.11,56.1Z" transform="translate(-21.9 -95.08)"/><path class="cls-31" d="M721.42,420.71l7.14-17.66-5-27.68s-2.07.49-2.07.49-1.89-.49-1.82-.49l-4.87,27.68,6.65,17.66h0Z" transform="translate(-21.9 -95.08)"/><path class="cls-31" d="M717.1,371.34c0-2.34,1.94-2.7,4.34-2.7s4.34.36,4.34,2.7-1.94,5.78-4.34,5.78S717.1,373.69,717.1,371.34Z" transform="translate(-21.9 -95.08)"/><path class="cls-26" d="M711.53,356.58a25.59,25.59,0,0,0,8.62,11.19l-4.91,7.67a39.44,39.44,0,0,1-5.23-7.78,22.28,22.28,0,0,1-2.42-7.62Z" transform="translate(-21.9 -95.08)"/><path class="cls-26" d="M731.35,356.58a25.59,25.59,0,0,1-8.62,11.19l4.91,7.67a39.44,39.44,0,0,0,5.23-7.78,22.28,22.28,0,0,0,2.42-7.62Z" transform="translate(-21.9 -95.08)"/><path class="cls-10" d="M696.45,431.15c.08-15.3.58-39.06,2.87-50.26a10.8,10.8,0,0,1,1.95-4.36v48.59h20.28V400.84C720.2,398,708.66,363,707.6,360l-.13-.37-.38.1c-7.48,2-16.9,6.93-19.32,18.79-2.5,12.28-3,36.89-3.11,52.61Z" transform="translate(-21.9 -95.08)"/><path class="cls-10" d="M741.66,376.53a10.8,10.8,0,0,1,1.95,4.36c2.28,11.19,2.79,35,2.87,50.26h11.78c-.07-15.72-.61-40.33-3.11-52.61-2.42-11.86-11.84-16.76-19.32-18.79l-.38-.1-.13.37c-1.06,3-12.6,37.94-13.94,40.82v24.29h20.28Z" transform="translate(-21.9 -95.08)"/><path class="cls-25" d="M707.47,359.65l-.38.1c-.95.26-1.93.56-2.92.92-.82,3.82-2,10.39-1.52,14,.74,5.36,13,26.8,16.19,31.43,1.11,1.63,2,2.95,2.7,4v-9.3C720.2,398,708.66,363,707.6,360Z" transform="translate(-21.9 -95.08)"/><path class="cls-25" d="M735.45,359.65l.38.1c.95.26,1.93.56,2.92.92.82,3.82,2,10.39,1.52,14-.74,5.36-13,26.8-16.19,31.43-1.11,1.63-2,2.95-2.7,4v-9.3C722.71,398,734.26,363,735.32,360Z" transform="translate(-21.9 -95.08)"/><path class="cls-9" d="M708.14,337c2,4.24,7,7.25,12.78,7.25s10.8-3,12.78-7.25Z" transform="translate(-21.9 -95.08)"/><path class="cls-8" d="M705.08,328.5h0a3.88,3.88,0,0,1-3.87-3.87v-2.82a3.88,3.88,0,0,1,3.87-3.87h0a3.88,3.88,0,0,1,3.87,3.87v2.82A3.88,3.88,0,0,1,705.08,328.5Z" transform="translate(-21.9 -95.08)"/><circle class="cls-9" cx="682.12" cy="226.3" r="1.31"/><path class="cls-8" d="M737.26,328.5h0a3.88,3.88,0,0,1-3.87-3.87v-2.82a3.88,3.88,0,0,1,3.87-3.87h0a3.88,3.88,0,0,1,3.87,3.87v2.82A3.88,3.88,0,0,1,737.26,328.5Z" transform="translate(-21.9 -95.08)"/><circle class="cls-9" cx="714.3" cy="226.3" r="1.31"/><rect class="cls-23" x="678.15" y="217.9" width="10.06" height="2.82"/><rect class="cls-23" x="710.33" y="217.9" width="10.06" height="2.82"/><rect class="cls-11" x="320.52" y="355.04" width="38.68" height="59.28"/><rect class="cls-11" x="320.52" y="386.99" width="38.68" height="45.41" rx="11.08" ry="11.08"/><path class="cls-11" d="M372.91,608.62a6.73,6.73,0,0,1-6.73-6.73l-3.08-86.26c0-3.71,6.09-6.87,9.8-6.87s8.13-4.42,8.13-.7l-1.41,93.83A6.73,6.73,0,0,1,372.91,608.62Z" transform="translate(-21.9 -95.08)"/><path class="cls-11" d="M350.61,608.62a6.73,6.73,0,0,1-6.73-6.73l-1.52-94c0-3.71,4.53.84,8.25.84s9.69,3.29,9.69,7l-3,86.12A6.73,6.73,0,0,1,350.61,608.62Z" transform="translate(-21.9 -95.08)"/><path class="cls-11" d="M392.6,535h-.08a5,5,0,0,1-5-5.12c0-.47.68-46.83-2.84-64.08-2.11-10.35-15.49-11.21-16.06-11.24a5,5,0,0,1,.5-10.08c.89,0,21.76,1.23,25.45,19.31,3.74,18.32,3.07,64.3,3,66.25A5,5,0,0,1,392.6,535Z" transform="translate(-21.9 -95.08)"/><path class="cls-11" d="M330.92,535a5,5,0,0,1-5-5c0-1.95-.69-47.93,3-66.25,3.69-18.07,24.56-19.26,25.45-19.31a5,5,0,0,1,.49,10.08c-.63,0-13.94.92-16.05,11.24-3.52,17.26-2.85,63.62-2.84,64.08a5,5,0,0,1-5,5.12Z" transform="translate(-21.9 -95.08)"/><path class="cls-12" d="M366.18,597.17v13.35h27.64l-14.19-13.35S366.07,597.06,366.18,597.17Z" transform="translate(-21.9 -95.08)"/><path class="cls-12" d="M357.34,597.17v13.35H329.69l14.19-13.35S357.44,597.06,357.34,597.17Z" transform="translate(-21.9 -95.08)"/><path class="cls-22" d="M365.88,597.17v13.35h27.94l-14.19-13.35S365.78,597.07,365.88,597.17Z" transform="translate(-21.9 -95.08)"/><path class="cls-22" d="M357.63,597.17v13.35H329.69l14.19-13.35S357.74,597.07,357.63,597.17Z" transform="translate(-21.9 -95.08)"/><path class="cls-27" d="M359.23,560l1.07-32.13c.32,0,.65,0,1,0h1c.3,0,.59,0,.88,0L364.22,560H380.7l.72-49.54c0-.37,0-.75.06-1.13H342l.8,50.66Z" transform="translate(-21.9 -95.08)"/><path class="cls-22" d="M385.55,474.86h11A109.89,109.89,0,0,0,395,463.75c-3.75-18.37-24.94-19.6-25.84-19.64-1.25-.06-3.94-.09-7.21-.09s-6.27,0-7.62.09c-.9,0-22.09,1.27-25.84,19.64A109.88,109.88,0,0,0,327,474.86h11c.34-3.42.75-6.48,1.25-8.93a11.23,11.23,0,0,1,2.78-5.44v49.34h39.52V460.49a11.26,11.26,0,0,1,2.78,5.44C384.79,468.37,385.2,471.44,385.55,474.86Z" transform="translate(-21.9 -95.08)"/><path class="cls-11" d="M361.76,456h0a9.38,9.38,0,0,1-9.35-9.35V433.83a9.38,9.38,0,0,1,9.35-9.35h0a9.38,9.38,0,0,1,9.35,9.35v12.82A9.38,9.38,0,0,1,361.76,456Z" transform="translate(-21.9 -95.08)"/><circle class="cls-12" cx="371.82" cy="312.72" r="7.29"/><circle class="cls-12" cx="307.91" cy="312.72" r="7.29"/><path class="cls-12" d="M361.76,439.75h0a32,32,0,0,1-31.86-31.86V391.73c0-17.52,14.34-25.14,31.86-25.14h0c17.52,0,31.86,7.61,31.86,25.14v16.16A32,32,0,0,1,361.76,439.75Z" transform="translate(-21.9 -95.08)"/><path class="cls-10" d="M399.44,374.53c-1.32-1.49-3.35-1-5.31.15,2.34-3.09,3-6.26.42-7-2.78-.83-5.39,9.1-6,11.47l-.26.06.21.15v0l-.12.13.09,0,0,.11.15-.08.37.06a14,14,0,0,0,2.22,1.13c3.84,1.52,5.36,5.68,7.57,2.52,1.19-1.69-.82-3.26-3.41-4.06C398.84,378.32,401.23,376.56,399.44,374.53Z" transform="translate(-21.9 -95.08)"/><path class="cls-10" d="M329.47,391.73a25.09,25.09,0,0,1,2.58-11.55l.5-1,.28,1.07a28.36,28.36,0,0,1,.77,4c.47,4.09.86,12.86-1,16.77a4.7,4.7,0,0,1-2.55,2.6l-.56.2Z" transform="translate(-21.9 -95.08)"/><path class="cls-10" d="M393.48,403.64a4.7,4.7,0,0,1-2.55-2.6c-1.88-3.91-1.49-12.68-1-16.77a28.43,28.43,0,0,1,.77-4l.28-1.06.5,1A25.12,25.12,0,0,1,394,391.73v12.11Z" transform="translate(-21.9 -95.08)"/><path class="cls-10" d="M391.71,379.73s-11,8.09-31,8.93-35.92-4.61-36.58-10.3c-.81-7,7.12-3.87,7.12-3.87s-6.87-5.38-2.66-9.51c3.5-3.43,8.19,3.15,8.19,3.15s-3-7.19,1.65-7.53c4.24-.32,5.47,5.78,8.72,4s11.77-9.14,24.91-4.2S391.71,379.73,391.71,379.73Z" transform="translate(-21.9 -95.08)"/><path class="cls-7" d="M351.17,425.46a15.3,15.3,0,0,0,9.36,3.06,14.52,14.52,0,0,0,11.61-5.31" transform="translate(-21.9 -95.08)"/><path class="cls-8" d="M344.68,412.72h0a3.88,3.88,0,0,1-3.87-3.87V406a3.88,3.88,0,0,1,3.87-3.87h0a3.88,3.88,0,0,1,3.87,3.87v2.82A3.88,3.88,0,0,1,344.68,412.72Z" transform="translate(-21.9 -95.08)"/><circle class="cls-9" cx="321.72" cy="310.52" r="1.31"/><path class="cls-8" d="M376.86,412.72h0a3.88,3.88,0,0,1-3.87-3.87V406a3.88,3.88,0,0,1,3.87-3.87h0a3.88,3.88,0,0,1,3.87,3.87v2.82A3.88,3.88,0,0,1,376.86,412.72Z" transform="translate(-21.9 -95.08)"/><circle class="cls-9" cx="353.9" cy="310.52" r="1.31"/><rect class="cls-10" x="317.76" y="300.52" width="10.06" height="2.82"/><rect class="cls-10" x="349.94" y="300.52" width="10.06" height="2.82"/><path class="cls-6" d="M193.42,273.94c-11.74-16.89-30.61-15.35-31.39-15.35s-19.65-1.54-31.39,15.35c-12,17.24-7.43,81.14-5.33,90.61,8.26,0,65.18,0,73.43,0C200.86,355.09,205.41,291.18,193.42,273.94Z" transform="translate(-21.9 -95.08)"/><path class="cls-2" d="M174.58,377.23c0-12,6.73-31.32,6.73-31.32H142.7s6.73,19.34,6.73,31.32c0,6.64-4,16.36-5.44,22.73-.68,3.06-.9,8.49.65,11.87,3.12,6.82,9.15,11.44,16.92,11.44h.89c7.77,0,13.8-4.62,16.92-11.44,1.55-3.38,1.34-8.81.65-11.87C178.6,393.59,174.58,383.87,174.58,377.23Z" transform="translate(-21.9 -95.08)"/><path class="cls-2" d="M134.56,430.84a5,5,0,0,1-5-4.94c0-1.92-1-47.32,2.76-65.65,2.92-14.3,15.73-19.28,22.11-19.92a5,5,0,0,1,1,10c-.53.06-11.12,1.43-13.25,11.9-3.51,17.24-2.57,63-2.56,63.42a5,5,0,0,1-4.93,5.15Z" transform="translate(-21.9 -95.08)"/><path class="cls-2" d="M190.08,430.84H190a5,5,0,0,1-4.93-5.15c0-.46,1-46.19-2.55-63.42-2.14-10.51-12.81-11.85-13.26-11.9a5,5,0,0,1,1-10c6.37.64,19.19,5.62,22.11,19.92,3.74,18.34,2.8,63.73,2.75,65.65A5,5,0,0,1,190.08,430.84Z" transform="translate(-21.9 -95.08)"/><rect class="cls-3" x="132.57" y="225.18" width="15.14" height="31.53" rx="4.19" ry="4.19"/><circle class="cls-2" cx="172.1" cy="208.51" r="7.29"/><circle class="cls-2" cx="108.19" cy="208.51" r="7.29"/><path class="cls-2" d="M162,335.54h0a32,32,0,0,1-31.86-31.86V287.52c0-17.52,14.34-25.14,31.86-25.14h0c17.52,0,31.86,7.61,31.86,25.14v16.16A32,32,0,0,1,162,335.54Z" transform="translate(-21.9 -95.08)"/><path class="cls-2" d="M167.72,497.68,164.36,411c0-3,5.81-5.19,8.83-5.19s7.15-1.13,7.15,1.89l-1.68,90C178.65,500.7,167.72,500.7,167.72,497.68Z" transform="translate(-21.9 -95.08)"/><path class="cls-2" d="M145.42,497.68l-1.77-89.55c0-3,4.22-2.31,7.24-2.31s8.42,1.89,8.42,4.9l-3,87C156.36,500.7,145.42,500.7,145.42,497.68Z" transform="translate(-21.9 -95.08)"/><polygon class="cls-2" points="145.63 397.81 145.8 411.16 149.89 411.17 150.31 405.32 156.88 411.19 172.21 411.23 156.86 397.81 145.63 397.81"/><path class="cls-4" d="M178.78,506.26l-6.57-5.87-.42,5.85H167.7l-.17-13.13a24.37,24.37,0,0,0,5.41,4.49l1.85,1.14A14,14,0,0,0,186.88,500l7.23,6.32Z" transform="translate(-21.9 -95.08)"/><path class="cls-14" d="M144,449.47l-.81-41.05a27.3,27.3,0,0,1,.11-6.94l.05-.36h37.23l.05.36a26.19,26.19,0,0,1,.07,7.07L180,449.47Z" transform="translate(-21.9 -95.08)"/><path class="cls-4" d="M139.63,414.33c0-14.77.25-40.29,2.66-52.13a13.85,13.85,0,0,1,2.83-6.08c1.69,6.22,3.6,14.65,3.6,21,0,4.33-1.78,10.14-3.35,15.26-.82,2.68-1.66,5.2-2.08,7.38a9.69,9.69,0,0,0-.29,2.54l37.83.07a9.08,9.08,0,0,0-.24-2.58c-.79-3.26-1.7-4.74-2.52-7.42-1.57-5.12-3.34-10.92-3.34-15.25,0-6.48,2-15.16,3.75-21.54a13.8,13.8,0,0,1,3.3,6.66c2.41,11.84,2.71,37.35,2.66,52.13h10.94c.06-15.14-.25-41.35-2.89-54.31-3-14.54-16-19.6-22.48-20.25h-.66s-3.8,7.9-7.13,11.86l-8-11.82h-.45c-6.57.77-19.27,5.9-22.19,20.22-2.64,13-3,39.18-2.9,54.31Z" transform="translate(-21.9 -95.08)"/><path class="cls-26" d="M154.14,337.32a20.41,20.41,0,0,0,6.88,8.93l-3.92,6.12a31.45,31.45,0,0,1-4.17-6.2,17.77,17.77,0,0,1-1.93-6.08Z" transform="translate(-21.9 -95.08)"/><path class="cls-26" d="M169.94,337.32a20.41,20.41,0,0,1-6.88,8.93l3.92,6.12a31.46,31.46,0,0,0,4.17-6.2,17.77,17.77,0,0,0,1.93-6.08Z" transform="translate(-21.9 -95.08)"/><path class="cls-6" d="M130.11,302a62.32,62.32,0,0,0,5.57-13.87c2.52-8.83.21-18.18.21-18.18a15.87,15.87,0,0,0-5,7.36A39.32,39.32,0,0,0,129,290.62,97.05,97.05,0,0,0,130.11,302Z" transform="translate(-21.9 -95.08)"/><path class="cls-6" d="M193.92,302a62.32,62.32,0,0,1-5.57-13.87c-2.52-8.83-.21-18.18-.21-18.18a15.87,15.87,0,0,1,5,7.36,39.32,39.32,0,0,1,1.89,13.35A97.07,97.07,0,0,1,193.92,302Z" transform="translate(-21.9 -95.08)"/><path class="cls-6" d="M178.08,263.22c-5.41-2.91-12.23-3.31-16.25-3.32s-10.31.24-16.06,3.11c-8.44,4.22-11.7,8.13-11.7,8.13s3.08-.42,4.34,7.85a64.54,64.54,0,0,1,.81,11.23H184.7a64.55,64.55,0,0,1,.81-11.23c1.26-8.27,4.34-7.85,4.34-7.85A65.1,65.1,0,0,0,178.08,263.22Z" transform="translate(-21.9 -95.08)"/><polygon class="cls-2" points="134.65 397.67 134.48 411.02 130.39 411.04 129.97 405.19 123.4 411.05 108.08 411.09 123.42 397.68 134.65 397.67"/><path class="cls-4" d="M145.3,506.13l6.57-5.87.42,5.85h4.08l.17-13.13a24.37,24.37,0,0,1-5.41,4.49l-1.85,1.14a14,14,0,0,1-12.09,1.24L130,506.17Z" transform="translate(-21.9 -95.08)"/><path class="cls-9" d="M148.31,317.36c2,4.24,7,7.25,12.78,7.25s10.8-3,12.78-7.25Z" transform="translate(-21.9 -95.08)"/><path class="cls-8" d="M145.25,308.81h0a3.88,3.88,0,0,1-3.87-3.87v-2.82a3.88,3.88,0,0,1,3.87-3.87h0a3.88,3.88,0,0,1,3.87,3.87v2.82A3.88,3.88,0,0,1,145.25,308.81Z" transform="translate(-21.9 -95.08)"/><circle class="cls-9" cx="122.29" cy="206.61" r="1.31"/><path class="cls-8" d="M177.43,308.81h0a3.88,3.88,0,0,1-3.87-3.87v-2.82a3.88,3.88,0,0,1,3.87-3.87h0a3.88,3.88,0,0,1,3.87,3.87v2.82A3.88,3.88,0,0,1,177.43,308.81Z" transform="translate(-21.9 -95.08)"/><circle class="cls-9" cx="154.47" cy="206.61" r="1.31"/><rect class="cls-6" x="118.32" y="197.82" width="10.06" height="1.61"/><rect class="cls-6" x="150.5" y="197.82" width="10.06" height="1.61"/><path class="cls-20" d="M175,426.73s-6.59,5.89-7.71,14,3.22,14.15,5.19,18.36a60.77,60.77,0,0,1,3.22,9.11A32.5,32.5,0,0,0,187.94,457c4.62-7.57,5.61-15.42,3.64-24.24S178.27,423.78,175,426.73Z" transform="translate(-21.9 -95.08)"/><path class="cls-11" d="M218.52,497.36c0-12,6.73-31.32,6.73-31.32H186.64s6.73,19.34,6.73,31.32c0,6.64-4,16.36-5.44,22.73-.68,3.06-.9,8.49.65,11.87,3.12,6.82,9.15,11.44,16.92,11.44h.89c7.77,0,13.8-4.62,16.92-11.44,1.55-3.38,1.34-8.81.65-11.87C222.54,513.72,218.52,504,218.52,497.36Z" transform="translate(-21.9 -95.08)"/><path class="cls-11" d="M178.5,551a5,5,0,0,1-5-4.94c0-1.92-1-47.32,2.76-65.65,2.92-14.3,15.73-19.28,22.11-19.92a5,5,0,0,1,1,10c-.53.06-11.12,1.43-13.25,11.9-3.51,17.24-2.57,63-2.56,63.42a5,5,0,0,1-4.93,5.15Z" transform="translate(-21.9 -95.08)"/><path class="cls-11" d="M234,551h-.11a5,5,0,0,1-4.93-5.15c0-.46,1-46.19-2.55-63.42-2.14-10.51-12.81-11.85-13.26-11.9a5,5,0,0,1,1-10c6.37.64,19.19,5.62,22.11,19.92,3.74,18.34,2.8,63.73,2.75,65.65A5,5,0,0,1,234,551Z" transform="translate(-21.9 -95.08)"/><rect class="cls-11" x="176.51" y="345.31" width="15.14" height="31.53" rx="4.19" ry="4.19"/><circle class="cls-12" cx="216.04" cy="328.64" r="7.29"/><circle class="cls-12" cx="152.13" cy="328.64" r="7.29"/><path class="cls-12" d="M206,455.67h0a32,32,0,0,1-31.86-31.86V407.65c0-17.52,14.34-25.14,31.86-25.14h0c17.52,0,31.86,7.61,31.86,25.14V423.8A32,32,0,0,1,206,455.67Z" transform="translate(-21.9 -95.08)"/><path class="cls-20" d="M206,389.23s-7.53,18.71-32.7,34.57V407.65c0-16.26,12.23-26,32.7-26s32.7,9.71,32.7,26V423.8C212.47,407.81,206,389.23,206,389.23Z" transform="translate(-21.9 -95.08)"/><path class="cls-11" d="M211.7,617.88l-3.36-86.68c0-3,5.81-5.19,8.83-5.19s7.15-1.13,7.15,1.89l-1.68,90C222.63,620.9,211.7,620.9,211.7,617.88Z" transform="translate(-21.9 -95.08)"/><path class="cls-11" d="M189.41,617.88l-1.77-89.55c0-3,4.22-2.31,7.24-2.31s8.42,1.89,8.42,4.9l-3,87C200.34,620.9,189.41,620.9,189.41,617.88Z" transform="translate(-21.9 -95.08)"/><path class="cls-4" d="M181.86,620.37a18.73,18.73,0,0,0,18.38-7.31c.06-.08-.06-.16-.13-.1A22,22,0,0,1,182,619.65c-.41,0-.51.66-.1.73Z" transform="translate(-21.9 -95.08)"/><path class="cls-4" d="M181.86,620.37a18.73,18.73,0,0,0,18.38-7.31c.06-.08-.06-.16-.13-.1A22,22,0,0,1,182,619.65c-.41,0-.51.66-.1.73Z" transform="translate(-21.9 -95.08)"/><polygon class="cls-11" points="178.63 518 178.46 531.36 174.38 531.37 173.95 525.52 167.38 531.39 152.06 531.42 167.4 518.01 178.63 518"/><path class="cls-24" d="M189.28,626.46l6.57-5.87.42,5.85h4.08l.17-13.13a24.37,24.37,0,0,1-5.41,4.49l-1.85,1.14a14,14,0,0,1-12.09,1.24L174,626.5Z" transform="translate(-21.9 -95.08)"/><polygon class="cls-11" points="189.62 518 189.78 531.36 193.87 531.37 194.29 525.52 200.86 531.39 216.19 531.42 200.84 518.01 189.62 518"/><path class="cls-24" d="M222.76,626.46l-6.57-5.87-.42,5.85h-4.08l-.17-13.13a24.37,24.37,0,0,0,5.41,4.49l1.85,1.14a14,14,0,0,0,12.09,1.24l7.23,6.32Z" transform="translate(-21.9 -95.08)"/><path class="cls-23" d="M188,569.67l-.81-41.05a27.28,27.28,0,0,1,.11-6.94l.05-.36H224.6l.05.36a26.18,26.18,0,0,1,.07,7.07L224,569.67Z" transform="translate(-21.9 -95.08)"/><path class="cls-24" d="M183.61,534.53c0-14.77.25-40.29,2.66-52.13a13.85,13.85,0,0,1,2.83-6.08c1.69,6.22,3.6,14.65,3.6,21,0,4.33-1.78,10.14-3.35,15.26-.82,2.68-1.66,5.2-2.08,7.38a9.71,9.71,0,0,0-.29,2.54l37.83.07a9.09,9.09,0,0,0-.24-2.58c-.79-3.26-1.7-4.74-2.52-7.42-1.57-5.12-3.34-10.92-3.34-15.25,0-6.48,2-15.16,3.75-21.54a13.79,13.79,0,0,1,3.3,6.66c2.41,11.84,2.71,37.35,2.66,52.13h10.94c.06-15.14-.25-41.35-2.89-54.31-3-14.54-16-19.6-22.48-20.25h-.66s-3.8,7.9-7.13,11.86l-8-11.82h-.45c-6.57.77-19.27,5.9-22.19,20.22-2.64,13-3,39.18-2.9,54.31Z" transform="translate(-21.9 -95.08)"/><path class="cls-26" d="M198.12,457.52a20.41,20.41,0,0,0,6.87,8.93l-3.92,6.12a31.46,31.46,0,0,1-4.17-6.2,17.77,17.77,0,0,1-1.93-6.08Z" transform="translate(-21.9 -95.08)"/><path class="cls-26" d="M213.92,457.52a20.41,20.41,0,0,1-6.87,8.93l3.92,6.12a31.45,31.45,0,0,0,4.17-6.2,17.77,17.77,0,0,0,1.93-6.08Z" transform="translate(-21.9 -95.08)"/><path class="cls-7" d="M201.8,444a16.49,16.49,0,0,0,3,.28,14.56,14.56,0,0,0,11.52-5.2" transform="translate(-21.9 -95.08)"/><path class="cls-8" d="M189,428.48h0a3.88,3.88,0,0,1-3.87-3.87V421.8a3.88,3.88,0,0,1,3.87-3.87h0a3.88,3.88,0,0,1,3.87,3.87v2.82A3.88,3.88,0,0,1,189,428.48Z" transform="translate(-21.9 -95.08)"/><circle class="cls-9" cx="166.04" cy="326.28" r="1.31"/><path class="cls-8" d="M221.17,428.48h0a3.88,3.88,0,0,1-3.87-3.87V421.8a3.88,3.88,0,0,1,3.87-3.87h0A3.88,3.88,0,0,1,225,421.8v2.82A3.88,3.88,0,0,1,221.17,428.48Z" transform="translate(-21.9 -95.08)"/><circle class="cls-9" cx="198.22" cy="326.28" r="1.31"/><rect class="cls-20" x="162.07" y="317.49" width="10.06" height="1.61"/><rect class="cls-20" x="194.25" y="317.49" width="10.06" height="1.61"/><path class="cls-10" d="M489.69,289.6a15.76,15.76,0,0,0-10.22-14.74,17,17,0,0,0-15.59-28.09,14.17,14.17,0,0,0-22.75-4.54,14.17,14.17,0,0,0-22.75,4.54,17,17,0,0,0-15.59,28.09,15.75,15.75,0,0,0,1.93,30.08,13,13,0,0,0,19,16.36,13,13,0,0,0,17.44,4.17,13,13,0,0,0,17.44-4.17,13,13,0,0,0,19-16.36A15.76,15.76,0,0,0,489.69,289.6Z" transform="translate(-21.9 -95.08)"/><path class="cls-20" d="M454.39,366.82c0-12,6.73-31.32,6.73-31.32H422.5s6.73,19.34,6.73,31.32c0,6.64-4,16.36-5.44,22.73-.68,3.06-.9,8.49.65,11.87,3.12,6.82,9.15,11.44,16.92,11.44h.89c7.77,0,13.8-4.62,16.92-11.44,1.55-3.38,1.34-8.81.65-11.87C458.4,383.18,454.39,373.46,454.39,366.82Z" transform="translate(-21.9 -95.08)"/><path class="cls-19" d="M453,492.74a5.47,5.47,0,0,1-5.47-5.47l-3.36-86.68c0-3,5.81-5.19,8.83-5.19s7.15-1.13,7.15,1.89l-1.68,90A5.47,5.47,0,0,1,453,492.74Z" transform="translate(-21.9 -95.08)"/><path class="cls-19" d="M430.69,492.74a5.47,5.47,0,0,1-5.47-5.47l-1.77-89.55c0-3,4.22-2.31,7.24-2.31s8.42,1.89,8.42,4.91l-3,87A5.47,5.47,0,0,1,430.69,492.74Z" transform="translate(-21.9 -95.08)"/><path class="cls-20" d="M414.36,420.43a5,5,0,0,1-5-4.94c0-1.92-1-47.32,2.76-65.65,2.92-14.3,15.73-19.28,22.11-19.92a5,5,0,0,1,1,10c-.53.06-11.12,1.43-13.25,11.9-3.51,17.24-2.57,63-2.56,63.42a5,5,0,0,1-4.93,5.15Z" transform="translate(-21.9 -95.08)"/><path class="cls-20" d="M469.88,420.43h-.11a5,5,0,0,1-4.93-5.15c0-.46,1-46.19-2.55-63.42C460.14,341.34,449.47,340,449,340a5,5,0,0,1,1-10c6.37.64,19.19,5.62,22.11,19.92,3.74,18.34,2.8,63.73,2.75,65.65A5,5,0,0,1,469.88,420.43Z" transform="translate(-21.9 -95.08)"/><rect class="cls-20" x="412.38" y="214.78" width="15.14" height="31.53" rx="4.19" ry="4.19"/><circle class="cls-19" cx="451.9" cy="198.1" r="7.29"/><circle class="cls-19" cx="387.99" cy="198.1" r="7.29"/><path class="cls-19" d="M441.84,325.13h0A32,32,0,0,1,410,293.27V277.11c0-17.52,14.34-25.14,31.86-25.14h0c17.52,0,31.86,7.61,31.86,25.14v16.16A32,32,0,0,1,441.84,325.13Z" transform="translate(-21.9 -95.08)"/><polygon class="cls-5" points="414.28 387.4 414.28 400.75 387.88 400.82 403.23 387.4 414.28 387.4"/><polygon class="cls-5" points="425.61 387.4 425.61 400.75 452.01 400.82 436.66 387.4 425.61 387.4"/><path class="cls-10" d="M468.65,255.79a15.72,15.72,0,0,0-3,.41,11.77,11.77,0,0,0,.13-1.68,12.13,12.13,0,0,0-12.26-12c-5.74,0-9.75.74-11.88,5.71-2.81-4.13-6.06-5.71-11.72-5.71a11.91,11.91,0,0,0-12,13.68,15.31,15.31,0,0,0-3-.41c-10-.67-17.19,20.5-4.91,31.05a11.22,11.22,0,0,0,6.38-8.7A11.26,11.26,0,0,0,426.28,267c0-.36,0-.72-.05-1.08a12.12,12.12,0,0,0,15.4-8.51,12.21,12.21,0,0,0,11.88,9.07,12.49,12.49,0,0,0,3.73-.57c0,.35-.06.71-.06,1.08a11.31,11.31,0,0,0,10,11.12,11.23,11.23,0,0,0,6.47,8.7C486.07,276.29,478.77,255.13,468.65,255.79Z" transform="translate(-21.9 -95.08)"/><path class="cls-14" d="M424.74,482.29h12l2.35-69a19.26,19.26,0,0,0,2.26.14h.89a18.38,18.38,0,0,0,2-.11l2.68,69H459l1.57-84.3c.13-.91.05-4.91.07-5.8H423.14c0,.85-.18,4.8-.07,5.67Z" transform="translate(-21.9 -95.08)"/><path class="cls-5" d="M419.67,404.39c0-14.77.25-40.29,2.66-52.13a13.85,13.85,0,0,1,2.83-6.08c1.69,6.22,3.6,14.65,3.6,21,0,4.33-1.78,10.14-3.35,15.26-.82,2.68-1.66,5.2-2.08,7.38a9.71,9.71,0,0,0-.29,2.54l37.83.07a9.09,9.09,0,0,0-.24-2.58c-.79-3.26-1.7-4.74-2.52-7.42-1.57-5.12-3.34-10.92-3.34-15.25,0-6.48,2-15.16,3.75-21.54a13.79,13.79,0,0,1,3.3,6.66c2.41,11.84,2.71,37.35,2.66,52.13h10.94c.06-15.14-.25-41.35-2.89-54.31-3-14.54-16-19.6-22.48-20.25h-.66s-3.8,7.9-7.13,11.86l-8-11.82h-.45c-6.57.77-19.27,5.9-22.19,20.22-2.64,13-3,39.18-2.9,54.31Z" transform="translate(-21.9 -95.08)"/><path class="cls-14" d="M434.17,327.38a20.41,20.41,0,0,0,6.87,8.93l-3.92,6.12a31.46,31.46,0,0,1-4.17-6.2,17.77,17.77,0,0,1-1.93-6.08Z" transform="translate(-21.9 -95.08)"/><path class="cls-14" d="M450,327.38a20.41,20.41,0,0,1-6.87,8.93l3.92,6.12a31.45,31.45,0,0,0,4.17-6.2,17.77,17.77,0,0,0,1.93-6.08Z" transform="translate(-21.9 -95.08)"/><path class="cls-9" d="M428.06,306.5c2,4.24,7,7.25,12.78,7.25s10.8-3,12.78-7.25Z" transform="translate(-21.9 -95.08)"/><path class="cls-8" d="M425,298h0a3.88,3.88,0,0,1-3.87-3.87v-2.82A3.88,3.88,0,0,1,425,287.4h0a3.88,3.88,0,0,1,3.87,3.87v2.82A3.88,3.88,0,0,1,425,298Z" transform="translate(-21.9 -95.08)"/><circle class="cls-9" cx="402.03" cy="195.75" r="1.31"/><path class="cls-8" d="M457.17,298h0a3.88,3.88,0,0,1-3.87-3.87v-2.82a3.88,3.88,0,0,1,3.87-3.87h0a3.88,3.88,0,0,1,3.87,3.87v2.82A3.88,3.88,0,0,1,457.17,298Z" transform="translate(-21.9 -95.08)"/><circle class="cls-9" cx="434.21" cy="195.75" r="1.31"/><rect class="cls-10" x="398.07" y="186.96" width="10.06" height="1.61"/><rect class="cls-10" x="430.25" y="186.96" width="10.06" height="1.61"/><path class="cls-16" d="M535.92,358.69c-11.74-16.89-30.61-15.35-31.39-15.35s-19.65-1.54-31.39,15.35c-12,17.24-7.43,81.14-5.33,90.61,8.26,0,65.18,0,73.43,0C543.35,439.84,547.9,375.93,535.92,358.69Z" transform="translate(-21.9 -95.08)"/><path class="cls-3" d="M517.08,462c0-12,6.73-31.32,6.73-31.32H485.19S491.92,450,491.92,462c0,6.64-4,16.36-5.44,22.73-.68,3.06-.9,8.49.65,11.87,3.12,6.82,9.15,11.44,16.92,11.44h.89c7.77,0,13.8-4.62,16.92-11.44,1.55-3.38,1.34-8.81.65-11.87C521.09,478.34,517.08,468.62,517.08,462Z" transform="translate(-21.9 -95.08)"/><path class="cls-3" d="M477.06,515.58a5,5,0,0,1-5-4.94c0-1.92-1-47.32,2.76-65.65,2.92-14.3,15.73-19.28,22.11-19.92a5,5,0,0,1,1,10c-.53.06-11.12,1.43-13.25,11.9-3.51,17.24-2.57,63-2.56,63.42a5,5,0,0,1-4.93,5.15Z" transform="translate(-21.9 -95.08)"/><path class="cls-3" d="M532.57,515.58h-.11a5,5,0,0,1-4.93-5.15c0-.46,1-46.19-2.55-63.42-2.14-10.51-12.81-11.85-13.26-11.9a5,5,0,0,1,1-10c6.37.64,19.19,5.62,22.11,19.92,3.74,18.34,2.8,63.73,2.75,65.65A5,5,0,0,1,532.57,515.58Z" transform="translate(-21.9 -95.08)"/><rect class="cls-3" x="475.07" y="309.93" width="15.14" height="31.53" rx="4.19" ry="4.19"/><circle class="cls-2" cx="514.59" cy="293.26" r="7.29"/><circle class="cls-2" cx="450.68" cy="293.26" r="7.29"/><path class="cls-2" d="M504.53,420.29h0a32,32,0,0,1-31.86-31.86V372.27c0-17.52,14.34-25.14,31.86-25.14h0c17.52,0,31.86,7.61,31.86,25.14v16.16A32,32,0,0,1,504.53,420.29Z" transform="translate(-21.9 -95.08)"/><path class="cls-16" d="M472.61,386.72a62.32,62.32,0,0,0,5.57-13.87c2.52-8.83.21-18.18.21-18.18a15.87,15.87,0,0,0-5,7.36,39.32,39.32,0,0,0-1.89,13.35A97.07,97.07,0,0,0,472.61,386.72Z" transform="translate(-21.9 -95.08)"/><path class="cls-16" d="M536.41,386.72a62.32,62.32,0,0,1-5.57-13.87c-2.52-8.83-.21-18.18-.21-18.18a15.87,15.87,0,0,1,5,7.36,39.32,39.32,0,0,1,1.89,13.35A97.07,97.07,0,0,1,536.41,386.72Z" transform="translate(-21.9 -95.08)"/><path class="cls-16" d="M520.57,348c-5.41-2.91-12.23-3.31-16.25-3.32s-10.31.24-16.06,3.11c-8.44,4.22-11.7,8.13-11.7,8.13s3.08-.42,4.34,7.85a64.52,64.52,0,0,1,.81,11.23h45.47a64.54,64.54,0,0,1,.81-11.23c1.26-8.27,4.34-7.85,4.34-7.85A65.11,65.11,0,0,0,520.57,348Z" transform="translate(-21.9 -95.08)"/><path class="cls-2" d="M510.57,582.53l-3.36-86.68c0-3,5.81-5.19,8.83-5.19s7.15-1.13,7.15,1.89l-1.68,90C521.5,585.55,510.57,585.55,510.57,582.53Z" transform="translate(-21.9 -95.08)"/><path class="cls-2" d="M488.27,582.53,486.5,493c0-3,4.22-2.31,7.24-2.31s8.42,1.89,8.42,4.9l-3,87C499.21,585.55,488.27,585.55,488.27,582.53Z" transform="translate(-21.9 -95.08)"/><polygon class="cls-2" points="477.5 482.65 477.33 496.01 473.24 496.02 472.82 490.17 466.25 496.04 450.93 496.07 466.27 482.66 477.5 482.65"/><path class="cls-31" d="M488.15,591.11l6.57-5.87.42,5.85h4.08l.17-13.13a24.37,24.37,0,0,1-5.41,4.49l-1.85,1.14a14,14,0,0,1-12.09,1.24l-7.23,6.32Z" transform="translate(-21.9 -95.08)"/><polygon class="cls-2" points="488.48 482.65 488.65 496.01 492.74 496.02 493.16 490.17 499.73 496.04 515.06 496.07 499.71 482.66 488.48 482.65"/><path class="cls-31" d="M521.63,591.11l-6.57-5.87-.42,5.85h-4.08L510.38,578a24.37,24.37,0,0,0,5.41,4.49l1.85,1.14a14,14,0,0,0,12.09,1.24l7.23,6.32Z" transform="translate(-21.9 -95.08)"/><path class="cls-23" d="M487.73,577.38h12l2.35-69a19.26,19.26,0,0,0,2.26.14h.89a18.38,18.38,0,0,0,2-.11l2.68,69H522l1.15-84.26c.13-.91.05-3.22.07-4.12l-37.41-.12c0,.85-.18,3.11-.07,4Z" transform="translate(-21.9 -95.08)"/><path class="cls-31" d="M482.13,499.08c0-14.77.25-40.29,2.66-52.13a13.85,13.85,0,0,1,2.83-6.08c1.69,6.22,3.6,14.65,3.6,21,0,4.33-1.78,10.14-3.35,15.26-.82,2.68-1.66,5.2-2.08,7.38a41.28,41.28,0,0,0-.29,5.9l37.83.07a44.71,44.71,0,0,0-.24-5.94c-.79-3.26-1.7-4.74-2.52-7.42-1.57-5.12-3.34-10.92-3.34-15.25,0-6.48,2-15.16,3.75-21.54a13.8,13.8,0,0,1,3.3,6.66c2.41,11.84,2.71,37.35,2.66,52.13h10.94c.06-15.14-.25-41.35-2.89-54.31-3-14.54-16-19.6-22.48-20.25h-.66s-4.19,13.79-7.13,18.59l-8-18.55h-.45c-6.57.77-19.27,5.9-22.19,20.22-2.64,13-3,39.18-2.9,54.31Z" transform="translate(-21.9 -95.08)"/><path class="cls-7" d="M490.76,401.9c2,4.24,7,7.25,12.78,7.25s10.8-3,12.78-7.25" transform="translate(-21.9 -95.08)"/><path class="cls-8" d="M487.69,393.36h0a3.88,3.88,0,0,1-3.87-3.87v-2.82a3.88,3.88,0,0,1,3.87-3.87h0a3.88,3.88,0,0,1,3.87,3.87v2.82A3.88,3.88,0,0,1,487.69,393.36Z" transform="translate(-21.9 -95.08)"/><circle class="cls-9" cx="464.74" cy="291.16" r="1.31"/><path class="cls-8" d="M519.87,393.36h0a3.88,3.88,0,0,1-3.87-3.87v-2.82a3.88,3.88,0,0,1,3.87-3.87h0a3.88,3.88,0,0,1,3.87,3.87v2.82A3.88,3.88,0,0,1,519.87,393.36Z" transform="translate(-21.9 -95.08)"/><circle class="cls-9" cx="496.92" cy="291.16" r="1.31"/><rect class="cls-16" x="460.77" y="282.36" width="10.06" height="1.61"/><rect class="cls-16" x="492.95" y="282.36" width="10.06" height="1.61"/><path class="cls-12" d="M631.63,612.19l-3.36-86.68c0-3,5.81-5.19,8.83-5.19s7.15-1.13,7.15,1.89l-1.68,90C642.56,615.21,631.63,615.21,631.63,612.19Z" transform="translate(-21.9 -95.08)"/><path class="cls-12" d="M609.33,612.19l-1.77-89.55c0-3,4.22-2.31,7.24-2.31s8.42,1.89,8.42,4.9l-3,87C620.26,615.21,609.33,615.21,609.33,612.19Z" transform="translate(-21.9 -95.08)"/><polygon class="cls-12" points="598.55 512.31 598.38 525.67 594.3 525.68 593.88 519.83 587.31 525.7 571.98 525.73 587.33 512.32 598.55 512.31"/><path class="cls-22" d="M609.21,620.77l6.57-5.87.42,5.85h4.08l.17-13.13a24.37,24.37,0,0,1-5.41,4.49l-1.85,1.14a14,14,0,0,1-12.09,1.24l-7.23,6.32Z" transform="translate(-21.9 -95.08)"/><polygon class="cls-12" points="609.54 512.31 609.71 525.67 613.79 525.68 614.21 519.83 620.78 525.7 636.11 525.73 620.76 512.32 609.54 512.31"/><path class="cls-22" d="M642.68,620.77l-6.57-5.87-.42,5.85h-4.08l-.17-13.13a24.37,24.37,0,0,0,5.41,4.49l1.85,1.14a14,14,0,0,0,12.09,1.24l7.23,6.32Z" transform="translate(-21.9 -95.08)"/><path class="cls-21" d="M595,421.1s-6.59,5.89-7.71,14,3.22,14.15,5.19,18.36a60.77,60.77,0,0,1,3.22,9.11,32.5,32.5,0,0,0,12.19-11.21c4.62-7.57,5.61-15.42,3.64-24.24S598.24,418.16,595,421.1Z" transform="translate(-21.9 -95.08)"/><path class="cls-11" d="M638.49,491.74c0-12,6.73-31.32,6.73-31.32H606.6s6.73,19.34,6.73,31.32c0,6.64-4,16.36-5.44,22.73-.68,3.06-.9,8.49.65,11.87,3.12,6.82,9.15,11.44,16.92,11.44h.89c7.77,0,13.8-4.62,16.92-11.44,1.55-3.38,1.34-8.81.65-11.87C642.5,508.1,638.49,498.38,638.49,491.74Z" transform="translate(-21.9 -95.08)"/><path class="cls-11" d="M598.47,545.34a5,5,0,0,1-5-4.94c0-1.92-1-47.32,2.76-65.65,2.92-14.3,15.73-19.28,22.11-19.92a5,5,0,0,1,1,10c-.53.06-11.12,1.43-13.25,11.9-3.51,17.24-2.57,63-2.56,63.42a5,5,0,0,1-4.93,5.15Z" transform="translate(-21.9 -95.08)"/><path class="cls-11" d="M654,545.34h-.11a5,5,0,0,1-4.93-5.15c0-.46,1-46.19-2.55-63.42-2.14-10.51-12.81-11.85-13.26-11.9a5,5,0,0,1,1-10c6.37.64,19.19,5.62,22.11,19.92,3.74,18.34,2.8,63.73,2.75,65.65A5,5,0,0,1,654,545.34Z" transform="translate(-21.9 -95.08)"/><rect class="cls-11" x="596.48" y="339.69" width="15.14" height="31.53" rx="4.19" ry="4.19"/><circle class="cls-12" cx="636" cy="323.01" r="7.29"/><circle class="cls-12" cx="572.09" cy="323.01" r="7.29"/><path class="cls-12" d="M625.94,450h0a32,32,0,0,1-31.86-31.86V402c0-17.52,14.34-25.14,31.86-25.14h0c17.52,0,31.86,7.61,31.86,25.14v16.16A32,32,0,0,1,625.94,450Z" transform="translate(-21.9 -95.08)"/><path class="cls-21" d="M625.94,383.61s-7.53,18.71-32.7,34.57V402c0-16.26,12.23-26,32.7-26s32.7,9.71,32.7,26v16.16C632.43,402.19,625.94,383.61,625.94,383.61Z" transform="translate(-21.9 -95.08)"/><path class="cls-4" d="M646.57,552.84c-1.14-19.82-2.2-38.12-2.26-38.89H607.45c-.06.74-1.1,19.06-2.21,38.89Z" transform="translate(-21.9 -95.08)"/><path class="cls-22" d="M603.81,528.56c0-14.77.25-40.29,2.66-52.13a13.85,13.85,0,0,1,2.83-6.08c1.69,6.22,3.6,14.65,3.6,21,0,4.33-1.78,10.14-3.35,15.26-.82,2.68-1.66,5.2-2.08,7.38a9.71,9.71,0,0,0-.29,2.54l37.83.07a9.09,9.09,0,0,0-.24-2.58c-.79-3.26-1.7-4.74-2.52-7.42-1.57-5.12-3.34-10.92-3.34-15.25,0-6.48,2-15.16,3.75-21.54a13.79,13.79,0,0,1,3.3,6.66c2.41,11.84,2.71,37.35,2.66,52.13h10.94c.06-15.14-.25-41.35-2.89-54.31-3-14.54-16-19.6-22.48-20.25h-.66s-3.8,7.9-7.13,11.86l-8-11.82h-.45c-6.57.77-19.27,5.9-22.19,20.22-2.64,13-3,39.18-2.9,54.31Z" transform="translate(-21.9 -95.08)"/><path class="cls-32" d="M618.32,451.56a20.41,20.41,0,0,0,6.87,8.93l-3.92,6.12a31.46,31.46,0,0,1-4.17-6.2,17.77,17.77,0,0,1-1.93-6.08Z" transform="translate(-21.9 -95.08)"/><path class="cls-32" d="M634.12,451.56a20.41,20.41,0,0,1-6.87,8.93l3.92,6.12a31.45,31.45,0,0,0,4.17-6.2,17.77,17.77,0,0,0,1.93-6.08Z" transform="translate(-21.9 -95.08)"/><path class="cls-9" d="M612.33,431.71c2,4.24,7,7.25,12.78,7.25s10.8-3,12.78-7.25Z" transform="translate(-21.9 -95.08)"/><path class="cls-8" d="M609.26,423.17h0a3.88,3.88,0,0,1-3.87-3.87v-2.82a3.88,3.88,0,0,1,3.87-3.87h0a3.88,3.88,0,0,1,3.87,3.87v2.82A3.88,3.88,0,0,1,609.26,423.17Z" transform="translate(-21.9 -95.08)"/><circle class="cls-9" cx="586.3" cy="320.97" r="1.31"/><path class="cls-8" d="M641.44,423.17h0a3.88,3.88,0,0,1-3.87-3.87v-2.82a3.88,3.88,0,0,1,3.87-3.87h0a3.88,3.88,0,0,1,3.87,3.87v2.82A3.88,3.88,0,0,1,641.44,423.17Z" transform="translate(-21.9 -95.08)"/><circle class="cls-9" cx="618.48" cy="320.97" r="1.31"/><rect class="cls-21" x="582.34" y="312.17" width="10.06" height="1.61"/><rect class="cls-21" x="614.52" y="312.17" width="10.06" height="1.61"/></g></g></svg>