<svg id="DESIGNED_BY_FREEPIK" data-name="DESIGNED BY FREEPIK" xmlns="http://www.w3.org/2000/svg" viewBox="0 0 743.75 763.68"><defs><style>.cls-1{fill:#6b8389;}.cls-2{fill:#5e7477;}.cls-3{fill:#324142;}.cls-4{fill:#405456;}.cls-5{fill:#231f20;}.cls-6{fill:#414042;}.cls-7{fill:#0d212f;}.cls-8{fill:#0e2c40;}.cls-9{fill:#0f2e4f;}.cls-10{fill:#d8ad95;}.cls-11{fill:#212020;}.cls-12{fill:#e2bba1;}.cls-13{fill:#2c2c2c;}.cls-14{fill:#21414f;}.cls-15{fill:#25485b;}.cls-16{fill:#d1d3d4;}.cls-17{fill:#a7a9ac;}.cls-18{fill:#fff;}.cls-19{fill:#58595b;}.cls-20{fill:#849ba0;}.cls-21{fill:#bcbec0;}.cls-22{fill:#438e81;}.cls-23{fill:#758b8e;}.cls-24{fill:#d4d6d5;}.cls-25{fill:#647c82;}.cls-26{fill:#2b2b2b;}.cls-27{fill:#deb09d;}.cls-28{fill:#594a42;}.cls-29{fill:#e6e7e8;}.cls-30{fill:#16405e;}.cls-31{fill:#cca692;}.cls-32{fill:#efc6ab;}.cls-33{fill:#020202;}.cls-34{fill:#20b7ea;}.cls-35{fill:#9dd9ea;}.cls-36{fill:#f96464;}</style></defs><title>96893-OKN2UE-892</title><g id="_14" data-name="14"><g id="_5" data-name="5"><g id="_2" data-name="2"><g id="_1" data-name="1"><path class="cls-1" d="M141.81,311.26c12-19.84,24.09-29.39,35.24-11.46,1.65,2.75,3.36,11.75,3.75,19,2.81,53.42,2.5,101.27-.58,143.62-.35,4.8-2.15,10.37-3.9,12.32-11.3,12.21-21.16,19.39-29.46,9.55-1.36-1.66-2.89-7.95-3.39-13.28A1307.38,1307.38,0,0,1,138,329.39C138.15,322.88,139.9,314.53,141.81,311.26Z" transform="translate(-15.25 -25)"/><rect class="cls-2" x="225.63" y="507.63" width="54.43" height="26.9"/><path class="cls-1" d="M361.92,531.17V543H167.7V531.17a8.93,8.93,0,0,1,8.93-8.92H353A8.93,8.93,0,0,1,361.92,531.17Z" transform="translate(-15.25 -25)"/><rect class="cls-2" x="244.75" y="520.23" width="12.57" height="104.73"/><rect class="cls-2" x="236.32" y="560.46" width="29.43" height="100.78"/><rect class="cls-2" x="225.63" y="651.47" width="49.69" height="23.71"/><polygon class="cls-2" points="257.32 663.33 266.6 667.61 266.88 663.33 355.94 674.49 366.81 698.21 355.94 698.21 346.67 685.65 299.5 682.81 332.86 698.21 343.17 714.25 331.88 719.83 323.5 708.11 251.03 675.18 257.32 663.33"/><path class="cls-2" d="M253.72,690.91l8.16-6.14L270.53,695l-62.38,45.6-7.22,15.06-12.22-3.08,6.7-17.86s49.46-34.41,58.28-44Z" transform="translate(-15.25 -25)"/><path class="cls-2" d="M176.39,699.49l89.07-11.16.26,4.16c-10.64,7.49-23.06,8.15-35.23,12l-44.83,6.2-9.27,12.56H165.53Z" transform="translate(-15.25 -25)"/><ellipse class="cls-2" cx="359.81" cy="703.22" rx="10.75" ry="10.74"/><path class="cls-2" d="M338.3,744.83A13.73,13.73,0,1,0,352,731.12,13.73,13.73,0,0,0,338.3,744.83Z" transform="translate(-15.25 -25)"/><ellipse class="cls-2" cx="180.77" cy="733.54" rx="13.73" ry="13.71"/><path class="cls-2" d="M164.75,723.21A10.22,10.22,0,1,0,175,713,10.22,10.22,0,0,0,164.75,723.21Z" transform="translate(-15.25 -25)"/></g><ellipse class="cls-2" cx="255.57" cy="716.19" rx="11.58" ry="11.59"/><rect class="cls-3" x="111.03" y="505.23" width="58.64" height="29"/><rect class="cls-3" x="131.63" y="518.81" width="13.53" height="112.96"/><rect class="cls-4" x="111.03" y="660.37" width="53.52" height="25.58"/><path class="cls-4" d="M56.73,467.78c1.89-2.11,3.82-8.11,4.2-13.28,3.31-45.69,3.65-97.3.63-154.91-.44-7.82-2.28-17.53-4-20.49-12-19.35-25-9-38,12.35C17.5,295,15.61,304,15.47,311a1414.06,1414.06,0,0,0,5.88,152.75c.54,5.75,2.18,12.54,3.65,14.32C33.93,488.69,44.55,481,56.73,467.78Z" transform="translate(-15.25 -25)"/><path class="cls-4" d="M47.44,528.65v12.78H256.67V528.65a9.63,9.63,0,0,0-9.62-9.62h-190A9.62,9.62,0,0,0,47.44,528.65Z" transform="translate(-15.25 -25)"/><path class="cls-4" d="M266.66,735.78h11.7l-11.7-25.58-96-12-.29,4.62-10-4.62-3.2,6.06L152.8,699l0-.81-.57.07-2-2.33h19.28V587.21H137.8V695.9h9L142,699.51,56.8,710.2l-7.48,16.34a11,11,0,1,0,13.42,1.19l4-5.49,48.29-6.7c3.7-1.15,7.4-2,11.09-2.89-19,14.78-48.89,35.61-48.89,35.61l-4.42,11.81a14.82,14.82,0,1,0,14.38,2.4L91,754.59l64.55-47.24L153.65,711l78.06,35.52,2.62,3.67a14.78,14.78,0,1,0,13-5.67l-5.58-8.68-35.93-16.61,50.81,3.07Z" transform="translate(-15.25 -25)"/><path class="cls-5" d="M404.55,702.64l6-16.66,46.56-5.38-3.93,11.84L513,709.86a45.51,45.51,0,0,1,8.48,8,3.85,3.85,0,0,1-2.87,6.29L461,725.49c-2.36-.38-4.69-.78-7-1.19v-.11l-.47,0q-7.73-1.42-14.91-3.05l-2,3.43-29.35.65c-.48-.14-.95-.29-1.4-.45C403,723.76,404.55,702.64,404.55,702.64Z" transform="translate(-15.25 -25)"/><path class="cls-6" d="M345.82,708.19l6.66-16.41,46.73-3.52-4.38,11.67,59.08,19.79a44.64,44.64,0,0,1,7.88,8,4.06,4.06,0,0,1-3.3,6.52l-57.16-1q-3.51-.71-6.92-1.47v-.1h-.47c-5.11-1.14-10-2.37-14.77-3.64L377,731.4l-29.34-.51c-.48-.16-.94-.33-1.38-.51C343.46,729.24,345.82,708.19,345.82,708.19Z" transform="translate(-15.25 -25)"/><path class="cls-7" d="M477.08,502a136.3,136.3,0,0,0-1.66-23.83c-2.77-16.59-21.14-20.41-35.28-23.83l-62.07-15-80.87-19.58-110,2.46c31.88-.71,67,8.09,96.69,18.59,20.56,7.28,40.58,17,57.62,30.8a129.9,129.9,0,0,1,22.32,23.23c8.95,11.89,20.23,18.3,33.86,23.88,3.2,1.31,6.48,2.63,9.09,4.9a21.19,21.19,0,0,1,2.62,2.91c-4.19,59.37-2.51,173.79-2.51,173.79s7.31-.41,61.94-.61c.37-37.45,2.36-74.9,4.73-112.28,1-16.46,2.73-32.94,2.52-49.4C476,525.72,477,513.94,477.08,502Z" transform="translate(-15.25 -25)"/><path class="cls-8" d="M465.72,480c-6.18-13.48-22.61-13.84-39.78-18.58l-54.29-15-69.28-19.14-121-7c-4.39-.24-9.8,26.6-10.14,29.39-2.71,22.27,7.91,41.43,26.41,53.57,41.58,27.28,101.51,26.33,149,24.71,12.18-.42,25.08-1.46,37.63-1.6C367.94,588.7,344.64,696,344.64,696s6.16,9.43,72.08,10.64c7.33-33,15.84-65.78,24.59-98.45,6.78-25.34,15.29-50.62,19.72-76.52C469.12,516.43,472.22,494.21,465.72,480Z" transform="translate(-15.25 -25)"/><path class="cls-9" d="M294.29,398.42c-40.85,1.47-79.94,20.92-121.71,25.26-1.73,27.22-4.73,52.56-8.44,75.67H302.38c-.36-37-8.3-68-8.22-87.85C294.18,407,294.23,402.65,294.29,398.42Z" transform="translate(-15.25 -25)"/><path class="cls-10" d="M325,493.12l-5.56-4.87a59.94,59.94,0,0,0,16.47-3.53c2.64-1,5.66-2.11,8.15-.79,2.29,1.22,3.13,4,3.76,6.51,4.06,16.09,34.94,155,37.87,166.05,3.83,14.68,11.61,27,17.5,40.76,5.55,13,11.63,26.88,19.16,38.82,1.35,2.15,4,4.08,6.76,5.84,1.85,1.2,3.73,2.31,5.24,3.36a18.78,18.78,0,0,1-3.27,3.61,14.67,14.67,0,0,1-4.28,2.5l-12.41.55-.29-.06c-5.62-1.38-9.66-5.38-12.68-10.13-3.13-4.91-3.89-11-7.62-15.53-4.2-5.16-10.37-8.37-15.49-12.45-3.24-2.58-6.24-5.16-10-7.09-2.73-1.41-5.69-2.36-8.39-3.84-4.17-2.29-3-4.17-2.69-8.55a70.09,70.09,0,0,0-4-28.41c-3.33-8.27-6.84-16.22-12.34-23.28-12.66-16.24-23.41-38-27.21-58.35-1.66-8.86-2.06-17.87-2.33-26.86-.26-8.72,1-19.37-1.44-27.8-1.64-5.69-5.49-11.18-7.75-16.78l-5.5-13.71Z" transform="translate(-15.25 -25)"/><path class="cls-11" d="M354.17,699.09c.14-1.94,3.78-10.13,2.77-11.44a62.72,62.72,0,0,0,9.84,10.64,247.27,247.27,0,0,1,30.67,28.81,39.41,39.41,0,0,0,12.77,9.83,22,22,0,0,0,7.69,2,8.34,8.34,0,0,0,2.78,0c1.09-.35,1.93-2,3.13-1.91a2,2,0,0,1,1.22.81c2.27,2.43,5.8,3.62,8.51,5.49,3.17,2.18,17.36,9.75,12.52,14.59-1.53,1.53-4.78,1.4-6.73,1.44a94.15,94.15,0,0,1-12-.63,247.55,247.55,0,0,1-25.9-4c-9.4-2-6.73-18.09-12.7-23.92-3.37-3.29-15.23-9-18.39-3.09-2.45,4.58,1.34,13.69,2.06,18.47.3,2,1.61,5.76,1.33,8.28l-4.39.2c-2-12.48-2.45-24.23-10-35.28A32.11,32.11,0,0,1,354.17,699.09Z" transform="translate(-15.25 -25)"/><path class="cls-12" d="M344.36,484.19a18.32,18.32,0,0,1,1.66,1,22,22,0,0,1,4.65,4.43c9.48,11.71.3,29.82-3.86,42.45-5.16,15.63-9,31.56-14.45,47.19-10.49,30.34-22,60.53-31.32,91.26-4.47,14.49-4.36,29.08-6.6,43.87-2.11,13.94-4.26,29-4.15,43.09,0,2.54,1.27,5.59,2.66,8.53.95,2,2,3.92,2.69,5.61a18.83,18.83,0,0,1-4.68,1.35,14.78,14.78,0,0,1-4.95-.13l-10.83-6.06-.21-.21c-4.06-4.13-5.38-9.66-5.45-15.29-.07-5.81,2.46-11.37,1.71-17.22-.86-6.59-4.41-12.56-6.62-18.74-1.4-3.9-2.6-7.67-4.73-11.26-1.58-2.64-3.59-5-5.1-7.68-2.35-4.15-.33-5.11,2.21-8.69a71.24,71.24,0,0,0,5.83-9.76,72,72,0,0,0,5.7-16.52c1.53-8.78,2.73-17.39,1.77-26.29-2.2-20.48.1-44.6,7.61-63.93,3.26-8.41,7.66-16.28,12.16-24.07,3.94-6.81,11.76-12.52,6.15-20.37-1.93-2.71-4.51-5-6.08-7.92a6.61,6.61,0,0,1-.92-3.28c.06-1.83,1.26-3.39,2.39-4.81,4.56-5.69,10.1-10.43,14.66-16,1.71-2.08,1.85-3.26,4.61-4,3.08-.81,5.77.18,9-1.44,4.15-2.08,7.94-6.52,12.55-7.54C336,480.92,340.87,482.3,344.36,484.19Z" transform="translate(-15.25 -25)"/><path class="cls-13" d="M251.82,690.12c1.14-1.58,8.55-6.62,8.38-8.26,1.25,12,7.64,21.68,11.26,33.09,4.15,13-2.21,36.79,15.58,40a10,10,0,0,1,3.4.91c1.42.84,2.14,2.47,2.77,4a72.73,72.73,0,0,0,6.67,13.28c1.41,2.12,6.65,8,1.78,9.75-2.48.91-7-1.48-9.32-2.27a102.65,102.65,0,0,1-14.63-6.33c-3.7-1.9-10.47-4.37-12.53-8.28-5-9.45-1.07-18.92.25-28.58.81-5.86-3.25-16-11-14.25-9.59,2.19-10.88,22.73-13.74,30.12-1.54-.67-3.1-1.27-4.68-1.83,4.61-13.16,10-27.34,9.41-41.37A32.06,32.06,0,0,1,251.82,690.12Z" transform="translate(-15.25 -25)"/><path class="cls-14" d="M87.19,519.11l.33.17,33.23-.17c6,0,134.72,1.34,134.72,1.34l21,.26C272,509.82,257,507.82,246,507.82c-51.92-2.26-112.86-3-147.48-48.15-10.27-13.21-13.86-29.59-15.12-46.47-4.41,9.06-11.18,36.76-11.84,41-2.5,16.24-2.61,36.75,4.35,52A28.67,28.67,0,0,0,87.19,519.11Z" transform="translate(-15.25 -25)"/><path class="cls-15" d="M246,507.82c-51.92-2.26-112.86-3-147.48-48.15-10.27-13.21-13.86-29.59-15.12-46.47.9-1.84,1.7-2.92,2.33-2.87L191.2,419.7l137.65,32.73,26,37.37-2.24,1.64c-14.73,10.78-30,21-45.13,31.18-4.56,3.07-9.24,5.64-13.94,8.37-2.11,1.22-3.65,2.95-5.86,2.36-4.25-1.13-6.37-12.59-10-12.63l-1.32,0C272,509.82,257,507.82,246,507.82Z" transform="translate(-15.25 -25)"/><path class="cls-16" d="M251.64,446.88V466a16.48,16.48,0,0,0,16.48,16.48h474.4A16.48,16.48,0,0,0,759,466V446.88Z" transform="translate(-15.25 -25)"/><polygon class="cls-17" points="638.38 308.18 308.76 308.18 236.38 422.13 743.75 422.13 638.38 308.18"/><polygon class="cls-18" points="407.4 375.38 418.88 403.78 277.98 403.78 291.8 374.46 407.4 375.38"/><path class="cls-19" d="M649.84,275.89c.22-4.47,12.15-118.1,12.15-118.1s9.13-1,9.43,9.78-3.83,217-3.83,217c-.69,5.47-4.72,7.49-6.18,7.42-7.06-.35-8.64-6.12-23.79-22.15-17.31-18.31-16.72-15.74-17.9-19C617,327.63,647.77,319.19,649.84,275.89Z" transform="translate(-15.25 -25)"/><path class="cls-19" d="M654.76,386.94s-1.18,13.26-10.83,16.89l-190.66,5.53s-12.54-4.09-15.87-15.13C506.23,380.71,654.76,386.94,654.76,386.94Z" transform="translate(-15.25 -25)"/><path class="cls-20" d="M621.19,348.75l33.25,34c2.74,2.6,7.93,4.15,8-2.22l3.23-213.7c.1-6.49-2.2-10.29-5-8.53l-37.08,22.94c-1.54,1-2.81,5.43-2.87,10l-2,151.27C618.68,347,619.69,347.33,621.19,348.75Z" transform="translate(-15.25 -25)"/><polygon class="cls-19" points="605.8 315.6 642.99 346.58 645.92 149.47 607.73 168.87 605.8 315.6"/><polygon class="cls-21" points="631.07 150.77 635.71 148.2 635.76 144.33 631.12 147.04 631.07 150.77"/><polygon class="cls-21" points="614.08 161.81 617.59 159.9 617.64 156.55 614.12 158.55 614.08 161.81"/><polygon class="cls-21" points="618.04 336.13 625.69 343.15 625.78 336.57 618.12 329.93 618.04 336.13"/><polygon class="cls-22" points="607.19 313.7 642.15 343.15 644.33 152.2 608.86 169.56 607.19 313.7"/><path class="cls-23" d="M606.77,349.94c6.78-.24,12.62,0,13.72,1.18l32.78,35.48c2,2.11-4.08,4.08-13.51,4.33l-2.53.07-32.9-41.16Z" transform="translate(-15.25 -25)"/><path class="cls-20" d="M468.42,354.68l137.43-4.86,32.86,41.52-188.54,4.9c-8.63.22-14.66-1.34-13.53-3.44l19.1-35.55C456.4,356,462.06,354.9,468.42,354.68Z" transform="translate(-15.25 -25)"/><polygon class="cls-24" points="444.66 351.98 482.92 350.82 484.03 343.49 447.81 344.65 444.66 351.98"/><polygon class="cls-18" points="465.27 344.23 463.19 351.25 449.75 351.67 452.51 344.64 465.27 344.23"/><polygon class="cls-24" points="481.45 334.39 474.5 334.62 475.28 331.37 482.05 331.13 481.45 334.39"/><polygon class="cls-24" points="468.05 331.62 467.06 334.87 460.15 335.11 461.33 331.86 468.05 331.62"/><polygon class="cls-24" points="479.14 360.15 478.8 362.15 457.32 362.74 457.94 360.75 479.14 360.15"/><polygon class="cls-24" points="456.63 364.93 478.44 364.34 478.09 366.45 455.97 367.05 456.63 364.93"/><polygon class="cls-21" points="594.71 364.5 614.22 363.99 586.66 326.83 572.07 327.33 594.71 364.5"/><polygon class="cls-18" points="608.77 360.25 610.63 362.82 596.62 363.19 595.01 360.63 608.77 360.25"/><polygon class="cls-24" points="587.77 361.89 589.71 365.27 574.99 365.66 573.38 362.28 587.77 361.89"/><polygon class="cls-24" points="585.19 357.37 587.01 360.55 572.76 360.94 571.25 357.76 585.19 357.37"/><polygon class="cls-24" points="582.75 353.13 584.47 356.12 570.66 356.51 569.24 353.52 582.75 353.13"/><polygon class="cls-24" points="580.47 349.13 582.08 351.94 568.68 352.34 567.34 349.52 580.47 349.13"/><polygon class="cls-24" points="578.31 345.35 579.82 348.01 566.82 348.4 565.56 345.74 578.31 345.35"/><polygon class="cls-24" points="576.26 341.78 577.7 344.3 565.06 344.69 563.87 342.18 576.26 341.78"/><polygon class="cls-24" points="574.32 338.4 575.69 340.79 563.39 341.18 562.27 338.8 574.32 338.4"/><polygon class="cls-24" points="572.5 335.2 573.78 337.46 561.82 337.85 560.75 335.59 572.5 335.2"/><polygon class="cls-24" points="570.75 332.16 571.97 334.3 560.32 334.69 559.31 332.54 570.75 332.16"/><polygon class="cls-24" points="569.09 329.27 570.26 331.3 558.9 331.69 557.93 329.65 569.09 329.27"/><polygon class="cls-24" points="567.52 326.52 568.63 328.45 557.55 328.84 556.63 326.89 567.52 326.52"/><polygon class="cls-24" points="569.52 365.5 551 365.99 549.83 362.24 567.88 361.74 569.52 365.5"/><polygon class="cls-24" points="567.48 360.83 549.54 361.32 548.44 357.81 565.94 357.31 567.48 360.83"/><polygon class="cls-24" points="565.57 356.45 548.17 356.95 547.13 353.63 564.11 353.13 565.57 356.45"/><polygon class="cls-24" points="563.76 352.33 546.87 352.82 545.89 349.69 562.39 349.19 563.76 352.33"/><polygon class="cls-24" points="562.05 348.44 545.65 348.93 544.73 345.97 560.76 345.47 562.05 348.44"/><polygon class="cls-24" points="560.45 344.75 544.5 345.25 543.62 342.45 559.21 341.95 560.45 344.75"/><polygon class="cls-24" points="558.92 341.28 543.4 341.77 542.57 339.11 557.76 338.62 558.92 341.28"/><polygon class="cls-24" points="557.48 337.98 542.37 338.47 541.57 335.95 556.37 335.46 557.48 337.98"/><polygon class="cls-24" points="556.1 334.84 541.39 335.33 540.64 332.94 555.06 332.45 556.1 334.84"/><polygon class="cls-24" points="554.8 331.87 540.45 332.36 539.74 330.08 553.8 329.59 554.8 331.87"/><polygon class="cls-24" points="552.61 326.87 553.57 329.03 529.12 329.88 528.64 327.71 552.61 326.87"/><polygon class="cls-24" points="547.71 366.07 529.37 366.56 528.74 362.81 546.62 362.32 547.71 366.07"/><polygon class="cls-24" points="546.35 361.41 528.58 361.9 527.98 358.39 545.32 357.89 546.35 361.41"/><polygon class="cls-24" points="545.08 357.04 527.84 357.53 527.27 354.21 544.11 353.72 545.08 357.04"/><polygon class="cls-24" points="543.87 352.91 527.13 353.41 526.6 350.27 542.95 349.78 543.87 352.91"/><polygon class="cls-24" points="542.73 349.01 526.47 349.51 525.97 346.55 541.87 346.06 542.73 349.01"/><polygon class="cls-24" points="541.66 345.34 525.85 345.83 525.37 343.03 540.84 342.54 541.66 345.34"/><polygon class="cls-24" points="540.64 341.86 525.25 342.35 524.8 339.69 539.87 339.2 540.64 341.86"/><polygon class="cls-24" points="539.68 338.56 524.69 339.05 524.26 336.53 538.95 336.04 539.68 338.56"/><polygon class="cls-24" points="538.77 335.42 524.16 335.91 523.75 333.51 538.06 333.02 538.77 335.42"/><polygon class="cls-24" points="537.89 332.44 523.65 332.93 523.27 330.65 537.23 330.16 537.89 332.44"/><polygon class="cls-24" points="536.43 327.43 537.07 329.6 523.17 330.09 522.8 327.91 536.43 327.43"/><polygon class="cls-24" points="524.81 366.68 506.65 367.16 506.57 363.41 524.29 362.93 524.81 366.68"/><polygon class="cls-24" points="524.16 362.03 506.56 362.51 506.48 358.99 523.67 358.5 524.16 362.03"/><polygon class="cls-24" points="523.54 357.65 506.47 358.13 506.4 354.82 523.08 354.33 523.54 357.65"/><polygon class="cls-24" points="522.97 353.53 506.39 354.01 506.32 350.88 522.53 350.39 522.97 353.53"/><polygon class="cls-24" points="522.42 349.64 506.3 350.13 506.25 347.16 522.01 346.67 522.42 349.64"/><polygon class="cls-24" points="521.91 345.95 506.23 346.44 506.17 343.64 521.52 343.15 521.91 345.95"/><polygon class="cls-24" points="521.42 342.47 506.17 342.96 506.11 340.3 521.05 339.82 521.42 342.47"/><polygon class="cls-24" points="520.96 339.16 506.09 339.65 506.04 337.13 520.61 336.65 520.96 339.16"/><polygon class="cls-24" points="520.52 336.03 506.04 336.51 505.99 334.11 520.19 333.64 520.52 336.03"/><polygon class="cls-24" points="520.11 333.05 505.97 333.53 505.93 331.25 519.79 330.76 520.11 333.05"/><polygon class="cls-24" points="519.4 328.04 519.71 330.21 491.72 331.18 491.94 329 519.4 328.04"/><polygon class="cls-24" points="502.13 367.28 484.16 367.76 484.63 364.02 502.17 363.54 502.13 367.28"/><polygon class="cls-24" points="502.18 362.63 484.75 363.11 485.19 359.59 502.21 359.11 502.18 362.63"/><polygon class="cls-24" points="502.22 358.25 485.3 358.74 485.73 355.42 502.25 354.94 502.22 358.25"/><polygon class="cls-24" points="502.25 354.13 485.83 354.62 486.22 351.49 502.29 351.01 502.25 354.13"/><polygon class="cls-24" points="502.3 350.25 486.32 350.73 486.7 347.77 502.32 347.28 502.3 350.25"/><polygon class="cls-24" points="502.33 346.57 486.79 347.05 487.15 344.25 502.36 343.76 502.33 346.57"/><polygon class="cls-24" points="502.3 349.36 486.44 349.85 487.97 337.73 502.42 337.25 502.3 349.36"/><polygon class="cls-24" points="502.43 336.63 488.05 337.11 488.36 334.71 502.45 334.23 502.43 336.63"/><polygon class="cls-24" points="502.45 333.65 488.43 334.13 488.72 331.84 502.48 331.37 502.45 333.65"/><polygon class="cls-24" points="502.5 328.63 502.48 330.8 488.8 331.28 489.07 329.1 502.5 328.63"/><path class="cls-19" d="M656.39,253.73a2.11,2.11,0,0,1,2-2.19,1.82,1.82,0,0,1,.51.09v25.7a1.92,1.92,0,0,1-.83.19,2.15,2.15,0,0,1-2-2.27Z" transform="translate(-15.25 -25)"/><path class="cls-19" d="M620.18,253.3a1.64,1.64,0,0,1,1.79-1.44,2,2,0,0,1,.45.06v16.89a2.08,2.08,0,0,1-.73.12,1.63,1.63,0,0,1-1.74-1.49Z" transform="translate(-15.25 -25)"/><polygon class="cls-24" points="638.33 357 635.88 359.58 631.98 355.24 634.43 352.93 638.33 357"/><polygon class="cls-24" points="609.29 327.18 607.82 328.83 604.92 325.99 606.63 324.19 609.29 327.18"/><path class="cls-25" d="M652.81,135.93c-.14,6.93-3.9,14.1-8.84,16.51-5.49,2.68-10.71-1.27-11.09-9.5-.41-8.71,4.75-17.27,10.82-18.5C649.11,123.33,653,128.67,652.81,135.93Z" transform="translate(-15.25 -25)"/><path class="cls-26" d="M646.7,138.11c0,4.33-2.42,8.78-5.5,10.12-3.29,1.43-6.23-1.13-6.38-5.94-.16-5,2.73-9.92,6.21-10.84C644.29,130.59,646.74,133.64,646.7,138.11Z" transform="translate(-15.25 -25)"/><polygon class="cls-25" points="632.29 141.46 625.18 146.11 624.72 126.01 632.34 122.54 632.29 141.46"/><path class="cls-27" d="M280.29,162.84s-10.9,24.17-18.58,29.81-49.79-8.9-49.79-8.9,15.22-39.14,13.21-45.33,10.63-11.61,10.63-11.61Z" transform="translate(-15.25 -25)"/><path class="cls-12" d="M235.67,135c4.1,3.72,6.62,9.84,11.48,12.53,2.68,1.49,2.25,2.55,11.44,9.39,2.67,2,6.08,2.68,9.26,3.63l20.42,6.12a14.82,14.82,0,0,0,5.44.91c3.83-.32,6.76-3.48,8.91-6.67a5.22,5.22,0,0,0,.87-1.76c.58-2.68-2.86-5.21-1.86-7.76.49-1.26,1.9-1.91,2.62-3.05,1-1.64.42-3.79-.22-5.62,1.63.27,2.88-1.53,3.14-3.16s0-3.4.81-4.86c1.23-2.33,4.23-2.72,6.7-3.82a2,2,0,0,0,1.08-2.51,40.28,40.28,0,0,0-5.41-10c-2-2.73-4.55-5.63-4.24-9,.2-2.13,1.52-4,2-6.06,1.12-4.4-1.39-8.8-2.32-13.25-.7-3.35-.49-6.83-.8-10.25s-1.27-7-3.77-9.32c-7.31-6.84-10.6-15-19.62-19.37-15.93-7.65-35.42-5-50.92,3.46A40.88,40.88,0,0,0,218,64.6,37.43,37.43,0,0,0,212.1,76a50.86,50.86,0,0,0-1.38,28.17,42.94,42.94,0,0,0,15.13,23.61C229.07,130.3,232.67,132.29,235.67,135Z" transform="translate(-15.25 -25)"/><path class="cls-12" d="M389,265.08c-.2-1,2.11-4.13,2.57-5,1.7-3.31,3.35-6.64,5.1-9.93,3.36-6.31,8.76-11.21,12.22-17.39,1-1.88,3.5-8.33,5.83-8.91a1.75,1.75,0,0,1,1.48.6c6.44,5.81-1,13.55-4.16,18.58-1.18,1.9-1.89,4.32-2.92,6.33l16.55-10.51c3.19-2,18.88-12.61,21.21-8.69,1.18,2-1.39,4.11-2.68,5.24a149,149,0,0,1-18,13.44L442.45,239c2.5-1.51,12.55-6.91,14.64-2.87a2.74,2.74,0,0,1-.74,3.31c-7,5.9-15.1,10.2-23.43,13.88l18.78-9c1.64-.78,4.95-2,6.65-.27,2.07,2.16-.73,4.86-2.21,5.92a136.59,136.59,0,0,1-20.26,12c6.08-1.07,23-10.13,21.35-4.72a7.16,7.16,0,0,1-3,3.4c-7.56,5.49-12,8.91-19.51,14.41a85.71,85.71,0,0,1-11.9,6.95c-4.32,2-7.62,3.61-11.81,5.86-5.8,3.13-10.46,3.17-17,4.39Z" transform="translate(-15.25 -25)"/><path class="cls-12" d="M441.17,327.16c.49-.91,4.24-1.9,5.14-2.31,3.4-1.52,6.77-3.09,10.19-4.55,6.56-2.82,13.84-3.27,20.41-5.94,2-.81,7.93-4.31,10.11-3.31a1.72,1.72,0,0,1,.77,1.39c1.4,8.57-9.26,9.94-14.86,11.91-2.11.75-4.17,2.19-6.24,3.12l19.49,2.14c3.75.42,22.62,2,22,6.48-.32,2.27-3.65,2.33-5.38,2.4a149.57,149.57,0,0,1-22.46-.77l18.86,2.48c2.9.38,14.12,2.46,13.22,6.91a2.73,2.73,0,0,1-2.64,2.12c-9.12.25-18.16-1.48-27-3.81l20.28,4.73c1.77.41,5.14,1.49,5.36,3.94.26,3-3.6,3.34-5.42,3.23A135.81,135.81,0,0,1,479.74,354c5.41,3,24.32,6.5,19.61,9.66a7.14,7.14,0,0,1-4.49.77c-9.33-.44-14.9-.51-24.24-.95a86.36,86.36,0,0,1-13.63-2c-4.63-1.13-8.2-2-12.89-2.81-6.48-1.19-10.14-4.07-16-7.17Z" transform="translate(-15.25 -25)"/><path class="cls-28" d="M221.41,145.7A52,52,0,0,1,218,139a257.08,257.08,0,0,1-8.3-25.91c-2.37-9-4.25-18.22-4.08-27.52s2.52-18.76,8-26.29c5.22-7.19,13-12.26,21.43-15.09s17.43-3.53,26.29-3.09a95.68,95.68,0,0,1,19.88,3.07c2.91.78,6.86,1.5,9.44,3.12s4.09,3.92,7.07,5.13a28,28,0,0,0,11.66,2,2.66,2.66,0,0,1,1.78.34c.83.66.51,2,.11,3C304,75.55,280.1,73.9,273.69,92.44c-1.48,4.25-1.9,8.74-2.5,13.17s-2.29,8.81-2.56,13.17c-.16,2.73,1.54,6.32-1.45,8.11-1.35.79-6.72-1.31-6.73-2a46.19,46.19,0,0,0-1.24-11.71c-1.07-3.79-3.26-7.42-6.68-9.39s-8.14-1.89-11,.82c-3.4,3.25-3.13,8.69-2.37,13.34,1.09,6.73,4.65,14.24,12.08,15.61-2.9.78-4.58,3.78-5.44,6.65a3.12,3.12,0,0,1-1,1.85,3.08,3.08,0,0,1-1.68.29c-9.43-.23-13.2,2.82-19.15,9.6A22.75,22.75,0,0,0,221.41,145.7Z" transform="translate(-15.25 -25)"/><path class="cls-21" d="M272.76,179.76c1.62,4.81,4,12.06,6.46,21a407.14,407.14,0,0,1,13,66.51c.87,8.39,1.77,20,1.92,34-24.25-32.3-46.19-49.75-58.31-66-15.72-21-26.29-38.48-27.34-44.25s.16-11.79,6-17.39c14.64-14,46.74,11.21,46.74,11.21Z" transform="translate(-15.25 -25)"/><path class="cls-9" d="M216.45,209.3c32.58-24,59,11.62,73.5,36.8,8.9,15.49,18,31.25,31.12,43.37,5.51-1.13,71-25.94,68.08-31.74,6.85,13.43,16.06,22.37,20.73,35.55-19.57,18.65-72.94,49.82-93,57.88-19.59,7.84-65.81-59.48-85.4-77C213.23,257.8,191.64,227.6,216.45,209.3Z" transform="translate(-15.25 -25)"/><polygon class="cls-29" points="206.25 131.56 257.51 154.76 247.36 177.15 196.66 151.51 206.25 131.56"/><path class="cls-9" d="M286.39,247.15c-14.15-27.87-33.93-46.28-47.8-57.15l-26.68-13.49-24,40.45-9,36.64a235.07,235.07,0,0,0-6.25,70.59c1.14,18.31,1.7,37.68,1.47,58-.15,14.28-.73,28.09-1.58,41.47,41.77-4.33,80.87-23.79,121.71-25.26C295.5,310.93,304.19,282.2,286.39,247.15Z" transform="translate(-15.25 -25)"/><path class="cls-30" d="M217.77,163.44s54.06,49,74.27,94.5c-35.46-35.43-49.7-35.51-49.7-35.51V197.49l-14.81,12.64-15.62-33.62Z" transform="translate(-15.25 -25)"/><path class="cls-30" d="M426.38,316.33a157.63,157.63,0,0,1,19.36.64q.47,2.62.84,5.26c1.85,13,1.05,29,1.36,42.14-12.15.4-28.88-3.21-41-2-30.37,3-111.45-13.31-118.67-18.84-21.75-16.68-43.49-33.49-65.78-49.25C210,285.45,187.2,267,188.87,248.46a21.5,21.5,0,0,1,.77-4.06c8.18-27.84,45.1-16.68,61.55-7,13.62,8,25.09,19.22,36.43,30.32,18.37,18,14.17,26.64,40,31C354.89,303.25,398.91,317.42,426.38,316.33Z" transform="translate(-15.25 -25)"/><path class="cls-31" d="M158.23,137.11c7.08,7.23,13.22,13.19,18.48,18.1,19.48,18.15,27.13,21.86,27.13,21.86.37,1.09-9.31,16.37-3.45,38.54A139.46,139.46,0,0,1,158.23,137.11Z" transform="translate(-15.25 -25)"/><path class="cls-10" d="M401.6,357.22a39.17,39.17,0,0,1,3.82,8.07c1.08,2.73,2.85,5.08,3.4,8,.37,2-1.09,3.94-3.26,3.24a7.66,7.66,0,0,1-2.25-1.44c-1,3-3.07,1.84-4.43-.11-2.68-3.84-3.36-8.27-8-8.75-3.28-.34-6.79-.06-10.12-.08l-17-.14c.16,0,1.77-6.8,1.9-7.3,1-4,1.8-6.91,6.23-6.85l16.45.22a24.31,24.31,0,0,1,8.06,1A10.79,10.79,0,0,1,401.6,357.22Z" transform="translate(-15.25 -25)"/><path class="cls-12" d="M383.1,355.47a22.82,22.82,0,0,0-3.05.82c-.91.24-2.21,0-3,.32a4.36,4.36,0,0,1,2.74.25c2,.52,4.08.33,6.13.49s8.91,2.67,6.92,5.8c-1.8,2.83-6.14,2.12-8.41,1.76-4.25-.68-8.74,1.83-12.95,3.09-11,3.27-21.49-.74-31.65-3.21l7.57-14,34.79-9.75,10,3.22a43.6,43.6,0,0,1,12.72,6.17c1.62,1.17,2.23,2.91,3.12,4.77q1.64,3.42,3.39,6.77c.91,1.75,4.77,6.6,2.27,8.91-1.36,1.26-3.85-.5-4.63-1.5-2.42-3.15-4.33-9-7.62-11.08C396.62,355.33,388.88,354.76,383.1,355.47Z" transform="translate(-15.25 -25)"/><path class="cls-12" d="M383.1,355.47a22.82,22.82,0,0,0-3.05.82c-.91.24-2.21,0-3,.32a4.36,4.36,0,0,1,2.74.25c2,.52,4.08.33,6.13.49s8.91,2.67,6.92,5.8c-1.8,2.83-6.14,2.12-8.41,1.76-4.25-.68-8.74,1.83-12.95,3.09-11,3.27-21.49-.74-31.65-3.21l7.57-14,34.79-9.75,10,3.22a43.6,43.6,0,0,1,12.72,6.17c1.62,1.17,2.23,2.91,3.12,4.77q1.64,3.42,3.39,6.77c.91,1.75,4.77,6.6,2.27,8.91-1.36,1.26-3.85-.5-4.63-1.5-2.42-3.15-4.33-9-7.62-11.08C396.62,355.33,388.88,354.76,383.1,355.47Z" transform="translate(-15.25 -25)"/><path class="cls-16" d="M199.6,212.22l6.91,3.52a38.38,38.38,0,0,1,18.28,20l36.78,92.55,97.27,16.54-4,26.74-96.06-.39A28.44,28.44,0,0,1,237.12,357l-32.23-36.73Z" transform="translate(-15.25 -25)"/><path class="cls-32" d="M225.56,163.52c1.83.44,2.27,3,1.59,4.71s-2,3.21-2.56,5,0,4-.29,5.93c-.56,4.26-4.69,7.36-8.94,8.08s-8.55-.45-12.64-1.79c-15.54-5.07-30.81-13.24-40.09-26.71-8.39-12.2-11-27.38-12.73-42.08-1.08-9-1.89-18.34.41-27.16a36.65,36.65,0,0,1,2.83-7.43c11.09-21.75,36.07-24.32,56.62-16.75,20,7.38,32.17,30.25,27.59,50.8-.54,2.42-1.76,4.68-2.14,7.13-.82,5.29,2.21,10.12,4.51,14.63,1.52,3,6.14,11.32,1.61,13.57-2.39,1.19-5,0-7.17,2.09a11.09,11.09,0,0,0-2.92,7.35,2.71,2.71,0,0,1-.21,1.23C230.55,163,226.5,163.55,225.56,163.52Z" transform="translate(-15.25 -25)"/><path class="cls-10" d="M133.35,207.21c2.55-2.56,5-5.18,7.36-8a64,64,0,0,0,11.38-19.45c4.86-13.66,6.52-28.53,5.87-43l.28.29a139.46,139.46,0,0,0,42.16,78.5c.25.94.51,1.89.82,2.85,7.53,13.17,14.29,23.33,4.89,29.34-7.55,4.83-35.69-5.35-46.5-9.57-2.67-1-4.29-1.71-4.29-1.71-2-.82-4.35-8.6-5.37-10.54-1.53-2.87-3.13-6.32-5.63-8.51a11.05,11.05,0,0,0-6.06-2.58c-2.27-.38-7.35.52-9.14-.64C126,212.3,131.22,209.35,133.35,207.21Z" transform="translate(-15.25 -25)"/><path class="cls-16" d="M209.18,233.44s-13.07,13-47.57,1.13c3.12,70.1,7.83,102.29,7.83,102.29L210.7,350.6l14.22-45.53Z" transform="translate(-15.25 -25)"/><path class="cls-15" d="M233.64,310.28c0,4.64-31.47,82.43-40.21,103.94L192,417.86l-.75,1.84-.17,0c-2.71-.17-37.3-2.46-104.82-9.31l-.49,0c.31-1,.6-2.07.88-3.19.88-3.44,1.67-7.39,2.37-11.74C96.48,348.89,94.5,257,94.5,257l9.28-9.58,53.42-3.8s38.74,53.85,53.5,58.8c-.35-.14.09-6.32.1-7q0-3.73,0-7.48c0-5.05-.1-10.11-.29-15.15a276.81,276.81,0,0,0-2.33-28c-.64-4.56-1.42-9.1-2.4-13.61a53.23,53.23,0,0,0-1.48-6.46c-.42-1.18-1-2.26-1.52-3.42s-.9-2-1.28-3.07a.85.85,0,0,1,.41.24,9.17,9.17,0,0,1,1.93,2.42,27.6,27.6,0,0,1,1.67,3.19c1,2.57,2,5.17,3.09,7.75,1.8,4.47,3.4,9,4.93,13.59,3,9.13,5.71,18.38,8.73,27.52,2.72,8.24,5.42,16.48,8,24.77C231.42,301.51,233.64,306.22,233.64,310.28Z" transform="translate(-15.25 -25)"/><path class="cls-33" d="M193.43,414.22,192,417.86,86.6,407.14c.88-3.44,1.67-7.39,2.37-11.74C108.47,398.27,173.1,411.35,193.43,414.22Z" transform="translate(-15.25 -25)"/><path class="cls-13" d="M183.82,119.72a20.24,20.24,0,0,0-1.33-3.53c-1.8-3.62-5.3-6.68-9.34-6.77-5.69-.13-10,5.71-10.42,11.39s2.13,11.09,4.57,16.23l-9,19.78c-2.75,0-9.07-9.56-10.63-11.67-7.33-9.92-16-25.59-17.23-38.06-.1-1-.32-2.24-1.28-2.56a3.27,3.27,0,0,0-1.38,0c-3.14.3-5.77-2.21-7.93-4.52a14,14,0,0,1-2-2.57c-4.77-8.56,1.73-25.34,8.25-31.43a29.77,29.77,0,0,1,22.24-7.65c3.54.26,6.66,2.55,9.94,2.79,4,.28,8.11-2.72,11.75-4.11,16.93-6.47,36.22-2.14,50,9.2,7.35,6,12.7,11.59,15.47,21.17A5.48,5.48,0,0,1,241,89.2a12.74,12.74,0,0,1,2.58,5.4,40.42,40.42,0,0,1,.25,19.87c-.23.92-17,2.92-19.08,3.58,2-5.13-1.52-13.31-6-16.19-7.71-5-13.35,3.89-18.53,8.21-3.4,2.82-15.57,13-15.08,17.9A48.73,48.73,0,0,0,183.82,119.72Z" transform="translate(-15.25 -25)"/><path class="cls-10" d="M278.34,402.31l26,2.07,22.13,2.29a11.15,11.15,0,0,1,5.82,2.39c6.18,5,13,8.67,18.54,14.43,3.7,3.84,5.23,6.06-1.2,7.72a10.18,10.18,0,0,1-10.84-3.64c1,1.27,2.43,3,1.92,4.73-1,3.5-4.38,1.45-6.34.47l-12.68-6.25a12.68,12.68,0,0,0-8.28-1l-20.06,4.32a14.18,14.18,0,0,1-7.34-.37l-15.94-5.14Z" transform="translate(-15.25 -25)"/><path class="cls-16" d="M132.27,207.5c12.64-2.4,26.31,16.64,29.34,27.07,4,13.82,5.4,28.68,8.5,42.74,3.67,16.61,9.81,32.54,11.86,49.51.79,6.52.81,12.79,2.73,19.18,2.88,9.62,10.18,10.72,19.11,14.84,23.41,10.81,84.42,41.24,85.41,41.74l-11.62,28c-1.65-.57-3.21-1.08-4.59-1.41l-35.83-8.78c-20.25-5-38.57-13.43-59-18.22-10.13-2.38-24.41-4.07-32.54-11.22-5.93-5.22-7.66-14.95-11-22q-9.23-19.44-18.48-38.89-4.41-9.29-8.83-18.59c-2-4.15-5.16-16.09-8.84-18.59a4.94,4.94,0,0,1-1.67-1.49C83.61,253.53,109.21,211.86,132.27,207.5Z" transform="translate(-15.25 -25)"/></g><g id="_6" data-name="6"><path class="cls-34" d="M529.7,419.91l-8.38,2q-.23-2.9-.46-5.8l8.59.63Z" transform="translate(-15.25 -25)"/><polygon class="cls-34" points="431.52 394.48 422.64 395.18 427.93 405.52 434.33 405.02 431.52 394.48"/><path class="cls-6" d="M475.33,428.25,474.44,417l3.32-.16.87,11Z" transform="translate(-15.25 -25)"/><path class="cls-19" d="M481.81,416.71c11.53-.42,22.81-.5,39.36-.94q.26,3.18.51,6.37c-16.42,2.18-27.57,3.88-39,5.27Z" transform="translate(-15.25 -25)"/><path class="cls-19" d="M448.39,420.36a3.64,3.64,0,0,1,1.4-3.6c2.13-1.93,6.33-3,12.49-3.22,12.33-.6,27.69-2.19,27.83-2.2s-2.09,5.17-8.59,3.42c-4.35.35-22.84,2.5-23,2.52a4.39,4.39,0,0,0-2.07.84c-.38.33-.78.93,0,2.17.61,1,.38,1.57.07,1.85-1.23,1.11-6.31-.87-7.84-1.5l-.2-.08Z" transform="translate(-15.25 -25)"/><path class="cls-34" d="M478.62,427.88l-.87-11,4-.16.85,10.7Z" transform="translate(-15.25 -25)"/><path class="cls-19" d="M446.91,430.52q-.44-5.63-.89-11.26c11.36-1.14,20.22-1.8,28.41-2.22l.89,11.22C467.17,429.12,458.31,429.86,446.91,430.52Z" transform="translate(-15.25 -25)"/><path class="cls-6" d="M529.45,416.71a11.55,11.55,0,0,1,2,.24,10.94,10.94,0,0,1,2.76,1,13.38,13.38,0,0,1-2.3,1.25,14.36,14.36,0,0,1-2.21.72C529.62,418.84,529.53,417.77,529.45,416.71Z" transform="translate(-15.25 -25)"/></g><rect class="cls-17" x="637.52" y="457.38" width="29.59" height="191.13"/></g><path class="cls-25" d="M338.31,286c.43-.38.87-.73,1.31-1.09,2.08-1.67,6.42-.83,8.81,1.48a211.7,211.7,0,0,1,15.42,17,8.74,8.74,0,0,1,1.9,6.14L382,328.25a36.64,36.64,0,0,1,8.9,23,3.91,3.91,0,0,1,2.39,3.59v28a3.84,3.84,0,0,1-.38,1.61,14.63,14.63,0,0,1,9.18,7.93H375.2a14.6,14.6,0,0,1,9-7.88,3.75,3.75,0,0,1-.42-1.67v-28a3.89,3.89,0,0,1,2.51-3.62,32.16,32.16,0,0,0-7.79-20L363,313.33c-2.16,1.45-6.26.61-8.57-1.62a211.73,211.73,0,0,1-15.42-17C336.86,292,336.3,287.72,338.31,286Z" transform="translate(-15.25 -25)"/><path class="cls-35" d="M534.56,103.9c36,0,65.21,22.79,65.21,50.9,0,10.55-4.11,20.34-11.14,28.47a63.68,63.68,0,0,1-26.48,17.67l15.92,40.64-39.74-36c-1.25.06-2.51.08-3.77.08-36,0-65.21-22.79-65.21-50.91S498.54,103.9,534.56,103.9Z" transform="translate(-15.25 -25)"/><path class="cls-36" d="M426.19,26.67c-38.9-7.09-74.43,9-79.36,36-1.84,10.13.87,20.34,7,29.53,5.78,8.6,14.59,16.31,25.51,22.19l-24.32,35.89,49.23-26.7q2,.45,4.07.83c38.89,7.09,74.43-9,79.35-36S465.09,33.76,426.19,26.67Z" transform="translate(-15.25 -25)"/></g></svg>