<svg xmlns="http://www.w3.org/2000/svg" xmlns:xlink="http://www.w3.org/1999/xlink" viewBox="0 0 266.02 102.06"><defs><style>.cls-1{isolation:isolate;}.cls-11,.cls-14,.cls-17,.cls-2,.cls-22,.cls-5,.cls-8{opacity:0.6;}.cls-14,.cls-17,.cls-2,.cls-21,.cls-22,.cls-5,.cls-8{mix-blend-mode:multiply;}.cls-2{fill:url(#radial-gradient);}.cls-3{fill:url(#radial-gradient-2);}.cls-4{fill:url(#radial-gradient-3);}.cls-5{fill:url(#radial-gradient-4);}.cls-6{fill:url(#radial-gradient-5);}.cls-7{fill:url(#radial-gradient-6);}.cls-8{fill:url(#radial-gradient-7);}.cls-9{fill:url(#radial-gradient-8);}.cls-10{fill:url(#radial-gradient-9);}.cls-11{mix-blend-mode:color-burn;fill:url(#radial-gradient-10);}.cls-12{fill:url(#radial-gradient-11);}.cls-13{fill:url(#radial-gradient-12);}.cls-14{fill:url(#radial-gradient-13);}.cls-15{fill:url(#radial-gradient-14);}.cls-16{fill:url(#radial-gradient-15);}.cls-17{fill:url(#radial-gradient-16);}.cls-18{fill:url(#radial-gradient-17);}.cls-19{fill:url(#radial-gradient-18);}.cls-20{fill:#cf4756;}.cls-21{fill:url(#linear-gradient);}.cls-22{fill:url(#radial-gradient-19);}</style><radialGradient id="radial-gradient" cx="-47.72" cy="-105.25" r="126.53" gradientTransform="matrix(1, 0, 0, 0.24, 192.97, 252.84)" gradientUnits="userSpaceOnUse"><stop offset="0.79" stop-color="#c6c6c6"/><stop offset="0.87" stop-color="#e2e2e2"/><stop offset="0.95" stop-color="#f7f7f7"/><stop offset="1" stop-color="#fff"/></radialGradient><radialGradient id="radial-gradient-2" cx="-1720.16" cy="-1403.34" r="151.12" gradientTransform="matrix(-1, 0, 0, -0.28, -1575.62, -187.85)" gradientUnits="userSpaceOnUse"><stop offset="0" stop-color="#fff"/><stop offset="0.59" stop-color="#ececec"/><stop offset="0.78" stop-color="#d9d9d9"/><stop offset="1" stop-color="#bebebe"/></radialGradient><radialGradient id="radial-gradient-3" cx="146.63" cy="176.86" r="103.76" gradientTransform="matrix(1, 0, 0, 1, 0, 0)" xlink:href="#radial-gradient-2"/><radialGradient id="radial-gradient-4" cx="-47.72" cy="-126.73" r="102.31" gradientTransform="matrix(1, 0, 0, 0.24, 192.96, 236.62)" xlink:href="#radial-gradient"/><radialGradient id="radial-gradient-5" cx="-1720.39" cy="-1384.55" r="122.18" gradientTransform="matrix(-1, 0, 0, -0.28, -1575.63, -201.3)" xlink:href="#radial-gradient-2"/><radialGradient id="radial-gradient-6" cx="146.37" cy="164.97" r="83.9" gradientTransform="matrix(1, 0, 0, 1, 0, 0)" xlink:href="#radial-gradient-2"/><radialGradient id="radial-gradient-7" cx="-47.72" cy="-147.06" r="84.55" gradientTransform="matrix(1, 0, 0, 0.24, 192.95, 221.27)" xlink:href="#radial-gradient"/><radialGradient id="radial-gradient-8" cx="-1720.56" cy="-1366.19" r="100.98" gradientTransform="matrix(-1, 0, 0, -0.28, -1575.63, -214.44)" xlink:href="#radial-gradient-2"/><radialGradient id="radial-gradient-9" cx="146.18" cy="151.67" r="69.34" gradientTransform="matrix(1, 0, 0, 1, 0, 0)" xlink:href="#radial-gradient-2"/><radialGradient id="radial-gradient-10" cx="-47.72" cy="-104.57" r="131.22" gradientTransform="matrix(1, 0, 0, 0.24, 192.97, 253.36)" xlink:href="#radial-gradient"/><radialGradient id="radial-gradient-11" cx="-1720.12" cy="-1403.5" r="156.71" gradientTransform="matrix(-1, 0, 0, -0.28, -1575.62, -187.74)" xlink:href="#radial-gradient-2"/><radialGradient id="radial-gradient-12" cx="146.68" cy="175.69" r="107.6" gradientTransform="matrix(1, 0, 0, 1, 0, 0)" xlink:href="#radial-gradient-2"/><radialGradient id="radial-gradient-13" cx="-47.72" cy="-126.84" r="106.09" gradientTransform="matrix(1, 0, 0, 0.24, 192.96, 236.54)" xlink:href="#radial-gradient"/><radialGradient id="radial-gradient-14" cx="-1720.35" cy="-1384.02" r="126.71" gradientTransform="matrix(-1, 0, 0, -0.28, -1575.63, -201.68)" xlink:href="#radial-gradient-2"/><radialGradient id="radial-gradient-15" cx="146.41" cy="163.36" r="87.01" gradientTransform="matrix(1, 0, 0, 1, 0, 0)" xlink:href="#radial-gradient-2"/><radialGradient id="radial-gradient-16" cx="-47.72" cy="-147.93" r="87.68" gradientTransform="matrix(1, 0, 0, 0.24, 192.95, 220.62)" xlink:href="#radial-gradient"/><radialGradient id="radial-gradient-17" cx="-1720.53" cy="-1364.98" r="104.71" gradientTransform="matrix(-1, 0, 0, -0.28, -1575.63, -215.31)" xlink:href="#radial-gradient-2"/><radialGradient id="radial-gradient-18" cx="146.21" cy="149.57" r="71.91" gradientTransform="matrix(1, 0, 0, 1, 0, 0)" xlink:href="#radial-gradient-2"/><linearGradient id="linear-gradient" x1="145.67" y1="187.79" x2="145.67" y2="331.83" gradientUnits="userSpaceOnUse"><stop offset="0.19" stop-color="#e93246"/><stop offset="0.34" stop-color="#c32534"/><stop offset="0.56" stop-color="#93151e"/><stop offset="0.74" stop-color="#6f0a0e"/><stop offset="0.9" stop-color="#5a0304"/><stop offset="1" stop-color="#520000"/></linearGradient><radialGradient id="radial-gradient-19" cx="-46.8" cy="-157.7" r="45.11" gradientTransform="matrix(1, 0, 0, 0.24, 192.95, 213.24)" gradientUnits="userSpaceOnUse"><stop offset="0.38" stop-color="#7a7c7d"/><stop offset="0.44" stop-color="#8e8f90"/><stop offset="0.63" stop-color="#bebfc0"/><stop offset="0.79" stop-color="#e2e2e2"/><stop offset="0.92" stop-color="#f7f7f7"/><stop offset="1" stop-color="#fff"/></radialGradient></defs><title>1835</title><g class="cls-1"><g id="Design"><path class="cls-2" d="M273.53,227.18c0,16.88-57.42,30.56-128.26,30.56S17,244.06,17,227.18s57.42-30.56,128.25-30.56S273.53,210.3,273.53,227.18Z" transform="translate(-12.27 -157.5)"/><path class="cls-3" d="M39,213.77c0-14.07,47.85-25.48,106.89-25.48s106.88,11.41,106.88,25.48-47.85,25.46-106.88,25.46S39,227.83,39,213.77Z" transform="translate(-12.27 -157.5)"/><path class="cls-4" d="M252.72,213.77v10.32c0,10.55-26.89,19.6-65.23,23.46a415.86,415.86,0,0,1-41.65,2,416.41,416.41,0,0,1-42-2.05C65.67,243.63,39,234.6,39,224.09V213.77c0,10.51,26.72,19.53,64.85,23.42a416.53,416.53,0,0,0,42,2c14.76,0,28.82-.71,41.62-2C225.81,233.37,252.72,224.32,252.72,213.77Z" transform="translate(-12.27 -157.5)"/><path class="cls-5" d="M249,205.66c0,13.65-46.43,24.72-103.71,24.72s-103.7-11.07-103.7-24.72S88,181,145.27,181,249,192,249,205.66Z" transform="translate(-12.27 -157.5)"/><path class="cls-6" d="M59.31,194.82c0-11.37,38.69-20.6,86.42-20.6s86.42,9.23,86.42,20.6-38.69,20.59-86.42,20.59S59.31,206.19,59.31,194.82Z" transform="translate(-12.27 -157.5)"/><path class="cls-7" d="M59.31,203.17c0,11.37,38.69,20.59,86.42,20.59s86.42-9.22,86.42-20.59v-8.35c0,11.37-38.69,20.59-86.42,20.59s-86.42-9.22-86.42-20.59Z" transform="translate(-12.27 -157.5)"/><path class="cls-8" d="M231,185.3c0,11.28-38.36,20.43-85.7,20.43s-85.7-9.15-85.7-20.43,38.37-20.42,85.7-20.42S231,174,231,185.3Z" transform="translate(-12.27 -157.5)"/><path class="cls-9" d="M74.23,176.34c0-9.4,32-17,71.42-17s71.42,7.62,71.42,17-32,17-71.42,17S74.23,185.74,74.23,176.34Z" transform="translate(-12.27 -157.5)"/><path class="cls-10" d="M74.23,183.25c0,9.39,32,17,71.42,17s71.42-7.62,71.42-17v-6.91c0,9.4-32,17-71.42,17s-71.42-7.62-71.42-17Z" transform="translate(-12.27 -157.5)"/><path class="cls-11" d="M278.28,227.87c0,17.5-59.55,31.69-133,31.69s-133-14.19-133-31.69,59.54-31.69,133-31.69S278.28,210.36,278.28,227.87Z" transform="translate(-12.27 -157.5)"/><path class="cls-12" d="M35,214c0-14.59,49.63-26.42,110.85-26.42S256.7,199.37,256.7,214s-49.62,26.41-110.84,26.41S35,228.55,35,214Z" transform="translate(-12.27 -157.5)"/><path class="cls-13" d="M256.7,214v10.71c0,10.94-27.89,20.32-67.65,24.33-13.28,1.34-27.87,2.08-43.19,2.08a431.59,431.59,0,0,1-43.6-2.13C62.72,244.93,35,235.57,35,224.67V214c0,10.9,27.71,20.26,67.25,24.29a431.72,431.72,0,0,0,43.6,2.12c15.31,0,29.89-.74,43.16-2.07C228.79,234.29,256.7,224.9,256.7,214Z" transform="translate(-12.27 -157.5)"/><path class="cls-14" d="M252.82,205.56c0,14.15-48.15,25.63-107.55,25.63S37.73,219.71,37.73,205.56s48.15-25.63,107.54-25.63S252.82,191.4,252.82,205.56Z" transform="translate(-12.27 -157.5)"/><path class="cls-15" d="M56.12,194.31c0-11.79,40.13-21.36,89.63-21.36s89.62,9.57,89.62,21.36-40.13,21.36-89.62,21.36S56.12,206.11,56.12,194.31Z" transform="translate(-12.27 -157.5)"/><path class="cls-16" d="M56.12,203c0,11.8,40.13,21.36,89.63,21.36s89.62-9.56,89.62-21.36v-8.66c0,11.8-40.13,21.36-89.62,21.36s-89.63-9.56-89.63-21.36Z" transform="translate(-12.27 -157.5)"/><path class="cls-17" d="M234.15,184.44c0,11.7-39.79,21.18-88.88,21.18S56.4,196.14,56.4,184.44s39.79-21.17,88.87-21.17S234.15,172.75,234.15,184.44Z" transform="translate(-12.27 -157.5)"/><path class="cls-18" d="M71.6,175.15c0-9.75,33.16-17.65,74.06-17.65s74.07,7.9,74.07,17.65-33.16,17.65-74.07,17.65S71.6,184.9,71.6,175.15Z" transform="translate(-12.27 -157.5)"/><path class="cls-19" d="M71.6,182.31c0,9.74,33.16,17.65,74.06,17.65s74.07-7.91,74.07-17.65v-7.16c0,9.75-33.16,17.65-74.07,17.65S71.6,184.9,71.6,175.15Z" transform="translate(-12.27 -157.5)"/><path class="cls-20" d="M128,186.17" transform="translate(-12.27 -157.5)"/><path class="cls-21" d="M164.11,187.21l2.54,5v7.92l10.69,14.4v9.37l11.88,14.7v10.76l0,0c-13.35,1.34-28,2.09-43.4,2.09a435.41,435.41,0,0,1-43.8-2.14V238.61l11.88-14.7v-9.37l10.69-14.4v-7.92l4.16-4.89c-23.76-1.58-41.06-6.41-41.06-12.12,0-7,25.93-12.66,57.93-12.66s57.94,5.67,57.94,12.66C203.6,180.79,187.05,185.53,164.11,187.21Z" transform="translate(-12.27 -157.5)"/><path class="cls-22" d="M191.91,174.61c0,6-20.47,10.9-45.72,10.9s-45.72-4.88-45.72-10.9,20.47-10.89,45.72-10.89S191.91,168.59,191.91,174.61Z" transform="translate(-12.27 -157.5)"/></g></g></svg>