<svg xmlns="http://www.w3.org/2000/svg" viewBox="0 0 149.37 156.27"><defs><style>.cls-1{isolation:isolate;}.cls-2{fill:#222;}.cls-3{opacity:0.1;mix-blend-mode:multiply;}.cls-4{fill:#231f20;}</style></defs><title>Sans titre - 1</title><g class="cls-1"><g id="Calque_1" data-name="Calque 1"><path class="cls-2" d="M673.4,1196.27l-26.86-12.38-.39,0v-.11L635,1175.39v.07a7.52,7.52,0,0,0-1.91-3.61l-.14.16v-13.86a79.24,79.24,0,0,0,6.89-12.69c1.69-1.1,7.08-5.33,7.34-12.65.23-6.58-2-8.16-3.94-8.2.48-4.57,2.84-37.78-31-37.78-36.33,0-31.18,38.31-31.18,38.31h0c-1.9.24-3.93,1.66-3.61,7.67a16.71,16.71,0,0,0,7.34,12.65,79.33,79.33,0,0,0,6.85,12.64V1172a7.6,7.6,0,0,0-1.8,3.48l-11.11,8.37v.48l-26,12a17.29,17.29,0,0,0-9.72,12.35l-4.61,23.32s4.44,11.16,74.69,11.16,74.69-11.16,74.69-11.16l-4.61-23.32A17.29,17.29,0,0,0,673.4,1196.27Z" transform="translate(-538.36 -1086.83)"/><g class="cls-3"><path class="cls-4" d="M673.4,1196.27l-26.86-12.38-.39,0v-.11L635,1175.39v.07a7.52,7.52,0,0,0-1.91-3.61l-.14.16v-13.86a79.24,79.24,0,0,0,6.89-12.69c1.69-1.1,7.08-5.33,7.34-12.65.23-6.58-2-8.16-3.94-8.2.48-4.53,2.79-37.23-30.17-37.77V1243.1h0c70.25,0,74.69-11.16,74.69-11.16l-4.61-23.32A17.29,17.29,0,0,0,673.4,1196.27Z" transform="translate(-538.36 -1086.83)"/></g></g></g></svg>