<svg id="Layer_1" data-name="Layer 1" xmlns="http://www.w3.org/2000/svg" xmlns:xlink="http://www.w3.org/1999/xlink" viewBox="0 0 871.81 481.48"><defs><style>.cls-1{fill:#fff;}.cls-2{fill:#322d43;}.cls-3{fill:#020102;}.cls-4{opacity:0.2;fill:url(#Dégradé_sans_nom_20);}.cls-5{fill:#414042;opacity:0.5;}.cls-6{fill:url(#Dégradé_sans_nom_29);}.cls-7{fill:url(#Dégradé_sans_nom_29-2);}.cls-10,.cls-8{fill:#231f20;}.cls-9{fill:#a9123c;}.cls-10,.cls-12,.cls-13,.cls-14{opacity:0.3;}.cls-11{fill:url(#Nouvelle_nuance_de_dégradé_1);}.cls-12{fill:url(#linear-gradient);}.cls-13{fill:url(#linear-gradient-2);}.cls-14{fill:url(#linear-gradient-3);}.cls-15{fill:url(#Dégradé_sans_nom_20-2);}.cls-16{fill:url(#Dégradé_sans_nom_27);}.cls-17{fill:url(#Dégradé_sans_nom_27-2);}.cls-18{fill:#d91b5c;}.cls-19{isolation:isolate;}.cls-20{fill:#22252c;}</style><linearGradient id="Dégradé_sans_nom_20" x1="375.24" y1="385.62" x2="597.31" y2="385.62" gradientUnits="userSpaceOnUse"><stop offset="0" stop-color="#3f3250"/><stop offset="0.42" stop-color="#3f3250"/><stop offset="0.48" stop-color="#443150"/><stop offset="0.56" stop-color="#532f52"/><stop offset="0.64" stop-color="#6c2b53"/><stop offset="0.73" stop-color="#8e2656"/><stop offset="0.82" stop-color="#b9205a"/><stop offset="0.88" stop-color="#d91b5c"/><stop offset="0.98" stop-color="#d91b5c"/><stop offset="1" stop-color="#d91b5c"/></linearGradient><linearGradient id="Dégradé_sans_nom_29" x1="953.15" y1="536.83" x2="503.21" y2="536.83" gradientUnits="userSpaceOnUse"><stop offset="0.01" stop-color="#e9d6b7"/><stop offset="0.12" stop-color="#ead7b9"/><stop offset="0.16" stop-color="#efdac0"/><stop offset="0.19" stop-color="#f8dfcb"/><stop offset="0.2" stop-color="#fae0ce"/><stop offset="0.23" stop-color="#edd4c5"/><stop offset="0.29" stop-color="#cbb5af"/><stop offset="0.36" stop-color="#95828a"/><stop offset="0.46" stop-color="#4a3c57"/><stop offset="0.47" stop-color="#3f3250"/><stop offset="0.67" stop-color="#3f3250"/><stop offset="0.7" stop-color="#443150"/><stop offset="0.73" stop-color="#532f52"/><stop offset="0.77" stop-color="#6c2b53"/><stop offset="0.81" stop-color="#8e2656"/><stop offset="0.85" stop-color="#b9205a"/><stop offset="0.88" stop-color="#d91b5c"/><stop offset="0.98" stop-color="#d91b5c"/><stop offset="1" stop-color="#d91b5c"/></linearGradient><linearGradient id="Dégradé_sans_nom_29-2" x1="421.36" y1="327.99" x2="410.51" y2="327.99" xlink:href="#Dégradé_sans_nom_29"/><linearGradient id="Nouvelle_nuance_de_dégradé_1" x1="339.15" y1="85.24" x2="304.75" y2="500.05" xlink:href="#Dégradé_sans_nom_29"/><linearGradient id="linear-gradient" x1="322.01" y1="599.33" x2="270.78" y2="475.13" gradientUnits="userSpaceOnUse"><stop offset="0"/><stop offset="1" stop-color="#fff" stop-opacity="0"/></linearGradient><linearGradient id="linear-gradient-2" x1="431.14" y1="234.32" x2="68.26" y2="278.2" gradientUnits="userSpaceOnUse"><stop offset="0" stop-color="#fff"/><stop offset="1" stop-color="#fff" stop-opacity="0"/></linearGradient><linearGradient id="linear-gradient-3" x1="242.52" y1="662.05" x2="379.69" y2="495.74" xlink:href="#linear-gradient-2"/><linearGradient id="Dégradé_sans_nom_20-2" x1="305.81" y1="293.73" x2="904.63" y2="293.73" xlink:href="#Dégradé_sans_nom_20"/><linearGradient id="Dégradé_sans_nom_27" x1="913.49" y1="538.93" x2="641.39" y2="538.93" gradientUnits="userSpaceOnUse"><stop offset="0" stop-color="#3f3250"/><stop offset="0.2" stop-color="#3f3250"/><stop offset="0.28" stop-color="#443150"/><stop offset="0.38" stop-color="#532f52"/><stop offset="0.48" stop-color="#6c2b53"/><stop offset="0.6" stop-color="#8e2656"/><stop offset="0.72" stop-color="#b9205a"/><stop offset="0.79" stop-color="#d91b5c"/><stop offset="0.97" stop-color="#d91b5c"/><stop offset="1" stop-color="#d91b5c"/></linearGradient><linearGradient id="Dégradé_sans_nom_27-2" x1="681.19" y1="491.71" x2="633.91" y2="491.71" xlink:href="#Dégradé_sans_nom_27"/></defs><title>483</title><path class="cls-1" d="M496.9,485.71l-4.51-6.93h0l-2.58-4-3.88-6h.06L375.24,296.12q10.63-.55,21.34-1,59.43-2.61,120.92-2.64c156.51,0,304.44,13.07,435.65,36.32V295C821.94,271.75,674,258.67,517.5,258.67S213.06,271.75,81.85,295V640.74h871.3V521.9c-133.07-23.19-283.06-36.23-441.74-36.23Q504.14,485.67,496.9,485.71Z" transform="translate(-81.85 -159.26)"/><path class="cls-1" d="M953.66,505c-133.2-23.24-283.37-36.32-442.25-36.32q-12.77,0-25.47.11l3.83,6,2.62,4q10.91-.1,21.89-.11h3.22c156.51,0,304.44,13.07,435.65,36.32v6.91l.52.09Z" transform="translate(-81.85 -159.26)"/><path class="cls-2" d="M81.85,159.26V295C213.06,271.75,361,258.67,517.5,258.67S821.94,271.75,953.15,295V159.26Z" transform="translate(-81.85 -159.26)"/><path class="cls-3" d="M953.15,295V280C821.94,256.75,674,243.67,517.5,243.67c-58.83,0-116.45,1.85-172.43,5.39l9.26,14.44c53.07-3.17,107.57-4.83,163.17-4.83C674,258.67,821.94,271.75,953.15,295Z" transform="translate(-81.85 -159.26)"/><path class="cls-4" d="M597.31,293.61q-39.49-1.13-79.81-1.15-72.48,0-142.26,3.66L492.36,478.79Z" transform="translate(-81.85 -159.26)"/><path class="cls-5" d="M532.7,541.72l4.51,7c61.38.43,121.37,2.87,179.48,7.15L712,548.55C653.92,544.39,594,542.05,532.7,541.72Z" transform="translate(-81.85 -159.26)"/><path class="cls-6" d="M503.21,495.71l29.5,46c150.88.82,293.49,13.78,420.44,36.27V532C821.94,508.75,674,495.67,517.5,495.67Q510.34,495.67,503.21,495.71Z" transform="translate(-81.85 -159.26)"/><polygon class="cls-7" points="421.36 336.45 421.36 336.45 410.5 319.52 421.36 336.45"/><path class="cls-8" d="M532.7,541.72l11,17.08,38.61-16.36Q557.64,541.87,532.7,541.72Z" transform="translate(-81.85 -159.26)"/><path class="cls-9" d="M325.64,218.75l28.69,44.75q31.29-1.87,63.23-3L370.47,239.1l-44.83-20.35Z" transform="translate(-81.85 -159.26)"/><polygon class="cls-10" points="274.81 73.56 243.79 59.48 461.8 399.54 479.1 392.21 274.81 73.56"/><path class="cls-11" d="M325.64,218.75A2355.23,2355.23,0,0,0,81.85,248.37V595C213.06,571.75,361,558.67,517.5,558.67q13.12,0,26.15.13Z" transform="translate(-81.85 -159.26)"/><path class="cls-12" d="M485.75,468.48,81.85,338.77V595C213.06,571.75,361,558.67,517.5,558.67q13.12,0,26.15.13Z" transform="translate(-81.85 -159.26)"/><polygon class="cls-13" points="272.48 104.24 0 211.63 0 435.73 339.09 208.14 272.48 104.24"/><path class="cls-14" d="M420.94,367.4,81.85,595C213.06,571.75,361,558.67,517.5,558.67q13.12,0,26.15.13Z" transform="translate(-81.85 -159.26)"/><path class="cls-15" d="M517.5,258.67c-55.6,0-110.11,1.65-163.17,4.82l20.91,32.62q69.67-3.61,142.26-3.66c156.51,0,304.44,13.07,435.65,36.32V295C821.94,271.75,674,258.67,517.5,258.67Z" transform="translate(-81.85 -159.26)"/><path class="cls-5" d="M953.15,328.78v-12C821.94,293.53,674,280.46,517.5,280.46c-50.9,0-100.89,1.39-149.69,4.06l7.44,11.6q69.66-3.61,142.26-3.66C674,292.46,821.94,305.53,953.15,328.78Z" transform="translate(-81.85 -159.26)"/><path class="cls-16" d="M669.88,482.88l53.55,83.53c80.71,6.15,157.73,15.84,229.72,28.59V515C865.39,499.45,770.16,488.45,669.88,482.88Z" transform="translate(-81.85 -159.26)"/><path class="cls-17" d="M669.88,482.88h0l-36,15.24q23.81,1,47.26,2.42h0Z" transform="translate(-81.85 -159.26)"/><path class="cls-18" d="M480.25,605.63c-.46.11-.57,0-.53-.42v-.42a1.38,1.38,0,0,1,.72-1.48,4.23,4.23,0,0,0,2-4.19,2.25,2.25,0,0,0-1.14-1.75C476,594.1,470.51,591,465,587.86a.75.75,0,0,0-1,0c-.65.49-1.29.91-2,1.37a.74.74,0,0,0-.34.53c-.42,1.9-.8,3.77-1.33,5.63a1.47,1.47,0,0,1-1.45,1.18,5,5,0,0,1-2.78-.3,1.87,1.87,0,0,1-1.14-1.83,19.71,19.71,0,0,1,.53-4.95c.15-.76.3-1.48.46-2.25a3.22,3.22,0,0,1,1.29-2.05c1.83-1.33,3.65-2.7,5.48-4.07a7.27,7.27,0,0,1,1-.61,1.43,1.43,0,0,1,.8,0c4,1,7.08,4.15,10.58,6.2a1.51,1.51,0,0,0,1.22.19c5.33-1.29,10.58-2.93,15.91-4.22a1,1,0,0,1,.3,0V572.53a1.87,1.87,0,0,0-1.86-1.86h-53a1.87,1.87,0,0,0-1.86,1.86v12.06c3.23,1,6.51,1.83,9.74,2.85,1.6.49,2.82-.19,4-1,2.28-1.45,4.57-2.89,6.85-4.38a1.29,1.29,0,0,1,1-.08,2.42,2.42,0,0,1,.68.23c.3.15.76.23.8.57s-.42.38-.65.53c-.8.57-1.6,1.07-2.36,1.67a3.75,3.75,0,0,0-1,2.13c-.49,1.79-.76,3.58-1.1,5.37a9.76,9.76,0,0,0,0,2.36,2.73,2.73,0,0,0,1.37,2.17,7.64,7.64,0,0,0,4.68.68,1.55,1.55,0,0,0,1.33-1,14.78,14.78,0,0,0,1.14-3.54c.15-.76.34-1.52.46-2.28a3,3,0,0,1,1.64-1.9.65.65,0,0,1,.38,0c2.66,1.41,5.21,2.89,7.8,4.45s5.18,3,7.8,4.45c1.37.76,1.52,1.71.53,3.23s-1.86,1.52-3.58.42a23.1,23.1,0,0,0-3.61-2.13c-.3-.11-.57-.08-.88-.19a.43.43,0,0,0-.53.3c-.08.19.11.3.27.42,1,.65,2.05,1.14,3,1.71a17.07,17.07,0,0,1,2.63,1.67,1.48,1.48,0,0,1,.42,1.67,4.74,4.74,0,0,1-1.37,2.25,1.05,1.05,0,0,1-1.22.27,26,26,0,0,1-3.5-1.9c-.8-.46-1.56-1-2.4-1.37a.59.59,0,0,0-.8.11.13.13,0,0,0,0,.08c-.23.38.19.42.38.57,1.14.68,2.28,1.37,3.39,2.05.42.27.8.57,1.26.88a.92.92,0,0,1,.38,1,5.9,5.9,0,0,1-1,2.09,1.65,1.65,0,0,1-2.55.38c-1.14-.72-2.28-1.33-3.46-1.94a1.68,1.68,0,0,0-.61-.23c-.11,0-.34-.08-.38.08a.41.41,0,0,0,.19.42c.53.34,1.1.65,1.64,1a1.55,1.55,0,0,1,.57,2.09A4.11,4.11,0,0,1,467.5,615a1.3,1.3,0,0,1-1.07,0c-.91-.34-1-.68-.49-1.48a2.76,2.76,0,0,0-.34-3.2,5,5,0,0,0-3.2-1.79.77.77,0,0,1-.68-.57,4.2,4.2,0,0,0-2.89-2.59,3.46,3.46,0,0,0-2.74.38c-.72.38-.72.38-1.1-.38a2.34,2.34,0,0,0-.91-.91,3.91,3.91,0,0,0-1.86-.38,2.5,2.5,0,0,0-1.86.65c-.34.38-.72.88-1.18,1s-.8-.49-1.22-.76a5.05,5.05,0,0,0-2.63-1,2.07,2.07,0,0,0-1.75,1.18,1,1,0,0,1-1.33.49c-2.13-.65-4.22-1.26-6.32-1.86v21.65a1.87,1.87,0,0,0,1.86,1.86h53a1.87,1.87,0,0,0,1.86-1.86V602.21l-5.4,1.52C484.89,604.38,482.57,605,480.25,605.63Zm-34.63,4.76a4,4,0,0,1-2.25-1.33,1.38,1.38,0,0,1-.15-1.71,8.41,8.41,0,0,1,1.07-1.52,1.55,1.55,0,0,1,1.29-.76,3.12,3.12,0,0,1,2.17.91,1.67,1.67,0,0,1,.3,2.55c-.3.49-.72.91-1.07,1.37a1.36,1.36,0,0,1-1.37.49Zm4.68,2.7c-1-.3-1.94-.57-2.36-1.64a1.19,1.19,0,0,1,.08-1.18c1-1.56,2.05-3.16,3.08-4.72a.44.44,0,0,1,.34-.23,3.73,3.73,0,0,1,3.23,1.45.93.93,0,0,1,.23.61,6,6,0,0,1-.27.76,26.1,26.1,0,0,1-2.25,4.19C451.75,613.32,451.45,613.47,450.31,613.09Zm4.83,3a15.13,15.13,0,0,1-1.83-1.07c-.76-.57-.88-.88-.46-1.75.8-1.71,1.71-3.39,2.63-5.06l.57-1a1.21,1.21,0,0,1,1.29-.76,3.09,3.09,0,0,1,3.16,1.83.8.8,0,0,1,0,.91,62.64,62.64,0,0,1-4.19,6.62A.75.75,0,0,1,455.14,616.13Zm9.74-3.5a24.51,24.51,0,0,1-3,5.9c-.15.19-.68.84-1,.72l-.8-.27c-.53-.19-1.07-.38-1.56-.61-.91-.42-1.22-1.07-.76-1.94a65.31,65.31,0,0,1,3.58-6.09c.3-.49.8-.42,1.22-.38a3.07,3.07,0,0,1,2.09,1.33,1.38,1.38,0,0,1,.19,1.33Z" transform="translate(-81.85 -159.26)"/><g class="cls-19"><path class="cls-20" d="M500.34,608V596.58h3.54a5.38,5.38,0,0,1,2.7.68,4.82,4.82,0,0,1,1.86,1.94,5.86,5.86,0,0,1,.68,2.85v.53a6.3,6.3,0,0,1-.65,2.85,4.59,4.59,0,0,1-1.86,1.94,5.38,5.38,0,0,1-2.7.68h-3.58Zm2.36-9.51v7.65h1.14a2.6,2.6,0,0,0,2.13-.91,4.19,4.19,0,0,0,.76-2.59V602a3.93,3.93,0,0,0-.72-2.63,2.55,2.55,0,0,0-2.13-.91Z" transform="translate(-81.85 -159.26)"/><path class="cls-20" d="M517.7,603h-4.53v3.08h5.33V608h-7.69V596.58h7.65v1.9h-5.29v2.74h4.53Z" transform="translate(-81.85 -159.26)"/><path class="cls-20" d="M528.84,604.19a3.89,3.89,0,0,1-1.37,2.89,4.74,4.74,0,0,1-3.23,1.07,4.28,4.28,0,0,1-3.46-1.48,6.13,6.13,0,0,1-1.26-4.07v-.68a6.88,6.88,0,0,1,.57-2.89,4.41,4.41,0,0,1,1.67-1.94,4.5,4.5,0,0,1,7.12,3.35h-2.4a2.58,2.58,0,0,0-.61-1.6,2.18,2.18,0,0,0-1.6-.49,1.93,1.93,0,0,0-1.75.84,4.77,4.77,0,0,0-.61,2.63v.88a5,5,0,0,0,.57,2.7,2,2,0,0,0,1.79.88,2.34,2.34,0,0,0,1.64-.49,2.11,2.11,0,0,0,.61-1.56Z" transform="translate(-81.85 -159.26)"/><path class="cls-20" d="M537.25,603h-4.53v3.08h5.33V608h-7.69V596.58H538v1.9h-5.29v2.74h4.53Z" transform="translate(-81.85 -159.26)"/></g><g class="cls-19"><path class="cls-20" d="M548.75,608h-2.36l-4.6-7.53V608h-2.36V596.58h2.36l4.6,7.53v-7.53h2.36Z" transform="translate(-81.85 -159.26)"/></g><g class="cls-19"><path class="cls-20" d="M559.17,598.48h-3.5V608h-2.36v-9.51h-3.46v-1.9h9.32v1.9Z" transform="translate(-81.85 -159.26)"/><path class="cls-20" d="M564.77,603.81H562.9V608h-2.36V596.58h4.26a4.7,4.7,0,0,1,3.12.91A3.15,3.15,0,0,1,569,600a3.2,3.2,0,0,1-2,3.2l2.47,4.68V608H567Zm-1.86-1.9h1.9a1.86,1.86,0,0,0,1.37-.46,1.58,1.58,0,0,0,.49-1.26,1.7,1.7,0,0,0-.46-1.26,1.9,1.9,0,0,0-1.41-.46h-1.9v3.42Z" transform="translate(-81.85 -159.26)"/><path class="cls-20" d="M577.25,605.63H573.1l-.8,2.36h-2.51l4.26-11.45h2.17l4.3,11.45H578Zm-3.46-1.9h2.85l-1.45-4.26Z" transform="translate(-81.85 -159.26)"/><path class="cls-20" d="M584,606.09h5V608h-7.34V596.58H584v9.51Z" transform="translate(-81.85 -159.26)"/><path class="cls-20" d="M592.85,608h-2.36V596.58h2.36Z" transform="translate(-81.85 -159.26)"/><path class="cls-20" d="M597.53,606.09h5.78V608H594.6v-1.37l5.67-8.14H594.6v-1.9h8.56v1.37Z" transform="translate(-81.85 -159.26)"/><path class="cls-20" d="M611.68,603h-4.53v3.08h5.33V608H604.8V596.58h7.65v1.9h-5.29v2.74h4.53Z" transform="translate(-81.85 -159.26)"/><path class="cls-20" d="M613.85,608V596.58h3.54a5.38,5.38,0,0,1,2.7.68A4.82,4.82,0,0,1,622,599.2a5.86,5.86,0,0,1,.68,2.85v.53a6.3,6.3,0,0,1-.65,2.85,4.59,4.59,0,0,1-1.86,1.94,5.38,5.38,0,0,1-2.7.68h-3.58Zm2.36-9.51v7.65h1.14a2.6,2.6,0,0,0,2.13-.91,4.19,4.19,0,0,0,.76-2.59V602a3.93,3.93,0,0,0-.72-2.63,2.55,2.55,0,0,0-2.13-.91Z" transform="translate(-81.85 -159.26)"/></g><g class="cls-19"><path class="cls-20" d="M509.32,623.52a3.89,3.89,0,0,1-1.37,2.89,4.74,4.74,0,0,1-3.23,1.07,4.28,4.28,0,0,1-3.46-1.48,6.13,6.13,0,0,1-1.26-4.07v-.68a6.88,6.88,0,0,1,.57-2.89,4.41,4.41,0,0,1,1.67-1.94,4.5,4.5,0,0,1,7.12,3.35H507a2.58,2.58,0,0,0-.61-1.6,2.18,2.18,0,0,0-1.6-.49,1.93,1.93,0,0,0-1.75.84,4.77,4.77,0,0,0-.61,2.63V622a5,5,0,0,0,.57,2.7,2,2,0,0,0,1.79.88,2.34,2.34,0,0,0,1.64-.49,2.11,2.11,0,0,0,.61-1.56Z" transform="translate(-81.85 -159.26)"/><path class="cls-20" d="M515.11,623.14h-1.86v4.19h-2.36V615.87h4.26a4.7,4.7,0,0,1,3.12.91,3.15,3.15,0,0,1,1.1,2.55,3.2,3.2,0,0,1-2,3.2l2.47,4.68v.11h-2.51Zm-1.86-1.94h1.9a1.86,1.86,0,0,0,1.37-.46,1.58,1.58,0,0,0,.49-1.26,1.7,1.7,0,0,0-.46-1.26,1.9,1.9,0,0,0-1.41-.46h-1.9v3.42Z" transform="translate(-81.85 -159.26)"/><path class="cls-20" d="M530.56,621.84a6.56,6.56,0,0,1-.61,3,4.35,4.35,0,0,1-1.71,2,4.73,4.73,0,0,1-2.55.68,4.83,4.83,0,0,1-2.55-.68,4.26,4.26,0,0,1-1.71-1.94,6.51,6.51,0,0,1-.61-2.93v-.57a6.56,6.56,0,0,1,.61-3,4.62,4.62,0,0,1,1.71-2,4.73,4.73,0,0,1,2.55-.68,4.83,4.83,0,0,1,2.55.68,4.38,4.38,0,0,1,1.71,2,6.68,6.68,0,0,1,.61,3Zm-2.4-.49a4.94,4.94,0,0,0-.65-2.74,2.11,2.11,0,0,0-1.83-1,2.08,2.08,0,0,0-1.83.91,4.8,4.8,0,0,0-.65,2.7v.57a4.8,4.8,0,0,0,.65,2.7,2.29,2.29,0,0,0,3.69,0,4.8,4.8,0,0,0,.65-2.7v-.53Z" transform="translate(-81.85 -159.26)"/><path class="cls-20" d="M541.17,624l1.52-8.14h2.36l-2.55,11.45h-2.36l-1.86-7.65-1.86,7.65h-2.36l-2.55-11.45h2.36l1.56,8.14,1.9-8.14h2Z" transform="translate(-81.85 -159.26)"/><path class="cls-20" d="M546.35,627.32V615.87h3.54a5.38,5.38,0,0,1,2.7.68,4.82,4.82,0,0,1,1.86,1.94,5.86,5.86,0,0,1,.68,2.85v.53a6.3,6.3,0,0,1-.65,2.85,4.59,4.59,0,0,1-1.86,1.94,5.38,5.38,0,0,1-2.7.68h-3.58Zm2.32-9.55v7.65h1.14a2.6,2.6,0,0,0,2.13-.91,4.19,4.19,0,0,0,.76-2.59v-.61a3.93,3.93,0,0,0-.72-2.63,2.55,2.55,0,0,0-2.13-.91h-1.18Z" transform="translate(-81.85 -159.26)"/><path class="cls-20" d="M563.66,622.64h-4.53v4.68h-2.36V615.87h7.46v1.9h-5.1v3h4.53Z" transform="translate(-81.85 -159.26)"/><path class="cls-20" d="M574.28,615.87v7.53a3.79,3.79,0,0,1-1.18,3,5.25,5.25,0,0,1-6.39,0,3.86,3.86,0,0,1-1.22-2.93v-7.61h2.36v7.53a2.22,2.22,0,0,0,.53,1.64,2,2,0,0,0,1.48.53c1.33,0,2-.68,2-2.09v-7.61Z" transform="translate(-81.85 -159.26)"/><path class="cls-20" d="M585.5,627.32h-2.36l-4.6-7.53v7.53h-2.36V615.87h2.36l4.6,7.53v-7.53h2.36Z" transform="translate(-81.85 -159.26)"/><path class="cls-20" d="M587.56,627.32V615.87h3.54a5.38,5.38,0,0,1,2.7.68,4.82,4.82,0,0,1,1.86,1.94,5.86,5.86,0,0,1,.68,2.85v.53a6.3,6.3,0,0,1-.65,2.85,4.59,4.59,0,0,1-1.86,1.94,5.38,5.38,0,0,1-2.7.68h-3.58Zm2.36-9.55v7.65h1.14a2.6,2.6,0,0,0,2.13-.91,4.19,4.19,0,0,0,.76-2.59v-.61a3.93,3.93,0,0,0-.72-2.63,2.55,2.55,0,0,0-2.13-.91h-1.18Z" transform="translate(-81.85 -159.26)"/><path class="cls-20" d="M600.53,627.32h-2.36V615.87h2.36Z" transform="translate(-81.85 -159.26)"/><path class="cls-20" d="M612,627.32h-2.36l-4.6-7.53v7.53H602.7V615.87h2.36l4.6,7.53v-7.53H612Z" transform="translate(-81.85 -159.26)"/><path class="cls-20" d="M623.14,625.88a4.09,4.09,0,0,1-1.79,1.18,7.85,7.85,0,0,1-2.59.42,5.12,5.12,0,0,1-2.59-.65,4.07,4.07,0,0,1-1.71-1.86,6.34,6.34,0,0,1-.61-2.89v-.76a7.12,7.12,0,0,1,.57-3,4.11,4.11,0,0,1,1.67-1.9,4.63,4.63,0,0,1,2.55-.65,5,5,0,0,1,3.2,1,4.24,4.24,0,0,1,1.37,2.82h-2.28a2.46,2.46,0,0,0-.68-1.45,2.16,2.16,0,0,0-1.48-.46,2.08,2.08,0,0,0-1.83.91,4.71,4.71,0,0,0-.65,2.7V622a4.41,4.41,0,0,0,.68,2.7,2.38,2.38,0,0,0,2,.91,2.65,2.65,0,0,0,1.9-.57v-2h-2.13v-1.75h4.38Z" transform="translate(-81.85 -159.26)"/></g><g class="cls-19"><path class="cls-18" d="M510.66,581h-6.85v7.08h-3.58V570.78h11.3v2.89h-7.72v4.49h6.85Z" transform="translate(-81.85 -159.26)"/><path class="cls-18" d="M526.75,570.78v11.42a5.84,5.84,0,0,1-1.79,4.49,6.88,6.88,0,0,1-4.87,1.67,7,7,0,0,1-4.83-1.6,5.84,5.84,0,0,1-1.83-4.41V570.78H517v11.45a3.27,3.27,0,0,0,.8,2.47,3.06,3.06,0,0,0,2.25.8c2,0,3-1.07,3.08-3.16V570.78Z" transform="translate(-81.85 -159.26)"/><path class="cls-18" d="M543.8,588.13h-3.58l-7-11.42v11.42h-3.58V570.78h3.58l7,11.45V570.78h3.58Z" transform="translate(-81.85 -159.26)"/><path class="cls-18" d="M546.92,588.13V570.78h5.33a8.24,8.24,0,0,1,4.11,1,7.21,7.21,0,0,1,2.82,2.93,8.91,8.91,0,0,1,1,4.34v.8a9.3,9.3,0,0,1-1,4.3,7,7,0,0,1-2.82,2.93,8.64,8.64,0,0,1-4.07,1.07h-5.4Zm3.58-14.46v11.61h1.71a3.83,3.83,0,0,0,3.2-1.37,6.4,6.4,0,0,0,1.14-3.92v-1a6.25,6.25,0,0,0-1.1-4,3.83,3.83,0,0,0-3.2-1.37Z" transform="translate(-81.85 -159.26)"/></g><g class="cls-19"><path class="cls-18" d="M566.59,588.13H563V570.78h3.58Z" transform="translate(-81.85 -159.26)"/></g><g class="cls-19"><path class="cls-18" d="M582.61,573.67h-5.33v14.46h-3.58V573.67h-5.25v-2.89h14.16v2.89Z" transform="translate(-81.85 -159.26)"/><path class="cls-18" d="M588.43,588.13h-3.58V570.78h3.58Z" transform="translate(-81.85 -159.26)"/><path class="cls-18" d="M606,579.83a10.4,10.4,0,0,1-.91,4.49,6.83,6.83,0,0,1-2.59,3,7.65,7.65,0,0,1-7.72,0,6.67,6.67,0,0,1-2.63-3,10.3,10.3,0,0,1-1-4.41v-.88a10.69,10.69,0,0,1,.91-4.53,7,7,0,0,1,2.63-3,7.26,7.26,0,0,1,3.84-1,7.17,7.17,0,0,1,3.84,1,6.8,6.8,0,0,1,2.63,3A10.52,10.52,0,0,1,606,579v.8Zm-3.61-.8a7.33,7.33,0,0,0-1-4.15,3.17,3.17,0,0,0-2.78-1.41,3.13,3.13,0,0,0-2.78,1.41,7.28,7.28,0,0,0-1,4.11v.84a7.28,7.28,0,0,0,1,4.11,3.17,3.17,0,0,0,2.82,1.48,3.13,3.13,0,0,0,2.78-1.41,7.6,7.6,0,0,0,1-4.11V579Z" transform="translate(-81.85 -159.26)"/><path class="cls-18" d="M622.72,588.13h-3.58l-7-11.42v11.42H608.6V570.78h3.58l7,11.45V570.78h3.58Z" transform="translate(-81.85 -159.26)"/></g></svg>