<svg xmlns="http://www.w3.org/2000/svg" viewBox="0 0 157.23 122.94"><defs><style>.cls-1{isolation:isolate;}.cls-2{fill:#222;}.cls-3{fill:#4f4f4f;}.cls-4{fill:#fff;}.cls-5{opacity:0.1;}.cls-5,.cls-7{mix-blend-mode:multiply;}.cls-6{fill:#231f20;}.cls-7{opacity:0.2;}</style></defs><title>Sans titre - 1</title><g class="cls-1"><g id="Calque_1" data-name="Calque 1"><rect class="cls-2" width="157.23" height="101.17" rx="6.77" ry="6.77"/><rect class="cls-3" x="10.17" y="10.17" width="136.88" height="80.83" rx="2.1" ry="2.1"/><path class="cls-4" d="M812.41,1277l-8.09-3.73h-.12v0l-3.37-2.54v0a2.27,2.27,0,0,0-.58-1.09l0,0v-4.18a23.88,23.88,0,0,0,2.08-3.82,4.92,4.92,0,0,0,2.21-3.81c.07-2-.6-2.46-1.19-2.47.15-1.38.86-11.39-9.34-11.39-10.95,0-9.4,11.55-9.4,11.55h0c-.57.07-1.19.5-1.09,2.31a5,5,0,0,0,2.21,3.81,23.91,23.91,0,0,0,2.07,3.81v4.18a2.29,2.29,0,0,0-.54,1l-3.35,2.52v.14L776,1277a5.21,5.21,0,0,0-2.93,3.72l-1.39,7s1.34,3.36,22.51,3.36,22.51-3.36,22.51-3.36l-1.39-7A5.21,5.21,0,0,0,812.41,1277Z" transform="translate(-715.4 -1216.9)"/><g class="cls-5"><path class="cls-6" d="M812.41,1277l-8.09-3.73h-.12v0l-3.37-2.54v0a2.27,2.27,0,0,0-.58-1.09l0,0v-4.18a23.88,23.88,0,0,0,2.08-3.82,4.92,4.92,0,0,0,2.21-3.81c.07-2-.6-2.46-1.19-2.47.14-1.37.84-11.22-9.09-11.38v47.09h0c21.17,0,22.51-3.36,22.51-3.36l-1.39-7A5.21,5.21,0,0,0,812.41,1277Z" transform="translate(-715.4 -1216.9)"/></g><rect class="cls-2" x="49.78" y="101.17" width="57.66" height="14.25"/><path class="cls-2" d="M839.9,1332.33H748.13a3.76,3.76,0,0,0-3.76,3.76h0a3.76,3.76,0,0,0,3.76,3.76H839.9a3.76,3.76,0,0,0,3.76-3.76h0A3.76,3.76,0,0,0,839.9,1332.33Z" transform="translate(-715.4 -1216.9)"/><g class="cls-5"><path class="cls-6" d="M744.37,1338.76a1.09,1.09,0,0,0,1.09,1.09h97.11a1.09,1.09,0,0,0,1.09-1.09v-2.84H744.37Z" transform="translate(-715.4 -1216.9)"/></g><g class="cls-5"><rect class="cls-6" x="49.78" y="101.17" width="57.66" height="7.13"/></g><g class="cls-7"><path class="cls-6" d="M727.68,1307.9H860.35a2.1,2.1,0,0,0,2.1-2.1v-76.62a2.09,2.09,0,0,0-.79-1.63l-135.29,79.89A2.08,2.08,0,0,0,727.68,1307.9Z" transform="translate(-715.4 -1216.9)"/></g></g></g></svg>