<svg id="Layer_1" data-name="Layer 1" xmlns="http://www.w3.org/2000/svg" viewBox="0 0 113.76 120"><defs><style>.cls-1{fill:#ea0000;}</style></defs><title>tttArtboard 1</title><path class="cls-1" d="M113.76,38.4v1.44c-.54.58-1.12,1.14-1.62,1.75l-52,63.32c-4.09,5-8.36,9.86-12.17,15.09h-.48c-.45-1-.94-2-1.35-3.07Q23.75,60.51,1.33,4.09A15.43,15.43,0,0,1,0,0H2.88A12.18,12.18,0,0,0,6.12.84q40.8,7.52,81.62,15a9.14,9.14,0,0,1,5,2.59C99.68,25.12,106.74,31.75,113.76,38.4ZM46.83,100l.47-.09c.17-1,.39-2,.51-3,1.84-15.3,3.64-30.61,5.54-45.91a3.79,3.79,0,0,0-1.51-3.91C39.84,37.2,28,27.27,16,17.39A3.77,3.77,0,0,0,13.49,16Zm53.86-55.27a6.73,6.73,0,0,0-3.45.18l-33,6c-4.12.75-4.08.74-4.58,4.9Q57.58,73.36,55.43,91c-.37,3.12-.72,6.25-1.08,9.37l.52.22ZM80.62,22.37l-.13-.82L19.07,10.24l-.22.56,37.9,31.45ZM67.3,42.45l.28.77c11.34-2,22.7-4,34-6.51-4.3-4.15-8.1-8.55-12.83-12.16Z"/></svg>